<svg xmlns="http://www.w3.org/2000/svg" width="1920" height="1440" viewBox="0 0 1920 1440">
  <defs>
    <style>
      .cls-1 {
        fill: #caa583;
        fill-rule: evenodd;
      }

      .cls-2 {
        fill: #fff;
      }
    </style>
  </defs>
  <path class="cls-1" d="M0,0C55.859,10.733,111.01,11.446,165,1c1.675-.324,3.329-0.655,5-1,26.847,1.388,53.118,2.045,80,2,25.2-.042,49.829-0.7,75-2,10.676,1.686,21.2,3,32,4,43.7,4.04,77.541.53,122-2,14.346-.816,28.51-1.474,43-2,7.224,0.367,14.306.793,21.393,1.288C546.929,1.534,550.607,1.475,553,2c16.225,3.56,24.154,21.8,38,21a18.609,18.609,0,0,0,7-2c10.735-4.71,37.486-14.51,55-21,46.017,1.044,90.977,1.372,137,1,21.765-.176,43.24-0.506,65-1a79.659,79.659,0,0,0,11,3c9.714,1.916,21.961,1.3,25,1,18.657-1.859,66.47-3.053,98-4h69a127.756,127.756,0,0,0,22,7,127.737,127.737,0,0,0,29,3c7.03-1.092,13.94-2.078,21-3q43.29-5.652,87-7a371.458,371.458,0,0,1,56.1,0c9.35,0.7,17.84,1.757,26.9,3,44.64,6.128,82.12,1.628,131-1,26.82-1.442,53.43-2.092,81-2a85.746,85.746,0,0,1,19,10c4.07,2.9,10.26,7.913,18,7a20.445,20.445,0,0,0,4-1c8.22-3.152,37.07-11.582,52-16a230.835,230.835,0,0,0,30,3,259.262,259.262,0,0,0,31-1c13.45-1.09,27.48-1.739,42-2a545.135,545.135,0,0,1,70,5c30.72,4.235,55.01,9.286,89,6a251.647,251.647,0,0,0,53-11c0.19,22.15-.47,43.937-2,66-0.3,4.356-.63,8.649-1,13a381.2,381.2,0,0,0,3,119c-0.31,14.326-.96,28.12-2,42-0.99,13.291-2.07,24.672-2,38a294.942,294.942,0,0,0,4,47c-0.37,8.92-1.02,17.494-2,26-1.19,10.324-2.28,19.262-1,31a105.982,105.982,0,0,0,3,16,464.027,464.027,0,0,0,0,122c-2.07,8.591-3.73,17.226-5,26-4.17,28.759-2.61,57.5-1,76,2.13,24.449,4.25,60.145,6,91a118.335,118.335,0,0,0-22,47,167.344,167.344,0,0,0,22,47v59a369.25,369.25,0,0,0,0,170v289c-2.25,15.66-5.69,37.58-9,46a32.024,32.024,0,0,0-2,10,32.5,32.5,0,0,0,1,7c2.4,8.52,7.37,37.73,10,53-58.78.23-116.34-1.42-175-5-46.44-2.84-91.76-6.78-138-12a111.591,111.591,0,0,1-30,13c-16.55,4.41-30.17,3.54-43,3a342.557,342.557,0,0,0-43,1,387.058,387.058,0,0,1-109-13c-5.75-1.55-11.33-3.19-17-5q-13.005,9-26,18c-53.42-1.57-105.56-2.23-159-2-39.95.17-79.07,0.83-119,2-9.29-5.33-24.81-14.33-29-18a8.493,8.493,0,0,0-4-2c-3.38-.52-6.3,1.65-8,3-5.34,4.22-13.22,10.96-20,17-14.427-8.13-37.743-20.78-44-23a16.784,16.784,0,0,0-6-1,15.971,15.971,0,0,0-5,1c-8.076,2.95-22.438,14.73-33,20a65.93,65.93,0,0,1-7,3c-75.05-1.33-148.938-1.99-224-2-76.071-.01-150.941.65-227,2a225.109,225.109,0,0,1-37-8c-6.57-2.05-15.581-4.81-26-5-14.206-.26-23.254,3.53-35,7a181.5,181.5,0,0,1-29,6H113a234.042,234.042,0,0,0-78-6,231.231,231.231,0,0,0-35,6,566.749,566.749,0,0,0,3-64c-0.172-17.74-1.169-35.35-3-53a358.988,358.988,0,0,1,38-65,155.613,155.613,0,0,0-17-27,155.669,155.669,0,0,0-21-22V1009c5.023-30.539,11.16-68.6,14-92,0.508-4.186.866-8.154,1-12,0.885-25.481-7.3-40.941-12-66a177.741,177.741,0,0,1-3-32V578a68.342,68.342,0,0,0,13-14,68.906,68.906,0,0,0,11-26A57.061,57.061,0,0,0,9,513a54.572,54.572,0,0,0-9-7,351.911,351.911,0,0,0,4-35,354.24,354.24,0,0,0-4-80V263a160.666,160.666,0,0,0,15-45c5.466-31.5-.853-54.188-8-91C4.362,113.412,2.07,99.972,0,86A433.338,433.338,0,0,0,2,32C1.727,21.254,1.068,10.7,0,0Z"/>
  <rect class="cls-2" x="50" y="50" width="1820" height="1341"/>
</svg>
