<svg id="clouds" xmlns="http://www.w3.org/2000/svg" width="1147" height="662" viewBox="0 0 1147 662">
  <defs>
    <style>
      .cls-1 {
        fill: #fff;
        fill-rule: evenodd;
      }
    </style>
  </defs>
  <path class="cls-1" d="M122,662h948c59.83-32.643,88.59-100.434,72-161-13.94-50.895-58.24-90.561-114-100A181.624,181.624,0,0,0,760,186C769.078,93.768,701.393,10.877,611,1,518.543-9.1,433.211,60.552,425,155c-63.287-42.582-146.3-41.009-207,3-62.9,45.608-89.657,127.942-65,203C69.8,363.483,3.735,429.9,1,508-1.48,578.807,48.656,644.8,122,662Z"/>
</svg>
