<svg id="clouds" xmlns="http://www.w3.org/2000/svg" width="1409" height="774" viewBox="0 0 1409 774">
  <defs>
    <style>
      .cls-1 {
        fill: #fff;
        fill-rule: evenodd;
      }
    </style>
  </defs>
  <path class="cls-1" d="M64,774H1275c90.05-36.392,143.91-128.564,132-222-11.15-87.452-77.94-160.175-167-179A193.34,193.34,0,0,0,977,192C936.546,63.362,807.567-16.439,677,4,551.013,23.722,454.271,131.982,449,262c-79.708-39.724-173.766-25.17-234,33-52.33,50.537-72.564,127.453-53,200C88.429,493.593,24.273,541.774,6,609-10.211,668.644,12.132,734.5,64,774Z"/>
</svg>
