<svg id="blue" xmlns="http://www.w3.org/2000/svg" width="1920" height="2254" viewBox="0 0 1920 2254">
  <defs>
    <style>
      .cls-1 {
        fill: #fff;
        mix-blend-mode: screen;
      }

      .cls-1, .cls-2 {
        fill-rule: evenodd;
      }

      .cls-2 {
        fill: #baf3ff;
      }

      .cls-3 {
        fill: #cf393e;
      }
    </style>
  </defs>
  <path id="White" class="cls-1" d="M0,0H1920V2254H0V0ZM100,27A50,50,0,1,1,50,77,50,50,0,0,1,100,27Zm0,150a50,50,0,1,1-50,50A50,50,0,0,1,100,177Zm0,150a50,50,0,1,1-50,50A50,50,0,0,1,100,327Zm0,150a50,50,0,1,1-50,50A50,50,0,0,1,100,477Zm0,150a50,50,0,1,1-50,50A50,50,0,0,1,100,627Zm0,150a50,50,0,1,1-50,50A50,50,0,0,1,100,777Zm0,150a50,50,0,1,1-50,50A50,50,0,0,1,100,927Zm0,150a50,50,0,1,1-50,50A50,50,0,0,1,100,1077Zm0,150a50,50,0,1,1-50,50A50,50,0,0,1,100,1227Zm0,150a50,50,0,1,1-50,50A50,50,0,0,1,100,1377Zm0,150a50,50,0,1,1-50,50A50,50,0,0,1,100,1527Zm0,150a50,50,0,1,1-50,50A50,50,0,0,1,100,1677Zm0,150a50,50,0,1,1-50,50A50,50,0,0,1,100,1827Zm0,150a50,50,0,1,1-50,50A50,50,0,0,1,100,1977Zm0,150a50,50,0,1,1-50,50A50,50,0,0,1,100,2127Z"/>
  <g id="blue-2" data-name="blue">
    <path id="blue_2" data-name="blue 2" class="cls-2" d="M50,2172v10H0v-10H50Z"/>
    <path id="blue_1" data-name="blue 1" class="cls-2" d="M1920,2172v10H150v-10H1920Z"/>
  </g>
  <g id="blue-3" data-name="blue">
    <path id="blue_2-2" data-name="blue 2" class="cls-2" d="M50,2022v10H0v-10H50Z"/>
    <path id="blue_1-2" data-name="blue 1" class="cls-2" d="M1920,2022v10H150v-10H1920Z"/>
  </g>
  <g id="blue-4" data-name="blue">
    <path id="blue_2-3" data-name="blue 2" class="cls-2" d="M50,1872v10H0v-10H50Z"/>
    <path id="blue_1-3" data-name="blue 1" class="cls-2" d="M1920,1872v10H150v-10H1920Z"/>
  </g>
  <g id="blue-5" data-name="blue">
    <path id="blue_2-4" data-name="blue 2" class="cls-2" d="M50,1722v10H0v-10H50Z"/>
    <path id="blue_1-4" data-name="blue 1" class="cls-2" d="M1920,1722v10H150v-10H1920Z"/>
  </g>
  <g id="blue-6" data-name="blue">
    <path id="blue_2-5" data-name="blue 2" class="cls-2" d="M50,1572v10H0v-10H50Z"/>
    <path id="blue_1-5" data-name="blue 1" class="cls-2" d="M1920,1572v10H150v-10H1920Z"/>
  </g>
  <g id="blue-7" data-name="blue">
    <path id="blue_2-6" data-name="blue 2" class="cls-2" d="M50,1422v10H0v-10H50Z"/>
    <path id="blue_1-6" data-name="blue 1" class="cls-2" d="M1920,1422v10H150v-10H1920Z"/>
  </g>
  <g id="blue-8" data-name="blue">
    <path id="blue_2-7" data-name="blue 2" class="cls-2" d="M50,1272v10H0v-10H50Z"/>
    <path id="blue_1-7" data-name="blue 1" class="cls-2" d="M1920,1272v10H150v-10H1920Z"/>
  </g>
  <g id="blue-9" data-name="blue">
    <path id="blue_2-8" data-name="blue 2" class="cls-2" d="M50,1122v10H0v-10H50Z"/>
    <path id="blue_1-8" data-name="blue 1" class="cls-2" d="M1920,1122v10H150v-10H1920Z"/>
  </g>
  <g id="blue-10" data-name="blue">
    <path id="blue_2-9" data-name="blue 2" class="cls-2" d="M50,972v10H0V972H50Z"/>
    <path id="blue_1-9" data-name="blue 1" class="cls-2" d="M1920,972v10H150V972H1920Z"/>
  </g>
  <g id="blue-11" data-name="blue">
    <path id="blue_2-10" data-name="blue 2" class="cls-2" d="M50,822v10H0V822H50Z"/>
    <path id="blue_1-10" data-name="blue 1" class="cls-2" d="M1920,822v10H150V822H1920Z"/>
  </g>
  <g id="blue-12" data-name="blue">
    <path id="blue_2-11" data-name="blue 2" class="cls-2" d="M50,672v10H0V672H50Z"/>
    <path id="blue_1-11" data-name="blue 1" class="cls-2" d="M1920,672v10H150V672H1920Z"/>
  </g>
  <g id="blue-13" data-name="blue">
    <path id="blue_2-12" data-name="blue 2" class="cls-2" d="M50,522v10H0V522H50Z"/>
    <path id="blue_1-12" data-name="blue 1" class="cls-2" d="M1920,522v10H150V522H1920Z"/>
  </g>
  <g id="blue-14" data-name="blue">
    <path id="blue_2-13" data-name="blue 2" class="cls-2" d="M50,372v10H0V372H50Z"/>
    <path id="blue_1-13" data-name="blue 1" class="cls-2" d="M1920,372v10H150V372H1920Z"/>
  </g>
  <g id="blue-15" data-name="blue">
    <path id="blue_2-14" data-name="blue 2" class="cls-2" d="M50,222v10H0V222H50Z"/>
    <path id="blue_1-14" data-name="blue 1" class="cls-2" d="M1920,222v10H150V222H1920Z"/>
  </g>
  <rect id="red" class="cls-3" x="200" y="-25" width="10" height="2304"/>
</svg>
