<?xml version="1.0" encoding="utf-8"?>
<!-- Generator: Adobe Illustrator 25.2.1, SVG Export Plug-In . SVG Version: 6.00 Build 0)  -->
<svg version="1.1" xmlns="http://www.w3.org/2000/svg" xmlns:xlink="http://www.w3.org/1999/xlink" x="0px" y="0px"
	 viewBox="0 0 3965 1723" style="enable-background:new 0 0 3965 1723;" xml:space="preserve">
<style type="text/css">
	.st0{fill:#BAF3FF;}
	.st1{fill:#FF4B47;}
	.st2{fill-rule:evenodd;clip-rule:evenodd;fill:#0E315C;}
	.st3{fill-rule:evenodd;clip-rule:evenodd;fill:#0B2551;}
	.st4{fill-rule:evenodd;clip-rule:evenodd;fill:#FF4B47;}
	.st5{fill-rule:evenodd;clip-rule:evenodd;fill:#CF393E;}
	.st6{fill-rule:evenodd;clip-rule:evenodd;fill:#FFA44F;}
	.st7{fill-rule:evenodd;clip-rule:evenodd;fill:#CF7C45;}
	.st8{fill-rule:evenodd;clip-rule:evenodd;fill:#1D66C0;}
	.st9{fill-rule:evenodd;clip-rule:evenodd;fill:#184DA9;}
	.st10{fill-rule:evenodd;clip-rule:evenodd;fill:#FFFFFF;}
</style>
<g id="Adventour_2_">
	<g id="Blue">
		<path class="st0" d="M436.8,594.3c2.5-1.1,5.2-1.9,8-2.2c3.6,0,5.8,1.5,5.8,5.1s-2.9,7.3-8,9.5c-5.8,2.9-11.7,0-11.7-5.1
			C430.9,598.6,433.1,596.4,436.8,594.3z M280.7,785.3c43.8-79.5,80.9-137.8,122.5-170.6c5.8-4.4,10.2-6.6,13.1-6.6s4.4,1.5,4.4,4.4
			c0,4.4-2.9,8.8-9.5,13.9c-37.9,29.1-63.4,72.1-116.6,164.7c-2.2,3.6-7.3,6.6-10.9,6.6s-5.1-1.5-5.1-4.4
			C278.7,790.5,279.4,787.8,280.7,785.3z M786.8,731.3c0-2.2,0-4.4,0.7-5.8c4.4-16,6.6-29.9,6.6-41.6c0-6.9-0.7-13.7-2.2-20.4
			c-1.5-6.6-2.2-10.9-2.2-13.9c0-5.1,2.2-7.3,5.8-7.3s8.8,4.4,9.5,10.9c2.2,10.9,3.6,21.1,3.6,30.6c0,10.2-2.2,25.5-7.3,45.9
			c-1.5,6.6-4.4,10.2-8.8,10.2C789.7,740.1,786.8,737.2,786.8,731.3 M777.3,762.7c0.7-5.1,5.1-8,8-8s5.8,3.6,5.8,7.3
			c0,2.2,0,3.6-0.7,5.1c-2.6,8.7-5.8,17.2-9.5,25.5c-2.9,7.3-5.8,10.9-9.5,10.9c-2.2,0-4.4-3.6-4.4-7.3c0-2.7,0.5-5.5,1.5-8
			L777.3,762.7z M611.8,816.7c3.6-2.2,9.5-4.4,16-6.6c8-2.2,11.7,0.7,11.7,5.8c0,3.6-2.2,6.6-7.3,8l-12.4,5.1
			c-5.8,3.6-13.1,0-13.1-5.8C606.7,821,608.1,818.8,611.8,816.7z M565.8,849.5c4.4-5.1,9.5-9.5,16-14.6c3.6-3.6,7.3-5.1,10.9-5.1
			s5.8,2.2,5.8,5.8c-0.2,4-2.4,7.6-5.8,9.5c-5.9,4.7-11.5,9.8-16.8,15.3c-2.9,2.9-5.8,4.4-9.5,4.4c-3.2,0-5.8-2.5-5.8-5.7
			c0-0.1,0-0.1,0-0.2C560.7,856,562.2,853.1,565.8,849.5z M522.1,1118.5c-19.7,0-35.7-9.5-45.2-24.1c-1.4-2.2-2.1-4.7-2.2-7.3
			c0-3.6,2.9-7.3,6.6-7.3c2.9,0,5.1,1.5,5.8,3.6c6.6,12.4,19.7,20.4,35,20.4c5.8,0,10.9,4.4,10.9,8
			C533,1114.9,528.6,1118.5,522.1,1118.5L522.1,1118.5z M710.9,1135.3c-23.3,0-41.6-13.9-47.4-37.9c-2.2-8.8,1.5-14.6,5.1-14.6
			s6.6,3.6,8.8,10.2c4.4,16.8,15.3,26.2,33.5,27.7c8,0.7,12.4,4.4,12.4,8C723.3,1133.1,718.9,1135.3,710.9,1135.3L710.9,1135.3
			L710.9,1135.3z M549.1,1112.7c-4.4,0-6.6-2.2-6.6-5.8c0-5.1,4.4-8.8,10.2-8.8c3.6,0,7.3,2.9,7.3,6.6S557.1,1112.7,549.1,1112.7z
			 M896.9,854.6c-0.6,4.8-4.6,8.6-9.5,8.8c-3.6,0-5.8-2.2-5.8-6.6l1.5-5.1c5.8-12.4,5.8-32.8,5.8-35.7c0-6.6,3.6-10.2,6.6-10.2
			c5.1,0,8,5.1,8,11.7C903.4,826.1,901.2,838.5,896.9,854.6L896.9,854.6z M1083.5,926.8c-1.5,5.1-3.7,8-7.3,8s-7.3-4.4-7.3-10.2
			c0-2.2,0-3.6,0.7-5.1c2.4-6.9,4.3-14,5.8-21.1c0.7-8,5.1-11.7,8-11.7c4.4,0,6.6,3.6,6.6,10.9c0,2.9,0,5.1-0.7,7.3
			C1088.6,910,1086.5,917.3,1083.5,926.8L1083.5,926.8z M950.8,1088.6c-5.1,2.2-8,3.6-10.2,3.6c-3.6,0-5.8-1.5-5.8-5.1
			c0-4.4,3.6-8.8,10.2-12.4c44.5-24.1,82.4-64.2,107.9-113c4.4-8,8-11.7,11.7-11.7c2.9,0,4.4,2.2,4.4,6.6c0,4.4-1.5,8.8-3.7,13.1
			C1039.1,1020.1,998.2,1062.4,950.8,1088.6z M1255.6,815.2c3.7,0,7.3,2.9,7.3,5.8c0,3.6-4.4,8-10.2,10.2s-10.2-1.5-10.2-5.1
			c0-4.4,2.2-7.3,7.3-9.5L1255.6,815.2z M1198.7,856c6.9-7,14.2-13.5,21.9-19.7c3.7-2.9,6.6-4.4,9.5-4.4s4.4,1.5,4.4,5.1
			s-2.2,8-6.6,11.7s-10.9,9.5-19.7,18.2c-1.6,1.5-3.7,2.2-5.8,2.2c-3.6,0-6.5-2.9-6.6-6.5l0,0C1195.8,860.1,1196.9,857.7,1198.7,856
			L1198.7,856z M1179.1,1112c-10.9-4.4-19-10.2-24.1-18.2c-2.2-2.9-3.7-5.8-3.7-8.8c0-3.6,1.5-5.1,5.1-5.1s6.6,1.5,9.5,4.4
			c6.6,6.6,13.1,11.7,19,14.6c4.4,2.2,6.6,5.1,6.6,8.8c0,3.6-2.2,5.8-6.6,5.8L1179.1,1112z M1208.9,1122.9c-5.1-0.7-8-2.9-8-6.6
			c0-5.1,3.7-8,9.5-8h2.2c5.8,0.7,8.8,4.4,8.8,7.3c0,3.6-3.7,7.3-9.5,7.3L1208.9,1122.9L1208.9,1122.9z M1481.7,810.8
			c-5.1,5.1-13.1,0.7-13.1-5.1s7.3-10.2,12.4-10.2c3.2,0,5.8,2.5,5.8,5.7c0,0.1,0,0.1,0,0.2C1486.8,804.3,1485.3,807.2,1481.7,810.8
			L1481.7,810.8z M1453.9,856c-2.2,5.8-5.8,8.8-9.5,8.8s-5.1-2.2-5.1-6.6c0-3,0.8-6,2.2-8.8l13.1-26.2c2.2-3.6,5.1-5.8,8.8-5.8
			s6.6,3.6,6.6,7.3c0.1,2.2-0.7,4.2-2.2,5.8C1462.4,838.5,1457.7,847.1,1453.9,856L1453.9,856z M1594.7,858.9
			c-2.2,2.9-4.4,4.4-7.3,4.4c-4.4,0-6.6-2.2-6.6-5.8c0-2.2,1.4-5.1,3.6-7.3c21.2-21.1,38.7-32.1,52.5-32.1c5.8,0,8.8,1.5,8.8,5.1
			s-3.6,8.8-8.8,9.5C1624.6,834.9,1607.1,844.4,1594.7,858.9L1594.7,858.9z M1567.7,1135.3c-5.8,0.7-9.5,1.5-11.7,1.5
			c-20.4,0-30.6-13.1-30.6-38.6c0-10.9,3.7-17.5,8.8-17.5c2.9,0,5.8,4.4,5.8,10.2v1.5c-2.2,20.4,4.4,29.2,19.7,29.2
			c3.7,0,5.8,0,8-0.7c3.2-0.6,6.4-0.3,9.5,0.7c2.2,1.5,2.9,2.9,2.9,4.4C1580.1,1129.5,1575.7,1134.6,1567.7,1135.3L1567.7,1135.3z
			 M1766.8,807.2c4.4-10.3,9.5-20.3,15.3-29.9c6.6-10.9,10.2-18.2,12.4-21.9c2.2-4.4,5.1-6.6,8.8-6.6c5.1,0,7.3,2.2,7.3,7.3
			c-0.1,2.4-0.8,4.6-2.2,6.6l-27,46.7c-2.9,5.1-6.6,8-10.2,8s-5.1-2.2-5.1-5.8C1766,809.4,1766,807.9,1766.8,807.2L1766.8,807.2z
			 M1752.2,1121.4c-32.8-1.5-54.7-15.3-64.2-41.6c-1.3-3-2-6.2-2.2-9.5c0-5.1,2.9-8.8,5.8-8.8c3.6,0,6.6,3.6,8.8,10.2
			c7.3,21.9,24.8,33.5,51.8,35c8,0,12.4,3.6,12.4,7.3C1764.6,1117.7,1760.2,1121.4,1752.2,1121.4L1752.2,1121.4z M2047.5,818.1
			c-5.8,0.7-9.5-2.9-9.5-6.6s4.4-8,10.9-8c5.1,0,8,2.2,8,6.6C2057,813,2053.3,817.4,2047.5,818.1L2047.5,818.1z M1977.5,857.5
			c-2.2,2.2-4.4,3.6-6.6,3.6c-3.6,0-6.6-2.9-6.6-6.5c0,0,0,0,0-0.1c0-2.5,1.1-4.9,2.9-6.6c13.9-16,29.9-27.7,48.9-35
			c6.6-2.9,10.9-0.7,10.9,4.4c0,3.6-2.2,6.6-7.3,8.8C2003.7,832.7,1989.9,843.6,1977.5,857.5L1977.5,857.5z M2078.1,927.5
			c-18.2-14.6-29.9-42.3-30.6-66.4c0-7.3,2.2-10.9,5.8-10.9s7.3,5.1,8,11.7c0.7,18.2,10.9,40.8,25.5,53.2c3.6,2.9,5.1,5.8,5.1,9.5
			c0,5.1-2.2,7.3-5.8,7.3C2083.9,931.9,2081,930.4,2078.1,927.5L2078.1,927.5z M1956.3,1122.2c-29.2-0.7-51-18.2-60.5-46.7
			c-1.2-2.8-2-5.7-2.2-8.8c0-5.8,2.2-8.7,6.6-8.8c2.9,0,7.3,2.9,8,8c6.6,25.5,24.1,40.8,48.1,41.6c7.3,0.7,10.9,3.6,10.9,8.8
			c0,3.6-2.9,5.8-9.5,5.8L1956.3,1122.2L1956.3,1122.2z M2224.7,850.9c4.3-11.3,7.5-23,9.5-35c0.7-5.8,4.4-9.5,7.3-9.5
			c3.6,0,7.3,4.4,7.3,10.2v2.2c-0.7,10.9-4.4,22.6-10.2,36.5c-2.2,5.1-5.8,8-9.5,8s-5.1-2.2-5.1-7.3
			C2223.9,853.8,2223.9,852.4,2224.7,850.9L2224.7,850.9z M2344.3,1139.7c-22.6,0-35.7-16-35.7-41.6c0-8.8,3.6-15.3,8.8-15.3
			c2.9,0,5.8,2.9,5.8,8.8v2.2c-2.2,20.4,7.3,32.1,22.6,31.4c3.9,0.3,7,3.4,7.3,7.3C2353,1136,2350.1,1139.7,2344.3,1139.7z
			 M2533.1,756.1c-1.8,0.9-3.8,1.4-5.8,1.5c-4.4,0-6.6-1.5-6.6-5.1c0-8,10.2-10.9,13.9-10.9s5.8,1.5,5.8,5.1
			C2540.4,750.3,2538.2,753.2,2533.1,756.1L2533.1,756.1z M2513.4,756.9c2.9,0,5.1,2.9,5.1,6.6c0,2.7-1,5.3-2.9,7.3
			c-5.3,6.9-8.2,15.4-8,24.1c0,6.6-4.4,11.7-8,11.7c-4.4,0-6.6-3.6-6.6-11.7l0,0c-0.1-12.4,4.6-24.5,13.1-33.5
			C2508.3,758.3,2511.2,756.9,2513.4,756.9 M2566.6,1065.3c0-43,27.7-115.2,60.5-179.4c2.9-5.1,5.8-8,9.5-8s5.8,2.2,5.8,6.6
			c0,3.4-1.1,6.7-2.9,9.5c-32.1,55.4-58.3,129.8-58.3,171.4c0,8.8-2.9,14.6-8,14.6c-1.4,0-2.9-1.5-4.4-4.4
			C2567.4,1073.3,2566.6,1069.7,2566.6,1065.3L2566.6,1065.3z M2595.8,1118.5c-8.1-2.7-15.2-7.8-20.4-14.6c-1-2-1.5-4.3-1.5-6.6
			c0-5.1,3.6-8,6.6-8s5.1,1.5,5.8,3.6c2.9,5.1,8,9.5,16,12.4c2.3,0.6,3.8,2.7,3.6,5.1c0,5.1-4.4,8.8-8,8.8L2595.8,1118.5z"/>
		<path class="st0" d="M2344.3,1141.2c-23.3,0-37.2-16.1-37.2-43.1c0-9.9,4.2-16.8,10.3-16.8c3.5,0,7.3,3.2,7.3,10.3l0,2.4
			c-1.1,10.6,0.9,18.9,5.8,24.2c3.7,3.9,9,5.9,15.3,5.6l0.1,0l0.1,0c4.7,0.4,8.3,4,8.7,8.7l0,0.1l0,0.1
			C2354.5,1136.8,2350.9,1141.2,2344.3,1141.2z M2317.4,1084.3c-4.2,0-7.3,5.8-7.3,13.8c0,25.1,12.8,40.1,34.2,40.1
			c4.9,0,7.2-2.9,7.3-5.7c-0.3-3.1-2.7-5.6-5.8-5.8c-7.1,0.3-13.2-2-17.5-6.5c-5.5-5.9-7.8-15-6.6-26.4v-2.1
			C2321.7,1086.6,2319.5,1084.3,2317.4,1084.3z M1556,1138.3c-21.3,0-32.1-13.5-32.1-40.1c0-11.5,4-19,10.3-19c4,0,7.3,5.2,7.3,11.7
			l0,1.7c-1.2,10.8,0.2,18.2,4.1,22.6c3,3.4,7.6,5,14.1,5c3.6,0,5.6,0,7.5-0.6l0.2,0c3.3-0.6,6.8-0.4,10.2,0.7l0.2,0.1l0.2,0.1
			c2.4,1.7,3.6,3.4,3.6,5.6c0,4.6-5.3,10-13.7,10.8c-2.4,0.3-4.4,0.6-6.2,0.9C1559.2,1138,1557.4,1138.3,1556,1138.3z
			 M1534.2,1082.2c-4.3,0-7.3,6.6-7.3,16c0,24.6,9.8,37.1,29.1,37.1c1.2,0,3-0.3,5.2-0.6c1.7-0.3,3.8-0.6,6.3-0.9l0,0
			c7.1-0.6,11-5,11-7.8c0-0.8-0.3-1.8-2.1-3c-2.9-0.9-5.7-1.1-8.5-0.6c-2.4,0.7-4.6,0.7-8.4,0.7c-7.4,0-12.8-2-16.4-6
			c-4.5-5-6.1-13.1-4.8-24.8v-1.4C1538.5,1085.6,1536,1082.2,1534.2,1082.2z M710.9,1136.8c-24.3,0-43-15-48.9-39
			c-1.4-5.5-0.7-10.6,1.8-13.8c1.3-1.7,3-2.6,4.8-2.6c4.3,0,7.7,3.8,10.2,11.2c4.3,16.6,14.9,25.3,32.2,26.7
			c9.5,0.8,13.8,5.5,13.8,9.5C724.8,1132.4,722.4,1136.8,710.9,1136.8z M668.6,1084.3c-0.8,0-1.7,0.5-2.4,1.5
			c-0.7,0.9-2.9,4.5-1.2,11.3c5.6,23,22.7,36.8,45.9,36.8c5,0,10.9-0.9,10.9-5.1c0-2.7-3.9-5.9-11-6.5
			c-18.5-1.5-30.2-11.2-34.8-28.8C674,1087.6,671.4,1084.3,668.6,1084.3z M1211.9,1124.4l-3.2,0c-8.1-1.1-9.3-5.5-9.3-8.1
			c0-5.9,4.2-9.5,11-9.5l2.4,0c6.6,0.8,10.1,5.1,10.1,8.8C1222.9,1119.8,1218.7,1124.4,1211.9,1124.4z M1209,1121.4h2.9
			c4.9,0,8-3,8-5.8c0-2-2.3-5.2-7.4-5.8h-2.1c-2.4,0-8,0.6-8,6.5C1202.4,1119.1,1204.6,1120.8,1209,1121.4z M1956.3,1123.7
			L1956.3,1123.7c-29.5-0.7-52.1-18.1-61.9-47.7c-1.3-3.2-2.1-6.2-2.3-9.2c0-8.5,4.4-10.3,8.1-10.4c3.5,0,8.6,3.2,9.5,9.2
			c6.5,24.9,23.5,39.6,46.7,40.4c8.2,0.8,12.4,4.2,12.4,10.3c0,2.7-1.4,7.3-10.9,7.3L1956.3,1123.7z M1900.2,1059.4
			c-2.4,0.1-5.1,0.9-5.1,7.3c0.2,2.6,0.9,5.4,2.1,8.2l0,0.1c9.4,28.3,31,45,59,45.7l1.4-0.1c8,0,8-3.2,8-4.3c0-2.7-1-6.5-9.5-7.3
			c-24.6-0.8-42.6-16.4-49.4-42.7l0-0.2C1906.1,1061.6,1902.2,1059.4,1900.2,1059.4z M1752.2,1122.9L1752.2,1122.9
			c-33.9-1.5-56-15.9-65.6-42.6c-1.3-3-2.1-6.3-2.3-9.9c0-5.8,3.3-10.4,7.3-10.4c4.3,0,7.7,3.8,10.2,11.2c7,21.1,24,32.5,50.5,34
			c9,0,13.8,4.4,13.8,8.8C1766.1,1118.4,1761.3,1122.9,1752.2,1122.9z M1691.6,1063c-2,0-4.3,3.1-4.3,7.3c0.2,3.1,0.9,6.2,2.1,8.9
			c9.2,25.5,30.4,39.2,62.9,40.7c7.1,0,10.9-3,10.9-5.9c0-2.8-3.8-5.8-10.9-5.8c-27.9-1.5-45.8-13.7-53.2-36
			C1697,1066.3,1694.4,1063,1691.6,1063z M2597.9,1120.7h-0.2l-2.3-0.8c-8.4-2.8-15.7-8-21.1-15.1l-0.2-0.2
			c-1.1-2.2-1.7-4.7-1.7-7.3c0-5.9,4.2-9.5,8.1-9.5c3.4,0,6.2,1.7,7.2,4.5c3,5.1,8,9,15.1,11.6c3,0.8,4.9,3.5,4.7,6.6
			C2607.4,1116.3,2602.4,1120.7,2597.9,1120.7z M2596.3,1117.1l1.8,0.6c2.6-0.2,6.3-3,6.3-7.3l0-0.1c0.1-1.7-0.9-3.1-2.5-3.5l-0.1,0
			c-7.8-2.8-13.5-7.2-16.8-13.1l-0.1-0.3c-0.5-1.6-2.2-2.6-4.4-2.6c-2.1,0-5.1,2.1-5.1,6.5c0,2.1,0.4,4.1,1.3,5.8
			C2581.7,1109.7,2588.5,1114.5,2596.3,1117.1z M522.1,1120c-19.3,0-36.2-9-46.5-24.8c-1.5-2.4-2.3-5.1-2.4-8.1
			c0-4.2,3.3-8.9,8.1-8.9c3.4,0,6.2,1.8,7.2,4.5c6.5,12,19.3,19.5,33.6,19.5c6.3,0,12.4,4.7,12.4,9.5
			C534.5,1115.8,529.5,1120,522.1,1120z M481.3,1081.3c-2.9,0-5.1,3.1-5.1,5.8c0.1,2.4,0.8,4.6,2,6.5c9.7,14.9,25.7,23.4,43.9,23.4
			c5.7,0,9.4-3.1,9.4-5.2c0-2.6-4.2-6.5-9.4-6.5c-15.4,0-29.4-8.1-36.3-21.2l-0.1-0.2C485.2,1082.3,483.4,1081.3,481.3,1081.3z
			 M1184.9,1115l-0.4,0l-6-1.6c-11.6-4.7-19.7-10.8-24.8-18.7c-2.7-3.6-4-6.7-4-9.7c0-4.4,2.2-6.6,6.6-6.6c3.9,0,7.3,1.5,10.6,4.8
			c6.7,6.7,13,11.6,18.6,14.3c4.9,2.5,7.4,5.9,7.4,10.1C1193,1112.3,1190,1115,1184.9,1115z M1179.6,1110.6l5.5,1.4
			c3.3-0.1,4.9-1.5,4.9-4.3c0-3.1-1.9-5.5-5.8-7.5c-5.9-2.9-12.4-7.9-19.4-14.9c-2.7-2.7-5.3-4-8.4-4c-2.8,0-3.6,0.8-3.6,3.6
			c0,2.3,1.1,4.8,3.4,7.9l0.1,0.1C1161,1100.4,1168.6,1106.1,1179.6,1110.6z M549.1,1114.2c-5.1,0-8.1-2.7-8.1-7.3
			c0-5.9,5-10.3,11.7-10.3c4.2,0,8.8,3.3,8.8,8.1C561.5,1109.4,557.7,1114.2,549.1,1114.2z M552.7,1099.6c-5,0-8.7,3.1-8.7,7.3
			c0,2.9,1.7,4.3,5.1,4.3c6.9,0,9.4-3.5,9.4-6.5C558.5,1101.8,555.4,1099.6,552.7,1099.6z M940.6,1093.7c-6.4,0-7.3-4.1-7.3-6.6
			c0-5,3.9-9.9,11-13.7c43.7-23.7,81.8-63.6,107.3-112.4c4.8-8.8,8.7-12.5,13-12.5c2.2,0,5.9,1.1,5.9,8.1c0,4.2-1.3,8.7-3.9,13.8
			c-26.3,50.6-67.2,93-115.1,119.5l-0.1,0.1l-1.8,0.8C945.4,1092.6,942.8,1093.7,940.6,1093.7z M1064.6,951.5
			c-3,0-6.3,3.5-10.4,10.9c-25.8,49.3-64.3,89.7-108.5,113.6c-6.1,3.3-9.4,7.2-9.4,11.1c0,1.8,0.5,3.6,4.3,3.6
			c1.6,0,4.1-1.1,7.8-2.7l1.8-0.8C997.5,1061,1038,1019,1064,969c2.4-4.6,3.5-8.7,3.5-12.4C1067.5,951.5,1065.4,951.5,1064.6,951.5z
			 M2573.2,1081.5c-2,0-3.9-1.7-5.7-5.2c-1.6-2.6-2.4-6.4-2.4-11c0-38.4,22.7-105.7,60.7-180.1c2.4-4.1,5.7-8.8,10.8-8.8
			c4.6,0,7.3,3,7.3,8.1c0,3.6-1.1,7.1-3.1,10.3c-33.1,57.1-58.1,130.5-58.1,170.6C2582.7,1075.3,2579.1,1081.5,2573.2,1081.5z
			 M2636.6,879.4c-2.8,0-5.3,2.2-8.2,7.2c-37.7,73.9-60.3,140.7-60.3,178.7c0,4,0.7,7.4,2,9.5l0.1,0.1c1.8,3.5,2.9,3.6,3.1,3.6
			c4.8,0,6.5-6.8,6.5-13.1c0-40.6,25.2-114.6,58.5-172.2c1.8-2.8,2.7-5.8,2.7-8.7C2640.9,879.9,2638.4,879.4,2636.6,879.4z
			 M1076.2,936.3c-4.8,0-8.8-5.4-8.8-11.7c0-2.3,0-3.9,0.8-5.7c2.2-6.4,4.1-13.4,5.7-20.8c0.8-9,6-13,9.5-13c3.7,0,8.1,2.2,8.1,12.4
			c0,2.9,0,5.3-0.7,7.6c-0.7,5.3-2.9,12.6-5.8,22C1084.3,929.5,1082.3,936.3,1076.2,936.3z M1083.4,888.2c-2,0-5.9,3-6.5,10.3l0,0.2
			c-1.6,7.5-3.6,14.7-5.9,21.3l-0.1,0.1c-0.6,1.2-0.6,2.4-0.6,4.5c0,5,3.1,8.7,5.8,8.7c1.8,0,4.1-0.8,5.9-6.9l0,0
			c2.5-8.1,5-16.3,5.7-21.7l0.1-0.3c0.6-2,0.6-4,0.6-6.8C1088.5,888.2,1084.8,888.2,1083.4,888.2z M2086.1,933.4
			c-2.7,0-5.9-1.7-9-4.8c-17.6-14.1-30.4-41.9-31.1-67.5c0-10.8,4.6-12.4,7.3-12.4c4.5,0,8.7,5.7,9.5,13l0,0.1
			c0.7,18.5,11.2,40.4,25,52.1c3.9,3.1,5.6,6.4,5.6,10.6C2093.4,932.3,2088.8,933.4,2086.1,933.4z M2053.3,851.7
			c-3.7,0-4.3,5.9-4.3,9.4c0.7,24.8,13.1,51.6,30,65.2l0.1,0.1c2.5,2.5,5.1,4,6.9,4c2,0,4.3-0.7,4.3-5.8c0-3.3-1.4-5.8-4.5-8.3
			c-14.4-12.2-25.3-35-26.1-54.3C2059.1,855.9,2055.9,851.7,2053.3,851.7z M1202.4,870.6c-4.4,0-8-3.5-8.1-8c0-2.9,1.2-5.7,3.3-7.7
			c6.7-6.8,13.9-13.3,22-19.8c4.2-3.3,7.4-4.7,10.4-4.7c2.7,0,5.9,1.1,5.9,6.6c0,4.3-2.7,9.1-7.1,12.8c-5.7,4.8-12.3,10.9-19.6,18.1
			C1207.4,869.7,1205,870.6,1202.4,870.6z M1230.1,833.4c-2.4,0-4.9,1.2-8.6,4.1c-8,6.5-15.2,12.9-21.8,19.6l0,0
			c-1.5,1.5-2.4,3.5-2.4,5.5c0.1,2.8,2.3,5,5.1,5c1.8,0,3.5-0.6,4.8-1.8c7.3-7.3,14-13.4,19.8-18.3c3.8-3.2,6.1-7.1,6.1-10.6
			C1233,834,1231.9,833.4,1230.1,833.4z M1444.4,866.3c-6.6,0-6.6-6.1-6.6-8.1c0-3.2,0.8-6.3,2.4-9.5l13.2-26.3
			c2.6-4.3,6-6.5,10.1-6.5c4.4,0,8.1,4,8.1,8.8c0.1,2.5-0.8,4.8-2.5,6.7c-5.4,7.9-10,16.4-13.7,25.1
			C1453,862.7,1448.9,866.3,1444.4,866.3z M1455.9,823.9l-13.1,26.1c-1.4,2.7-2,5.4-2,8.1c0,4.7,1.7,5.1,3.6,5.1
			c3.2,0,6.2-2.9,8.1-7.8l0-0.1c3.8-9,8.5-17.6,14-25.8l0.1-0.2c1.3-1.3,1.9-3,1.8-4.7c0-3.2-2.4-5.9-5.1-5.9
			C1460.5,818.9,1458,820.6,1455.9,823.9z M566.4,866.3c-4,0-7.3-3.2-7.3-7.2v-0.2c0.1-3.5,1.8-6.7,5.6-10.4
			c4.9-5.6,10.6-10.4,16.1-14.7c3.7-3.6,7.7-5.5,11.9-5.5c4.4,0,7.3,2.9,7.3,7.3c-0.2,4.5-2.7,8.6-6.5,10.7
			c-5.8,4.6-11.4,9.7-16.6,15.1C573.6,864.8,570.4,866.3,566.4,866.3z M592.7,831.3c-3.4,0-6.7,1.6-9.8,4.7l-0.1,0.1
			c-5.4,4.2-11.1,8.9-15.8,14.4l-0.1,0.1c-3.2,3.2-4.7,5.8-4.8,8.4l0,0.1c0,2.4,1.9,4.2,4.3,4.2c3.1,0,5.7-1.2,8.4-4
			c5.3-5.5,11-10.7,16.9-15.4l0.2-0.1c2.9-1.6,4.9-4.8,5-8.3C597,832.8,595.5,831.3,592.7,831.3z M887.5,864.9c-4.6,0-7.4-3-7.4-8.1
			v-0.2l1.6-5.5c5.2-11.2,5.7-29.7,5.7-35.1c0-7.3,4.1-11.7,8.1-11.7c5.7,0,9.5,5.3,9.5,13.2c-0.1,8.7-2.3,21.3-6.6,37.4
			C897.6,860.4,893,864.7,887.5,864.9z M883.1,857c0.1,3.3,1.5,4.9,4.3,4.9c4-0.2,7.5-3.4,8-7.5l0-0.2c4.2-15.9,6.5-28.3,6.5-36.7
			c0-4.7-1.7-10.2-6.5-10.2c-2.1,0-5.1,3-5.1,8.7c0,7.1-0.6,24.8-5.9,36.2L883.1,857z M2229.1,864.8c-5.9,0-6.6-5-6.6-8.8
			c-0.1-2.3-0.1-3.9,0.8-5.7c4.3-11.3,7.4-22.9,9.4-34.6c0.8-6.6,5.2-10.8,8.8-10.8c4.8,0,8.8,5.4,8.8,11.7v2.2
			c-0.7,10.3-3.7,21.3-10.3,37.1C2237.6,861.5,2233.5,864.8,2229.1,864.8z M2241.5,807.9c-2,0-5.2,3.1-5.8,8.2
			c-2,12-5.2,23.9-9.6,35.4l-0.1,0.2c-0.6,1.1-0.6,2.2-0.5,4.3c0,5.4,1.6,5.9,3.6,5.9c3.2,0,6.2-2.7,8.1-7.1
			c6.4-15.4,9.4-26.2,10.1-36l0-2.1C2247.3,811.6,2244.2,807.9,2241.5,807.9z M1587.4,864.8c-5.1,0-8.1-2.7-8.1-7.3
			c0-2.6,1.6-5.9,4-8.4c22-21.9,39.5-32.5,53.6-32.5c6.8,0,10.3,2.2,10.3,6.6c0,4.5-4.3,10.2-10.1,11c-10.9,2-28.5,10.8-41.2,25.7
			C1593.3,863.3,1590.6,864.8,1587.4,864.8z M1636.9,819.6c-13,0-30.3,10.7-51.4,31.7c-1.9,1.9-3.2,4.4-3.2,6.2
			c0,2.9,1.7,4.3,5.1,4.3c2.3,0,4.1-1.1,6.1-3.8l0.1-0.1c13.2-15.5,31.2-24.6,43.1-26.7c4.6-0.6,7.6-5.2,7.6-8
			C1644.2,822.1,1644.2,819.6,1636.9,819.6z M1970.9,862.6c-4.5,0-8.1-3.6-8.1-8v-0.1c0-2.8,1.2-5.6,3.3-7.6
			c14.4-16.5,30.6-28.1,49.4-35.4c4-1.8,7.6-1.9,10-0.3c1.9,1.2,2.9,3.4,2.9,6.1c0,4.4-2.8,7.8-8.2,10.2
			c-14.9,6.2-28.5,16.3-41.7,31l-0.1,0.1C1975.8,861.3,1973.3,862.6,1970.9,862.6z M2021.4,813.1c-1.4,0-3,0.4-4.7,1.2
			c-18.5,7.1-34.3,18.4-48.4,34.6l-0.1,0.1c-1.5,1.5-2.4,3.5-2.4,5.5v0.1c0,2.8,2.3,5,5.1,5c1.6,0,3.4-1,5.5-3.1
			c13.4-15.1,27.4-25.4,42.7-31.8c4.3-1.8,6.4-4.3,6.4-7.4c0-1.2-0.3-2.7-1.6-3.6C2023.3,813.3,2022.4,813.1,2021.4,813.1z
			 M1249.3,833.4c-1.8,0-3.6-0.5-5.1-1.5c-2-1.4-3.2-3.5-3.2-5.7c0-5,2.6-8.5,8.2-10.9l0.2-0.1l6.2-1.4c4.5,0,8.8,3.5,8.8,7.3
			c0,4.3-4.7,9.1-11.2,11.6C1251.9,833.1,1250.6,833.4,1249.3,833.4z M1250.3,818c-4.5,1.9-6.3,4.3-6.3,8.1c0,1.2,0.7,2.4,1.9,3.3
			c1.7,1.1,3.9,1.3,6.2,0.4c5.7-2.2,9.2-6.3,9.2-8.8c0-1.9-2.6-4.2-5.6-4.3L1250.3,818z M614.8,831.9c-1.7,0-3.5-0.4-5-1.3
			c-2.9-1.6-4.6-4.4-4.6-7.4c0-3,2-5.6,5.8-7.8c4-2.4,10.4-4.8,16.3-6.7c4.8-1.3,8.4-1,10.9,0.8c1.8,1.4,2.8,3.6,2.8,6.4
			c0,2.7-1.1,7.4-8.3,9.4l-12.2,5C618.7,831.4,616.8,831.9,614.8,831.9z M632.7,810.9c-1.3,0-2.8,0.2-4.5,0.7
			c-5.6,1.9-11.9,4.2-15.6,6.4l0,0c-2.9,1.7-4.3,3.4-4.3,5.2c0,2,1.1,3.8,3,4.8c2.4,1.3,5.4,1.2,7.8-0.3l0.2-0.1l12.6-5.2
			c4.1-1.1,6.2-3.3,6.2-6.6c0-1.8-0.5-3.2-1.6-4C635.5,811.2,634.2,810.9,632.7,810.9z M2046.1,819.7c-2.7,0-5.1-0.8-6.9-2.4
			c-1.7-1.5-2.7-3.6-2.7-5.8c0-4.5,5.1-9.5,12.4-9.5c6,0,9.5,3,9.5,8.1c0.1,3.8-4.4,8.7-10.7,9.5
			C2047.1,819.7,2046.6,819.7,2046.1,819.7z M2047.3,816.6l0.2,1.5L2047.3,816.6c5.3-0.6,8.1-4.6,8.1-6.5c0-1.3,0-5.2-6.5-5.2
			c-5.8,0-9.4,3.8-9.4,6.5c0,1.3,0.6,2.6,1.7,3.5C2042.7,816.3,2044.9,816.9,2047.3,816.6z M1771.2,818.9c-2.5,0-6.6-0.9-6.6-7.3
			c-0.1-1.9-0.2-4,0.9-5.2c4.4-10.3,9.6-20.4,15.3-29.8c4.3-7.1,7.3-12.6,9.5-16.7c1.2-2.1,2.1-3.8,2.9-5.1
			c2.5-4.9,5.9-7.4,10.1-7.4c5.9,0,8.8,2.9,8.8,8.8c-0.1,2.8-0.9,5.2-2.4,7.4l-27,46.6C1779.5,815.7,1775.3,818.9,1771.2,818.9z
			 M1803.3,750.3c-3.1,0-5.5,1.9-7.5,5.8l-0.1,0.1c-0.7,1.3-1.7,2.9-2.8,5.1c-2.2,4.1-5.2,9.7-9.6,16.8
			c-5.7,9.4-10.8,19.4-15.2,29.7l-0.1,0.3l-0.3,0.2c-0.3,0.3-0.2,2.5-0.2,3.2c0,3.9,1.8,4.4,3.6,4.4c3,0,6.3-2.6,8.9-7.2l27.1-46.8
			c1.2-1.7,1.8-3.6,1.9-5.8C1809.1,751.8,1807.6,750.3,1803.3,750.3z M1476.5,814.6c-1.2,0-2.4-0.2-3.6-0.7
			c-3.5-1.4-5.8-4.7-5.8-8.1c0-7,8.4-11.7,13.9-11.7c4,0,7.3,3.2,7.3,7.2v0.2c0,3.4-1.7,6.6-5.5,10.5
			C1481,813.6,1478.8,814.6,1476.5,814.6z M1481,797c-4.3,0-10.9,3.7-10.9,8.7c0,2.2,1.6,4.4,3.9,5.4c1.1,0.5,4,1.3,6.6-1.3
			c3.2-3.2,4.7-5.8,4.7-8.3v-0.2C1485.3,798.8,1483.4,797,1481,797z M2499.6,808.1c-8.1,0-8.1-9.9-8.1-13.2
			c-0.1-12.7,4.8-25.3,13.4-34.5c2.2-3.1,5.5-5,8.5-5c3.7,0,6.6,3.6,6.6,8.1c0,3.1-1.2,6-3.3,8.3c-5.1,6.7-7.8,14.9-7.6,23.1
			C2509.1,802.3,2504,808.1,2499.6,808.1z M2513.4,758.4c-1.5,0-4.1,1-6.1,3.9l-0.1,0.2c-8.2,8.6-12.8,20.5-12.7,32.5
			c0,10.2,3.6,10.2,5.1,10.2c2.6,0,6.5-4.3,6.5-10.2c-0.2-8.9,2.7-17.8,8.3-25l0.1-0.1c1.6-1.7,2.5-3.9,2.5-6.3
			C2517,760.6,2515.4,758.4,2513.4,758.4z M771.4,805c-3.4,0-5.9-4.6-5.9-8.8c0-3,0.6-5.9,1.6-8.6l8.7-25.3c0.9-6,6.1-9.1,9.5-9.1
			c3.8,0,7.3,4.3,7.3,8.8c0,2.2,0,3.9-0.8,5.6c-2.5,8.5-5.7,17.1-9.5,25.6C780.1,798.7,776.9,805,771.4,805z M785.3,756.2
			c-2,0-5.9,2.2-6.5,6.7l-0.1,0.3l-8.8,25.5c-0.9,2.3-1.4,4.9-1.4,7.5c0,3.3,1.9,5.8,2.9,5.8c2.8,0,5.4-3.2,8.1-10
			c3.8-8.5,7-17,9.5-25.4l0.1-0.2c0.6-1.2,0.6-2.4,0.6-4.5C789.6,758.9,787.2,756.2,785.3,756.2z M283.7,799.2
			c-5.5,0-6.6-3.2-6.6-5.9c0.1-3.1,0.9-6,2.3-8.7l0,0c43.4-78.7,80.9-137.9,122.9-171.1c6.1-4.7,10.7-6.9,14-6.9
			c3.8,0,5.9,2.2,5.9,5.9c0,5-3.2,9.8-10.1,15.1c-37.5,28.8-62.7,71.2-116.2,164.3C293.5,795.8,287.9,799.2,283.7,799.2z M282,786
			c-1.2,2.3-1.8,4.7-1.9,7.3c0,1.8,0.6,2.8,3.6,2.8c3.2,0,7.7-2.8,9.6-5.9c53.7-93.4,79-136,117-165.1c6.1-4.7,8.9-8.7,8.9-12.7
			c0-2.1-0.8-2.9-2.9-2.9c-1.8,0-5.3,1.1-12.2,6.3C362.5,648.7,325.2,707.6,282,786z M2527.4,759.1c-5.4,0-8.2-2.2-8.2-6.6
			c0-9.3,11.5-12.4,15.4-12.4c6.4,0,7.3,4.1,7.3,6.6c0,4.2-2.5,7.5-8.1,10.7l-0.1,0C2531.8,758.4,2529.6,759,2527.4,759.1z
			 M2534.6,743.1c-2.6,0-12.4,2.4-12.4,9.4c0,1.8,0.4,3.6,5.1,3.6c1.7-0.1,3.5-0.5,5.1-1.3c4.6-2.6,6.5-5,6.5-8.1
			C2538.9,744.5,2538.2,743.1,2534.6,743.1z M792.2,741.4c-1.4,0-2.8-0.6-3.9-1.6c-1.9-1.8-3-4.8-3-8.5c0-2.3,0-4.6,0.8-6.3
			c4.3-15.7,6.5-29.6,6.5-41.1c0-6.9-0.7-13.7-2.2-20.1c-1.6-6.9-2.2-11.2-2.2-14.2c0-7.7,4.6-8.8,7.3-8.8c4.6,0,10.2,5.2,11,12.2
			c2.5,12.2,3.6,22,3.6,30.8c0,11-2.5,27-7.3,46.3c-2.1,9.3-6.7,11.3-10.2,11.3C792.4,741.4,792.3,741.4,792.2,741.4z M795.5,643.8
			c-2,0-4.3,0.7-4.3,5.8c0,2.8,0.7,7,2.2,13.6c1.5,6.6,2.2,13.6,2.2,20.7c0,11.8-2.2,25.9-6.7,42l-0.1,0.3c-0.5,1.1-0.5,3.1-0.5,5.1
			c0,2.8,0.7,5.1,2,6.3c0.6,0.6,1.3,0.9,2.1,0.8l0.1,0c3.5,0,6-3,7.3-9c4.8-19,7.3-34.8,7.3-45.6c0-8.6-1.1-18.2-3.6-30.3l0-0.1
			C802.9,647.6,798.3,643.8,795.5,643.8z M437.9,609.4c-1.8,0-3.5-0.5-4.9-1.4c-2.3-1.4-3.6-3.8-3.6-6.4c0-4.3,3.6-6.8,6.7-8.6
			l0.1-0.1c2.8-1.2,5.7-2,8.4-2.3l0.2,0c6.4,0,7.3,4.1,7.3,6.6c0,4.3-3.4,8.5-8.9,10.9C441.5,608.9,439.7,609.4,437.9,609.4z
			 M437.5,595.6c-3.6,2-5.1,3.8-5.1,6c0,1.6,0.8,3,2.2,3.9c2,1.2,4.8,1.2,7.4-0.1c4.5-1.9,7.2-5,7.2-8.2c0-1.8-0.5-3.6-4.2-3.6
			C442.5,593.9,440,594.6,437.5,595.6z"/>
	</g>
	<path id="Adventour" class="st1" d="M2793.4,950.1c-41.6,111.6-90.4,185.9-172.1,185.9c-41.6,0-71.5-24.1-71.5-65.6
		c0-53.2,37.2-149.5,80.2-226c-26.2,10.9-61.2,21.1-75.1,24.1c-4.4,10.9-10.9,26.2-19,44.5c-2.3,5.2-5,11.3-8.1,18.1
		c-0.2,0.5-0.4,1.1-0.6,1.6c-1.5,4.4-4.4,10.2-8,17.5c-2.5,5.4-5,10.7-7.5,16c-4.2,9.2-8.8,19.2-13.6,30l-7.3,15.3
		c-2.7,6.5-5.9,11.4-9.6,14.7c-41.4,75-86,127.5-139.9,127.5c-32.1,0-50.3-22.6-50.3-61.3v-2.2c-29.2,28.4-54.7,43.8-97.7,43.8
		c-37.9,0-67.1-16.8-67.1-48.1c0-39.7,10.1-76.7,27.6-118.7c-6,0.9-12.1,1.3-18.1,1.3c-3.6,0-9.5-0.7-17.5-1.5
		c-27,66.4-57.6,113.8-91.9,141.5c-22.6,18.2-45.9,27.7-70,27.7c-40.8,0-72.2-27.9-79.4-74c-34.5,45.9-76.7,74-125.5,74
		c-49.2,0-76.6-21.3-82.1-64.3c-35.1,49.5-74.8,81.8-114.1,81.8c-32.1,0-50.3-22.6-50.3-61.3c0-32.8,22.6-77.3,62.7-144.4l21.2-37.2
		c2.2-3.6,3.6-7.3,3.6-10.9c0-2.9-1.5-4.4-4.4-4.4c-6.6,0-15.3,6.6-27,20.4c-37.2,45.9-76.6,104.3-118.9,176.5
		c-3.3,4.6-6.2,9.5-8.7,14.6c-5.8,8.8-10.2,18.2-24.8,24.1c-7.3,3.5-15.3,5.2-23.3,5.1c-24.1,0-36.5-11.7-36.5-35.7
		c0-2,0.2-4.3,0.4-6.9c-10,10-21.5,18.5-34,25.2c-21.9,11.7-49.6,17.5-83.1,17.5c-43.8,0-83.1-17.5-105-49.6
		c-10.9-16-16.8-35-16.8-56.9c0-67.8,37.9-149.5,94.1-199.1c27.7-24.8,56.9-37.2,88.2-37.2c52.5,0,80.9,25.5,80.9,63.4
		c0,72.9-80.2,148.8-179.4,191.8c8,25.5,30.6,40.1,54.7,40.1c51,0,94.8-43,132-128.3c1.9-4.6,4.1-9.2,6.5-13.6
		c11.5-35.4,23.9-69.1,34.3-92.1l10.2-22.6c12.4-29.9,19-42.3,32.8-51c6.6-3.6,16-5.8,27-5.8c19.7,0,35.7,9.5,35.7,24.8
		c0,2.9,0,5.1-0.7,7.3c-32.8,72.2-49.6,118.1-66.4,176.5c63.4-98.4,133.4-183.7,179.4-183.7c15.3,0,25.5,11.7,25.5,29.2
		c0,25.5-15.3,57.6-45.2,112.3c-32.8,60.5-50.3,97.7-50.3,129.1c0,7.3,0.7,12.4,2.9,15.3c1.4,2.9,3.6,4.4,7.3,4.4
		c26.2,0,50.3-27.7,68.5-60.5c9.5-16.8,20.4-38.6,34.3-66.4c3.2-7.9,8.8-20.7,14.7-31.9c2.2-5.8,4.6-11.7,7.1-17.7l13.1-32.1
		l-11.7,2.2c-2.2,0.7-4.4,0.7-8,0.7c-13.8,0-23.3-7.3-23.3-21.1c0-21.1,27-21.9,62.7-28.4c8-19,24.1-48.1,46.7-87.5
		c9.5-16.8,29.2-25.5,47.4-25.5c19.7,0,35,9.5,35,24.1c0,5.1-2.2,10.9-5.8,16c-15.3,25.5-26.2,45.2-33.5,59.1
		c13.9-0.7,23.3-1.5,29.2-1.5c18.2,0,28.4,8,28.4,20.4s-9.5,21.1-21.9,21.1c-19.1,0.9-38,2.8-56.9,5.8l-18.2,43.8l-8,20.4
		c-19,48.1-28.4,86-28.4,113.7c0,26.3,9.5,39.4,28.4,39.4c15.3,0,32.1-10.2,50.3-31.4c18.2-21.1,39.3-57.6,63.4-109.3
		c15.6-42.9,40.6-83.3,72.2-112.4c27.7-25.5,58.3-37.9,91.2-37.9c26.2,0,49.6,9.5,62,27c11.7,16,17.5,37.9,17.5,65.6
		c-0.1,13.5-1.6,26.9-4.4,40.1c18,2,35.7-4.6,49-18.4c2.3-4.7,4.7-9.5,7.1-14.4c11.7-21.1,19-36.5,21.9-45.9
		c2.2-5.1,3.6-13.1,5.8-24.1c5.8-28.4,10.2-39.4,36.4-39.4c29.2,0,41.6,16.8,41.6,43c0,21.1-7.3,40.1-28.4,81.7
		c-32.8,69.3-52.5,111.6-57.6,156c-0.7,3.6-0.7,8-0.7,13.1c0,8.8,1.4,11.7,6.6,11.7c4.4,0,10.9-2.9,19.7-8
		c25.5-13.9,54-43.8,85.3-91.1c23.3-55.4,59.1-121.8,87.5-167.7c0.7-0.7,1.5-2.9,3.6-6.6c3.6-8,12.4-13.9,23.3-13.9
		c11.7,0,18.2,7.3,18.2,19c0.1,6-1.7,11.9-5.1,16.8c-41.6,70-90.4,180.8-90.4,232.6c0,7.3,0.7,12.4,2.9,15.3
		c1.5,2.9,3.6,4.4,7.3,4.4c25.5,0,49.6-27.7,67.8-59.8c8.8-16,20.4-38.6,34.3-67.1l2.2-4.7c10.3-23.4,21.1-50.2,32.8-80.6l8-19
		c-22.6-17.5-34.3-36.5-34.3-57.6c0-27,13.9-50.3,32.1-62.7c9.5-5.8,18.2-8.8,27.7-8.8c21.1,0,37.2,16.8,37.2,51
		c0,10.2-2.2,23.3-5.8,40.1c3.6-0.7,11.7-3.6,24.1-8c43-14.6,67.1-21.9,87.5-21.9c24.1,0,37.9,16.8,37.9,36.5c0,6.6-2.9,16.8-8,29.9
		s-13.1,30.6-24.1,51.8c-35,72.2-56.1,122.5-56.1,161.1c0,7.3,0.7,12.4,2.9,15.3c1.5,2.9,3.6,4.4,7.3,4.4
		c29.9,0,58.3-36.5,76.6-72.9c9.5-18.2,21.9-45.2,38.6-80.9c6.6-14.6,13.9-26.2,30.6-26.2h0.7c9.5,0,13.9,4.4,13.9,13.1
		C2800,929.7,2797.8,939.2,2793.4,950.1z M1230.1,832c-2.9,0-5.8,1.5-9.5,4.4c-7.6,6.2-14.9,12.7-21.9,19.7
		c-1.9,1.7-2.9,4.1-2.9,6.6c0,3.6,2.9,6.5,6.5,6.6l0,0c2.2,0.1,4.2-0.7,5.8-2.2c8.8-8.8,15.3-14.6,19.7-18.2c4.4-3.6,6.6-8,6.6-11.7
		C1234.4,833.5,1233,832,1230.1,832z M1255.6,815.2l-5.8,1.5c-5.1,2.2-7.3,5.1-7.3,9.5c0,3.6,4.4,7.3,10.2,5.1
		c5.8-2.2,10.2-6.6,10.2-10.2C1262.9,818.1,1259.3,815.2,1255.6,815.2L1255.6,815.2z M1322,864.8c0-10.9-8.8-17.5-21.1-17.5
		c-15.3,0-35,9.5-50.3,29.2c-24.1,32.8-46.7,81.7-55.4,122.5C1264.4,963.2,1322,911.4,1322,864.8z M1184.9,1098.8
		c-5.8-2.9-12.4-8-19-14.6c-2.9-2.9-5.8-4.4-9.5-4.4s-5.1,1.5-5.1,5.1c0,2.9,1.5,5.8,3.7,8.8c5.1,8,13.1,13.9,24.1,18.2l5.8,1.5
		c4.4,0,6.6-2.2,6.6-5.8S1189.3,1101,1184.9,1098.8z M1212.6,1108.3h-2.2c-5.8,0-9.5,2.9-9.5,8c0,3.6,2.9,5.8,8,6.6h2.9
		c5.8,0,9.5-3.6,9.5-7.3C1221.3,1112.7,1218.4,1109.1,1212.6,1108.3z M1481.7,810.8c3.7-3.6,5.1-6.6,5.1-9.5c0-3.2-2.5-5.8-5.7-5.8
		c-0.1,0-0.1,0-0.2,0c-5.1,0-12.4,4.4-12.4,10.2S1476.6,815.9,1481.7,810.8L1481.7,810.8z M1467.8,830.5c1.5-1.6,2.2-3.7,2.2-5.8
		c0-3.6-2.9-7.3-6.6-7.3s-6.6,2.2-8.8,5.8l-13.1,26.2c-1.4,2.7-2.2,5.7-2.2,8.8c0,4.4,1.5,6.6,5.1,6.6s7.3-2.9,9.5-8.8
		C1457.7,847.1,1462.4,838.5,1467.8,830.5L1467.8,830.5z M1637,832.7c5.1-0.7,8.8-5.8,8.8-9.5s-2.9-5.1-8.8-5.1
		c-13.8,0-31.3,10.9-52.5,32.1c-2.2,2.2-3.6,5.1-3.6,7.3c0,3.6,2.2,5.8,6.6,5.8c2.9,0,5.1-1.5,7.3-4.4
		C1607.1,844.4,1624.6,834.9,1637,832.7L1637,832.7z M1577.2,1121.5c-3.1-1-6.3-1.3-9.5-0.7c-2.2,0.7-4.4,0.7-8,0.7
		c-15.3,0-21.9-8.8-19.7-29.2v-1.5c0-5.8-2.9-10.2-5.8-10.2c-5.1,0-8.8,6.6-8.8,17.5c0,25.5,10.2,38.6,30.6,38.6
		c2.2,0,5.8-0.7,11.7-1.5c8-0.7,12.4-5.8,12.4-9.5C1580.1,1124.4,1579.4,1122.9,1577.2,1121.5L1577.2,1121.5z M1771.1,817.4
		c3.6,0,7.3-2.9,10.2-8l27-46.7c1.4-1.9,2.1-4.2,2.2-6.6c0-5.1-2.2-7.3-7.3-7.3c-3.7,0-6.6,2.2-8.8,6.6c-2.2,3.6-5.8,10.9-12.4,21.9
		c-5.8,9.6-10.9,19.6-15.3,29.9c-0.7,0.7-0.7,2.2-0.7,4.4C1766,815.2,1767.5,817.4,1771.1,817.4z M1752.2,1106.9
		c-27-1.5-44.5-13.1-51.8-35c-2.2-6.6-5.1-10.2-8.8-10.2c-2.9,0-5.8,3.6-5.8,8.8c0.2,3.3,0.9,6.5,2.2,9.5
		c9.5,26.3,31.4,40.1,64.2,41.6l0,0c8,0,12.4-3.6,12.4-7.3C1764.6,1110.6,1760.2,1106.9,1752.2,1106.9z M1908.2,1066
		c-0.7-5.1-5.1-8-8-8c-4.4,0-6.6,2.9-6.6,8.8c0.2,3,0.9,6,2.2,8.8c9.5,28.4,31.4,45.9,60.5,46.7h1.5c6.6,0,9.5-2.2,9.5-5.8
		c0-5.1-3.6-8-10.9-8.8C1932.3,1106.9,1914.8,1091.6,1908.2,1066L1908.2,1066z M2016.1,813c-19,7.3-35,19-48.9,35
		c-1.9,1.7-2.9,4.1-2.9,6.6c0,3.6,2.9,6.5,6.5,6.6c0,0,0,0,0.1,0c2.2,0,4.4-1.5,6.6-3.6c12.4-13.9,26.2-24.8,42.3-31.4
		c5.1-2.2,7.3-5.1,7.3-8.8C2027.1,812.3,2022.7,810.1,2016.1,813L2016.1,813z M2030.7,859.7c-35,40.8-78,121.8-78,179.4
		c0,14.6,2.2,26.2,5.8,35.7s8.8,13.9,13.9,13.9c29.9,0,75.1-59.1,105-137.8C2051.1,932.6,2032.9,894.7,2030.7,859.7L2030.7,859.7z
		 M2048.9,803.5c-6.6,0-10.9,4.4-10.9,8s3.7,7.3,9.5,6.6c5.8-0.7,9.5-5.1,9.5-8C2057,805.7,2054,803.5,2048.9,803.5L2048.9,803.5z
		 M2086.9,915.1c-14.6-12.4-24.8-35-25.5-53.2c-0.7-6.6-4.4-11.7-8-11.7s-5.8,3.6-5.8,10.9c0.7,24.1,12.4,51.8,30.6,66.4
		c2.9,2.9,5.8,4.4,8,4.4c3.6,0,5.8-2.2,5.8-7.3C2092,920.9,2090.5,918,2086.9,915.1z M2229,863.3c3.6,0,7.3-2.9,9.5-8
		c5.8-13.9,9.5-25.5,10.2-36.5v-2.2c0-5.8-3.6-10.2-7.3-10.2c-2.9,0-6.6,3.6-7.3,9.5c-2,12-5.2,23.7-9.5,35
		c-0.7,1.5-0.7,2.9-0.7,5.1C2223.9,861.1,2225.4,863.3,2229,863.3L2229,863.3z M2345.7,1125.1c-15.3,0.7-24.8-10.9-22.6-31.4v-2.2
		c0-5.8-2.9-8.8-5.8-8.8c-5.1,0-8.8,6.6-8.8,15.3c0,25.5,13.1,41.6,35.7,41.6c5.8,0,8.8-3.6,8.8-7.3
		C2352.7,1128.5,2349.6,1125.4,2345.7,1125.1z M2513.4,756.9c-2.2,0-5.1,1.5-7.3,4.4c-8.5,9.1-13.2,21.1-13.1,33.5l0,0
		c0,8,2.2,11.7,6.6,11.7c3.6,0,8-5.1,8-11.7c-0.1-8.7,2.7-17.2,8-24.1c1.9-2,2.9-4.6,2.9-7.3
		C2518.5,759.8,2516.3,756.9,2513.4,756.9L2513.4,756.9z M2534.6,741.6c-3.6,0-13.9,2.9-13.9,10.9c0,3.6,2.2,5.1,6.6,5.1
		c2-0.1,4-0.5,5.8-1.5c5.1-2.9,7.3-5.8,7.3-9.5C2540.4,743,2538.2,741.6,2534.6,741.6L2534.6,741.6z M2575.4,1104
		c5.2,6.8,12.3,11.9,20.4,14.6l2.2,0.7c3.6,0,8-3.6,8-8.8c0.2-2.4-1.4-4.5-3.6-5.1c-8-2.9-13.1-7.3-16-12.4
		c-0.7-2.2-2.9-3.6-5.8-3.6s-6.6,2.9-6.6,8C2573.9,1099.7,2574.4,1101.9,2575.4,1104L2575.4,1104z M2639.6,894
		c1.9-2.8,2.9-6.1,2.9-9.5c0-4.4-2.2-6.6-5.8-6.6s-6.6,2.9-9.5,8c-32.8,64.2-60.5,136.4-60.5,179.4c0,4.4,0.7,8,2.2,10.2
		c1.5,2.9,2.9,4.4,4.4,4.4c5.1,0,8-5.8,8-14.6C2581.2,1023.7,2607.5,949.4,2639.6,894L2639.6,894z M846.6,1133.8
		c-27.5,0-48.9-9.6-58.5-28.3c-24.6,29.2-50.7,44.3-81.5,44.3c-41.6,0-61.2-29.9-61.2-75.8c0.1-11.8,1.6-23.5,4.4-35
		c-34.3,39.4-62,66.4-84.6,80.2c-15.3,9.5-31.4,14.6-48.9,14.6c-27.3,0-49.1-15.2-55.6-42.2c-24.7,27.2-51.1,40-80.7,40
		c-29.9,0-45.2-19-50.3-59.8c-0.7-5.1-0.7-10.9-0.7-19c0-41.6,27.7-121,69.3-214.4l-70.7,7.3c-0.7,2.2-1.9,4.3-3.6,5.8l-13.1,19
		c-5.1,7.3-10.2,15.3-16.8,24.1c-75.4,110.9-111.8,162-154.8,197c-21.9,18.2-43,27-64.2,27c-25.5,0-44.5-4.4-62.7-22.6
		c-3.6-3.6-5.8-8-5.8-12.4c0-8.8,8.8-16,20.4-16c3.6,0,9.5,1.5,16,5.1c10.9,3.6,18.2,5.8,21.9,5.8c28.4,0,59.1-37.9,88.2-89.7
		c13.9-25.5,32.8-62,56.9-107.9l10.2-20.4c-40.1,7.3-71.5,15.3-93.3,23.3C77.3,905,61.3,921,40.1,974.2
		c-3.6,10.2-10.9,15.3-21.1,15.3c-9.5,0-19-8-19-19c0-3.5,0.8-7,2.2-10.2c22.6-62,48.9-89.7,105-113.8
		c28.4-12.4,74.4-24.1,137.8-33.5c78.7-150.9,149.5-243.5,231.9-243.5c41.6,0,72.9,16.8,72.9,48.9c0,14.6-14.6,48.1-35.7,83.9
		c-19.7,34.3-37.9,67.1-53.2,99.2c2.8,3.2,4.4,7.4,4.4,11.7c0,8.8-7.3,16.8-19.7,20.4c-42.3,92.6-66.4,165.5-72.9,220.2
		c-0.7,2.4-0.7,4.9,0,7.3v8.8c0.7,8.8,1.5,14.6,2.9,16.8s3.6,3.6,7.3,3.6c29.9,0,58.3-36.5,76.6-72.9c6.9-13.2,15.3-31,25.8-53.5
		c8.4-21.5,18.7-45,31.1-70.5c27-56.1,80.9-96.3,131.2-96.3c35,0,64.9,19.7,80.2,48.9l6.6-13.1c29.9-62,45.2-113,45.2-153.9
		c0.1-8.6-0.6-17.1-2.2-25.5c-2.2-7.3-2.9-11.7-2.9-13.9c0-21.1,15.3-32.8,33.5-32.8c19.7,0,40.1,11.7,45.2,28.4
		c2.3,8.1,3.5,16.4,3.6,24.8c0,48.9-29.9,107.9-81.7,197.6c-40.8,72.2-52.5,96.3-66.4,142.9c-6.6,24.1-10.2,43.7-10.2,59.8
		c0,19.7,5.8,29.9,17.5,29.9c29.2,0,50.3-21.9,71.5-60.5c6.3-12.1,14.5-28.7,24.7-49.7c2.5-5.9,5.3-11.9,8.1-18.2l11.7-25.5
		c28.4-62,38.6-87.5,38.6-117.4c0-27,16.8-41.6,37.2-41.6c19.7,0,37.2,13.1,40.8,34.3c0.7,2.9,0.7,7.3,0.7,13.1
		c0,35.7-17.5,79.5-43.7,131.3c-25.5,51.8-40.8,85.3-40.8,107.9c0,13.9,6.6,21.1,20.4,21.1c43,0,107.9-82.4,151.7-172.8
		c21.2-44.5,32.1-78.8,32.1-102.1c0-2.9-0.7-8-1.5-14.6c-1.5-6.6-2.2-10.9-2.2-14.6c0-9.5,3.7-16,11.7-19.7c3-1.3,6.2-2,9.5-2.2
		c8.8,0,15.3,6.6,19.7,19.7c4.4,13.9,6.6,30.6,6.6,51c0,111.6-56.9,209.3-138.5,263.2C932.6,1120,890.3,1133.8,846.6,1133.8z
		 M416.4,608.1c-2.9,0-7.3,2.2-13.1,6.6c-41.6,32.8-78.8,91.1-122.5,170.6c-1.3,2.5-2.1,5.2-2.2,8c0,2.9,1.5,4.4,5.1,4.4
		s8.8-2.9,10.9-6.6c53.2-92.6,78.7-135.6,116.6-164.8c6.6-5.1,9.5-9.5,9.5-13.9C420.7,609.6,419.3,608.1,416.4,608.1z M444.8,592.1
		c-2.8,0.3-5.5,1-8,2.2c-3.6,2.2-5.8,4.4-5.8,7.3c0,5.1,5.8,8,11.7,5.1c5.1-2.2,8-5.8,8-9.5C450.6,593.5,448.4,592.1,444.8,592.1
		L444.8,592.1z M479.1,679.6c12.4-20.4,21.9-44.5,21.9-56.1c0-3.6-0.7-5.8-2.9-5.8c-13.9,0-31.4,16-54,47.4
		c-22.6,32.1-51.8,77.3-87.5,134.9c10.9-0.7,24.8-1.5,41.6-3.6c5.1,0,11.7-0.7,20.4-1.5C439,753.2,459.4,715.3,479.1,679.6
		L479.1,679.6z M522.1,1103.9c-15.3,0-28.4-8-35-20.4c-0.7-2.2-2.9-3.6-5.8-3.6c-3.6,0-6.6,3.6-6.6,7.3c0,2.6,0.8,5.1,2.2,7.3
		c9.5,14.6,25.5,24.1,45.2,24.1c6.6,0,10.9-3.6,10.9-6.6C533,1108.3,527.9,1103.9,522.1,1103.9L522.1,1103.9z M792.6,740.1
		c4.4,0,7.3-3.6,8.8-10.2c5.1-20.4,7.3-35.7,7.3-45.9c0-9.5-1.5-19.7-3.6-30.6c-0.7-6.6-5.8-10.9-9.5-10.9s-5.8,2.2-5.8,7.3
		c0,2.9,0.7,7.3,2.2,13.9c1.4,6.7,2.2,13.6,2.2,20.4c0,11.7-2.2,25.5-6.6,41.6c-0.7,1.5-0.7,3.6-0.7,5.8
		C786.8,737.2,789.7,740.1,792.6,740.1z M771.5,803.5c3.6,0,6.6-3.6,9.5-10.9c3.7-8.3,6.9-16.8,9.5-25.5c0.7-1.5,0.7-2.9,0.7-5.1
		c0-3.6-2.9-7.3-5.8-7.3s-7.3,2.9-8,8l-8.8,25.5c-1,2.6-1.5,5.3-1.5,8C767.1,799.9,769.3,803.5,771.5,803.5L771.5,803.5z
		 M549.1,1112.7c8,0,10.9-4.4,10.9-8s-3.6-6.6-7.3-6.6c-5.8,0-10.2,3.6-10.2,8.8C542.5,1110.5,544.7,1112.7,549.1,1112.7z
		 M592.8,829.8c-3.6,0-7.3,1.5-10.9,5.1c-6.6,5.1-11.7,9.5-16,14.6c-3.6,3.6-5.1,6.6-5.1,9.5c0,3.2,2.5,5.8,5.7,5.8
		c0.1,0,0.1,0,0.2,0c3.6,0,6.6-1.5,9.5-4.4c5.3-5.5,10.9-10.6,16.8-15.3c3.5-1.9,5.7-5.5,5.8-9.5C598.6,832,596.5,829.8,592.8,829.8
		L592.8,829.8z M627.8,810.1c-6.6,2.2-12.4,4.4-16,6.6s-5.1,4.4-5.1,6.6c0,5.8,7.3,9.5,13.1,5.8l12.4-5.1c5.1-1.5,7.3-4.4,7.3-8
		C639.5,810.8,635.8,807.9,627.8,810.1L627.8,810.1z M676.7,847.3c-4.4-3.3-9.8-5.1-15.3-5.1c-41.6,0-83.9,89-107.2,161.1
		c-3.3,9.1-5.1,18.7-5.1,28.4c0,14.6,5.8,23.3,15.3,23.3c8,0,17.5-5.8,29.9-18.2c31.4-32.1,54-61.2,95.5-116.7
		c5.8-8,8.8-17.5,8.8-28.4C698.5,874.3,690.5,856,676.7,847.3L676.7,847.3z M710.9,1120.7c-18.2-1.5-29.2-10.9-33.5-27.7
		c-2.2-6.6-5.1-10.2-8.8-10.2s-7.3,5.8-5.1,14.6c5.8,24.1,24.1,37.9,47.4,37.9l0,0c8,0,12.4-2.2,12.4-6.6
		C723.3,1125.1,719,1121.4,710.9,1120.7L710.9,1120.7z M887.4,863.3c4.9-0.2,8.9-3.9,9.5-8.8c4.4-16,6.6-28.4,6.6-37.2
		c0-6.6-2.9-11.7-8-11.7c-2.9,0-6.6,3.6-6.6,10.2c0,2.9,0,23.3-5.8,35.7l-1.5,5.1C881.6,861.1,883.7,863.3,887.4,863.3L887.4,863.3z
		 M1076.2,934.8c3.6,0,5.8-2.9,7.3-8c2.9-9.5,5.1-16.8,5.8-21.9c0.7-2.2,0.7-4.4,0.7-7.3c0-7.3-2.2-10.9-6.6-10.9
		c-2.9,0-7.3,3.6-8,11.7c-1.5,7.2-3.4,14.2-5.8,21.1c-0.7,1.5-0.7,2.9-0.7,5.1C1069,930.4,1072.6,934.8,1076.2,934.8z M1069,956.7
		c0-4.4-1.5-6.6-4.4-6.6c-3.7,0-7.3,3.6-11.7,11.7c-25.5,48.9-63.4,89-107.9,113c-6.6,3.6-10.2,8-10.2,12.4c0,3.6,2.2,5.1,5.8,5.1
		c2.2,0,5.1-1.5,10.2-3.6c47.4-26.3,88.2-68.5,114.5-118.9C1067.5,965.4,1069,961,1069,956.7z"/>
</g>
<g id="Balloon">
	<path id="strings_1_" class="st2" d="M3000.4,771.2l-52,7.3l106,753.9l52-7.3L3000.4,771.2z M3698,958.1l41.4,32.4l-468.7,599.9
		l-41.4-32.4L3698,958.1z M3323.8,857.8l50.8,13.6L3175,1616.2l-50.8-13.6L3323.8,857.8z"/>
	<path id="strings_shade_1_" class="st3" d="M3739.4,990.4l-468.7,599.9l-41.4-32.4L3698,958.1L3739.4,990.4z M3286.9,1198.6
		l-69.9,261c-13.8-17.5-27.2-35.2-40.1-53.3l45.1-168.3C3243.8,1225.1,3265.4,1212,3286.9,1198.6L3286.9,1198.6z M3033.7,1007.7
		l30.1,214.1c-14.3-27.7-27.6-55.8-40.2-84.4c-14-32.1-26.9-64.7-38.5-97.6L2950.8,796C2973.4,868.5,3001.1,939.1,3033.7,1007.7z"/>
	<path id="red_pin_1_" class="st4" d="M2927.1,411.9c0,0-42.1,136.2,24.9,392c84.6,323.5,255.3,590.2,255.3,590.2l0,0
		c0,0,281.2-145.6,516.3-383.4c185.8-188,217.5-327,217.5-327c88.9-284.2-79.4-589.5-365-666S2992.2,121.3,2927.1,411.9z"/>
	<path id="shade_red" class="st5" d="M3947.9,395.1c24,92,23.7,191.5-6.7,288.5c0,0-31.7,139-217.5,327
		c-235.1,237.8-516.3,383.4-516.3,383.4l0,0c0,0-170.8-266.7-255.4-590.2c-2.2-8.4-4.3-16.6-6.2-24.7
		c51.6,172.6,132.2,335.2,238,480.9C3563.1,1044.7,3904.6,739.6,3947.9,395.1z"/>
	<path id="orange_A_1_" class="st6" d="M3723.6,1010.7c-91.8,93-190.7,171.8-277.2,233.3c2.3-36.4,3.7-72.4,4.4-109.1
		c1-53.8,0.4-106.4-2.1-160.2l-241-64.6c-28.9,45.4-55.8,90.6-81.9,137.7c-17.7,32.1-34.5,64-50.7,96.6
		c-44-96.6-90.2-214.2-123.3-340.7c-26.5-101.1-35.9-183.6-37.6-246.4c63-83.3,129.4-164.1,199-242.3
		c98.9-110.9,204.1-216.1,315.1-315c100.1-2.7,198.9,23.8,284.4,76.2c46.7,141.1,85.2,284.8,115.4,430.4
		c21.3,102.6,38.3,205.7,51.2,309.4C3846.5,869.6,3797.1,936.3,3723.6,1010.7z"/>
	<path id="shade_orange_1" class="st7" d="M3856.4,658.1c-89.7,157.7-235.1,302.5-405.1,428.7c0,16-0.2,32-0.4,48.2
		c-0.7,36.7-2.1,72.7-4.4,109.1c2.5-1.8,5-3.7,7.6-5.4c0.3-0.2,0.6-0.5,1-0.7c2.6-1.8,5.1-3.7,7.7-5.6l0,0c2.6-1.8,5.1-3.8,7.7-5.6
		c0.3-0.2,0.6-0.4,0.9-0.6c2.6-1.9,5.1-3.8,7.8-5.7c0.2-0.2,0.4-0.3,0.6-0.5c2.5-1.9,5.1-3.7,7.5-5.6c0.2-0.2,0.4-0.3,0.6-0.4
		c2.6-1.9,5.3-3.9,7.8-5.9c0.4-0.3,0.7-0.5,1-0.7c5.3-4,10.6-8,15.8-12c0.4-0.3,0.8-0.6,1.2-1c5.3-4,10.6-8.1,15.9-12.3
		c0.4-0.3,0.8-0.6,1.3-1c2.7-2,5.2-4.1,7.9-6.2c0.3-0.2,0.6-0.4,0.8-0.6c2.5-1.9,5-3.9,7.4-5.8c0.4-0.3,0.7-0.6,1.1-0.9
		c2.6-2.1,5.3-4.2,7.9-6.3c0.4-0.3,0.8-0.6,1.2-1c2.5-2,5-4,7.5-6c0.2-0.2,0.5-0.4,0.7-0.6c2.6-2.1,5.3-4.3,7.9-6.4
		c0.5-0.5,1-0.8,1.5-1.3c5.3-4.4,10.6-8.8,15.9-13.2c0.6-0.4,1-0.9,1.6-1.3c2.6-2.2,5.3-4.5,7.9-6.7c0.3-0.2,0.5-0.5,0.8-0.7
		c2.4-2.1,4.9-4.1,7.3-6.2c0.5-0.5,1-0.9,1.5-1.3c2.6-2.2,5.2-4.5,7.8-6.8c0.5-0.4,0.9-0.8,1.3-1.2c2.4-2.1,4.7-4.1,7.1-6.2
		c0.4-0.3,0.8-0.7,1.2-1.1c2.6-2.3,5.2-4.6,7.8-6.9c0.6-0.5,1.1-1,1.6-1.5c2.5-2.2,5-4.4,7.4-6.6c0.2-0.2,0.4-0.3,0.6-0.5
		c2.6-2.4,5.2-4.7,7.9-7.1c0.6-0.5,1.2-1.1,1.7-1.6c2.6-2.4,5.2-4.8,7.9-7.2c0.2-0.2,0.4-0.3,0.5-0.5c2.5-2.3,4.9-4.6,7.4-6.9
		c0.6-0.5,1.2-1.1,1.7-1.6c2.6-2.4,5.1-4.8,7.7-7.2c0.4-0.4,0.9-0.8,1.3-1.2c2.3-2.2,4.6-4.4,6.9-6.6c0.5-0.5,1-0.9,1.5-1.4
		c2.5-2.4,5.1-4.9,7.6-7.4c0.5-0.5,1.1-1,1.6-1.5c2.4-2.3,4.7-4.5,7-6.8c0.3-0.4,0.7-0.6,1-1c2.6-2.5,5.1-5,7.6-7.5
		c0.6-0.6,1.2-1.1,1.7-1.7c2.6-2.6,5.2-5.2,7.7-7.7c2-2.1,4-4.1,6-6.2c0.5-0.5,1-1,1.5-1.5c1.9-2,3.8-3.9,5.6-5.9
		c0.4-0.4,0.8-0.9,1.2-1.3c1.6-1.6,3.1-3.3,4.7-4.9c0.5-0.5,1-1,1.5-1.6c1.7-1.9,3.5-3.7,5.2-5.6c0.6-0.6,1.1-1.2,1.7-1.8
		c1.4-1.5,2.8-3,4.2-4.5c0.4-0.5,0.9-0.9,1.3-1.5c1.6-1.8,3.3-3.6,4.9-5.4c0.6-0.7,1.2-1.3,1.9-2c1.5-1.7,3.1-3.4,4.6-5.1
		c0.5-0.6,1-1.2,1.6-1.8c1.2-1.4,2.5-2.8,3.7-4.2c0.6-0.7,1.2-1.3,1.8-2.1c1.5-1.7,3-3.4,4.5-5c0.5-0.7,1.1-1.3,1.7-1.9
		c1.1-1.3,2.2-2.6,3.4-3.9c0.5-0.7,1.1-1.2,1.6-1.9c1.5-1.6,2.8-3.3,4.2-5c0.6-0.7,1.2-1.4,1.7-2.1c1.2-1.4,2.3-2.8,3.5-4.1
		c0.6-0.7,1.2-1.4,1.7-2.1c1.2-1.4,2.4-2.9,3.5-4.3c0.5-0.7,1.1-1.3,1.6-2c1.4-1.7,2.7-3.3,4-4.9c0.4-0.5,0.9-1.1,1.3-1.6
		c1.1-1.3,2.2-2.6,3.2-3.9c0.4-0.5,0.9-1.1,1.3-1.7c1.3-1.7,2.6-3.3,3.9-4.9c0.4-0.5,0.9-1.1,1.3-1.6c1.1-1.4,2.2-2.8,3.3-4.3
		c0.3-0.4,0.6-0.8,0.9-1.1c1.3-1.7,2.6-3.4,3.9-5.1c0.3-0.5,0.8-1,1.1-1.4c1.3-1.7,2.6-3.4,3.8-5.1c0.1-0.2,0.3-0.4,0.5-0.6
		c1.2-1.6,2.4-3.1,3.5-4.7c0.3-0.4,0.6-0.8,0.9-1.1c1.3-1.7,2.5-3.4,3.8-5.1c0.2-0.3,0.4-0.6,0.6-0.9c1.1-1.6,2.3-3.2,3.5-4.8
		c0.1-0.2,0.3-0.4,0.5-0.6c1.3-1.8,2.5-3.5,3.7-5.2c0.2-0.2,0.3-0.5,0.6-0.7c2.5-3.5,4.9-7,7.3-10.5c0.1-0.2,0.2-0.3,0.3-0.5
		c8.8-12.8,16.7-25.1,23.8-36.7C3872.8,763.3,3865.1,710.7,3856.4,658.1z"/>
	<path id="shade_orange_2" class="st7" d="M2955.4,816.8c1,3.5,1.9,6.9,2.8,10.3c0.1,0.4,0.2,0.9,0.3,1.2c0.9,3.2,1.8,6.4,2.7,9.6
		c0.2,0.7,0.4,1.3,0.5,2c1,3.5,1.9,6.8,3,10.3c0.2,0.6,0.3,1.2,0.5,1.7c0.9,3.1,1.9,6.3,2.8,9.4c0.2,0.5,0.3,0.9,0.4,1.4
		c1,3.5,2.1,6.9,3.1,10.3c0.2,0.6,0.4,1.3,0.6,2c1,3.4,2,6.7,3.1,10c0,0.1,0.1,0.2,0.1,0.3c1.1,3.5,2.1,6.9,3.3,10.3
		c0.2,0.6,0.4,1.4,0.6,2c1.1,3.4,2.2,6.9,3.3,10.3c0,0.1,0,0.2,0.1,0.2c1.1,3.4,2.2,6.7,3.3,10c0.2,0.6,0.4,1.2,0.6,1.8
		c1.1,3.4,2.2,6.8,3.4,10.1c0.1,0.4,0.2,0.8,0.4,1.1c1.1,3.1,2.2,6.3,3.2,9.4c0.2,0.5,0.3,0.9,0.5,1.4c1.1,3.4,2.3,6.6,3.5,10
		c0.2,0.5,0.4,1,0.5,1.5c1.1,3.2,2.3,6.4,3.4,9.5c0.1,0.2,0.1,0.4,0.2,0.6c1.2,3.3,2.4,6.7,3.6,10c0.2,0.6,0.4,1.1,0.6,1.7
		c2.4,6.6,4.8,13.2,7.3,19.7c0.2,0.6,0.4,1.1,0.7,1.6c1.2,3.2,2.5,6.5,3.6,9.7c0.1,0.2,0.2,0.4,0.3,0.7c1.1,3.1,2.3,6.1,3.5,9.1
		c0.2,0.5,0.4,1,0.6,1.5c1.3,3.2,2.4,6.3,3.7,9.4c0.2,0.4,0.3,0.9,0.5,1.3c1.2,2.9,2.3,5.8,3.5,8.8c0.1,0.3,0.3,0.7,0.4,1
		c1.2,3.1,2.5,6.2,3.7,9.2c0.2,0.6,0.4,1.1,0.6,1.7c1.2,3,2.4,6,3.7,9c0,0.1,0,0.2,0.1,0.2c1.2,3,2.5,6,3.7,9.1
		c0.3,0.7,0.5,1.2,0.7,1.9c1.2,2.9,2.5,5.9,3.7,8.8c0.1,0.2,0.2,0.4,0.3,0.7c1.1,2.8,2.3,5.5,3.5,8.2c0.3,0.7,0.5,1.3,0.8,1.9
		c1.2,2.8,2.4,5.7,3.6,8.4c0.2,0.6,0.4,1.1,0.7,1.6c1,2.4,2.1,4.8,3.1,7.2c0.3,0.7,0.5,1.2,0.8,1.9c1.2,2.7,2.3,5.3,3.5,8
		c0.3,0.7,0.6,1.5,1,2.2c1,2.2,2,4.5,2.9,6.7c0.3,0.6,0.6,1.2,0.8,1.8c1.1,2.6,2.3,5,3.4,7.6c0.4,0.9,0.8,1.7,1.2,2.6
		c0.9,2.1,2,4.3,2.9,6.4c0.2,0.4,0.4,0.8,0.6,1.3c4.9-9.8,9.8-19.6,14.8-29.3c-60.7-106-109.2-218.7-144.3-336.1
		c0.3,1.3,0.7,2.7,1,4c0.3,0.9,0.5,1.9,0.7,2.9c0.6,2.3,1.1,4.7,1.7,7.1c0.2,0.8,0.4,1.6,0.6,2.5c0.7,2.7,1.4,5.4,2.1,8.2
		c0.9,3.5,1.9,7,2.8,10.6C2955,815.2,2955.1,816,2955.4,816.8z"/>
	<path id="blue_basket_1_" class="st8" d="M3272.9,1596.1l-23.5,87.9c-7.5,28-36.4,44.7-64.4,37.2l0,0l-121.9-32.7
		c-28-7.5-44.7-36.4-37.2-64.4l23.5-87.9c-13.1-8.3-16.9-25.7-8.6-38.7c6.6-10.4,19.1-15.2,30.9-12L3279,1541
		c15,4,23.8,19.4,19.8,34.3C3295.6,1587.2,3285.1,1595.6,3272.9,1596.1z"/>
	<path id="shade_basket_1_" class="st9" d="M3236.3,1529.6l42.7,11.4c15,4,23.8,19.4,19.8,34.3c-3.2,11.8-13.6,20.2-25.9,20.7
		l-23.6,88c-7.5,28-36.4,44.7-64.4,37.2l0,0l-97.8-26.2c12.1-6.1,23.6-13.2,34.4-21.3c48.7-36.5,79.3-90.2,93.6-149.8L3236.3,1529.6
		z"/>
	<path id="white_circle_1_" class="st10" d="M3485.5,356c93.5,25.1,149,121.2,123.9,214.8c-25.1,93.6-121.2,149.1-214.7,124
		c-93.5-25.1-149-121.2-123.9-214.8S3392,331,3485.5,356z"/>
	<path id="light_line_upper_left" class="st0" d="M3000.7,370.3c-0.3-0.1-0.7-0.2-1.1-0.4c-6.3-2.4-9.6-9.4-7.3-15.7
		c18.2-49.5,44.5-95.3,78-136.1s73.4-75.3,118.6-102.6c5.8-3.5,13.4-1.6,16.8,4.1c3.5,5.8,1.6,13.4-4.1,16.8
		c-85.6,51.9-151.8,132.3-186.3,226.2C3013.2,368.7,3006.7,371.9,3000.7,370.3z"/>
	<path id="light_line_point" class="st0" d="M3228.3,1315.9c-2.4-0.6-4.6-2-6.3-4c-7.9-9.6-15.6-19.7-22.7-30
		c-7.9-11.5-15.2-23.5-21.8-35.8c-3.2-5.9-1-13.4,5-16.6c5.9-3.2,13.4-1,16.6,5c6.2,11.5,13.1,22.8,20.5,33.6
		c4.7,6.8,9.6,13.6,14.8,20.2c40.9-23.3,80.3-47,120.1-72.2c51.6-32.8,100.8-66.2,150.2-102.1c5.5-4,13.2-2.8,17.1,2.7
		c4,5.5,2.8,13.2-2.7,17.1c-49.9,36.3-99.4,69.9-151.5,103c-43.1,27.3-85.7,53-130.2,78C3234.6,1316.4,3231.3,1316.7,3228.3,1315.9z
		"/>
	<path id="light_line_upper_right" class="st0" d="M3879.6,393.2c-3.9-1-7.1-3.9-8.5-8c-16.3-48.9-40.2-94.6-71.2-135.8
		c-4.1-5.4-2.9-13.1,2.4-17.2c5.4-4.1,13.1-2.9,17.2,2.4c32.5,43.3,57.7,91.4,74.8,142.8c2.1,6.4-1.3,13.4-7.8,15.5
		C3884.3,393.8,3881.9,393.8,3879.6,393.2z"/>
	<path id="light_line_lower_left" class="st0" d="M3100.1,1663.4c-20-5.4-31.7-9.7-37.9-20.3c-7.4-12.9-3.2-28.5,5.4-59.7
		c1.3-4.9,2.9-10.5,4.5-16.5c1.8-6.6,8.5-10.4,15-8.7s10.4,8.5,8.7,15c-1.6,6.1-3.2,11.7-4.5,16.6c-5.5,19.8-10.1,37-7.8,40.9
		c2.1,3.5,17.5,7.5,33.9,11.8c4.9,1.2,10.4,2.7,16.5,4.3c6.6,1.8,10.4,8.5,8.7,15c-1.8,6.6-8.5,10.4-15,8.7c-6-1.6-11.5-3-16.3-4.3
		C3107.2,1665.3,3103.6,1664.3,3100.1,1663.4z"/>
	<circle id="light_dot_upper_left" class="st0" cx="3230.9" cy="104" r="12.3"/>
	<circle id="light_dot_point" class="st0" cx="3168.1" cy="1204.2" r="12.3"/>
	<circle id="light_dot_upper_right" class="st0" cx="3895.7" cy="421.5" r="12.3"/>
	<circle id="light_dot_lower_left" class="st0" cx="3166.5" cy="1666.3" r="12.3"/>
</g>
</svg>
