<?xml version="1.0" encoding="utf-8"?>
<!-- Generator: Adobe Illustrator 25.2.1, SVG Export Plug-In . SVG Version: 6.00 Build 0)  -->
<svg version="1.1" xmlns="http://www.w3.org/2000/svg" xmlns:xlink="http://www.w3.org/1999/xlink" x="0px" y="0px"
	 viewBox="0 0 3330 738" style="enable-background:new 0 0 3330 738;" xml:space="preserve">
<style type="text/css">
	.st0{fill:#BAF3FF;}
	.st1{fill:#FF4B47;}
	.st2{fill-rule:evenodd;clip-rule:evenodd;fill:#0E315C;}
	.st3{fill-rule:evenodd;clip-rule:evenodd;fill:#0B2551;}
	.st4{fill-rule:evenodd;clip-rule:evenodd;fill:#FF4B47;}
	.st5{fill-rule:evenodd;clip-rule:evenodd;fill:#CF393E;}
	.st6{fill-rule:evenodd;clip-rule:evenodd;fill:#FFA44F;}
	.st7{fill-rule:evenodd;clip-rule:evenodd;fill:#CF7C45;}
	.st8{fill-rule:evenodd;clip-rule:evenodd;fill:#1D66C0;}
	.st9{fill-rule:evenodd;clip-rule:evenodd;fill:#184DA9;}
	.st10{fill-rule:evenodd;clip-rule:evenodd;fill:#FFFFFF;}
</style>
<g id="Adventour_1_">
	<g id="Blue">
		<path class="st0" d="M436.8,101.8c2.5-1.1,5.2-1.9,8-2.2c3.6,0,5.8,1.5,5.8,5.1s-2.9,7.3-8,9.5c-5.8,2.9-11.7,0-11.7-5.1
			C430.9,106.1,433.1,103.9,436.8,101.8z M280.7,292.8c43.8-79.5,80.9-137.8,122.5-170.6c5.8-4.4,10.2-6.6,13.1-6.6s4.4,1.5,4.4,4.4
			c0,4.4-2.9,8.8-9.5,13.9C373.3,163,347.8,206,294.6,298.6c-2.2,3.6-7.3,6.6-10.9,6.6s-5.1-1.5-5.1-4.4
			C278.7,298,279.4,295.3,280.7,292.8z M786.8,238.8c0-2.2,0-4.4,0.7-5.8c4.4-16,6.6-29.9,6.6-41.6c0-6.9-0.7-13.7-2.2-20.4
			c-1.5-6.6-2.2-10.9-2.2-13.9c0-5.1,2.2-7.3,5.8-7.3s8.8,4.4,9.5,10.9c2.2,10.9,3.6,21.1,3.6,30.6c0,10.2-2.2,25.5-7.3,45.9
			c-1.5,6.6-4.4,10.2-8.8,10.2C789.7,247.6,786.8,244.7,786.8,238.8 M777.3,270.2c0.7-5.1,5.1-8,8-8s5.8,3.6,5.8,7.3
			c0,2.2,0,3.6-0.7,5.1c-2.6,8.7-5.8,17.2-9.5,25.5c-2.9,7.3-5.8,10.9-9.5,10.9c-2.2,0-4.4-3.6-4.4-7.3c0-2.7,0.5-5.5,1.5-8
			L777.3,270.2z M611.8,324.2c3.6-2.2,9.5-4.4,16-6.6c8-2.2,11.7,0.7,11.7,5.8c0,3.6-2.2,6.6-7.3,8l-12.4,5.1
			c-5.8,3.6-13.1,0-13.1-5.8C606.7,328.5,608.1,326.3,611.8,324.2z M565.8,357c4.4-5.1,9.5-9.5,16-14.6c3.6-3.6,7.3-5.1,10.9-5.1
			s5.8,2.2,5.8,5.8c-0.2,4-2.4,7.6-5.8,9.5c-5.9,4.7-11.5,9.8-16.8,15.3c-2.9,2.9-5.8,4.4-9.5,4.4c-3.2,0-5.8-2.5-5.8-5.7
			c0-0.1,0-0.1,0-0.2C560.7,363.5,562.2,360.6,565.8,357z M522.1,626c-19.7,0-35.7-9.5-45.2-24.1c-1.4-2.2-2.1-4.7-2.2-7.3
			c0-3.6,2.9-7.3,6.6-7.3c2.9,0,5.1,1.5,5.8,3.6c6.6,12.4,19.7,20.4,35,20.4c5.8,0,10.9,4.4,10.9,8C533,622.4,528.6,626,522.1,626
			L522.1,626z M710.9,642.8c-23.3,0-41.6-13.9-47.4-37.9c-2.2-8.8,1.5-14.6,5.1-14.6s6.6,3.6,8.8,10.2c4.4,16.8,15.3,26.2,33.5,27.7
			c8,0.7,12.4,4.4,12.4,8C723.3,640.6,718.9,642.8,710.9,642.8L710.9,642.8L710.9,642.8z M549.1,620.2c-4.4,0-6.6-2.2-6.6-5.8
			c0-5.1,4.4-8.8,10.2-8.8c3.6,0,7.3,2.9,7.3,6.6S557.1,620.2,549.1,620.2z M896.9,362.1c-0.6,4.8-4.6,8.6-9.5,8.8
			c-3.6,0-5.8-2.2-5.8-6.6l1.5-5.1c5.8-12.4,5.8-32.8,5.8-35.7c0-6.6,3.6-10.2,6.6-10.2c5.1,0,8,5.1,8,11.7
			C903.4,333.6,901.2,346,896.9,362.1L896.9,362.1z M1083.5,434.3c-1.5,5.1-3.7,8-7.3,8s-7.3-4.4-7.3-10.2c0-2.2,0-3.6,0.7-5.1
			c2.4-6.9,4.3-14,5.8-21.1c0.7-8,5.1-11.7,8-11.7c4.4,0,6.6,3.6,6.6,10.9c0,2.9,0,5.1-0.7,7.3
			C1088.6,417.5,1086.5,424.8,1083.5,434.3L1083.5,434.3z M950.8,596.1c-5.1,2.2-8,3.6-10.2,3.6c-3.6,0-5.8-1.5-5.8-5.1
			c0-4.4,3.6-8.8,10.2-12.4c44.5-24.1,82.4-64.2,107.9-113c4.4-8,8-11.7,11.7-11.7c2.9,0,4.4,2.2,4.4,6.6s-1.5,8.8-3.7,13.1
			C1039.1,527.6,998.2,569.9,950.8,596.1z M1255.6,322.7c3.7,0,7.3,2.9,7.3,5.8c0,3.6-4.4,8-10.2,10.2s-10.2-1.5-10.2-5.1
			c0-4.4,2.2-7.3,7.3-9.5L1255.6,322.7z M1198.7,363.5c6.9-7,14.2-13.5,21.9-19.7c3.7-2.9,6.6-4.4,9.5-4.4s4.4,1.5,4.4,5.1
			s-2.2,8-6.6,11.7s-10.9,9.5-19.7,18.2c-1.6,1.5-3.7,2.2-5.8,2.2c-3.6,0-6.5-2.9-6.6-6.5l0,0
			C1195.8,367.6,1196.9,365.2,1198.7,363.5L1198.7,363.5z M1179.1,619.5c-10.9-4.4-19-10.2-24.1-18.2c-2.2-2.9-3.7-5.8-3.7-8.8
			c0-3.6,1.5-5.1,5.1-5.1s6.6,1.5,9.5,4.4c6.6,6.6,13.1,11.7,19,14.6c4.4,2.2,6.6,5.1,6.6,8.8c0,3.6-2.2,5.8-6.6,5.8L1179.1,619.5z
			 M1208.9,630.4c-5.1-0.7-8-2.9-8-6.6c0-5.1,3.7-8,9.5-8h2.2c5.8,0.7,8.8,4.4,8.8,7.3c0,3.6-3.7,7.3-9.5,7.3H1208.9L1208.9,630.4z
			 M1481.7,318.3c-5.1,5.1-13.1,0.7-13.1-5.1s7.3-10.2,12.4-10.2c3.2,0,5.8,2.5,5.8,5.7c0,0.1,0,0.1,0,0.2
			C1486.8,311.8,1485.3,314.7,1481.7,318.3L1481.7,318.3z M1453.9,363.5c-2.2,5.8-5.8,8.8-9.5,8.8s-5.1-2.2-5.1-6.6
			c0-3,0.8-6,2.2-8.8l13.1-26.2c2.2-3.6,5.1-5.8,8.8-5.8s6.6,3.6,6.6,7.3c0.1,2.2-0.7,4.2-2.2,5.8
			C1462.4,346,1457.7,354.6,1453.9,363.5L1453.9,363.5z M1594.7,366.4c-2.2,2.9-4.4,4.4-7.3,4.4c-4.4,0-6.6-2.2-6.6-5.8
			c0-2.2,1.4-5.1,3.6-7.3c21.2-21.1,38.7-32.1,52.5-32.1c5.8,0,8.8,1.5,8.8,5.1s-3.6,8.8-8.8,9.5
			C1624.6,342.4,1607.1,351.9,1594.7,366.4L1594.7,366.4z M1567.7,642.8c-5.8,0.7-9.5,1.5-11.7,1.5c-20.4,0-30.6-13.1-30.6-38.6
			c0-10.9,3.7-17.5,8.8-17.5c2.9,0,5.8,4.4,5.8,10.2v1.5c-2.2,20.4,4.4,29.2,19.7,29.2c3.7,0,5.8,0,8-0.7c3.2-0.6,6.4-0.3,9.5,0.7
			c2.2,1.5,2.9,2.9,2.9,4.4C1580.1,637,1575.7,642.1,1567.7,642.8L1567.7,642.8z M1766.8,314.7c4.4-10.3,9.5-20.3,15.3-29.9
			c6.6-10.9,10.2-18.2,12.4-21.9c2.2-4.4,5.1-6.6,8.8-6.6c5.1,0,7.3,2.2,7.3,7.3c-0.1,2.4-0.8,4.6-2.2,6.6l-27,46.7
			c-2.9,5.1-6.6,8-10.2,8s-5.1-2.2-5.1-5.8C1766,316.9,1766,315.4,1766.8,314.7L1766.8,314.7z M1752.2,628.9
			c-32.8-1.5-54.7-15.3-64.2-41.6c-1.3-3-2-6.2-2.2-9.5c0-5.1,2.9-8.8,5.8-8.8c3.6,0,6.6,3.6,8.8,10.2c7.3,21.9,24.8,33.5,51.8,35
			c8,0,12.4,3.6,12.4,7.3S1760.2,628.9,1752.2,628.9L1752.2,628.9z M2047.5,325.6c-5.8,0.7-9.5-2.9-9.5-6.6s4.4-8,10.9-8
			c5.1,0,8,2.2,8,6.6C2057,320.5,2053.3,324.9,2047.5,325.6L2047.5,325.6z M1977.5,365c-2.2,2.2-4.4,3.6-6.6,3.6
			c-3.6,0-6.6-2.9-6.6-6.5c0,0,0,0,0-0.1c0-2.5,1.1-4.9,2.9-6.6c13.9-16,29.9-27.7,48.9-35c6.6-2.9,10.9-0.7,10.9,4.4
			c0,3.6-2.2,6.6-7.3,8.8C2003.7,340.2,1989.9,351.1,1977.5,365L1977.5,365z M2078.1,435c-18.2-14.6-29.9-42.3-30.6-66.4
			c0-7.3,2.2-10.9,5.8-10.9s7.3,5.1,8,11.7c0.7,18.2,10.9,40.8,25.5,53.2c3.6,2.9,5.1,5.8,5.1,9.5c0,5.1-2.2,7.3-5.8,7.3
			C2083.9,439.4,2081,437.9,2078.1,435L2078.1,435z M1956.3,629.7c-29.2-0.7-51-18.2-60.5-46.7c-1.2-2.8-2-5.7-2.2-8.8
			c0-5.8,2.2-8.7,6.6-8.8c2.9,0,7.3,2.9,8,8c6.6,25.5,24.1,40.8,48.1,41.6c7.3,0.7,10.9,3.6,10.9,8.8c0,3.6-2.9,5.8-9.5,5.8h-1.4
			V629.7z M2224.7,358.4c4.3-11.3,7.5-23,9.5-35c0.7-5.8,4.4-9.5,7.3-9.5c3.6,0,7.3,4.4,7.3,10.2v2.2c-0.7,10.9-4.4,22.6-10.2,36.5
			c-2.2,5.1-5.8,8-9.5,8s-5.1-2.2-5.1-7.3C2223.9,361.3,2223.9,359.9,2224.7,358.4L2224.7,358.4z M2344.3,647.2
			c-22.6,0-35.7-16-35.7-41.6c0-8.8,3.6-15.3,8.8-15.3c2.9,0,5.8,2.9,5.8,8.8v2.2c-2.2,20.4,7.3,32.1,22.6,31.4
			c3.9,0.3,7,3.4,7.3,7.3C2353,643.5,2350.1,647.2,2344.3,647.2z M2533.1,263.6c-1.8,0.9-3.8,1.4-5.8,1.5c-4.4,0-6.6-1.5-6.6-5.1
			c0-8,10.2-10.9,13.9-10.9s5.8,1.5,5.8,5.1C2540.4,257.8,2538.2,260.7,2533.1,263.6L2533.1,263.6z M2513.4,264.4
			c2.9,0,5.1,2.9,5.1,6.6c0,2.7-1,5.3-2.9,7.3c-5.3,6.9-8.2,15.4-8,24.1c0,6.6-4.4,11.7-8,11.7c-4.4,0-6.6-3.6-6.6-11.7l0,0
			c-0.1-12.4,4.6-24.5,13.1-33.5C2508.3,265.8,2511.2,264.4,2513.4,264.4 M2566.6,572.8c0-43,27.7-115.2,60.5-179.4
			c2.9-5.1,5.8-8,9.5-8s5.8,2.2,5.8,6.6c0,3.4-1.1,6.7-2.9,9.5c-32.1,55.4-58.3,129.8-58.3,171.4c0,8.8-2.9,14.6-8,14.6
			c-1.4,0-2.9-1.5-4.4-4.4C2567.4,580.8,2566.6,577.2,2566.6,572.8L2566.6,572.8z M2595.8,626c-8.1-2.7-15.2-7.8-20.4-14.6
			c-1-2-1.5-4.3-1.5-6.6c0-5.1,3.6-8,6.6-8s5.1,1.5,5.8,3.6c2.9,5.1,8,9.5,16,12.4c2.3,0.6,3.8,2.7,3.6,5.1c0,5.1-4.4,8.8-8,8.8
			L2595.8,626z"/>
		<path class="st0" d="M2344.3,648.7c-23.3,0-37.2-16.1-37.2-43.1c0-9.9,4.2-16.8,10.3-16.8c3.5,0,7.3,3.2,7.3,10.3l0,2.4
			c-1.1,10.6,0.9,18.9,5.8,24.2c3.7,3.9,9,5.9,15.3,5.6l0.1,0l0.1,0c4.7,0.4,8.3,4,8.7,8.7l0,0.1l0,0.1
			C2354.5,644.3,2350.9,648.7,2344.3,648.7z M2317.4,591.8c-4.2,0-7.3,5.8-7.3,13.8c0,25.1,12.8,40.1,34.2,40.1
			c4.9,0,7.2-2.9,7.3-5.7c-0.3-3.1-2.7-5.6-5.8-5.8c-7.1,0.3-13.2-2-17.5-6.5c-5.5-5.9-7.8-15-6.6-26.4v-2.1
			C2321.7,594.1,2319.5,591.8,2317.4,591.8z M1556,645.8c-21.3,0-32.1-13.5-32.1-40.1c0-11.5,4-19,10.3-19c4,0,7.3,5.2,7.3,11.7
			l0,1.7c-1.2,10.8,0.2,18.2,4.1,22.6c3,3.4,7.6,5,14.1,5c3.6,0,5.6,0,7.5-0.6l0.2,0c3.3-0.6,6.8-0.4,10.2,0.7l0.2,0.1l0.2,0.1
			c2.4,1.7,3.6,3.4,3.6,5.6c0,4.6-5.3,10-13.7,10.8c-2.4,0.3-4.4,0.6-6.2,0.9C1559.2,645.5,1557.4,645.8,1556,645.8z M1534.2,589.7
			c-4.3,0-7.3,6.6-7.3,16c0,24.6,9.8,37.1,29.1,37.1c1.2,0,3-0.3,5.2-0.6c1.7-0.3,3.8-0.6,6.3-0.9l0,0c7.1-0.6,11-5,11-7.8
			c0-0.8-0.3-1.8-2.1-3c-2.9-0.9-5.7-1.1-8.5-0.6c-2.4,0.7-4.6,0.7-8.4,0.7c-7.4,0-12.8-2-16.4-6c-4.5-5-6.1-13.1-4.8-24.8v-1.4
			C1538.5,593.1,1536,589.7,1534.2,589.7z M710.9,644.3c-24.3,0-43-15-48.9-39c-1.4-5.5-0.7-10.6,1.8-13.8c1.3-1.7,3-2.6,4.8-2.6
			c4.3,0,7.7,3.8,10.2,11.2c4.3,16.6,14.9,25.3,32.2,26.7c9.5,0.8,13.8,5.5,13.8,9.5C724.8,639.9,722.4,644.3,710.9,644.3z
			 M668.6,591.8c-0.8,0-1.7,0.5-2.4,1.5c-0.7,0.9-2.9,4.5-1.2,11.3c5.6,23,22.7,36.8,45.9,36.8c5,0,10.9-0.9,10.9-5.1
			c0-2.7-3.9-5.9-11-6.5c-18.5-1.5-30.2-11.2-34.8-28.8C674,595.1,671.4,591.8,668.6,591.8z M1211.9,631.9l-3.2,0
			c-8.1-1.1-9.3-5.5-9.3-8.1c0-5.9,4.2-9.5,11-9.5l2.4,0c6.6,0.8,10.1,5.1,10.1,8.8C1222.9,627.3,1218.7,631.9,1211.9,631.9z
			 M1209,628.9h2.9c4.9,0,8-3,8-5.8c0-2-2.3-5.2-7.4-5.8h-2.1c-2.4,0-8,0.6-8,6.5C1202.4,626.6,1204.6,628.3,1209,628.9z
			 M1957.8,631.2l-1.5,0c-29.4-0.7-52-18.1-61.9-47.7c-1.3-3.2-2.1-6.2-2.3-9.2c0-8.5,4.4-10.3,8.1-10.4c3.5,0,8.6,3.2,9.5,9.2
			c6.5,24.9,23.5,39.6,46.7,40.4c8.2,0.8,12.4,4.2,12.4,10.3c0,2.7-1.4,7.3-10.9,7.3V631.2z M1900.2,566.9c-2.4,0.1-5.1,0.9-5.1,7.3
			c0.2,2.6,0.9,5.4,2.1,8.2l0,0.1c9.3,27.8,30.2,44.4,57.6,45.6v0h2.9c8,0,8-3.2,8-4.3c0-2.7-1-6.5-9.5-7.3
			c-24.6-0.8-42.6-16.4-49.4-42.7l0-0.2C1906.1,569.1,1902.2,566.9,1900.2,566.9z M1752.2,630.4L1752.2,630.4
			c-33.9-1.5-56-15.9-65.6-42.6c-1.3-3-2.1-6.3-2.3-9.9c0-5.8,3.3-10.4,7.3-10.4c4.3,0,7.7,3.8,10.2,11.2c7,21.1,24,32.5,50.5,34
			c9,0,13.8,4.4,13.8,8.8C1766.1,625.9,1761.3,630.4,1752.2,630.4z M1691.6,570.5c-2,0-4.3,3.1-4.3,7.3c0.2,3.1,0.9,6.2,2.1,8.9
			c9.2,25.5,30.4,39.2,62.9,40.7c7.1,0,10.9-3,10.9-5.9c0-2.8-3.8-5.8-10.9-5.8c-27.9-1.5-45.8-13.7-53.2-36
			C1697,573.8,1694.4,570.5,1691.6,570.5z M2597.9,628.2h-0.2l-2.3-0.8c-8.4-2.8-15.7-8-21.1-15.1l-0.2-0.2
			c-1.1-2.2-1.7-4.7-1.7-7.3c0-5.9,4.2-9.5,8.1-9.5c3.4,0,6.2,1.7,7.2,4.5c3,5.1,8,9,15.1,11.6c3,0.8,4.9,3.5,4.7,6.6
			C2607.4,623.8,2602.4,628.2,2597.9,628.2z M2596.3,624.6l1.8,0.6c2.6-0.2,6.3-3,6.3-7.3l0-0.1c0.1-1.7-0.9-3.1-2.5-3.5l-0.1,0
			c-7.8-2.8-13.5-7.2-16.8-13.1l-0.1-0.3c-0.5-1.6-2.2-2.6-4.4-2.6c-2.1,0-5.1,2.1-5.1,6.5c0,2.1,0.4,4.1,1.3,5.8
			C2581.7,617.2,2588.5,622,2596.3,624.6z M522.1,627.5c-19.3,0-36.2-9-46.5-24.8c-1.5-2.4-2.3-5.1-2.4-8.1c0-4.2,3.3-8.9,8.1-8.9
			c3.4,0,6.2,1.8,7.2,4.5c6.5,12,19.3,19.5,33.6,19.5c6.3,0,12.4,4.7,12.4,9.5C534.5,623.3,529.5,627.5,522.1,627.5z M481.3,588.8
			c-2.9,0-5.1,3.1-5.1,5.8c0.1,2.4,0.8,4.6,2,6.5c9.7,14.9,25.7,23.4,43.9,23.4c5.7,0,9.4-3.1,9.4-5.2c0-2.6-4.2-6.5-9.4-6.5
			c-15.4,0-29.4-8.1-36.3-21.2l-0.1-0.2C485.2,589.8,483.4,588.8,481.3,588.8z M1184.9,622.5l-0.4,0l-6-1.6
			c-11.6-4.7-19.7-10.8-24.8-18.7c-2.7-3.6-4-6.7-4-9.7c0-4.4,2.2-6.6,6.6-6.6c3.9,0,7.3,1.5,10.6,4.8c6.7,6.7,13,11.6,18.6,14.3
			c4.9,2.5,7.4,5.9,7.4,10.1C1193,619.8,1190,622.5,1184.9,622.5z M1179.6,618.1l5.5,1.4c3.3-0.1,4.9-1.5,4.9-4.3
			c0-3.1-1.9-5.5-5.8-7.5c-5.9-2.9-12.4-7.9-19.4-14.9c-2.7-2.7-5.3-4-8.4-4c-2.8,0-3.6,0.8-3.6,3.6c0,2.3,1.1,4.8,3.4,7.9l0.1,0.1
			C1161,607.9,1168.6,613.6,1179.6,618.1z M549.1,621.7c-5.1,0-8.1-2.7-8.1-7.3c0-5.9,5-10.3,11.7-10.3c4.2,0,8.8,3.3,8.8,8.1
			C561.5,616.9,557.7,621.7,549.1,621.7z M552.7,607.1c-5,0-8.7,3.1-8.7,7.3c0,2.9,1.7,4.3,5.1,4.3c6.9,0,9.4-3.5,9.4-6.5
			C558.5,609.3,555.4,607.1,552.7,607.1z M940.6,601.2c-6.4,0-7.3-4.1-7.3-6.6c0-5,3.9-9.9,11-13.7c43.7-23.7,81.8-63.6,107.3-112.4
			c4.8-8.8,8.7-12.5,13-12.5c2.2,0,5.9,1.1,5.9,8.1c0,4.2-1.3,8.7-3.9,13.8c-26.3,50.6-67.2,93-115.1,119.5l-0.1,0.1l-1.8,0.8
			C945.4,600.1,942.8,601.2,940.6,601.2z M1064.6,459c-3,0-6.3,3.5-10.4,10.9c-25.8,49.3-64.3,89.7-108.5,113.6
			c-6.1,3.3-9.4,7.2-9.4,11.1c0,1.8,0.5,3.6,4.3,3.6c1.6,0,4.1-1.1,7.8-2.7l1.8-0.8c47.4-26.2,87.8-68.2,113.8-118.2
			c2.4-4.6,3.5-8.7,3.5-12.4C1067.5,459,1065.4,459,1064.6,459z M2573.2,589c-2,0-3.9-1.7-5.7-5.2c-1.6-2.6-2.4-6.4-2.4-11
			c0-38.4,22.7-105.7,60.7-180.1c2.4-4.1,5.7-8.8,10.8-8.8c4.6,0,7.3,3,7.3,8.1c0,3.6-1.1,7.1-3.1,10.3
			c-33.1,57.1-58.1,130.5-58.1,170.6C2582.7,582.8,2579.1,589,2573.2,589z M2636.6,386.9c-2.8,0-5.3,2.2-8.2,7.2
			c-37.7,73.9-60.3,140.7-60.3,178.7c0,4,0.7,7.4,2,9.5l0.1,0.1c1.8,3.5,2.9,3.6,3.1,3.6c4.8,0,6.5-6.8,6.5-13.1
			c0-40.6,25.2-114.6,58.5-172.2c1.8-2.8,2.7-5.8,2.7-8.7C2640.9,387.4,2638.4,386.9,2636.6,386.9z M1076.2,443.8
			c-4.8,0-8.8-5.4-8.8-11.7c0-2.3,0-3.9,0.8-5.7c2.2-6.4,4.1-13.4,5.7-20.8c0.8-9,6-13,9.5-13c3.7,0,8.1,2.2,8.1,12.4
			c0,2.9,0,5.3-0.7,7.6c-0.7,5.3-2.9,12.6-5.8,22C1084.3,437,1082.3,443.8,1076.2,443.8z M1083.4,395.7c-2,0-5.9,3-6.5,10.3l0,0.2
			c-1.6,7.5-3.6,14.7-5.9,21.3l-0.1,0.1c-0.6,1.2-0.6,2.4-0.6,4.5c0,5,3.1,8.7,5.8,8.7c1.8,0,4.1-0.8,5.9-6.9l0,0
			c2.5-8.1,5-16.3,5.7-21.7l0.1-0.3c0.6-2,0.6-4,0.6-6.8C1088.5,395.7,1084.8,395.7,1083.4,395.7z M2086.1,440.9
			c-2.7,0-5.9-1.7-9-4.8c-17.6-14.1-30.4-41.9-31.1-67.5c0-10.8,4.6-12.4,7.3-12.4c4.5,0,8.7,5.7,9.5,13l0,0.1
			c0.7,18.5,11.2,40.4,25,52.1c3.9,3.1,5.6,6.4,5.6,10.6C2093.4,439.8,2088.8,440.9,2086.1,440.9z M2053.3,359.2
			c-3.7,0-4.3,5.9-4.3,9.4c0.7,24.8,13.1,51.6,30,65.2l0.1,0.1c2.5,2.5,5.1,4,6.9,4c2,0,4.3-0.7,4.3-5.8c0-3.3-1.4-5.8-4.5-8.3
			c-14.4-12.2-25.3-35-26.1-54.3C2059.1,363.4,2055.9,359.2,2053.3,359.2z M1202.4,378.1c-4.4,0-8-3.5-8.1-8c0-2.9,1.2-5.7,3.3-7.7
			c6.7-6.8,13.9-13.3,22-19.8c4.2-3.3,7.4-4.7,10.4-4.7c2.7,0,5.9,1.1,5.9,6.6c0,4.3-2.7,9.1-7.1,12.8c-5.7,4.8-12.3,10.9-19.6,18.1
			C1207.4,377.2,1205,378.1,1202.4,378.1z M1230.1,340.9c-2.4,0-4.9,1.2-8.6,4.1c-8,6.5-15.2,12.9-21.8,19.6l0,0
			c-1.5,1.5-2.4,3.5-2.4,5.5c0.1,2.8,2.3,5,5.1,5c1.8,0,3.5-0.6,4.8-1.8c7.3-7.3,14-13.4,19.8-18.3c3.8-3.2,6.1-7.1,6.1-10.6
			C1233,341.5,1231.9,340.9,1230.1,340.9z M1444.4,373.8c-6.6,0-6.6-6.1-6.6-8.1c0-3.2,0.8-6.3,2.4-9.5l13.2-26.3
			c2.6-4.3,6-6.5,10.1-6.5c4.4,0,8.1,4,8.1,8.8c0.1,2.5-0.8,4.8-2.5,6.7c-5.4,7.9-10,16.4-13.7,25.1
			C1453,370.2,1448.9,373.8,1444.4,373.8z M1455.9,331.4l-13.1,26.1c-1.4,2.7-2,5.4-2,8.1c0,4.7,1.7,5.1,3.6,5.1
			c3.2,0,6.2-2.9,8.1-7.8l0-0.1c3.8-9,8.5-17.6,14-25.8l0.1-0.2c1.3-1.3,1.9-3,1.8-4.7c0-3.2-2.4-5.9-5.1-5.9
			C1460.5,326.4,1458,328.1,1455.9,331.4z M566.4,373.8c-4,0-7.3-3.2-7.3-7.2v-0.2c0.1-3.5,1.8-6.7,5.6-10.4
			c4.9-5.6,10.6-10.4,16.1-14.7c3.7-3.6,7.7-5.5,11.9-5.5c4.4,0,7.3,2.9,7.3,7.3c-0.2,4.5-2.7,8.6-6.5,10.7
			c-5.8,4.6-11.4,9.7-16.6,15.1C573.6,372.3,570.4,373.8,566.4,373.8z M592.7,338.8c-3.4,0-6.7,1.6-9.8,4.7l-0.1,0.1
			c-5.4,4.2-11.1,8.9-15.8,14.4l-0.1,0.1c-3.2,3.2-4.7,5.8-4.8,8.4l0,0.1c0,2.4,1.9,4.2,4.3,4.2c3.1,0,5.7-1.2,8.4-4
			c5.3-5.5,11-10.7,16.9-15.4l0.2-0.1c2.9-1.6,4.9-4.8,5-8.3C597,340.3,595.5,338.8,592.7,338.8z M887.5,372.4c-4.6,0-7.4-3-7.4-8.1
			v-0.2l1.6-5.5c5.2-11.2,5.7-29.7,5.7-35.1c0-7.3,4.1-11.7,8.1-11.7c5.7,0,9.5,5.3,9.5,13.2c-0.1,8.7-2.3,21.3-6.6,37.4
			C897.6,367.9,893,372.2,887.5,372.4z M883.1,364.5c0.1,3.3,1.5,4.9,4.3,4.9c4-0.2,7.5-3.4,8-7.5l0-0.2c4.2-15.9,6.5-28.3,6.5-36.7
			c0-4.7-1.7-10.2-6.5-10.2c-2.1,0-5.1,3-5.1,8.7c0,7.1-0.6,24.8-5.9,36.2L883.1,364.5z M2229.1,372.3c-5.9,0-6.6-5-6.6-8.8
			c-0.1-2.3-0.1-3.9,0.8-5.7c4.3-11.3,7.4-22.9,9.4-34.6c0.8-6.6,5.2-10.8,8.8-10.8c4.8,0,8.8,5.4,8.8,11.7v2.2
			c-0.7,10.3-3.7,21.3-10.3,37.1C2237.6,369,2233.5,372.3,2229.1,372.3z M2241.5,315.4c-2,0-5.2,3.1-5.8,8.2
			c-2,12-5.2,23.9-9.6,35.4l-0.1,0.2c-0.6,1.1-0.6,2.2-0.5,4.3c0,5.4,1.6,5.9,3.6,5.9c3.2,0,6.2-2.7,8.1-7.1
			c6.4-15.4,9.4-26.2,10.1-36l0-2.1C2247.3,319.1,2244.2,315.4,2241.5,315.4z M1587.4,372.3c-5.1,0-8.1-2.7-8.1-7.3
			c0-2.6,1.6-5.9,4-8.4c22-21.9,39.5-32.5,53.6-32.5c6.8,0,10.3,2.2,10.3,6.6c0,4.5-4.3,10.2-10.1,11c-10.9,2-28.5,10.8-41.2,25.7
			C1593.3,370.8,1590.6,372.3,1587.4,372.3z M1636.9,327.1c-13,0-30.3,10.7-51.4,31.7c-1.9,1.9-3.2,4.4-3.2,6.2
			c0,2.9,1.7,4.3,5.1,4.3c2.3,0,4.1-1.1,6.1-3.8l0.1-0.1c13.2-15.5,31.2-24.6,43.1-26.7c4.6-0.6,7.6-5.2,7.6-8
			C1644.2,329.6,1644.2,327.1,1636.9,327.1z M1970.9,370.1c-4.5,0-8.1-3.6-8.1-8V362c0-2.8,1.2-5.6,3.3-7.6
			c14.4-16.5,30.6-28.1,49.4-35.4c4-1.8,7.6-1.9,10-0.3c1.9,1.2,2.9,3.4,2.9,6.1c0,4.4-2.8,7.8-8.2,10.2
			c-14.9,6.2-28.5,16.3-41.7,31l-0.1,0.1C1975.8,368.8,1973.3,370.1,1970.9,370.1z M2021.4,320.6c-1.4,0-3,0.4-4.7,1.2
			c-18.5,7.1-34.3,18.4-48.4,34.6l-0.1,0.1c-1.5,1.5-2.4,3.5-2.4,5.5v0.1c0,2.8,2.3,5,5.1,5c1.6,0,3.4-1,5.5-3.1
			c13.4-15.1,27.4-25.4,42.7-31.8c4.3-1.8,6.4-4.3,6.4-7.4c0-1.2-0.3-2.7-1.6-3.6C2023.3,320.8,2022.4,320.6,2021.4,320.6z
			 M1249.3,340.9c-1.8,0-3.6-0.5-5.1-1.5c-2-1.4-3.2-3.5-3.2-5.7c0-5,2.6-8.5,8.2-10.9l0.2-0.1l6.2-1.4c4.5,0,8.8,3.5,8.8,7.3
			c0,4.3-4.7,9.1-11.2,11.6C1251.9,340.6,1250.6,340.9,1249.3,340.9z M1250.3,325.5c-4.5,1.9-6.3,4.3-6.3,8.1c0,1.2,0.7,2.4,1.9,3.3
			c1.7,1.1,3.9,1.3,6.2,0.4c5.7-2.2,9.2-6.3,9.2-8.8c0-1.9-2.6-4.2-5.6-4.3L1250.3,325.5z M614.8,339.4c-1.7,0-3.5-0.4-5-1.3
			c-2.9-1.6-4.6-4.4-4.6-7.4c0-3,2-5.6,5.8-7.8c4-2.4,10.4-4.8,16.3-6.7c4.8-1.3,8.4-1,10.9,0.8c1.8,1.4,2.8,3.6,2.8,6.4
			c0,2.7-1.1,7.4-8.3,9.4l-12.2,5C618.7,338.9,616.8,339.4,614.8,339.4z M632.7,318.4c-1.3,0-2.8,0.2-4.5,0.7
			c-5.6,1.9-11.9,4.2-15.6,6.4l0,0c-2.9,1.7-4.3,3.4-4.3,5.2c0,2,1.1,3.8,3,4.8c2.4,1.3,5.4,1.2,7.8-0.3l0.2-0.1l12.6-5.2
			c4.1-1.1,6.2-3.3,6.2-6.6c0-1.8-0.5-3.2-1.6-4C635.5,318.7,634.2,318.4,632.7,318.4z M2046.1,327.2c-2.7,0-5.1-0.8-6.9-2.4
			c-1.7-1.5-2.7-3.6-2.7-5.8c0-4.5,5.1-9.5,12.4-9.5c6,0,9.5,3,9.5,8.1c0.1,3.8-4.4,8.7-10.7,9.5
			C2047.1,327.2,2046.6,327.2,2046.1,327.2z M2047.3,324.1l0.2,1.5L2047.3,324.1c5.3-0.6,8.1-4.6,8.1-6.5c0-1.3,0-5.2-6.5-5.2
			c-5.8,0-9.4,3.8-9.4,6.5c0,1.3,0.6,2.6,1.7,3.5C2042.7,323.8,2044.9,324.4,2047.3,324.1z M1771.2,326.4c-2.5,0-6.6-0.9-6.6-7.3
			c-0.1-1.9-0.2-4,0.9-5.2c4.4-10.3,9.6-20.4,15.3-29.8c4.3-7.1,7.3-12.6,9.5-16.7c1.2-2.1,2.1-3.8,2.9-5.1
			c2.5-4.9,5.9-7.4,10.1-7.4c5.9,0,8.8,2.9,8.8,8.8c-0.1,2.8-0.9,5.2-2.4,7.4l-27,46.6C1779.5,323.2,1775.3,326.4,1771.2,326.4z
			 M1803.3,257.8c-3.1,0-5.5,1.9-7.5,5.8l-0.1,0.1c-0.7,1.3-1.7,2.9-2.8,5.1c-2.2,4.1-5.2,9.7-9.6,16.8
			c-5.7,9.4-10.8,19.4-15.2,29.7l-0.1,0.3l-0.3,0.2c-0.3,0.3-0.2,2.5-0.2,3.2c0,3.9,1.8,4.4,3.6,4.4c3,0,6.3-2.6,8.9-7.2l27.1-46.8
			c1.2-1.7,1.8-3.6,1.9-5.8C1809.1,259.3,1807.6,257.8,1803.3,257.8z M1476.5,322.1c-1.2,0-2.4-0.2-3.6-0.7
			c-3.5-1.4-5.8-4.7-5.8-8.1c0-7,8.4-11.7,13.9-11.7c4,0,7.3,3.2,7.3,7.2v0.2c0,3.4-1.7,6.6-5.5,10.5
			C1481,321.1,1478.8,322.1,1476.5,322.1z M1481,304.5c-4.3,0-10.9,3.7-10.9,8.7c0,2.2,1.6,4.4,3.9,5.4c1.1,0.5,4,1.3,6.6-1.3
			c3.2-3.2,4.7-5.8,4.7-8.3v-0.2C1485.3,306.3,1483.4,304.5,1481,304.5z M2499.6,315.6c-8.1,0-8.1-9.9-8.1-13.2
			c-0.1-12.7,4.8-25.3,13.4-34.5c2.2-3.1,5.5-5,8.5-5c3.7,0,6.6,3.6,6.6,8.1c0,3.1-1.2,6-3.3,8.3c-5.1,6.7-7.8,14.9-7.6,23.1
			C2509.1,309.8,2504,315.6,2499.6,315.6z M2513.4,265.9c-1.5,0-4.1,1-6.1,3.9l-0.1,0.2c-8.2,8.6-12.8,20.5-12.7,32.5
			c0,10.2,3.6,10.2,5.1,10.2c2.6,0,6.5-4.3,6.5-10.2c-0.2-8.9,2.7-17.8,8.3-25l0.1-0.1c1.6-1.7,2.5-3.9,2.5-6.3
			C2517,268.1,2515.4,265.9,2513.4,265.9z M771.4,312.5c-3.4,0-5.9-4.6-5.9-8.8c0-3,0.6-5.9,1.6-8.6l8.7-25.3c0.9-6,6.1-9.1,9.5-9.1
			c3.8,0,7.3,4.3,7.3,8.8c0,2.2,0,3.9-0.8,5.6c-2.5,8.5-5.7,17.1-9.5,25.6C780.1,306.2,776.9,312.5,771.4,312.5z M785.3,263.7
			c-2,0-5.9,2.2-6.5,6.7l-0.1,0.3l-8.8,25.5c-0.9,2.3-1.4,4.9-1.4,7.5c0,3.3,1.9,5.8,2.9,5.8c2.8,0,5.4-3.2,8.1-10
			c3.8-8.5,7-17,9.5-25.4l0.1-0.2c0.6-1.2,0.6-2.4,0.6-4.5C789.6,266.4,787.2,263.7,785.3,263.7z M283.7,306.7
			c-5.5,0-6.6-3.2-6.6-5.9c0.1-3.1,0.9-6,2.3-8.7l0,0c43.4-78.7,80.9-137.9,122.9-171.1c6.1-4.7,10.7-6.9,14-6.9
			c3.8,0,5.9,2.2,5.9,5.9c0,5-3.2,9.8-10.1,15.1c-37.5,28.8-62.7,71.2-116.2,164.3C293.5,303.3,287.9,306.7,283.7,306.7z M282,293.5
			c-1.2,2.3-1.8,4.7-1.9,7.3c0,1.8,0.6,2.8,3.6,2.8c3.2,0,7.7-2.8,9.6-5.9c53.7-93.4,79-136,117-165.1c6.1-4.7,8.9-8.7,8.9-12.7
			c0-2.1-0.8-2.9-2.9-2.9c-1.8,0-5.3,1.1-12.2,6.3C362.5,156.2,325.2,215.1,282,293.5z M2527.4,266.6c-5.4,0-8.2-2.2-8.2-6.6
			c0-9.3,11.5-12.4,15.4-12.4c6.4,0,7.3,4.1,7.3,6.6c0,4.2-2.5,7.5-8.1,10.7l-0.1,0C2531.8,265.9,2529.6,266.5,2527.4,266.6z
			 M2534.6,250.6c-2.6,0-12.4,2.4-12.4,9.4c0,1.8,0.4,3.6,5.1,3.6c1.7-0.1,3.5-0.5,5.1-1.3c4.6-2.6,6.5-5,6.5-8.1
			C2538.9,252,2538.2,250.6,2534.6,250.6z M792.2,248.9c-1.4,0-2.8-0.6-3.9-1.6c-1.9-1.8-3-4.8-3-8.5c0-2.3,0-4.6,0.8-6.3
			c4.3-15.7,6.5-29.6,6.5-41.1c0-6.9-0.7-13.7-2.2-20.1c-1.6-6.9-2.2-11.2-2.2-14.2c0-7.7,4.6-8.8,7.3-8.8c4.6,0,10.2,5.2,11,12.2
			c2.5,12.2,3.6,22,3.6,30.8c0,11-2.5,27-7.3,46.3c-2.1,9.3-6.7,11.3-10.2,11.3C792.4,248.9,792.3,248.9,792.2,248.9z M795.5,151.3
			c-2,0-4.3,0.7-4.3,5.8c0,2.8,0.7,7,2.2,13.6c1.5,6.6,2.2,13.6,2.2,20.7c0,11.8-2.2,25.9-6.7,42l-0.1,0.3c-0.5,1.1-0.5,3.1-0.5,5.1
			c0,2.8,0.7,5.1,2,6.3c0.6,0.6,1.3,0.9,2.1,0.8l0.1,0c3.5,0,6-3,7.3-9c4.8-19,7.3-34.8,7.3-45.6c0-8.6-1.1-18.2-3.6-30.3l0-0.1
			C802.9,155.1,798.3,151.3,795.5,151.3z M437.9,116.9c-1.8,0-3.5-0.5-4.9-1.4c-2.3-1.4-3.6-3.8-3.6-6.4c0-4.3,3.6-6.8,6.7-8.6
			l0.1-0.1c2.8-1.2,5.7-2,8.4-2.3l0.2,0c6.4,0,7.3,4.1,7.3,6.6c0,4.3-3.4,8.5-8.9,10.9C441.5,116.4,439.7,116.9,437.9,116.9z
			 M437.5,103.1c-3.6,2-5.1,3.8-5.1,6c0,1.6,0.8,3,2.2,3.9c2,1.2,4.8,1.2,7.4-0.1c4.5-1.9,7.2-5,7.2-8.2c0-1.8-0.5-3.6-4.2-3.6
			C442.5,101.4,440,102.1,437.5,103.1z"/>
	</g>
	<path id="Adventour" class="st1" d="M2793.4,457.6c-41.6,111.6-90.4,185.9-172.1,185.9c-41.6,0-71.5-24.1-71.5-65.6
		c0-53.2,37.2-149.5,80.2-226c-26.2,10.9-61.2,21.1-75.1,24.1c-4.4,10.9-10.9,26.2-19,44.5c-2.3,5.2-5,11.3-8.1,18.1
		c-0.2,0.5-0.4,1.1-0.6,1.6c-1.5,4.4-4.4,10.2-8,17.5c-2.5,5.4-5,10.7-7.5,16c-4.2,9.2-8.8,19.2-13.6,30l-7.3,15.3
		c-2.7,6.5-5.9,11.4-9.6,14.7c-41.4,75-86,127.5-139.9,127.5c-32.1,0-50.3-22.6-50.3-61.3v-2.2c-29.2,28.4-54.7,43.8-97.7,43.8
		c-37.9,0-67.1-16.8-67.1-48.1c0-39.7,10.1-76.7,27.6-118.7c-6,0.9-12.1,1.3-18.1,1.3c-3.6,0-9.5-0.7-17.5-1.5
		c-27,66.4-57.6,113.8-91.9,141.5c-22.6,18.2-45.9,27.7-70,27.7c-40.8,0-72.2-27.9-79.4-74c-34.5,45.9-76.7,74-125.5,74
		c-49.2,0-76.6-21.3-82.1-64.3c-35.1,49.5-74.8,81.8-114.1,81.8c-32.1,0-50.3-22.6-50.3-61.3c0-32.8,22.6-77.3,62.7-144.4l21.2-37.2
		c2.2-3.6,3.6-7.3,3.6-10.9c0-2.9-1.5-4.4-4.4-4.4c-6.6,0-15.3,6.6-27,20.4c-37.2,45.9-76.6,104.3-118.9,176.5
		c-3.3,4.6-6.2,9.5-8.7,14.6c-5.8,8.8-10.2,18.2-24.8,24.1c-7.3,3.5-15.3,5.2-23.3,5.1c-24.1,0-36.5-11.7-36.5-35.7
		c0-2,0.2-4.3,0.4-6.9c-10,10-21.5,18.5-34,25.2c-21.9,11.7-49.6,17.5-83.1,17.5c-43.8,0-83.1-17.5-105-49.6
		c-10.9-16-16.8-35-16.8-56.9c0-67.8,37.9-149.5,94.1-199.1c27.7-24.8,56.9-37.2,88.2-37.2c52.5,0,80.9,25.5,80.9,63.4
		c0,72.9-80.2,148.8-179.4,191.8c8,25.5,30.6,40.1,54.7,40.1c51,0,94.8-43,132-128.3c1.9-4.6,4.1-9.2,6.5-13.6
		c11.5-35.4,23.9-69.1,34.3-92.1l10.2-22.6c12.4-29.9,19-42.3,32.8-51c6.6-3.6,16-5.8,27-5.8c19.7,0,35.7,9.5,35.7,24.8
		c0,2.9,0,5.1-0.7,7.3c-32.8,72.2-49.6,118.1-66.4,176.5c63.4-98.4,133.4-183.7,179.4-183.7c15.3,0,25.5,11.7,25.5,29.2
		c0,25.5-15.3,57.6-45.2,112.3c-32.8,60.5-50.3,97.7-50.3,129.1c0,7.3,0.7,12.4,2.9,15.3c1.4,2.9,3.6,4.4,7.3,4.4
		c26.2,0,50.3-27.7,68.5-60.5c9.5-16.8,20.4-38.6,34.3-66.4c3.2-7.9,8.8-20.7,14.7-31.9c2.2-5.8,4.6-11.7,7.1-17.7l13.1-32.1
		l-11.7,2.2c-2.2,0.7-4.4,0.7-8,0.7c-13.8,0-23.3-7.3-23.3-21.1c0-21.1,27-21.9,62.7-28.4c8-19,24.1-48.1,46.7-87.5
		c9.5-16.8,29.2-25.5,47.4-25.5c19.7,0,35,9.5,35,24.1c0,5.1-2.2,10.9-5.8,16c-15.3,25.5-26.2,45.2-33.5,59.1
		c13.9-0.7,23.3-1.5,29.2-1.5c18.2,0,28.4,8,28.4,20.4s-9.5,21.1-21.9,21.1c-19.1,0.9-38,2.8-56.9,5.8l-18.2,43.8l-8,20.4
		c-19,48.1-28.4,86-28.4,113.7c0,26.3,9.5,39.4,28.4,39.4c15.3,0,32.1-10.2,50.3-31.4c18.2-21.1,39.3-57.6,63.4-109.3
		c15.6-42.9,40.6-83.3,72.2-112.4c27.7-25.5,58.3-37.9,91.2-37.9c26.2,0,49.6,9.5,62,27c11.7,16,17.5,37.9,17.5,65.6
		c-0.1,13.5-1.6,26.9-4.4,40.1c18,2,35.7-4.6,49-18.4c2.3-4.7,4.7-9.5,7.1-14.4c11.7-21.1,19-36.5,21.9-45.9
		c2.2-5.1,3.6-13.1,5.8-24.1c5.8-28.4,10.2-39.4,36.4-39.4c29.2,0,41.6,16.8,41.6,43c0,21.1-7.3,40.1-28.4,81.7
		c-32.8,69.3-52.5,111.6-57.6,156c-0.7,3.6-0.7,8-0.7,13.1c0,8.8,1.4,11.7,6.6,11.7c4.4,0,10.9-2.9,19.7-8
		c25.5-13.9,54-43.8,85.3-91.1c23.3-55.4,59.1-121.8,87.5-167.7c0.7-0.7,1.5-2.9,3.6-6.6c3.6-8,12.4-13.9,23.3-13.9
		c11.7,0,18.2,7.3,18.2,19c0.1,6-1.7,11.9-5.1,16.8c-41.6,70-90.4,180.8-90.4,232.6c0,7.3,0.7,12.4,2.9,15.3
		c1.5,2.9,3.6,4.4,7.3,4.4c25.5,0,49.6-27.7,67.8-59.8c8.8-16,20.4-38.6,34.3-67.1l2.2-4.7c10.3-23.4,21.1-50.2,32.8-80.6l8-19
		c-22.6-17.5-34.3-36.5-34.3-57.6c0-27,13.9-50.3,32.1-62.7c9.5-5.8,18.2-8.8,27.7-8.8c21.1,0,37.2,16.8,37.2,51
		c0,10.2-2.2,23.3-5.8,40.1c3.6-0.7,11.7-3.6,24.1-8c43-14.6,67.1-21.9,87.5-21.9c24.1,0,37.9,16.8,37.9,36.5c0,6.6-2.9,16.8-8,29.9
		s-13.1,30.6-24.1,51.8c-35,72.2-56.1,122.5-56.1,161.1c0,7.3,0.7,12.4,2.9,15.3c1.5,2.9,3.6,4.4,7.3,4.4
		c29.9,0,58.3-36.5,76.6-72.9c9.5-18.2,21.9-45.2,38.6-80.9c6.6-14.6,13.9-26.2,30.6-26.2h0.7c9.5,0,13.9,4.4,13.9,13.1
		C2800,437.2,2797.8,446.7,2793.4,457.6z M1230.1,339.5c-2.9,0-5.8,1.5-9.5,4.4c-7.6,6.2-14.9,12.7-21.9,19.7
		c-1.9,1.7-2.9,4.1-2.9,6.6c0,3.6,2.9,6.5,6.5,6.6l0,0c2.2,0.1,4.2-0.7,5.8-2.2c8.8-8.8,15.3-14.6,19.7-18.2s6.6-8,6.6-11.7
		S1233,339.5,1230.1,339.5z M1255.6,322.7l-5.8,1.5c-5.1,2.2-7.3,5.1-7.3,9.5c0,3.6,4.4,7.3,10.2,5.1s10.2-6.6,10.2-10.2
		C1262.9,325.6,1259.3,322.7,1255.6,322.7L1255.6,322.7z M1322,372.3c0-10.9-8.8-17.5-21.1-17.5c-15.3,0-35,9.5-50.3,29.2
		c-24.1,32.8-46.7,81.7-55.4,122.5C1264.4,470.7,1322,418.9,1322,372.3z M1184.9,606.3c-5.8-2.9-12.4-8-19-14.6
		c-2.9-2.9-5.8-4.4-9.5-4.4s-5.1,1.5-5.1,5.1c0,2.9,1.5,5.8,3.7,8.8c5.1,8,13.1,13.9,24.1,18.2l5.8,1.5c4.4,0,6.6-2.2,6.6-5.8
		S1189.3,608.5,1184.9,606.3z M1212.6,615.8h-2.2c-5.8,0-9.5,2.9-9.5,8c0,3.6,2.9,5.8,8,6.6h2.9c5.8,0,9.5-3.6,9.5-7.3
		C1221.3,620.2,1218.4,616.6,1212.6,615.8z M1481.7,318.3c3.7-3.6,5.1-6.6,5.1-9.5c0-3.2-2.5-5.8-5.7-5.8c-0.1,0-0.1,0-0.2,0
		c-5.1,0-12.4,4.4-12.4,10.2S1476.6,323.4,1481.7,318.3L1481.7,318.3z M1467.8,338c1.5-1.6,2.2-3.7,2.2-5.8c0-3.6-2.9-7.3-6.6-7.3
		s-6.6,2.2-8.8,5.8l-13.1,26.2c-1.4,2.7-2.2,5.7-2.2,8.8c0,4.4,1.5,6.6,5.1,6.6s7.3-2.9,9.5-8.8C1457.7,354.6,1462.4,346,1467.8,338
		L1467.8,338z M1637,340.2c5.1-0.7,8.8-5.8,8.8-9.5s-2.9-5.1-8.8-5.1c-13.8,0-31.3,10.9-52.5,32.1c-2.2,2.2-3.6,5.1-3.6,7.3
		c0,3.6,2.2,5.8,6.6,5.8c2.9,0,5.1-1.5,7.3-4.4C1607.1,351.9,1624.6,342.4,1637,340.2L1637,340.2z M1577.2,629
		c-3.1-1-6.3-1.3-9.5-0.7c-2.2,0.7-4.4,0.7-8,0.7c-15.3,0-21.9-8.8-19.7-29.2v-1.5c0-5.8-2.9-10.2-5.8-10.2c-5.1,0-8.8,6.6-8.8,17.5
		c0,25.5,10.2,38.6,30.6,38.6c2.2,0,5.8-0.7,11.7-1.5c8-0.7,12.4-5.8,12.4-9.5C1580.1,631.9,1579.4,630.4,1577.2,629L1577.2,629z
		 M1771.1,324.9c3.6,0,7.3-2.9,10.2-8l27-46.7c1.4-1.9,2.1-4.2,2.2-6.6c0-5.1-2.2-7.3-7.3-7.3c-3.7,0-6.6,2.2-8.8,6.6
		c-2.2,3.6-5.8,10.9-12.4,21.9c-5.8,9.6-10.9,19.6-15.3,29.9c-0.7,0.7-0.7,2.2-0.7,4.4C1766,322.7,1767.5,324.9,1771.1,324.9z
		 M1752.2,614.4c-27-1.5-44.5-13.1-51.8-35c-2.2-6.6-5.1-10.2-8.8-10.2c-2.9,0-5.8,3.6-5.8,8.8c0.2,3.3,0.9,6.5,2.2,9.5
		c9.5,26.3,31.4,40.1,64.2,41.6l0,0c8,0,12.4-3.6,12.4-7.3S1760.2,614.4,1752.2,614.4z M1908.2,573.5c-0.7-5.1-5.1-8-8-8
		c-4.4,0-6.6,2.9-6.6,8.8c0.2,3,0.9,6,2.2,8.8c9.5,28.4,31.4,45.9,60.5,46.7h1.5c6.6,0,9.5-2.2,9.5-5.8c0-5.1-3.6-8-10.9-8.8
		C1932.3,614.4,1914.8,599.1,1908.2,573.5L1908.2,573.5z M2016.1,320.5c-19,7.3-35,19-48.9,35c-1.9,1.7-2.9,4.1-2.9,6.6
		c0,3.6,2.9,6.5,6.5,6.6c0,0,0,0,0.1,0c2.2,0,4.4-1.5,6.6-3.6c12.4-13.9,26.2-24.8,42.3-31.4c5.1-2.2,7.3-5.1,7.3-8.8
		C2027.1,319.8,2022.7,317.6,2016.1,320.5L2016.1,320.5z M2030.7,367.2c-35,40.8-78,121.8-78,179.4c0,14.6,2.2,26.2,5.8,35.7
		s8.8,13.9,13.9,13.9c29.9,0,75.1-59.1,105-137.8C2051.1,440.1,2032.9,402.2,2030.7,367.2L2030.7,367.2z M2048.9,311
		c-6.6,0-10.9,4.4-10.9,8s3.7,7.3,9.5,6.6c5.8-0.7,9.5-5.1,9.5-8C2057,313.2,2054,311,2048.9,311L2048.9,311z M2086.9,422.6
		c-14.6-12.4-24.8-35-25.5-53.2c-0.7-6.6-4.4-11.7-8-11.7s-5.8,3.6-5.8,10.9c0.7,24.1,12.4,51.8,30.6,66.4c2.9,2.9,5.8,4.4,8,4.4
		c3.6,0,5.8-2.2,5.8-7.3C2092,428.4,2090.5,425.5,2086.9,422.6z M2229,370.8c3.6,0,7.3-2.9,9.5-8c5.8-13.9,9.5-25.5,10.2-36.5v-2.2
		c0-5.8-3.6-10.2-7.3-10.2c-2.9,0-6.6,3.6-7.3,9.5c-2,12-5.2,23.7-9.5,35c-0.7,1.5-0.7,2.9-0.7,5.1
		C2223.9,368.6,2225.4,370.8,2229,370.8L2229,370.8z M2345.7,632.6c-15.3,0.7-24.8-10.9-22.6-31.4V599c0-5.8-2.9-8.8-5.8-8.8
		c-5.1,0-8.8,6.6-8.8,15.3c0,25.5,13.1,41.6,35.7,41.6c5.8,0,8.8-3.6,8.8-7.3C2352.7,636,2349.6,632.9,2345.7,632.6z M2513.4,264.4
		c-2.2,0-5.1,1.5-7.3,4.4c-8.5,9.1-13.2,21.1-13.1,33.5l0,0c0,8,2.2,11.7,6.6,11.7c3.6,0,8-5.1,8-11.7c-0.1-8.7,2.7-17.2,8-24.1
		c1.9-2,2.9-4.6,2.9-7.3C2518.5,267.3,2516.3,264.4,2513.4,264.4L2513.4,264.4z M2534.6,249.1c-3.6,0-13.9,2.9-13.9,10.9
		c0,3.6,2.2,5.1,6.6,5.1c2-0.1,4-0.5,5.8-1.5c5.1-2.9,7.3-5.8,7.3-9.5C2540.4,250.5,2538.2,249.1,2534.6,249.1L2534.6,249.1z
		 M2575.4,611.5c5.2,6.8,12.3,11.9,20.4,14.6l2.2,0.7c3.6,0,8-3.6,8-8.8c0.2-2.4-1.4-4.5-3.6-5.1c-8-2.9-13.1-7.3-16-12.4
		c-0.7-2.2-2.9-3.6-5.8-3.6s-6.6,2.9-6.6,8C2573.9,607.2,2574.4,609.4,2575.4,611.5L2575.4,611.5z M2639.6,401.5
		c1.9-2.8,2.9-6.1,2.9-9.5c0-4.4-2.2-6.6-5.8-6.6s-6.6,2.9-9.5,8c-32.8,64.2-60.5,136.4-60.5,179.4c0,4.4,0.7,8,2.2,10.2
		c1.5,2.9,2.9,4.4,4.4,4.4c5.1,0,8-5.8,8-14.6C2581.2,531.2,2607.5,456.9,2639.6,401.5L2639.6,401.5z M846.6,641.3
		c-27.5,0-48.9-9.6-58.5-28.3c-24.6,29.2-50.7,44.3-81.5,44.3c-41.6,0-61.2-29.9-61.2-75.8c0.1-11.8,1.6-23.5,4.4-35
		c-34.3,39.4-62,66.4-84.6,80.2c-15.3,9.5-31.4,14.6-48.9,14.6c-27.3,0-49.1-15.2-55.6-42.2c-24.7,27.2-51.1,40-80.7,40
		c-29.9,0-45.2-19-50.3-59.8c-0.7-5.1-0.7-10.9-0.7-19c0-41.6,27.7-121,69.3-214.4l-70.7,7.3c-0.7,2.2-1.9,4.3-3.6,5.8l-13.1,19
		c-5.1,7.3-10.2,15.3-16.8,24.1c-75.4,110.9-111.8,162-154.8,197c-21.9,18.2-43,27-64.2,27c-25.5,0-44.5-4.4-62.7-22.6
		c-3.6-3.6-5.8-8-5.8-12.4c0-8.8,8.8-16,20.4-16c3.6,0,9.5,1.5,16,5.1c10.9,3.6,18.2,5.8,21.9,5.8c28.4,0,59.1-37.9,88.2-89.7
		c13.9-25.5,32.8-62,56.9-107.9l10.2-20.4c-40.1,7.3-71.5,15.3-93.3,23.3c-49.6,21.2-65.6,37.2-86.8,90.4
		C36.5,491.9,29.2,497,19,497c-9.5,0-19-8-19-19c0-3.5,0.8-7,2.2-10.2c22.6-62,48.9-89.7,105-113.8c28.4-12.4,74.4-24.1,137.8-33.5
		C323.7,169.6,394.5,77,476.9,77c41.6,0,72.9,16.8,72.9,48.9c0,14.6-14.6,48.1-35.7,83.9c-19.7,34.3-37.9,67.1-53.2,99.2
		c2.8,3.2,4.4,7.4,4.4,11.7c0,8.8-7.3,16.8-19.7,20.4c-42.3,92.6-66.4,165.5-72.9,220.2c-0.7,2.4-0.7,4.9,0,7.3v8.8
		c0.7,8.8,1.5,14.6,2.9,16.8s3.6,3.6,7.3,3.6c29.9,0,58.3-36.5,76.6-72.9c6.9-13.2,15.3-31,25.8-53.5c8.4-21.5,18.7-45,31.1-70.5
		c27-56.1,80.9-96.3,131.2-96.3c35,0,64.9,19.7,80.2,48.9l6.6-13.1c29.9-62,45.2-113,45.2-153.9c0.1-8.6-0.6-17.1-2.2-25.5
		c-2.2-7.3-2.9-11.7-2.9-13.9c0-21.1,15.3-32.8,33.5-32.8c19.7,0,40.1,11.7,45.2,28.4c2.3,8.1,3.5,16.4,3.6,24.8
		c0,48.9-29.9,107.9-81.7,197.6c-40.8,72.2-52.5,96.3-66.4,142.9c-6.6,24.1-10.2,43.7-10.2,59.8c0,19.7,5.8,29.9,17.5,29.9
		c29.2,0,50.3-21.9,71.5-60.5c6.3-12.1,14.5-28.7,24.7-49.7c2.5-5.9,5.3-11.9,8.1-18.2l11.7-25.5c28.4-62,38.6-87.5,38.6-117.4
		c0-27,16.8-41.6,37.2-41.6c19.7,0,37.2,13.1,40.8,34.3c0.7,2.9,0.7,7.3,0.7,13.1c0,35.7-17.5,79.5-43.7,131.3
		c-25.5,51.8-40.8,85.3-40.8,107.9c0,13.9,6.6,21.1,20.4,21.1c43,0,107.9-82.4,151.7-172.8c21.2-44.5,32.1-78.8,32.1-102.1
		c0-2.9-0.7-8-1.5-14.6c-1.5-6.6-2.2-10.9-2.2-14.6c0-9.5,3.7-16,11.7-19.7c3-1.3,6.2-2,9.5-2.2c8.8,0,15.3,6.6,19.7,19.7
		c4.4,13.9,6.6,30.6,6.6,51c0,111.6-56.9,209.3-138.5,263.2C932.6,627.5,890.3,641.3,846.6,641.3z M416.4,115.6
		c-2.9,0-7.3,2.2-13.1,6.6c-41.6,32.8-78.8,91.1-122.5,170.6c-1.3,2.5-2.1,5.2-2.2,8c0,2.9,1.5,4.4,5.1,4.4s8.8-2.9,10.9-6.6
		C347.8,206,373.3,163,411.2,133.8c6.6-5.1,9.5-9.5,9.5-13.9C420.7,117.1,419.3,115.6,416.4,115.6z M444.8,99.6
		c-2.8,0.3-5.5,1-8,2.2c-3.6,2.2-5.8,4.4-5.8,7.3c0,5.1,5.8,8,11.7,5.1c5.1-2.2,8-5.8,8-9.5C450.6,101,448.4,99.6,444.8,99.6
		L444.8,99.6z M479.1,187.1c12.4-20.4,21.9-44.5,21.9-56.1c0-3.6-0.7-5.8-2.9-5.8c-13.9,0-31.4,16-54,47.4
		c-22.6,32.1-51.8,77.3-87.5,134.9c10.9-0.7,24.8-1.5,41.6-3.6c5.1,0,11.7-0.7,20.4-1.5C439,260.7,459.4,222.8,479.1,187.1
		L479.1,187.1z M522.1,611.4c-15.3,0-28.4-8-35-20.4c-0.7-2.2-2.9-3.6-5.8-3.6c-3.6,0-6.6,3.6-6.6,7.3c0,2.6,0.8,5.1,2.2,7.3
		c9.5,14.6,25.5,24.1,45.2,24.1c6.6,0,10.9-3.6,10.9-6.6C533,615.8,527.9,611.4,522.1,611.4L522.1,611.4z M792.6,247.6
		c4.4,0,7.3-3.6,8.8-10.2c5.1-20.4,7.3-35.7,7.3-45.9c0-9.5-1.5-19.7-3.6-30.6c-0.7-6.6-5.8-10.9-9.5-10.9s-5.8,2.2-5.8,7.3
		c0,2.9,0.7,7.3,2.2,13.9c1.4,6.7,2.2,13.6,2.2,20.4c0,11.7-2.2,25.5-6.6,41.6c-0.7,1.5-0.7,3.6-0.7,5.8
		C786.8,244.7,789.7,247.6,792.6,247.6z M771.5,311c3.6,0,6.6-3.6,9.5-10.9c3.7-8.3,6.9-16.8,9.5-25.5c0.7-1.5,0.7-2.9,0.7-5.1
		c0-3.6-2.9-7.3-5.8-7.3s-7.3,2.9-8,8l-8.8,25.5c-1,2.6-1.5,5.3-1.5,8C767.1,307.4,769.3,311,771.5,311L771.5,311z M549.1,620.2
		c8,0,10.9-4.4,10.9-8s-3.6-6.6-7.3-6.6c-5.8,0-10.2,3.6-10.2,8.8C542.5,618,544.7,620.2,549.1,620.2z M592.8,337.3
		c-3.6,0-7.3,1.5-10.9,5.1c-6.6,5.1-11.7,9.5-16,14.6c-3.6,3.6-5.1,6.6-5.1,9.5c0,3.2,2.5,5.8,5.7,5.8c0.1,0,0.1,0,0.2,0
		c3.6,0,6.6-1.5,9.5-4.4c5.3-5.5,10.9-10.6,16.8-15.3c3.5-1.9,5.7-5.5,5.8-9.5C598.6,339.5,596.5,337.3,592.8,337.3L592.8,337.3z
		 M627.8,317.6c-6.6,2.2-12.4,4.4-16,6.6s-5.1,4.4-5.1,6.6c0,5.8,7.3,9.5,13.1,5.8l12.4-5.1c5.1-1.5,7.3-4.4,7.3-8
		C639.5,318.3,635.8,315.4,627.8,317.6L627.8,317.6z M676.7,354.8c-4.4-3.3-9.8-5.1-15.3-5.1c-41.6,0-83.9,89-107.2,161.1
		c-3.3,9.1-5.1,18.7-5.1,28.4c0,14.6,5.8,23.3,15.3,23.3c8,0,17.5-5.8,29.9-18.2c31.4-32.1,54-61.2,95.5-116.7
		c5.8-8,8.8-17.5,8.8-28.4C698.5,381.8,690.5,363.5,676.7,354.8L676.7,354.8z M710.9,628.2c-18.2-1.5-29.2-10.9-33.5-27.7
		c-2.2-6.6-5.1-10.2-8.8-10.2s-7.3,5.8-5.1,14.6c5.8,24.1,24.1,37.9,47.4,37.9l0,0c8,0,12.4-2.2,12.4-6.6
		C723.3,632.6,719,628.9,710.9,628.2L710.9,628.2z M887.4,370.8c4.9-0.2,8.9-3.9,9.5-8.8c4.4-16,6.6-28.4,6.6-37.2
		c0-6.6-2.9-11.7-8-11.7c-2.9,0-6.6,3.6-6.6,10.2c0,2.9,0,23.3-5.8,35.7l-1.5,5.1C881.6,368.6,883.7,370.8,887.4,370.8L887.4,370.8z
		 M1076.2,442.3c3.6,0,5.8-2.9,7.3-8c2.9-9.5,5.1-16.8,5.8-21.9c0.7-2.2,0.7-4.4,0.7-7.3c0-7.3-2.2-10.9-6.6-10.9
		c-2.9,0-7.3,3.6-8,11.7c-1.5,7.2-3.4,14.2-5.8,21.1c-0.7,1.5-0.7,2.9-0.7,5.1C1069,437.9,1072.6,442.3,1076.2,442.3z M1069,464.2
		c0-4.4-1.5-6.6-4.4-6.6c-3.7,0-7.3,3.6-11.7,11.7c-25.5,48.9-63.4,89-107.9,113c-6.6,3.6-10.2,8-10.2,12.4c0,3.6,2.2,5.1,5.8,5.1
		c2.2,0,5.1-1.5,10.2-3.6c47.4-26.3,88.2-68.5,114.5-118.9C1067.5,472.9,1069,468.5,1069,464.2z"/>
</g>
<g id="Balloon">
	<path id="strings_1_" class="st2" d="M2916.9,330.3l-22.3,3.1l45.4,322.9l22.3-3.1L2916.9,330.3z M3215.6,410.4l17.7,13.9
		l-200.8,256.9l-17.7-13.9L3215.6,410.4z M3055.4,367.4l21.7,5.8l-85.5,319l-21.7-5.8L3055.4,367.4z"/>
	<path id="strings_shade_1_" class="st3" d="M3233.4,424.2l-200.8,256.9l-17.7-13.9l200.8-256.9L3233.4,424.2z M3039.6,513.4
		l-30,111.8c-5.9-7.5-11.6-15.1-17.2-22.8l19.3-72.1C3021.1,524.8,3030.4,519.1,3039.6,513.4L3039.6,513.4z M2931.1,431.6l12.9,91.7
		c-6.1-11.9-11.8-23.9-17.2-36.2c-6-13.8-11.5-27.7-16.5-41.8L2895.6,341C2905.3,372,2917.1,402.3,2931.1,431.6z"/>
	<path id="red_pin_1_" class="st4" d="M2885.5,176.4c0,0-18,58.4,10.6,167.9c36.3,138.6,109.4,252.8,109.4,252.8l0,0
		c0,0,120.5-62.4,221.1-164.2c79.6-80.5,93.2-140.1,93.2-140.1c38.1-121.7-34-252.5-156.3-285.3C3041.1-25.2,2913.3,52,2885.5,176.4
		z"/>
	<path id="shade_red" class="st5" d="M3322.7,169.2c10.3,39.4,10.1,82-2.9,123.6c0,0-13.6,59.6-93.2,140.1
		c-100.7,101.9-221.1,164.2-221.1,164.2l0,0c0,0-73.1-114.2-109.4-252.8c-0.9-3.6-1.8-7.1-2.7-10.6c22.1,73.9,56.6,143.6,102,206
		C3157.9,447.5,3304.1,316.8,3322.7,169.2z"/>
	<path id="orange_A_1_" class="st6" d="M3226.6,432.9c-39.3,39.8-81.7,73.6-118.7,100c1-15.6,1.6-31,1.9-46.7
		c0.4-23,0.1-45.6-0.9-68.6l-103.2-27.7c-12.4,19.4-23.9,38.8-35.1,59c-7.6,13.8-14.8,27.4-21.7,41.4
		c-18.9-41.3-38.7-91.8-52.8-145.9c-11.3-43.3-15.4-78.7-16.1-105.5c27-35.7,55.4-70.3,85.2-103.8c42.4-47.5,87.4-92.6,135-134.9
		c42.9-1.2,85.2,10.2,121.8,32.6c20,60.4,36.5,122,49.4,184.3c9.1,43.9,16.4,88.1,21.9,132.5C3279.3,372.5,3258.1,401,3226.6,432.9z
		"/>
	<path id="shade_orange_1" class="st7" d="M3283.5,281.9c-38.4,67.5-100.7,129.6-173.5,183.6c0,6.9-0.1,13.7-0.2,20.7
		c-0.3,15.7-0.9,31.1-1.9,46.7c1.1-0.8,2.2-1.5,3.3-2.3c0.1-0.1,0.3-0.2,0.4-0.3c1.1-0.8,2.2-1.6,3.3-2.4c0,0,0,0,0,0
		c1.1-0.8,2.2-1.6,3.3-2.4c0.1-0.1,0.2-0.2,0.4-0.3c1.1-0.8,2.2-1.6,3.3-2.4c0.1-0.1,0.2-0.1,0.3-0.2c1.1-0.8,2.2-1.6,3.2-2.4
		c0.1-0.1,0.2-0.1,0.2-0.2c1.1-0.8,2.2-1.7,3.4-2.5c0.1-0.1,0.3-0.2,0.4-0.3c2.2-1.7,4.5-3.4,6.8-5.1c0.2-0.1,0.4-0.3,0.5-0.4
		c2.3-1.7,4.5-3.5,6.8-5.3c0.2-0.1,0.4-0.3,0.5-0.4c1.1-0.9,2.3-1.8,3.4-2.7c0.1-0.1,0.2-0.2,0.3-0.3c1.1-0.8,2.1-1.7,3.2-2.5
		c0.2-0.1,0.3-0.3,0.5-0.4c1.1-0.9,2.3-1.8,3.4-2.7c0.2-0.1,0.4-0.3,0.5-0.4c1.1-0.9,2.1-1.7,3.2-2.6c0.1-0.1,0.2-0.2,0.3-0.2
		c1.1-0.9,2.3-1.8,3.4-2.8c0.2-0.2,0.4-0.4,0.6-0.5c2.3-1.9,4.6-3.8,6.8-5.7c0.2-0.2,0.5-0.4,0.7-0.6c1.1-0.9,2.3-1.9,3.4-2.9
		c0.1-0.1,0.2-0.2,0.3-0.3c1-0.9,2.1-1.8,3.1-2.7c0.2-0.2,0.4-0.4,0.6-0.6c1.1-1,2.2-1.9,3.3-2.9c0.2-0.2,0.4-0.3,0.6-0.5
		c1-0.9,2-1.8,3-2.7c0.2-0.2,0.3-0.3,0.5-0.5c1.1-1,2.2-2,3.3-2.9c0.2-0.2,0.5-0.4,0.7-0.6c1.1-0.9,2.1-1.9,3.2-2.9
		c0.1-0.1,0.2-0.1,0.2-0.2c1.1-1,2.2-2,3.4-3c0.2-0.2,0.5-0.5,0.7-0.7c1.1-1,2.2-2,3.4-3.1c0.1-0.1,0.1-0.1,0.2-0.2
		c1.1-1,2.1-2,3.2-2.9c0.2-0.2,0.5-0.4,0.7-0.7c1.1-1,2.2-2.1,3.3-3.1c0.2-0.2,0.4-0.3,0.5-0.5c1-0.9,2-1.9,3-2.8
		c0.2-0.2,0.4-0.4,0.6-0.6c1.1-1,2.2-2.1,3.3-3.2c0.2-0.2,0.5-0.4,0.7-0.7c1-1,2-2,3-2.9c0.1-0.1,0.3-0.3,0.4-0.4
		c1.1-1.1,2.2-2.2,3.3-3.2c0.2-0.2,0.5-0.5,0.7-0.7c1.1-1.1,2.2-2.2,3.3-3.3c0.9-0.9,1.7-1.8,2.6-2.6c0.2-0.2,0.4-0.4,0.6-0.6
		c0.8-0.8,1.6-1.7,2.4-2.5c0.2-0.2,0.4-0.4,0.5-0.6c0.7-0.7,1.3-1.4,2-2.1c0.2-0.2,0.4-0.5,0.6-0.7c0.8-0.8,1.5-1.6,2.2-2.4
		c0.2-0.3,0.5-0.5,0.7-0.8c0.6-0.7,1.2-1.3,1.8-2c0.2-0.2,0.4-0.4,0.6-0.6c0.7-0.8,1.4-1.5,2.1-2.3c0.3-0.3,0.5-0.6,0.8-0.9
		c0.7-0.7,1.3-1.4,2-2.2c0.2-0.3,0.5-0.5,0.7-0.8c0.5-0.6,1.1-1.2,1.6-1.8c0.3-0.3,0.5-0.6,0.8-0.9c0.6-0.7,1.3-1.5,1.9-2.2
		c0.2-0.3,0.5-0.6,0.7-0.8c0.5-0.6,1-1.1,1.4-1.7c0.2-0.3,0.5-0.5,0.7-0.8c0.6-0.7,1.2-1.4,1.8-2.1c0.2-0.3,0.5-0.6,0.7-0.9
		c0.5-0.6,1-1.2,1.5-1.8c0.2-0.3,0.5-0.6,0.7-0.9c0.5-0.6,1-1.2,1.5-1.8c0.2-0.3,0.5-0.6,0.7-0.8c0.6-0.7,1.2-1.4,1.7-2.1
		c0.2-0.2,0.4-0.5,0.6-0.7c0.5-0.6,0.9-1.1,1.4-1.7c0.2-0.2,0.4-0.5,0.6-0.7c0.6-0.7,1.1-1.4,1.7-2.1c0.2-0.2,0.4-0.5,0.5-0.7
		c0.5-0.6,0.9-1.2,1.4-1.8c0.1-0.2,0.3-0.3,0.4-0.5c0.6-0.7,1.1-1.4,1.7-2.2c0.2-0.2,0.3-0.4,0.5-0.6c0.6-0.7,1.1-1.5,1.6-2.2
		c0.1-0.1,0.1-0.2,0.2-0.3c0.5-0.7,1-1.4,1.5-2c0.1-0.2,0.2-0.3,0.4-0.5c0.5-0.7,1.1-1.5,1.6-2.2c0.1-0.1,0.2-0.2,0.3-0.4
		c0.5-0.7,1-1.4,1.5-2.1c0.1-0.1,0.1-0.2,0.2-0.3c0.5-0.7,1.1-1.5,1.6-2.2c0.1-0.1,0.2-0.2,0.2-0.3c1.1-1.5,2.1-3,3.1-4.5
		c0-0.1,0.1-0.1,0.1-0.2c3.8-5.5,7.2-10.7,10.2-15.7C3290.5,326.9,3287.2,304.4,3283.5,281.9z"/>
	<path id="shade_orange_2" class="st7" d="M2897.6,349.9c0.4,1.5,0.8,3,1.2,4.4c0,0.2,0.1,0.4,0.1,0.5c0.4,1.4,0.8,2.7,1.1,4.1
		c0.1,0.3,0.2,0.6,0.2,0.9c0.4,1.5,0.8,2.9,1.3,4.4c0.1,0.3,0.1,0.5,0.2,0.8c0.4,1.4,0.8,2.7,1.2,4c0.1,0.2,0.1,0.4,0.2,0.6
		c0.4,1.5,0.9,2.9,1.3,4.4c0.1,0.3,0.2,0.6,0.3,0.8c0.4,1.4,0.9,2.9,1.3,4.3c0,0,0,0.1,0,0.1c0.5,1.5,0.9,3,1.4,4.4
		c0.1,0.3,0.2,0.6,0.3,0.8c0.5,1.5,0.9,2.9,1.4,4.4c0,0,0,0.1,0,0.1c0.5,1.4,0.9,2.9,1.4,4.3c0.1,0.3,0.2,0.5,0.3,0.8
		c0.5,1.4,1,2.9,1.5,4.3c0.1,0.2,0.1,0.3,0.2,0.5c0.5,1.3,0.9,2.7,1.4,4c0.1,0.2,0.1,0.4,0.2,0.6c0.5,1.4,1,2.9,1.5,4.3
		c0.1,0.2,0.2,0.4,0.2,0.7c0.5,1.4,1,2.7,1.5,4.1c0,0.1,0.1,0.2,0.1,0.2c0.5,1.4,1,2.8,1.5,4.3c0.1,0.2,0.2,0.5,0.3,0.7
		c1,2.8,2.1,5.6,3.1,8.4c0.1,0.2,0.2,0.5,0.3,0.7c0.5,1.4,1,2.8,1.6,4.2c0,0.1,0.1,0.2,0.1,0.3c0.5,1.3,1,2.6,1.5,3.9
		c0.1,0.2,0.2,0.4,0.2,0.6c0.5,1.4,1.1,2.7,1.6,4c0.1,0.2,0.1,0.4,0.2,0.6c0.5,1.3,1,2.5,1.5,3.7c0.1,0.1,0.1,0.3,0.2,0.4
		c0.5,1.3,1.1,2.6,1.6,3.9c0.1,0.2,0.2,0.5,0.3,0.7c0.5,1.3,1,2.6,1.6,3.9c0,0,0,0.1,0,0.1c0.5,1.3,1.1,2.6,1.6,3.9
		c0.1,0.3,0.2,0.5,0.3,0.8c0.5,1.3,1.1,2.5,1.6,3.8c0,0.1,0.1,0.2,0.1,0.3c0.5,1.2,1,2.4,1.5,3.5c0.1,0.3,0.2,0.5,0.3,0.8
		c0.5,1.2,1,2.4,1.5,3.6c0.1,0.2,0.2,0.5,0.3,0.7c0.4,1,0.9,2.1,1.3,3.1c0.1,0.3,0.2,0.5,0.3,0.8c0.5,1.1,1,2.3,1.5,3.4
		c0.1,0.3,0.3,0.6,0.4,1c0.4,1,0.8,1.9,1.3,2.9c0.1,0.3,0.2,0.5,0.3,0.8c0.5,1.1,1,2.2,1.5,3.2c0.2,0.4,0.3,0.8,0.5,1.1
		c0.4,0.9,0.8,1.8,1.2,2.7c0.1,0.2,0.2,0.4,0.2,0.5c2.1-4.2,4.2-8.4,6.3-12.5c-26-45.4-46.8-93.7-61.8-143.9
		c0.1,0.6,0.3,1.2,0.4,1.7c0.1,0.4,0.2,0.8,0.3,1.2c0.2,1,0.5,2,0.8,3c0.1,0.3,0.2,0.7,0.3,1.1c0.3,1.2,0.6,2.3,0.9,3.5
		c0.4,1.5,0.8,3,1.2,4.5C2897.4,349.2,2897.5,349.5,2897.6,349.9z"/>
	<path id="blue_basket_1_" class="st8" d="M3033.6,683.7l-10.1,37.7c-3.2,12-15.6,19.1-27.6,15.9c0,0,0,0,0,0l-52.2-14
		c-12-3.2-19.1-15.6-15.9-27.6l10.1-37.7c-5.6-3.6-7.2-11-3.7-16.6c2.8-4.4,8.2-6.5,13.2-5.2l88.7,23.8c6.4,1.7,10.2,8.3,8.5,14.7
		C3043.3,679.8,3038.8,683.4,3033.6,683.7z"/>
	<path id="shade_basket_1_" class="st9" d="M3017.9,655.2l18.3,4.9c6.4,1.7,10.2,8.3,8.5,14.7c-1.4,5.1-5.8,8.7-11.1,8.9l-10.1,37.7
		c-3.2,12-15.6,19.1-27.6,15.9c0,0,0,0,0,0L2954,726c5.2-2.6,10.1-5.6,14.7-9.1c20.8-15.6,34-38.6,40.1-64.2L3017.9,655.2z"/>
	<path id="white_circle_1_" class="st10" d="M3124.6,152.5c40.1,10.7,63.8,51.9,53.1,92s-51.9,63.8-92,53.1s-63.8-51.9-53.1-92
		S3084.6,141.8,3124.6,152.5z"/>
	<path id="light_line_upper_left" class="st0" d="M2917,158.6c-0.2,0-0.3-0.1-0.5-0.1c-2.7-1-4.1-4-3.1-6.7
		c7.8-21.2,19-40.8,33.4-58.3c14.4-17.5,31.5-32.2,50.8-44c2.5-1.5,5.7-0.7,7.2,1.8c1.5,2.5,0.7,5.7-1.8,7.2
		c-36.7,22.2-65,56.6-79.8,96.9C2922.3,157.9,2919.6,159.3,2917,158.6z"/>
	<path id="light_line_point" class="st0" d="M3014.5,563.6c-1-0.3-2-0.9-2.7-1.7c-3.4-4.1-6.7-8.4-9.7-12.9
		c-3.4-4.9-6.5-10.1-9.4-15.3c-1.4-2.6-0.4-5.7,2.1-7.1c2.6-1.4,5.7-0.4,7.1,2.1c2.7,4.9,5.6,9.8,8.8,14.4c2,2.9,4.1,5.8,6.4,8.7
		c17.5-10,34.4-20.1,51.4-31c22.1-14,43.1-28.3,64.3-43.7c2.3-1.7,5.6-1.2,7.3,1.2c1.7,2.3,1.2,5.6-1.2,7.3
		c-21.4,15.5-42.6,29.9-64.9,44.1c-18.5,11.7-36.7,22.7-55.8,33.4C3017.2,563.8,3015.7,564,3014.5,563.6z"/>
	<path id="light_line_upper_right" class="st0" d="M3293.4,168.4c-1.6-0.4-3.1-1.7-3.6-3.4c-7-20.9-17.2-40.5-30.5-58.2
		c-1.7-2.3-1.3-5.6,1-7.4s5.6-1.3,7.4,1c13.9,18.6,24.7,39.1,32,61.2c0.9,2.8-0.6,5.7-3.3,6.6
		C3295.5,168.7,3294.4,168.7,3293.4,168.4z"/>
	<path id="light_line_lower_left" class="st0" d="M2959.6,712.5c-8.6-2.3-13.6-4.2-16.2-8.7c-3.2-5.5-1.3-12.2,2.3-25.6
		c0.6-2.1,1.2-4.5,1.9-7.1c0.8-2.8,3.6-4.5,6.4-3.7c2.8,0.8,4.5,3.6,3.7,6.4c-0.7,2.6-1.4,5-1.9,7.1c-2.3,8.5-4.3,15.8-3.4,17.5
		c0.9,1.5,7.5,3.2,14.5,5c2.1,0.5,4.5,1.2,7.1,1.8c2.8,0.8,4.5,3.6,3.7,6.4c-0.8,2.8-3.6,4.5-6.4,3.7c-2.5-0.7-4.9-1.3-7-1.8
		C2962.6,713.3,2961,712.9,2959.6,712.5z"/>
	<circle id="light_dot_upper_left" class="st0" cx="3015.6" cy="44.5" r="5.3"/>
	<circle id="light_dot_point" class="st0" cx="2988.7" cy="515.8" r="5.3"/>
	
		<ellipse id="light_dot_upper_right" transform="matrix(0.2588 -0.9659 0.9659 0.2588 2271.7605 3321.6445)" class="st0" cx="3300.3" cy="180.5" rx="5.2" ry="5.2"/>
	
		<ellipse id="light_dot_lower_left" transform="matrix(0.2588 -0.9659 0.9659 0.2588 1525.2258 3415.1865)" class="st0" cx="2988" cy="713.7" rx="5.2" ry="5.2"/>
</g>
</svg>
