<?xml version="1.0" encoding="utf-8"?>
<!-- Generator: Adobe Illustrator 25.2.1, SVG Export Plug-In . SVG Version: 6.00 Build 0)  -->
<svg version="1.1" id="Layer_1" xmlns="http://www.w3.org/2000/svg" xmlns:xlink="http://www.w3.org/1999/xlink" x="0px" y="0px"
	 viewBox="0 0 25 25" style="enable-background:new 0 0 25 25;" xml:space="preserve">
<style type="text/css">
	.st0{fill-rule:evenodd;clip-rule:evenodd;fill:#CF393E;}
</style>
<path class="st0" d="M11.5,13.5c0,0.6,0.4,1,1,1s1-0.4,1-1v-3c0-0.6-0.4-1-1-1s-1,0.4-1,1V13.5z M13.5,16.5c0-0.6-0.4-1-1-1
	s-1,0.4-1,1l0,0c0,0.6,0.4,1,1,1S13.5,17,13.5,16.5L13.5,16.5z M9.9,5.1C11,3,14,3,15.1,5.1L21.7,17c1.1,2-0.3,4.5-2.6,4.5H5.9
	c-2.3,0-3.7-2.5-2.6-4.5L9.9,5.1z"/>
</svg>
