<svg width="30" height="30" viewBox="0 0 30 30" fill="none" xmlns="http://www.w3.org/2000/svg">
<path fill-rule="evenodd" clip-rule="evenodd" d="M12.5 10C12.5 8.61929 13.6193 7.5 15 7.5C16.3807 7.5 17.5 8.61929 17.5 10C17.5 11.3807 16.3807 12.5 15 12.5C13.6193 12.5 12.5 11.3807 12.5 10Z" fill="white"/>
<path fill-rule="evenodd" clip-rule="evenodd" d="M19.1161 5.36614C19.6042 4.87799 20.3957 4.87799 20.8838 5.36614C23.4431 7.92539 23.4431 12.0747 20.8838 14.634C20.3957 15.1221 19.6042 15.1221 19.1161 14.634C18.628 14.1459 18.628 13.3544 19.1161 12.8662C20.699 11.2833 20.699 8.71684 19.1161 7.13392C18.628 6.64576 18.628 5.85431 19.1161 5.36614Z" fill="white"/>
<path fill-rule="evenodd" clip-rule="evenodd" d="M10.8839 5.36614C10.3957 4.87799 9.60425 4.87799 9.11608 5.36614C6.55685 7.92539 6.55685 12.0747 9.11608 14.634C9.60425 15.1221 10.3957 15.1221 10.8839 14.634C11.372 14.1459 11.372 13.3544 10.8839 12.8662C9.30092 11.2833 9.30092 8.71684 10.8839 7.13392C11.372 6.64576 11.372 5.85431 10.8839 5.36614Z" fill="white"/>
<path fill-rule="evenodd" clip-rule="evenodd" d="M22.8661 2.86614C23.3542 2.37799 24.1457 2.37799 24.6338 2.86614C28.5738 6.80612 28.5738 13.1941 24.6338 17.134C24.1457 17.6222 23.3542 17.6222 22.8661 17.134C22.378 16.6459 22.378 15.8545 22.8661 15.3662C25.8297 12.4026 25.8297 7.59757 22.8661 4.63392C22.378 4.14576 22.378 3.35431 22.8661 2.86614Z" fill="white"/>
<path fill-rule="evenodd" clip-rule="evenodd" d="M7.13388 2.86614C6.64572 2.37799 5.85427 2.37799 5.3661 2.86614C1.42614 6.80612 1.42614 13.1941 5.3661 17.134C5.85427 17.6222 6.64572 17.6222 7.13388 17.134C7.62203 16.6459 7.62203 15.8545 7.13388 15.3662C4.17022 12.4026 4.17022 7.59757 7.13388 4.63392C7.62203 4.14576 7.62203 3.35431 7.13388 2.86614Z" fill="white"/>
<path fill-rule="evenodd" clip-rule="evenodd" d="M12.1474 17.1046C13.0611 14.3634 16.9386 14.3634 17.8524 17.1046L20.0889 23.8141C20.8983 26.2424 19.0909 28.75 16.5314 28.75H13.4685C10.9089 28.75 9.10148 26.2424 9.91089 23.8141L12.1474 17.1046Z" fill="white"/>
</svg>
