<svg width="30" height="30" viewBox="0 0 30 30" fill="none" xmlns="http://www.w3.org/2000/svg">
<path fill-rule="evenodd" clip-rule="evenodd" d="M15 10.5C15.2761 10.5 15.5 10.2761 15.5 10C15.5 9.72389 15.2761 9.5 15 9.5C14.7239 9.5 14.5 9.72389 14.5 10C14.5 10.2761 14.7239 10.5 15 10.5ZM15 7.5C13.6193 7.5 12.5 8.61929 12.5 10C12.5 11.3807 13.6193 12.5 15 12.5C16.3807 12.5 17.5 11.3807 17.5 10C17.5 8.61929 16.3807 7.5 15 7.5Z" fill="white"/>
<path fill-rule="evenodd" clip-rule="evenodd" d="M19.1161 5.36617C19.6042 4.87802 20.3957 4.87802 20.8838 5.36617C23.4431 7.92542 23.4431 12.0748 20.8838 14.634C20.3957 15.1221 19.6042 15.1221 19.1161 14.634C18.628 14.1459 18.628 13.3544 19.1161 12.8663C20.699 11.2833 20.699 8.71687 19.1161 7.13395C18.628 6.64579 18.628 5.85434 19.1161 5.36617Z" fill="white"/>
<path fill-rule="evenodd" clip-rule="evenodd" d="M10.884 5.36617C10.3958 4.87802 9.60437 4.87802 9.11621 5.36617C6.55697 7.92542 6.55697 12.0748 9.11621 14.634C9.60437 15.1221 10.3958 15.1221 10.884 14.634C11.3721 14.1459 11.3721 13.3544 10.884 12.8663C9.30104 11.2833 9.30104 8.71687 10.884 7.13395C11.3721 6.64579 11.3721 5.85434 10.884 5.36617Z" fill="white"/>
<path fill-rule="evenodd" clip-rule="evenodd" d="M22.8661 2.86617C23.3542 2.37802 24.1457 2.37802 24.6338 2.86617C28.5738 6.80615 28.5738 13.1941 24.6338 17.134C24.1457 17.6223 23.3542 17.6223 22.8661 17.134C22.378 16.6459 22.378 15.8545 22.8661 15.3663C25.8297 12.4026 25.8297 7.5976 22.8661 4.63395C22.378 4.14579 22.378 3.35434 22.8661 2.86617Z" fill="white"/>
<path fill-rule="evenodd" clip-rule="evenodd" d="M7.13388 2.86617C6.64572 2.37802 5.85427 2.37802 5.3661 2.86617C1.42614 6.80615 1.42614 13.1941 5.3661 17.134C5.85427 17.6223 6.64572 17.6223 7.13388 17.134C7.62203 16.6459 7.62203 15.8545 7.13388 15.3663C4.17022 12.4026 4.17022 7.5976 7.13388 4.63395C7.62203 4.14579 7.62203 3.35434 7.13388 2.86617Z" fill="white"/>
<path fill-rule="evenodd" clip-rule="evenodd" d="M14.9934 18.0533C14.9934 18.0533 14.9934 18.0533 14.9934 18.0533L12.7569 24.7628L9.91089 23.8141L12.1474 17.1046C13.0611 14.3634 16.9386 14.3634 17.8524 17.1046L20.0889 23.8141C20.8983 26.2424 19.0909 28.75 16.5314 28.75H13.4685C10.9089 28.75 9.10148 26.2424 9.91089 23.8141L12.7569 24.7628C12.5951 25.2485 12.9565 25.75 13.4685 25.75H16.5314C17.0431 25.75 17.4047 25.2486 17.2428 24.7628C17.2428 24.7628 17.2428 24.7628 17.2428 24.7628L15.0063 18.0533C15.0058 18.0518 15.0053 18.0502 15.0048 18.0488C15.0032 18.0487 15.0015 18.0487 14.9999 18.0487C14.9982 18.0487 14.9966 18.0487 14.995 18.0488C14.9944 18.0503 14.9939 18.0518 14.9934 18.0533Z" fill="white"/>
</svg>
