<svg xmlns="http://www.w3.org/2000/svg" width="1921" height="2786" viewBox="0 0 1921 2786">
  <defs>
    <style>
      .cls-1 {
        fill: #caa583;
        fill-rule: evenodd;
      }

      .cls-2 {
        fill: #fff;
      }
    </style>
  </defs>
  <path id="Brown" class="cls-1" d="M1918,68c-0.3,4.356-.63,8.649-1,13a381.2,381.2,0,0,0,3,119c-0.31,14.326-.96,28.12-2,42-0.99,13.291-2.07,24.672-2,38a294.942,294.942,0,0,0,4,47c-0.37,8.92-1.02,17.494-2,26-1.19,10.324-2.28,19.262-1,31a105.982,105.982,0,0,0,3,16,464.027,464.027,0,0,0,0,122c-2.07,8.591-3.73,17.226-5,26-4.17,28.759-2.61,57.5-1,76,2.13,24.449,4.25,60.145,6,91a118.335,118.335,0,0,0-22,47,167.344,167.344,0,0,0,22,47v59a369.25,369.25,0,0,0,0,170v289c-0.83,5.78-1.82,12.42-2.91,18.92,0.96-.3,1.92-0.58,2.88-0.89,0.19,22.15-.47,43.93-2,66-0.3,4.35-.63,8.64-1,12.99a381.116,381.116,0,0,0,3,118.99c-0.31,14.33-.96,28.12-2,42-0.99,13.29-2.07,24.67-2,38a294.877,294.877,0,0,0,4,46.99c-0.37,8.92-1.02,17.5-2,26-1.19,10.32-2.29,19.26-1,31a106.123,106.123,0,0,0,3,16,463.957,463.957,0,0,0,0,121.99c-2.07,8.59-3.73,17.22-5,25.99-4.17,28.76-2.61,57.5-1,76,2.13,24.44,4.25,60.14,6,90.99a118.335,118.335,0,0,0-22,47,167.461,167.461,0,0,0,22,46.99v59a369.156,369.156,0,0,0,0,169.98v288.98c-2.25,15.66-5.69,37.57-9,45.99a32.024,32.024,0,0,0-2,10,32.5,32.5,0,0,0,1,7c2.4,8.52,7.37,37.72,10,53-58.78.23-116.34-1.42-175-5-46.44-2.84-91.75-6.78-138-12a111.907,111.907,0,0,1-30,13c-16.55,4.4-30.17,3.53-42.99,3a340.628,340.628,0,0,0-43,1,387.058,387.058,0,0,1-109-13c-5.75-1.55-11.33-3.19-17-5q-13.005,9-26,18c-53.42-1.57-105.56-2.23-159-2-39.95.17-79.07,0.82-119,2-9.29-5.33-24.81-14.34-29-18a8.439,8.439,0,0,0-4-2c-3.38-.52-6.29,1.65-8,3-5.34,4.22-13.22,10.96-20,17-14.428-8.13-37.742-20.79-44-23a16.776,16.776,0,0,0-6-1,15.97,15.97,0,0,0-5,1c-8.076,2.95-22.438,14.73-33,20a70.227,70.227,0,0,1-7,3c-75.048-1.34-148.936-1.99-224-2-76.07-.01-150.938.65-227,2a225.109,225.109,0,0,1-37-8c-6.569-2.05-15.58-4.81-26-5-14.206-.26-23.254,3.53-35,7a183.711,183.711,0,0,1-29,6H113a233.51,233.51,0,0,0-78-6,228.755,228.755,0,0,0-35,6,566.759,566.759,0,0,0,3-64c-0.172-17.73-1.169-35.35-3-52.99a358.985,358.985,0,0,1,38-65,155.99,155.99,0,0,0-17-27,156.135,156.135,0,0,0-21-21.99V2353.94c5.023-30.53,11.16-68.59,14-91.99,0.508-4.18.866-8.15,1-12,0.885-25.48-7.3-40.93-12-65.99a177.744,177.744,0,0,1-3-32V1922.98a68.137,68.137,0,0,0,13-14,68.865,68.865,0,0,0,11-26,57.028,57.028,0,0,0-15-24.99,54.357,54.357,0,0,0-9-7,352.056,352.056,0,0,0,4-35A354.152,354.152,0,0,0,0,1736V1608.01a160.723,160.723,0,0,0,15-45c5.466-31.49-.853-54.18-8-90.99-2.638-13.59-4.929-27.03-7-41a433.168,433.168,0,0,0,2-53.99c-0.273-10.75-.932-21.3-2-32,0.557,0.11,1.113.2,1.67,0.3Q1,1335.67,0,1326a358.988,358.988,0,0,1,38-65,155.613,155.613,0,0,0-17-27,155.669,155.669,0,0,0-21-22V1011c5.023-30.539,11.16-68.6,14-92,0.508-4.186.866-8.154,1-12,0.885-25.481-7.3-40.941-12-66a177.741,177.741,0,0,1-3-32V580a68.342,68.342,0,0,0,13-14,68.906,68.906,0,0,0,11-26A57.061,57.061,0,0,0,9,515a54.572,54.572,0,0,0-9-7,351.911,351.911,0,0,0,4-35,354.24,354.24,0,0,0-4-80V265a160.666,160.666,0,0,0,15-45c5.466-31.5-.853-54.188-8-91-2.638-13.588-4.93-27.029-7-41A433.338,433.338,0,0,0,2,34C1.727,23.254,1.068,12.7,0,2,55.859,12.733,111.01,13.446,165,3c1.675-.324,3.329-0.655,5-1,26.846,1.388,53.118,2.045,80,2,25.2-.042,49.829-0.7,75-2,10.676,1.686,21.2,3,32,4,43.7,4.04,77.541.53,122-2,14.346-.816,28.51-1.474,43-2,7.224,0.367,14.306.793,21.393,1.287C546.929,3.534,550.607,3.475,553,4c16.225,3.56,24.154,21.8,38,21a18.609,18.609,0,0,0,7-2c10.735-4.71,37.486-14.51,55-21,46.017,1.044,90.977,1.372,137,1,21.765-.176,43.24-0.506,65-1a79.658,79.658,0,0,0,11,3c9.714,1.916,21.961,1.3,25,1,18.657-1.859,66.47-3.053,98-4h69a127.756,127.756,0,0,0,22,7,127.736,127.736,0,0,0,29,3c7.03-1.092,13.94-2.078,21-3q43.29-5.652,87-7a371.457,371.457,0,0,1,56.1,0c9.35,0.7,17.84,1.757,26.9,3,44.64,6.128,82.12,1.628,131-1,26.82-1.442,53.43-2.092,81-2a85.748,85.748,0,0,1,19,10c4.07,2.9,10.26,7.913,18,7a20.445,20.445,0,0,0,4-1c8.22-3.152,37.07-11.582,52-16a230.833,230.833,0,0,0,30,3,259.26,259.26,0,0,0,31-1c13.45-1.09,27.48-1.739,42-2a545.135,545.135,0,0,1,70,5c30.72,4.235,55.01,9.286,89,6a251.645,251.645,0,0,0,53-11C1920.19,24.15,1919.53,45.937,1918,68Z"/>
  <rect id="White" class="cls-2" x="50" y="52" width="1820" height="2684"/>
</svg>
