<svg width="25" height="25" viewBox="0 0 25 25" fill="none" xmlns="http://www.w3.org/2000/svg">
<path d="M2.9141 10.613C2.913 10.7157 2.91248 10.8197 2.91248 10.925V16.301C2.91248 17.4174 2.971 18.3828 3.15114 19.1934C3.33381 20.0154 3.65457 20.7381 4.22096 21.3045C4.78736 21.8709 5.51012 22.1917 6.33207 22.3743C7.14266 22.5545 8.10805 22.613 9.22448 22.613H16.6005C17.7169 22.613 18.6823 22.5545 19.4929 22.3743C20.3149 22.1917 21.0376 21.8709 21.604 21.3045C22.1704 20.7381 22.4912 20.0154 22.6738 19.1934C22.854 18.3828 22.9125 17.4174 22.9125 16.301V10.925C22.9125 10.8197 22.912 10.7157 22.9109 10.613H2.9141Z" fill="#1D66C0"/>
<path d="M5.91239 4.96006V3.61298C5.91239 3.0607 6.3601 2.61298 6.91239 2.61298C7.46467 2.61298 7.91239 3.0607 7.91239 3.61298V4.64775C8.32352 4.62306 8.76094 4.61298 9.22439 4.61298H16.6004C17.0639 4.61298 17.5013 4.62306 17.9124 4.64775V3.61298C17.9124 3.0607 18.3601 2.61298 18.9124 2.61298C19.4647 2.61298 19.9124 3.0607 19.9124 3.61298V4.96006C20.5615 5.15332 21.136 5.45358 21.6039 5.92146C22.1703 6.48786 22.4911 7.21062 22.6737 8.03257C22.7149 8.21796 22.7498 8.41144 22.779 8.61298H3.04578C3.07501 8.41144 3.10985 8.21796 3.15105 8.03257C3.33372 7.21062 3.65448 6.48786 4.22087 5.92146C4.68875 5.45358 5.26334 5.15332 5.91239 4.96006Z" fill="#1D66C0"/>
</svg>
