<?xml version="1.0" encoding="utf-8"?>
<!-- Generator: Adobe Illustrator 25.2.1, SVG Export Plug-In . SVG Version: 6.00 Build 0)  -->
<svg version="1.1" id="Layer_1" xmlns="http://www.w3.org/2000/svg" xmlns:xlink="http://www.w3.org/1999/xlink" x="0px" y="0px"
	 viewBox="0 0 25 25" style="enable-background:new 0 0 25 25;" xml:space="preserve">
<style type="text/css">
	.st0{fill:#FFFFFF;}
</style>
<path class="st0" d="M2.5,10.6c0,0.1,0,0.2,0,0.3v5.4c0,1.1,0.1,2.1,0.2,2.9c0.2,0.8,0.5,1.5,1.1,2.1s1.3,0.9,2.1,1.1
	s1.8,0.2,2.9,0.2h7.4c1.1,0,2.1-0.1,2.9-0.2c0.8-0.2,1.5-0.5,2.1-1.1s0.9-1.3,1.1-2.1c0.2-0.8,0.2-1.8,0.2-2.9v-5.4
	c0-0.1,0-0.2,0-0.3C22.5,10.6,2.5,10.6,2.5,10.6z"/>
<path class="st0" d="M5.5,5V3.6c0-0.6,0.4-1,1-1s1,0.4,1,1v1c0.4,0,0.8,0,1.3,0h7.4c0.5,0,0.9,0,1.3,0v-1c0-0.6,0.4-1,1-1
	c0.6,0,1,0.4,1,1V5c0.6,0.2,1.2,0.5,1.7,1c0.6,0.6,0.9,1.3,1.1,2.1c0,0.2,0.1,0.4,0.1,0.6H2.6c0-0.2,0.1-0.4,0.1-0.6
	C2.9,7.3,3.2,6.6,3.8,6C4.3,5.5,4.9,5.2,5.5,5z"/>
</svg>
