<?xml version="1.0" encoding="utf-8"?>
<!-- Generator: Adobe Illustrator 25.2.1, SVG Export Plug-In . SVG Version: 6.00 Build 0)  -->
<svg version="1.1" id="Layer_1" xmlns="http://www.w3.org/2000/svg" xmlns:xlink="http://www.w3.org/1999/xlink" x="0px" y="0px"
	 viewBox="0 0 12 12" style="enable-background:new 0 0 12 12;" xml:space="preserve">
<style type="text/css">
	.st0{fill-rule:evenodd;clip-rule:evenodd;fill:#1D66C0;}
</style>
<path class="st0" d="M6,10.5C6,10.2,6.2,10,6.5,10h4c0.3,0,0.5,0.2,0.5,0.5S10.8,11,10.5,11h-4C6.2,11,6,10.8,6,10.5z"/>
<path class="st0" d="M10.4,4c0.8-0.8,0.8-1.9,0.2-2.5C10.3,1.2,9.8,1,9.4,1C8.9,1,8.4,1.2,8,1.5c0,0,0,0,0,0L1.4,8.1
	C1.2,8.4,1,8.8,1,9.1V10c0,0.6,0.4,1,1,1h0.8c0.4,0,0.8-0.2,1.1-0.4L10.4,4z M8.6,2.9c-0.2-0.2-0.5-0.2-0.7,0
	c-0.2,0.2-0.2,0.5,0,0.7l0.5,0.5c0.2,0.2,0.5,0.2,0.7,0c0.2-0.2,0.2-0.5,0-0.7L8.6,2.9z"/>
</svg>
