<?xml version="1.0" encoding="utf-8"?>
<!-- Generator: Adobe Illustrator 25.2.1, SVG Export Plug-In . SVG Version: 6.00 Build 0)  -->
<svg version="1.1" id="Layer_1" xmlns="http://www.w3.org/2000/svg" xmlns:xlink="http://www.w3.org/1999/xlink" x="0px" y="0px"
	 viewBox="0 0 21 17" style="enable-background:new 0 0 21 17;" xml:space="preserve">
<style type="text/css">
	.st0{fill-rule:evenodd;clip-rule:evenodd;fill:#FFFFFF;}
</style>
<path class="st0" d="M4.4,0.5h12.1c0.4,0,0.8,0,1.1,0c0.3,0,0.7,0.1,1,0.2C19.4,1,20,1.6,20.3,2.3c0.2,0.4,0.2,0.7,0.2,1.1
	c0,0.3,0,0.7,0,1.1v8.1c0,0.4,0,0.8,0,1.1s-0.1,0.7-0.2,1c-0.3,0.7-0.9,1.3-1.6,1.6c-0.3,0.1-0.7,0.2-1,0.2s-0.7,0-1.1,0H4.4
	c-0.4,0-0.8,0-1.1,0s-0.7-0.1-1-0.2c-0.7-0.3-1.3-0.9-1.6-1.6c-0.1-0.3-0.2-0.7-0.2-1s0-0.7,0-1.1V4.5c0-0.4,0-0.8,0-1.1
	s0.1-0.7,0.2-1C1,1.6,1.6,1.1,2.3,0.7c0.3-0.1,0.7-0.2,1-0.2S4,0.5,4.4,0.5z M2.9,2.8c0.4-0.4,1-0.5,1.4-0.1l5.6,4.9
	c0.4,0.3,0.9,0.3,1.3,0l5.6-4.9c0.4-0.4,1-0.3,1.4,0.1s0.3,1-0.1,1.4l-5.6,4.9c-1.1,1-2.8,1-4,0L3,4.2C2.5,3.8,2.5,3.2,2.9,2.8z"/>
</svg>
