<?xml version="1.0" encoding="utf-8"?>
<!-- Generator: Adobe Illustrator 25.2.1, SVG Export Plug-In . SVG Version: 6.00 Build 0)  -->
<svg version="1.1" id="Layer_1" xmlns="http://www.w3.org/2000/svg" xmlns:xlink="http://www.w3.org/1999/xlink" x="0px" y="0px"
	 viewBox="0 0 21 17" style="enable-background:new 0 0 21 17;" xml:space="preserve">
<style type="text/css">
	.st0{fill-rule:evenodd;clip-rule:evenodd;fill:#1D66C0;}
</style>
<path class="st0" d="M4,0.8h12.1c0.4,0,0.8,0,1.1,0c0.3,0,0.7,0.1,1,0.2c0.7,0.3,1.3,0.9,1.6,1.6C20,3,20,3.3,20,3.7
	c0,0.3,0,0.7,0,1.1v8.1c0,0.4,0,0.8,0,1.1s-0.1,0.7-0.2,1c-0.3,0.7-0.9,1.3-1.6,1.6c-0.3,0.1-0.7,0.2-1,0.2s-0.7,0-1.1,0H4
	c-0.4,0-0.8,0-1.1,0s-0.7-0.1-1-0.2c-0.7-0.3-1.3-0.9-1.6-1.6c-0.1-0.3-0.2-0.7-0.2-1s0-0.7,0-1.1V4.8c0-0.4,0-0.8,0-1.1
	s0.1-0.7,0.2-1C0.6,1.9,1.2,1.4,1.9,1c0.3-0.1,0.7-0.2,1-0.2S3.6,0.8,4,0.8z M2.4,3.1c0.4-0.4,1-0.5,1.4-0.1l5.6,4.9
	c0.4,0.3,0.9,0.3,1.3,0L16.3,3c0.4-0.4,1-0.3,1.4,0.1s0.3,1-0.1,1.4L12,9.4c-1.1,1-2.8,1-4,0L2.5,4.5C2.1,4.1,2,3.5,2.4,3.1z"/>
</svg>
