<?xml version="1.0" encoding="utf-8"?>
<!-- Generator: Adobe Illustrator 25.2.1, SVG Export Plug-In . SVG Version: 6.00 Build 0)  -->
<svg version="1.1" id="Layer_1" xmlns="http://www.w3.org/2000/svg" xmlns:xlink="http://www.w3.org/1999/xlink" x="0px" y="0px"
	 viewBox="0 0 12 12" style="enable-background:new 0 0 12 12;" xml:space="preserve">
<style type="text/css">
	.st0{clip-path:url(#SVGID_2_);}
	.st1{fill-rule:evenodd;clip-rule:evenodd;fill:#FFFFFF;}
</style>
<g>
	<defs>
		<rect id="SVGID_1_" width="12" height="12"/>
	</defs>
	<use xlink:href="#SVGID_1_"  style="overflow:visible;fill:#FFFFFF;"/>
	<clipPath id="SVGID_2_">
		<use xlink:href="#SVGID_1_"  style="overflow:visible;"/>
	</clipPath>
	<g class="st0">
		<path class="st1" d="M4.3,2.4C5.8,1.7,7.6,2,8.8,3.2l1.5,1.5c0,0,0,0,0,0c0.2,0.2,0.4,0.4,0.5,0.6c0.2,0.4,0.2,1,0,1.4
			c-0.1,0.2-0.3,0.4-0.5,0.6c0,0,0,0,0,0l0,0c-0.2,0.2-0.5,0.2-0.7,0c-0.2-0.2-0.2-0.5,0-0.7l0,0c0.3-0.3,0.3-0.3,0.4-0.4
			c0.1-0.1,0.1-0.3,0-0.5c0,0-0.1-0.1-0.4-0.4L8.1,3.9C7.2,3,5.8,2.8,4.7,3.3C4.5,3.4,4.2,3.3,4,3C3.9,2.8,4,2.5,4.3,2.4z"/>
		<path class="st1" d="M1.2,2.3C1.4,2,1.7,2,1.9,2.2l9,7c0.2,0.2,0.3,0.5,0.1,0.7c-0.2,0.2-0.5,0.3-0.7,0.1L8.8,8.8l0,0
			c-1.6,1.6-4.1,1.6-5.7,0L2,7.7C1.7,7.4,1.5,7.2,1.3,6.9C1.1,6.7,0.9,6.4,0.9,6s0.2-0.7,0.4-0.9C1.5,4.8,1.7,4.6,2,4.3l0.4-0.4
			L1.3,3C1.1,2.8,1,2.5,1.2,2.3z M6.4,6.9l0.8,0.7C6.9,7.8,6.5,8,6,8C4.9,8,4,7.1,4,6c0-0.3,0.1-0.6,0.2-0.8L5,5.9C5,5.9,5,6,5,6
			c0,0.6,0.4,1,1,1C6.1,7,6.3,7,6.4,6.9z"/>
	</g>
</g>
</svg>
