<svg width="12" height="12" viewBox="0 0 12 12" fill="none" xmlns="http://www.w3.org/2000/svg">
<g clip-path="url(#clip0_289_66)">
<path fill-rule="evenodd" clip-rule="evenodd" d="M4.29289 2.35817C5.7666 1.68797 7.56465 1.95814 8.77805 3.17155L10.2789 4.67245C10.294 4.68752 10.3089 4.70243 10.3237 4.71718C10.5273 4.92022 10.7031 5.0956 10.8094 5.2954C11.0437 5.7359 11.0437 6.2641 10.8094 6.70455C10.7031 6.90435 10.5273 7.07975 10.3237 7.28275C10.3089 7.29755 10.294 7.31245 10.2789 7.3275L10.2529 7.35355C10.0577 7.5488 9.7411 7.5488 9.54585 7.35355C9.35055 7.15825 9.35055 6.8417 9.54585 6.64645L9.57185 6.6204C9.84605 6.3462 9.90035 6.28415 9.9266 6.23485C10.0047 6.088 10.0047 5.91195 9.9266 5.7651C9.90035 5.7158 9.84605 5.65375 9.57185 5.37955L8.07095 3.87866C7.16185 2.96957 5.8135 2.76521 4.70686 3.26846C4.45549 3.38277 4.15905 3.27167 4.04473 3.0203C3.93042 2.76893 4.04152 2.47248 4.29289 2.35817Z" fill="#1D66C0"/>
<path fill-rule="evenodd" clip-rule="evenodd" d="M1.19102 2.25799C1.36055 2.04002 1.67469 2.00075 1.89267 2.17029L10.8927 9.1703C11.1107 9.3398 11.1499 9.65395 10.9804 9.87195C10.8109 10.0899 10.4967 10.1292 10.2787 9.95965L8.79825 8.8082L8.778 8.82845C7.21595 10.3905 4.68327 10.3905 3.12117 8.82845L2.03724 7.7445C1.7238 7.4311 1.45373 7.16105 1.26655 6.91575C1.06595 6.6528 0.914062 6.3604 0.914062 6C0.914062 5.6396 1.06595 5.3472 1.26655 5.0843C1.45373 4.83895 1.7238 4.56891 2.03724 4.25551L2.43432 3.85843L1.27873 2.95964C1.06075 2.7901 1.02148 2.47597 1.19102 2.25799ZM6.3783 6.926L7.22275 7.5828C6.8847 7.84435 6.4605 8 6 8C4.89543 8 4 7.1046 4 6C4 5.7172 4.05871 5.4481 4.16459 5.2042L5.00955 5.8614C5.00325 5.9067 5 5.953 5 6C5 6.5523 5.4477 7 6 7C6.1339 7 6.2616 6.9737 6.3783 6.926Z" fill="#1D66C0"/>
<path fill-rule="evenodd" clip-rule="evenodd" d="M14 18C14 15.7909 15.7909 14 18 14C20.2091 14 22 15.7909 22 18C22 20.2091 20.2091 22 18 22C15.7909 22 14 20.2091 14 18ZM12.2423 12.3432C15.3665 9.21895 20.4319 9.21895 23.556 12.3432L25.7239 14.511C26.3508 15.1378 26.8909 15.6779 27.2653 16.1685C27.6665 16.6944 27.9703 17.2792 27.9703 18C27.9703 18.7208 27.6665 19.3056 27.2653 19.8315C26.8909 20.3221 26.3508 20.8622 25.7239 21.489L23.556 23.6569C20.4319 26.781 15.3665 26.781 12.2423 23.6569L10.0745 21.489C9.4476 20.8622 8.90746 20.3221 8.5331 19.8315C8.1319 19.3056 7.82812 18.7208 7.82812 18C7.82812 17.2792 8.1319 16.6944 8.5331 16.1685C8.90746 15.6779 9.4476 15.1378 10.0745 14.511C10.0899 14.4956 10.1055 14.48 10.121 14.4645L12.2423 12.3432Z" fill="black"/>
</g>
<defs>
<clipPath id="clip0_289_66">
<rect width="12" height="12" fill="white"/>
</clipPath>
</defs>
</svg>
