<?xml version="1.0" encoding="utf-8"?>
<!-- Generator: Adobe Illustrator 25.2.1, SVG Export Plug-In . SVG Version: 6.00 Build 0)  -->
<svg version="1.1" id="Layer_1" xmlns="http://www.w3.org/2000/svg" xmlns:xlink="http://www.w3.org/1999/xlink" x="0px" y="0px"
	 viewBox="0 0 12 12" style="enable-background:new 0 0 12 12;" xml:space="preserve">
<style type="text/css">
	.st0{fill-rule:evenodd;clip-rule:evenodd;fill:#FFFFFF;}
</style>
<path class="st0" d="M4,6c0-1.1,0.9-2,2-2c1.1,0,2,0.9,2,2c0,1.1-0.9,2-2,2C4.9,8,4,7.1,4,6z M3.1,3.2c1.6-1.6,4.1-1.6,5.7,0
	l1.1,1.1c0.3,0.3,0.6,0.6,0.8,0.8C10.8,5.3,11,5.6,11,6s-0.2,0.7-0.4,0.9c-0.2,0.2-0.5,0.5-0.8,0.8L8.8,8.8c-1.6,1.6-4.1,1.6-5.7,0
	L2,7.7C1.7,7.4,1.5,7.2,1.3,6.9C1.1,6.7,0.9,6.4,0.9,6s0.2-0.7,0.4-0.9C1.5,4.8,1.7,4.6,2,4.3c0,0,0,0,0,0L3.1,3.2z"/>
<path class="st0" d="M6,5C5.4,5,5,5.4,5,6s0.4,1,1,1s1-0.4,1-1S6.6,5,6,5z"/>
</svg>
