<svg width="12" height="12" viewBox="0 0 12 12" fill="none" xmlns="http://www.w3.org/2000/svg">
<path fill-rule="evenodd" clip-rule="evenodd" d="M4 6C4 4.89543 4.89543 4 6 4C7.10455 4 8 4.89543 8 6C8 7.10455 7.10455 8 6 8C4.89543 8 4 7.10455 4 6ZM3.12117 3.17158C4.68327 1.60948 7.21595 1.60948 8.778 3.17158L9.86195 4.2555C10.1754 4.5689 10.4455 4.83894 10.6327 5.08425C10.8333 5.3472 10.9852 5.6396 10.9852 6C10.9852 6.3604 10.8333 6.6528 10.6327 6.91575C10.4455 7.16105 10.1754 7.4311 9.86195 7.7445L8.778 8.82845C7.21595 10.3905 4.68327 10.3905 3.12117 8.82845L2.03724 7.7445C1.7238 7.4311 1.45373 7.16105 1.26655 6.91575C1.06595 6.6528 0.914062 6.3604 0.914062 6C0.914062 5.6396 1.06595 5.3472 1.26655 5.08425C1.45373 4.83894 1.7238 4.56891 2.03724 4.25551C2.04497 4.24778 2.05273 4.24002 2.06051 4.23223L3.12117 3.17158Z" fill="#1D66C0"/>
<path fill-rule="evenodd" clip-rule="evenodd" d="M6 5C5.4477 5 5 5.4477 5 6C5 6.5523 5.4477 7 6 7C6.5523 7 7 6.5523 7 6C7 5.4477 6.5523 5 6 5Z" fill="#1D66C0"/>
</svg>
