<svg width="21" height="21" viewBox="0 0 21 21" fill="none" xmlns="http://www.w3.org/2000/svg">
<path fill-rule="evenodd" clip-rule="evenodd" d="M0.00488281 3.57019C0.00488281 1.91334 1.34803 0.57019 3.00488 0.57019H17.0049C18.6618 0.57019 20.0049 1.91334 20.0049 3.57019V4.74176C20.0049 5.53741 19.6888 6.30047 19.1262 6.86308L13.2978 12.6915C13.1103 12.8791 13.0049 13.1334 13.0049 13.3986V15.7418C13.0049 16.5374 12.6888 17.3005 12.1262 17.8631L9.92418 20.0651C8.84688 21.1424 7.00488 20.3794 7.00488 18.8559V13.3986C7.00488 13.1334 6.89952 12.8791 6.71199 12.6915L0.883563 6.86308C0.320953 6.30047 0.00488281 5.53741 0.00488281 4.74176V3.57019Z" fill="white"/>
</svg>
