<svg width="25" height="25" viewBox="0 0 25 25" fill="none" xmlns="http://www.w3.org/2000/svg">
<path fill-rule="evenodd" clip-rule="evenodd" d="M13.0049 11.5702C13.0049 11.0179 12.5572 10.5702 12.0049 10.5702C11.4526 10.5702 11.0049 11.0179 11.0049 11.5702V13.0702H9.50488C8.9526 13.0702 8.50488 13.5179 8.50488 14.0702C8.50488 14.6225 8.9526 15.0702 9.50488 15.0702H11.0049V16.5702C11.0049 17.1225 11.4526 17.5702 12.0049 17.5702C12.5572 17.5702 13.0049 17.1225 13.0049 16.5702V15.0702H14.5049C15.0572 15.0702 15.5049 14.6225 15.5049 14.0702C15.5049 13.5179 15.0572 13.0702 14.5049 13.0702H13.0049V11.5702ZM5.42447 3.80885C6.23506 3.62871 7.20045 3.57019 8.31688 3.57019H9.93451C10.9376 3.57019 11.8743 4.07149 12.4307 4.90609L13.2432 6.12489C13.4287 6.40307 13.7409 6.57019 14.0753 6.57019H19.1307C20.7282 6.57019 22.023 7.83134 22.0078 9.45539C21.9896 11.3894 22.0049 13.3241 22.0049 15.2582C22.0049 16.3746 21.9464 17.34 21.7662 18.1506C21.5836 18.9726 21.2628 19.6953 20.6964 20.2617C20.13 20.8281 19.4073 21.1489 18.5853 21.3315C17.7747 21.5117 16.8093 21.5702 15.6929 21.5702H8.31688C7.20045 21.5702 6.23506 21.5117 5.42447 21.3315C4.60252 21.1489 3.87976 20.8281 3.31336 20.2617C2.74697 19.6953 2.42621 18.9726 2.24354 18.1506C2.0634 17.34 2.00488 16.3746 2.00488 15.2582V9.88219C2.00488 8.76576 2.0634 7.80037 2.24354 6.98978C2.42621 6.16783 2.74697 5.44507 3.31336 4.87867C3.87976 4.31228 4.60252 3.99152 5.42447 3.80885Z" fill="white"/>
</svg>
