<svg width="25" height="25" viewBox="0 0 25 25" fill="none" xmlns="http://www.w3.org/2000/svg">
<path fill-rule="evenodd" clip-rule="evenodd" d="M12.0049 4.5702C7.58661 4.5702 4.00488 8.15193 4.00488 12.5702C4.00488 16.9885 7.5866 20.5702 12.0049 20.5702C16.4232 20.5702 20.0049 16.9885 20.0049 12.5702C20.0049 8.15192 16.4232 4.5702 12.0049 4.5702ZM2.00488 12.5702C2.00488 7.04736 6.48204 2.5702 12.0049 2.5702C17.5278 2.5702 22.0049 7.04736 22.0049 12.5702C22.0049 18.0931 17.5278 22.5702 12.0049 22.5702C6.48204 22.5702 2.00488 18.0931 2.00488 12.5702Z" fill="white"/>
<path fill-rule="evenodd" clip-rule="evenodd" d="M11.2597 2.95883C11.6281 2.5473 12.2603 2.51228 12.6718 2.88061C15.3298 5.25957 17.0049 8.71991 17.0049 12.5702C17.0049 16.4205 15.3298 19.8808 12.6718 22.2597C12.2603 22.6281 11.6281 22.593 11.2598 22.1815C10.8914 21.77 10.9264 21.1378 11.338 20.7695C13.59 18.7538 15.0049 15.8279 15.0049 12.5702C15.0049 9.31243 13.59 6.38648 11.338 4.37088C10.9264 4.00255 10.8914 3.37036 11.2597 2.95883Z" fill="white"/>
<path fill-rule="evenodd" clip-rule="evenodd" d="M12.8171 2.90847C13.1826 3.32253 13.1432 3.95447 12.7291 4.31994C10.4438 6.337 9.00488 9.28493 9.00488 12.5702C9.00488 15.8555 10.4438 18.8034 12.7291 20.8205C13.1432 21.1859 13.1826 21.8179 12.8171 22.2319C12.4517 22.646 11.8197 22.6854 11.4057 22.3199C8.70846 19.9394 7.00488 16.4531 7.00488 12.5702C7.00488 8.68731 8.70846 5.20107 11.4056 2.82047C11.8197 2.455 12.4517 2.4944 12.8171 2.90847Z" fill="white"/>
<path fill-rule="evenodd" clip-rule="evenodd" d="M2.00488 12.5702C2.00488 12.0179 2.4526 11.5702 3.00488 11.5702H21.0049C21.5572 11.5702 22.0049 12.0179 22.0049 12.5702C22.0049 13.1225 21.5572 13.5702 21.0049 13.5702H3.00488C2.4526 13.5702 2.00488 13.1225 2.00488 12.5702Z" fill="white"/>
</svg>
