<?xml version="1.0" encoding="utf-8"?>
<!-- Generator: Adobe Illustrator 25.2.1, SVG Export Plug-In . SVG Version: 6.00 Build 0)  -->
<svg version="1.1" id="Layer_1" xmlns="http://www.w3.org/2000/svg" xmlns:xlink="http://www.w3.org/1999/xlink" x="0px" y="0px"
	 viewBox="0 0 25 25" style="enable-background:new 0 0 25 25;" xml:space="preserve">
<style type="text/css">
	.st0{fill:#FFFFFF;}
</style>
<path class="st0" d="M12.8,21c-0.9,0-1.7-0.4-2.2-1l-5.6-6.4v0C2.7,11.2,2.2,8.4,3.5,6C4.3,4.5,5.6,3.5,7,3.2c1.4-0.3,3,0.1,4.3,1.1
	c0.5,0.4,1,0.8,1.4,1.2c0.4-0.4,0.8-0.8,1.4-1.2c1.4-1,2.9-1.4,4.3-1.1C19.9,3.5,21.2,4.5,22,6c1.3,2.4,0.8,5.2-1.4,7.7L15,20
	C14.4,20.7,13.6,21,12.8,21z M6.4,12.3l5.6,6.4c0.4,0.4,1.1,0.4,1.5,0l5.6-6.4c1-1.1,2.4-3.2,1.2-5.4c-0.6-1-1.3-1.7-2.2-1.8
	c-0.9-0.2-1.8,0.1-2.7,0.8c-0.7,0.6-1.3,1.2-1.6,1.5c-0.2,0.3-0.6,0.4-1,0.4c0,0,0,0,0,0c-0.4,0-0.7-0.2-1-0.4
	c-0.3-0.3-0.9-1-1.6-1.5C9.3,5.2,8.3,4.9,7.5,5.1C6.6,5.3,5.8,5.9,5.2,7C4,9.1,5.4,11.3,6.4,12.3L6.4,12.3z M13.3,6.1
	C13.3,6.1,13.3,6.1,13.3,6.1C13.3,6.1,13.3,6.1,13.3,6.1z"/>
</svg>
