<?xml version="1.0" encoding="utf-8"?>
<!-- Generator: Adobe Illustrator 25.2.1, SVG Export Plug-In . SVG Version: 6.00 Build 0)  -->
<svg version="1.1" id="Layer_1" xmlns="http://www.w3.org/2000/svg" xmlns:xlink="http://www.w3.org/1999/xlink" x="0px" y="0px"
	 viewBox="0 0 25 25" style="enable-background:new 0 0 25 25;" xml:space="preserve">
<style type="text/css">
	.st0{fill:#FFFFFF;}
</style>
<path class="st0" d="M22,6c-0.8-1.5-2.1-2.5-3.6-2.8c-1.4-0.3-3,0.1-4.3,1.1c-0.5,0.4-1,0.8-1.4,1.2c-0.4-0.4-0.8-0.8-1.4-1.2
	C10,3.2,8.5,2.8,7,3.2C5.6,3.5,4.3,4.5,3.5,6c-1.3,2.4-0.8,5.2,1.4,7.7v0l5.6,6.4c0.6,0.6,1.4,1,2.2,1s1.7-0.4,2.2-1l5.6-6.4
	C22.8,11.2,23.4,8.4,22,6z"/>
</svg>
