<?xml version="1.0" encoding="utf-8"?>
<!-- Generator: Adobe Illustrator 25.2.1, SVG Export Plug-In . SVG Version: 6.00 Build 0)  -->
<svg version="1.1" id="balloon" xmlns="http://www.w3.org/2000/svg" xmlns:xlink="http://www.w3.org/1999/xlink" x="0px" y="0px"
	 viewBox="0 0 1080 1080" style="enable-background:new 0 0 1080 1080;" xml:space="preserve">
<style type="text/css">
	.st0{fill-rule:evenodd;clip-rule:evenodd;fill:#0E315C;}
	.st1{fill-rule:evenodd;clip-rule:evenodd;fill:#0B2551;}
	.st2{fill-rule:evenodd;clip-rule:evenodd;fill:#FF4B47;}
	.st3{fill-rule:evenodd;clip-rule:evenodd;fill:#CF393E;}
	.st4{fill-rule:evenodd;clip-rule:evenodd;fill:#FFA44F;}
	.st5{fill-rule:evenodd;clip-rule:evenodd;fill:#CF7C45;}
	.st6{fill-rule:evenodd;clip-rule:evenodd;fill:#1D66C0;}
	.st7{fill-rule:evenodd;clip-rule:evenodd;fill:#184DA9;}
	.st8{fill-rule:evenodd;clip-rule:evenodd;fill:#FFFFFF;}
	.st9{fill:#BAF3FF;}
</style>
<g>
	<path id="strings_1_" class="st0" d="M404.3,508l-18.5,2.6l37.6,267.4l18.5-2.6L404.3,508z M651.7,574.3l14.7,11.5L500.1,798.5
		L485.4,787L651.7,574.3z M519,538.7l18,4.8l-70.8,264.2l-18-4.8L519,538.7z"/>
	<path id="strings_shade_1_" class="st1" d="M666.3,585.7L500.1,798.5L485.4,787l166.2-212.8L666.3,585.7z M505.9,659.6l-24.8,92.6
		c-4.9-6.2-9.7-12.5-14.2-18.9l16-59.7C490.6,669,498.2,664.3,505.9,659.6L505.9,659.6z M416,591.8l10.7,75.9
		c-5.1-9.8-9.8-19.8-14.2-29.9c-5-11.4-9.5-22.9-13.7-34.6l-12.2-86.4C394.7,542.5,404.5,567.5,416,591.8z"/>
	<path id="red_pin_1_" class="st2" d="M378.3,380.5c0,0-14.9,48.3,8.8,139c30,114.7,90.6,209.3,90.6,209.3l0,0
		c0,0,99.8-51.6,183.1-136c65.9-66.7,77.2-116,77.2-116c31.5-100.8-28.2-209.1-129.5-236.2S401.3,277.5,378.3,380.5z"/>
	<path id="shade_red" class="st3" d="M740.3,374.6c8.5,32.6,8.4,67.9-2.4,102.3c0,0-11.2,49.3-77.2,116
		c-83.4,84.3-183.1,136-183.1,136l0,0c0,0-60.6-94.6-90.6-209.3c-0.8-3-1.5-5.9-2.2-8.8c18.3,61.2,46.9,118.9,84.4,170.6
		C603.8,605,725,496.8,740.3,374.6z"/>
	<path id="orange_A_1_" class="st4" d="M660.8,592.9c-32.6,33-67.6,60.9-98.3,82.8c0.8-12.9,1.3-25.7,1.6-38.7
		c0.4-19.1,0.1-37.8-0.7-56.8l-85.5-22.9c-10.3,16.1-19.8,32.1-29,48.8c-6.3,11.4-12.2,22.7-18,34.3c-15.6-34.2-32-76-43.7-120.8
		c-9.4-35.9-12.7-65.1-13.3-87.4c22.4-29.6,45.9-58.2,70.6-85.9c35.1-39.4,72.4-76.7,111.8-111.7c35.5-1,70.6,8.4,100.9,27
		c16.6,50,30.2,101,40.9,152.7c7.5,36.4,13.6,73,18.2,109.7C704.3,542.9,686.8,566.5,660.8,592.9z"/>
	<path id="shade_orange_1" class="st5" d="M707.9,467.9c-31.8,55.9-83.4,107.3-143.7,152c0,5.7-0.1,11.4-0.2,17.1
		c-0.2,13-0.8,25.8-1.6,38.7c0.9-0.6,1.8-1.3,2.7-1.9c0.1-0.1,0.2-0.2,0.3-0.2c0.9-0.7,1.8-1.3,2.7-2l0,0c0.9-0.7,1.8-1.3,2.7-2
		c0.1-0.1,0.2-0.2,0.3-0.2c0.9-0.7,1.8-1.3,2.8-2c0.1-0.1,0.2-0.1,0.2-0.2c0.9-0.7,1.8-1.3,2.7-2c0.1-0.1,0.1-0.1,0.2-0.2
		c0.9-0.7,1.9-1.4,2.8-2.1c0.1-0.1,0.3-0.2,0.4-0.3c1.9-1.4,3.7-2.8,5.6-4.3c0.1-0.1,0.3-0.2,0.4-0.3c1.9-1.4,3.8-2.9,5.6-4.4
		c0.2-0.1,0.3-0.2,0.5-0.3c0.9-0.7,1.9-1.5,2.8-2.2c0.1-0.1,0.2-0.2,0.3-0.2c0.9-0.7,1.8-1.4,2.6-2.1c0.1-0.1,0.3-0.2,0.4-0.3
		c0.9-0.8,1.9-1.5,2.8-2.2c0.1-0.1,0.3-0.2,0.4-0.3c0.9-0.7,1.8-1.4,2.7-2.1c0.1-0.1,0.2-0.1,0.2-0.2c0.9-0.8,1.9-1.5,2.8-2.3
		c0.2-0.2,0.4-0.3,0.5-0.4c1.9-1.6,3.8-3.1,5.7-4.7c0.2-0.2,0.4-0.3,0.6-0.5c0.9-0.8,1.9-1.6,2.8-2.4c0.1-0.1,0.2-0.2,0.3-0.2
		c0.9-0.7,1.7-1.5,2.6-2.2c0.2-0.2,0.4-0.3,0.5-0.4c0.9-0.8,1.8-1.6,2.8-2.4c0.2-0.1,0.3-0.3,0.5-0.4c0.8-0.7,1.7-1.5,2.5-2.2
		c0.1-0.1,0.3-0.3,0.4-0.4c0.9-0.8,1.8-1.6,2.8-2.5c0.2-0.2,0.4-0.4,0.6-0.5c0.9-0.8,1.8-1.6,2.6-2.4c0.1-0.1,0.1-0.1,0.2-0.2
		c0.9-0.8,1.9-1.7,2.8-2.5c0.2-0.2,0.4-0.4,0.6-0.6c0.9-0.8,1.8-1.7,2.8-2.5c0.1-0.1,0.1-0.1,0.2-0.2c0.9-0.8,1.7-1.6,2.6-2.4
		c0.2-0.2,0.4-0.4,0.6-0.6c0.9-0.9,1.8-1.7,2.7-2.6c0.1-0.1,0.3-0.3,0.4-0.4c0.8-0.8,1.6-1.5,2.5-2.3c0.2-0.2,0.3-0.3,0.5-0.5
		c0.9-0.9,1.8-1.7,2.7-2.6c0.2-0.2,0.4-0.4,0.6-0.5c0.8-0.8,1.7-1.6,2.5-2.4c0.1-0.1,0.2-0.2,0.3-0.3c0.9-0.9,1.8-1.8,2.7-2.7
		c0.2-0.2,0.4-0.4,0.6-0.6c0.9-0.9,1.8-1.8,2.7-2.7c0.7-0.7,1.4-1.4,2.1-2.2c0.2-0.2,0.3-0.3,0.5-0.5c0.7-0.7,1.4-1.4,2-2.1
		c0.1-0.1,0.3-0.3,0.4-0.5c0.6-0.6,1.1-1.2,1.7-1.7c0.2-0.2,0.4-0.4,0.5-0.6c0.6-0.7,1.2-1.3,1.8-2c0.2-0.2,0.4-0.4,0.6-0.6
		c0.5-0.5,1-1.1,1.5-1.6c0.1-0.2,0.3-0.3,0.5-0.5c0.6-0.6,1.2-1.3,1.7-1.9c0.2-0.2,0.4-0.5,0.7-0.7c0.5-0.6,1.1-1.2,1.6-1.8
		c0.2-0.2,0.4-0.4,0.6-0.6c0.4-0.5,0.9-1,1.3-1.5c0.2-0.2,0.4-0.5,0.6-0.7c0.5-0.6,1.1-1.2,1.6-1.8c0.2-0.2,0.4-0.5,0.6-0.7
		c0.4-0.5,0.8-0.9,1.2-1.4c0.2-0.2,0.4-0.4,0.6-0.7c0.5-0.6,1-1.2,1.5-1.8c0.2-0.3,0.4-0.5,0.6-0.7c0.4-0.5,0.8-1,1.2-1.5
		c0.2-0.3,0.4-0.5,0.6-0.7c0.4-0.5,0.8-1,1.3-1.5c0.2-0.2,0.4-0.5,0.6-0.7c0.5-0.6,1-1.2,1.4-1.8c0.2-0.2,0.3-0.4,0.5-0.6
		c0.4-0.5,0.8-0.9,1.1-1.4c0.2-0.2,0.3-0.4,0.5-0.6c0.5-0.6,0.9-1.2,1.4-1.7c0.2-0.2,0.3-0.4,0.5-0.6c0.4-0.5,0.8-1,1.2-1.5
		c0.1-0.1,0.2-0.3,0.3-0.4c0.5-0.6,0.9-1.2,1.4-1.8c0.1-0.2,0.3-0.3,0.4-0.5c0.5-0.6,0.9-1.2,1.4-1.8c0-0.1,0.1-0.1,0.2-0.2
		c0.4-0.6,0.8-1.1,1.2-1.7c0.1-0.1,0.2-0.3,0.3-0.4c0.4-0.6,0.9-1.2,1.3-1.8c0.1-0.1,0.1-0.2,0.2-0.3c0.4-0.6,0.8-1.1,1.2-1.7
		c0-0.1,0.1-0.2,0.2-0.2c0.5-0.6,0.9-1.2,1.3-1.8c0.1-0.1,0.1-0.2,0.2-0.3c0.9-1.3,1.7-2.5,2.6-3.7c0-0.1,0.1-0.1,0.1-0.2
		c3.1-4.5,5.9-8.9,8.5-13C713.7,505.2,711,486.5,707.9,467.9z"/>
	<path id="shade_orange_2" class="st5" d="M388.3,524.1c0.3,1.2,0.7,2.4,1,3.7c0,0.1,0.1,0.3,0.1,0.4c0.3,1.1,0.6,2.3,0.9,3.4
		c0.1,0.2,0.1,0.5,0.2,0.7c0.3,1.2,0.7,2.4,1.1,3.7c0.1,0.2,0.1,0.4,0.2,0.6c0.3,1.1,0.7,2.2,1,3.4c0.1,0.2,0.1,0.3,0.1,0.5
		c0.4,1.2,0.7,2.4,1.1,3.6c0.1,0.2,0.1,0.5,0.2,0.7c0.4,1.2,0.7,2.4,1.1,3.6c0,0,0,0.1,0,0.1c0.4,1.2,0.8,2.4,1.2,3.7
		c0.1,0.2,0.2,0.5,0.2,0.7c0.4,1.2,0.8,2.4,1.2,3.7c0,0,0,0.1,0,0.1c0.4,1.2,0.8,2.4,1.2,3.6c0.1,0.2,0.1,0.4,0.2,0.6
		c0.4,1.2,0.8,2.4,1.2,3.6c0,0.1,0.1,0.3,0.2,0.4c0.4,1.1,0.8,2.2,1.1,3.3c0.1,0.2,0.1,0.3,0.2,0.5c0.4,1.2,0.8,2.4,1.2,3.5
		c0.1,0.2,0.1,0.4,0.2,0.5c0.4,1.1,0.8,2.3,1.2,3.4c0,0.1,0,0.1,0.1,0.2c0.4,1.2,0.8,2.4,1.3,3.5c0.1,0.2,0.2,0.4,0.2,0.6
		c0.9,2.3,1.7,4.7,2.6,7c0.1,0.2,0.2,0.4,0.2,0.6c0.4,1.1,0.9,2.3,1.3,3.4c0,0.1,0.1,0.1,0.1,0.2c0.4,1.1,0.8,2.2,1.2,3.2
		c0.1,0.2,0.1,0.3,0.2,0.5c0.4,1.1,0.9,2.2,1.3,3.3c0.1,0.1,0.1,0.3,0.2,0.5c0.4,1,0.8,2.1,1.2,3.1c0,0.1,0.1,0.2,0.1,0.4
		c0.4,1.1,0.9,2.2,1.3,3.3c0.1,0.2,0.2,0.4,0.2,0.6c0.4,1.1,0.9,2.1,1.3,3.2c0,0,0,0.1,0,0.1c0.4,1.1,0.9,2.1,1.3,3.2
		c0.1,0.2,0.2,0.4,0.3,0.7c0.4,1,0.9,2.1,1.3,3.1c0,0.1,0.1,0.1,0.1,0.2c0.4,1,0.8,1.9,1.2,2.9c0.1,0.2,0.2,0.5,0.3,0.7
		c0.4,1,0.9,2,1.3,3c0.1,0.2,0.2,0.4,0.3,0.6c0.4,0.8,0.7,1.7,1.1,2.6c0.1,0.2,0.2,0.4,0.3,0.7c0.4,1,0.8,1.9,1.2,2.8
		c0.1,0.3,0.2,0.5,0.4,0.8c0.4,0.8,0.7,1.6,1,2.4c0.1,0.2,0.2,0.4,0.3,0.6c0.4,0.9,0.8,1.8,1.2,2.7c0.1,0.3,0.3,0.6,0.4,0.9
		c0.3,0.8,0.7,1.5,1,2.3c0.1,0.1,0.1,0.3,0.2,0.4c1.7-3.5,3.5-6.9,5.3-10.4c-21.5-37.6-38.7-77.6-51.2-119.2c0.1,0.5,0.2,1,0.3,1.4
		c0.1,0.3,0.2,0.7,0.2,1c0.2,0.8,0.4,1.7,0.6,2.5c0.1,0.3,0.2,0.6,0.2,0.9c0.3,1,0.5,1.9,0.7,2.9c0.3,1.2,0.7,2.5,1,3.7
		C388.1,523.6,388.2,523.9,388.3,524.1z"/>
	<path id="blue_basket_1_" class="st6" d="M500.9,800.6l-8.4,31.2c-2.7,9.9-12.9,15.8-22.8,13.2l0,0l-43.2-11.6
		c-9.9-2.7-15.8-12.9-13.2-22.8l8.4-31.2c-4.6-2.9-6-9.1-3-13.7c2.3-3.7,6.8-5.4,11-4.3l73.5,19.7c5.3,1.4,8.5,6.9,7,12.2
		C508.9,797.4,505.2,800.4,500.9,800.6z"/>
	<path id="shade_basket_1_" class="st7" d="M487.9,777l15.1,4.1c5.3,1.4,8.5,6.9,7,12.2c-1.1,4.2-4.8,7.2-9.2,7.3l-8.4,31.2
		c-2.7,9.9-12.9,15.8-22.8,13.2l0,0l-34.7-9.3c4.3-2.1,8.4-4.7,12.2-7.5c17.3-13,28.1-32,33.2-53.1L487.9,777z"/>
	<path id="white_circle_1_" class="st8" d="M576.3,360.7c33.2,8.9,52.9,43,44,76.2s-43,52.9-76.2,44c-33.2-8.9-52.9-43-44-76.2
		S543.1,351.8,576.3,360.7z"/>
	<path id="light_line_upper_left" class="st9" d="M404.3,365.8c-0.1,0-0.3-0.1-0.4-0.1c-2.2-0.8-3.4-3.3-2.6-5.6
		c6.5-17.6,15.8-33.8,27.7-48.3s26-26.7,42.1-36.4c2.1-1.2,4.7-0.6,6,1.5c1.2,2.1,0.6,4.7-1.5,6c-30.4,18.4-53.8,46.9-66.1,80.2
		C408.8,365.2,406.5,366.4,404.3,365.8z"/>
	<path id="light_line_point" class="st9" d="M485.1,701.2c-0.8-0.2-1.6-0.7-2.2-1.4c-2.8-3.4-5.5-7-8-10.6
		c-2.8-4.1-5.4-8.3-7.7-12.7c-1.1-2.1-0.3-4.8,1.8-5.9c2.1-1.1,4.8-0.3,5.9,1.8c2.2,4.1,4.7,8.1,7.3,11.9c1.7,2.4,3.4,4.8,5.3,7.2
		c14.5-8.3,28.5-16.7,42.6-25.6c18.3-11.6,35.7-23.5,53.3-36.2c1.9-1.4,4.7-1,6.1,1s1,4.7-1,6.1c-17.7,12.9-35.3,24.8-53.7,36.5
		c-15.3,9.7-30.4,18.8-46.2,27.7C487.3,701.3,486.1,701.5,485.1,701.2z"/>
	<path id="light_line_upper_right" class="st9" d="M716.1,373.9c-1.4-0.4-2.5-1.4-3-2.8c-5.8-17.4-14.3-33.5-25.2-48.2
		c-1.4-1.9-1-4.7,0.9-6.1c1.9-1.4,4.7-1,6.1,0.9c11.5,15.4,20.5,32.4,26.5,50.6c0.8,2.3-0.5,4.7-2.8,5.5
		C717.7,374.1,716.9,374.1,716.1,373.9z"/>
	<path id="light_line_lower_left" class="st9" d="M439.6,824.4c-7.1-1.9-11.2-3.5-13.4-7.2c-2.6-4.6-1.1-10.1,1.9-21.2
		c0.5-1.8,1-3.7,1.6-5.9c0.6-2.3,3-3.7,5.3-3.1c2.3,0.6,3.7,3,3.1,5.3c-0.6,2.2-1.1,4.1-1.6,5.9c-1.9,7-3.6,13.1-2.8,14.5
		c0.7,1.3,6.2,2.7,12,4.2c1.7,0.4,3.7,1,5.8,1.5c2.3,0.6,3.7,3,3.1,5.3c-0.6,2.3-3,3.7-5.3,3.1c-2.1-0.6-4.1-1.1-5.8-1.5
		C442.1,825.1,440.8,824.8,439.6,824.4z"/>
	<circle id="light_dot_upper_left" class="st9" cx="486" cy="271.3" r="4.4"/>
	<circle id="light_dot_point" class="st9" cx="463.7" cy="661.6" r="4.4"/>
	<circle id="light_dot_upper_right" class="st9" cx="721.8" cy="383.9" r="4.4"/>
	<circle id="light_dot_lower_left" class="st9" cx="463.1" cy="825.5" r="4.4"/>
</g>
</svg>
