<?xml version="1.0" encoding="utf-8"?>
<!-- Generator: Adobe Illustrator 25.2.1, SVG Export Plug-In . SVG Version: 6.00 Build 0)  -->
<svg version="1.1" xmlns="http://www.w3.org/2000/svg" xmlns:xlink="http://www.w3.org/1999/xlink" x="0px" y="0px"
	 viewBox="0 0 1080 1080" style="enable-background:new 0 0 1080 1080;" xml:space="preserve">
<style type="text/css">
	.st0{fill:#BAF3FF;}
	.st1{fill-rule:evenodd;clip-rule:evenodd;fill:#FFFFFF;}
</style>
<g id="BG_sky">
	<rect y="0" class="st0" width="1080" height="1080"/>
</g>
<g id="Clouds">
	<path id="cloud_3" class="st1" d="M314.8,890h324.9c21.4-15.4,28.6-44.1,17.3-67.8c-11.4-23.9-38.8-36.2-64.4-28.8
		c3-23.3-9.4-45.6-30-55.1c-22-10.1-48.9-3.5-64.1,16.4c-13.2-25.6-41.9-39.3-69.9-33.4c-28.3,5.9-49.3,30.4-50.8,59.4
		c-34.6-11.9-71.3,5-83.6,35C284.3,840.3,291.9,870.8,314.8,890z"/>
	<path id="cloud_2" class="st1" d="M745.9,666h281.3c17.8-10,26.3-30.9,21.4-49.6c-4.1-15.7-17.3-27.9-33.8-30.8
		c10.1-29-4.4-61.1-32.5-71.5c-15.6-5.8-33-3.9-47.1,5.4c2.7-28.4-17.4-53.9-44.2-56.9c-27.4-3.1-52.8,18.3-55.2,47.4
		c-18.8-13.1-43.4-12.6-61.4,0.9c-18.7,14-26.6,39.4-19.3,62.5c-24.7,0.8-44.3,21.2-45.1,45.2C709.3,640.4,724.2,660.7,745.9,666z"
		/>
	<path id="cloud_1" class="st1" d="M73.8,430h367.4c27.3-11,43.7-39,40.1-67.4c-3.4-26.5-23.6-48.6-50.7-54.3
		c0.1-32.4-26.1-58.8-58.5-58.9c-7.3,0-14.5,1.3-21.3,3.9c-12.3-39-51.4-63.2-91-57c-38.2,6-67.6,38.8-69.2,78.3
		c-24.2-12.1-52.7-7.6-71,10c-15.9,15.3-22,38.7-16.1,60.7c-22.3-0.4-41.8,14.2-47.3,34.6C51.3,398,58.1,418,73.8,430z"/>
</g>
</svg>
