<svg width="37" height="42" viewBox="0 0 37 42" fill="none" xmlns="http://www.w3.org/2000/svg">
<path fill-rule="evenodd" clip-rule="evenodd" d="M30.3666 31.9249C33.536 28.1871 36.084 23.6103 36.084 18.5556C36.084 8.71062 28.1032 0.729736 18.2582 0.729736C8.41326 0.729736 0.432373 8.71062 0.432373 18.5556C0.432373 23.6103 2.98042 28.1871 6.1498 31.9249C9.55803 35.9444 13.6848 38.9938 16.134 40.6237C17.43 41.4858 19.0864 41.4858 20.3824 40.6237C22.8316 38.9938 26.9583 35.9444 30.3666 31.9249ZM21 11.2084C21 9.82766 19.8808 8.70837 18.5 8.70837C17.1193 8.70837 16 9.82766 16 11.2084V16H11.2084C9.82766 16 8.70837 17.1193 8.70837 18.5C8.70837 19.8808 9.82766 21 11.2084 21H16V25.7917C16 27.1724 17.1193 28.2917 18.5 28.2917C19.8808 28.2917 21 27.1724 21 25.7917V21H25.7917C27.1724 21 28.2917 19.8808 28.2917 18.5C28.2917 17.1193 27.1724 16 25.7917 16H21V11.2084Z" fill="white"/>
</svg>
