<?xml version="1.0" encoding="utf-8"?>
<!-- Generator: Adobe Illustrator 25.2.1, SVG Export Plug-In . SVG Version: 6.00 Build 0)  -->
<svg version="1.1" id="Layer_1" xmlns="http://www.w3.org/2000/svg" xmlns:xlink="http://www.w3.org/1999/xlink" x="0px" y="0px"
	 viewBox="0 0 24 24" style="enable-background:new 0 0 24 24;" xml:space="preserve">
<style type="text/css">
	.st0{fill:#0E315C;}
</style>
<g>
	<path class="st0" d="M21,11h-1.1c-0.5-3.6-3.3-6.5-6.9-6.9V3c0-0.6-0.4-1-1-1s-1,0.4-1,1v1.1C7.4,4.5,4.5,7.4,4.1,11H3
		c-0.6,0-1,0.4-1,1s0.4,1,1,1h1.1c0.5,3.6,3.3,6.5,6.9,6.9V21c0,0.6,0.4,1,1,1s1-0.4,1-1v-1.1c3.6-0.5,6.5-3.3,6.9-6.9H21
		c0.6,0,1-0.4,1-1S21.6,11,21,11z M12,18c-3.3,0-6-2.7-6-6s2.7-6,6-6s6,2.7,6,6S15.3,18,12,18z"/>
	<path class="st0" d="M12,8c-2.2,0-4,1.8-4,4c0,2.2,1.8,4,4,4c2.2,0,4-1.8,4-4C16,9.8,14.2,8,12,8z M12,14c-1.1,0-2-0.9-2-2
		c0-1.1,0.9-2,2-2c1.1,0,2,0.9,2,2C14,13.1,13.1,14,12,14z"/>
</g>
</svg>
