<?xml version="1.0" encoding="utf-8"?>
<!-- Generator: Adobe Illustrator 25.2.1, SVG Export Plug-In . SVG Version: 6.00 Build 0)  -->
<svg version="1.1" id="Layer_1" xmlns="http://www.w3.org/2000/svg" xmlns:xlink="http://www.w3.org/1999/xlink" x="0px" y="0px"
	 viewBox="0 0 25 25" style="enable-background:new 0 0 25 25;" xml:space="preserve">
<style type="text/css">
	.st0{fill-rule:evenodd;clip-rule:evenodd;fill:#1D66C0;}
</style>
<path class="st0" d="M8.5,5.6v3c-0.5,0-0.9,0-1.3,0.1c-0.7,0-1.3,0.2-1.8,0.7s-0.7,1.1-0.8,1.8c-0.1,0.6-0.1,1.4-0.1,2.3v4.1
	c0,0.9,0,1.7,0.1,2.3c0.1,0.6,0.3,1.3,0.8,1.8s1.1,0.7,1.8,0.8c0.6,0.1,1.4,0.1,2.3,0.1h6.1c0.9,0,1.7,0,2.3-0.1
	c0.7-0.1,1.3-0.3,1.8-0.8s0.7-1.1,0.8-1.8c0.1-0.6,0.1-1.4,0.1-2.3v-4.1c0-0.9,0-1.7-0.1-2.3c-0.1-0.7-0.3-1.3-0.8-1.8
	s-1.1-0.7-1.8-0.8c-0.4-0.1-0.8-0.1-1.3-0.1v-3c0-1.7-1.3-3-3-3h-2C9.8,2.6,8.5,3.8,8.5,5.6z M11.5,4.6c-0.6,0-1,0.4-1,1v3h4v-3
	c0-0.6-0.4-1-1-1C13.5,4.5,11.5,4.5,11.5,4.6z M12.5,13.5c-1.1,0-2,0.9-2,2s0.9,2,2,2s2-0.9,2-2S13.6,13.5,12.5,13.5z"/>
</svg>
