<svg width="25" height="25" viewBox="0 0 25 25" fill="none" xmlns="http://www.w3.org/2000/svg">
<path fill-rule="evenodd" clip-rule="evenodd" d="M8.78425 5.8616V8.86575C8.28632 8.87284 7.84128 8.89201 7.45646 8.94374C6.80094 9.03188 6.17259 9.23062 5.66293 9.74028C5.15326 10.25 4.95452 10.8783 4.86639 11.5338C4.78415 12.1455 4.78419 12.9093 4.78424 13.7958V17.9274C4.78419 18.8139 4.78415 19.5777 4.86639 20.1894C4.95452 20.8449 5.15326 21.4733 5.66293 21.9829C6.17259 22.4926 6.80094 22.6913 7.45646 22.7795C8.06811 22.8617 8.83194 22.8617 9.71841 22.8616H15.8501C16.7365 22.8617 17.5003 22.8617 18.112 22.7795C18.7675 22.6913 19.3959 22.4926 19.9055 21.9829C20.4152 21.4733 20.6139 20.8449 20.7021 20.1894C20.7843 19.5777 20.7843 18.8139 20.7842 17.9274V13.7958C20.7843 12.9093 20.7843 12.1455 20.7021 11.5338C20.6139 10.8783 20.4152 10.25 19.9055 9.74028C19.3959 9.23062 18.7675 9.03188 18.112 8.94375C17.7272 8.89201 17.2821 8.87284 16.7842 8.86575V5.8616C16.7842 4.20475 15.4411 2.8616 13.7842 2.8616H11.7842C10.1274 2.8616 8.78425 4.20475 8.78425 5.8616ZM11.7842 4.8616C11.2319 4.8616 10.7842 5.30932 10.7842 5.8616V8.8616H14.7842V5.8616C14.7842 5.30932 14.3365 4.8616 13.7842 4.8616H11.7842ZM12.7842 13.8616C11.6796 13.8616 10.7842 14.757 10.7842 15.8616C10.7842 16.9662 11.6796 17.8616 12.7842 17.8616C13.8888 17.8616 14.7842 16.9662 14.7842 15.8616C14.7842 14.757 13.8888 13.8616 12.7842 13.8616Z" fill="#1D66C0"/>
</svg>
