<?xml version="1.0" encoding="utf-8"?>
<!-- Generator: Adobe Illustrator 25.2.1, SVG Export Plug-In . SVG Version: 6.00 Build 0)  -->
<svg version="1.1" id="Balloon" xmlns="http://www.w3.org/2000/svg" xmlns:xlink="http://www.w3.org/1999/xlink" x="0px" y="0px"
	 viewBox="0 0 1500 2492" style="enable-background:new 0 0 1500 2492;" xml:space="preserve">
<style type="text/css">
	.st0{fill-rule:evenodd;clip-rule:evenodd;fill:#0E315C;}
	.st1{fill-rule:evenodd;clip-rule:evenodd;fill:#0B2551;}
	.st2{fill-rule:evenodd;clip-rule:evenodd;fill:#FF4B47;}
	.st3{fill-rule:evenodd;clip-rule:evenodd;fill:#CF393E;}
	.st4{fill-rule:evenodd;clip-rule:evenodd;fill:#FFA44F;}
	.st5{fill-rule:evenodd;clip-rule:evenodd;fill:#CF7C45;}
	.st6{fill-rule:evenodd;clip-rule:evenodd;fill:#1D66C0;}
	.st7{fill-rule:evenodd;clip-rule:evenodd;fill:#184DA9;}
	.st8{fill-rule:evenodd;clip-rule:evenodd;fill:#FFFFFF;}
	.st9{fill:#BAF3FF;}
</style>
<path id="strings_1_" class="st0" d="M234.9,1251l-69,29.3L590.3,2280l69-29.3L234.9,1251z M1265.1,1251l69,29.3L909.7,2280
	l-69-29.3L1265.1,1251z M712.5,1251h75v1100h-75V1251z"/>
<path id="strings_shade_1_" class="st1" d="M1334.1,1280.3L909.7,2280l-69-29.3l424.4-999.7L1334.1,1280.3z M787.5,1734.2v385.5
	c-25.5-19-50.5-38.5-75-58.6v-248.6C737.8,1786.7,762.8,1760.6,787.5,1734.2L787.5,1734.2z M368,1564.6l120.5,283.9
	c-29.9-32.9-58.7-66.7-86.5-101.5c-31.2-39.1-60.9-79.2-89.1-120.3l-137.2-323.2C233.6,1395,297.8,1482.2,368,1564.6z"/>
<path id="red_pin_1_" class="st2" d="M1.2,783c0,0-7.7,203.3,179,531C416.2,1728.5,750,2033,750,2033h0c0,0,333.8-304.5,569.9-719
	c186.6-327.7,179-531,179-531C1516.5,358.5,1171.8,0,750,0S-16.5,358.5,1.2,783z"/>
<path id="shade_red" class="st3" d="M1401.6,382.9c67.1,117.9,103.3,255.1,97.3,400.1c0,0,7.7,203.3-179,531
	C1083.8,1728.5,750,2033,750,2033h0c0,0-333.8-304.5-569.9-719c-6.1-10.7-12-21.3-17.7-31.8C297.3,1501,468.3,1695.3,668,1857
	C1111.2,1420.1,1469.2,873.6,1401.6,382.9z"/>
<path id="orange_A_1_" class="st4" d="M1319.9,1314c-92.2,162-199.4,307.1-295.8,423.9c-10.3-51-21.6-101.1-34.2-151.9
	c-18.5-74.5-38.8-146.8-62-220H572c-23.1,73.2-43.5,145.5-62,220c-12.6,50.8-23.9,100.9-34.2,151.9
	C379.5,1621.1,272.4,1476,180.1,1314c-73.8-129.6-117.3-239.8-142.8-325.6C93.4,850.3,155,714.5,222.1,581
	C317.4,391.6,423.6,207.8,540,30.5c137-40.7,282.9-40.7,420,0c116.4,177.2,222.6,361,317.9,550.5
	c67.2,133.5,128.8,269.3,184.8,407.4C1437.1,1074.2,1393.7,1184.4,1319.9,1314z"/>
<path id="shade_orange_1" class="st5" d="M1372.7,779.1c-65.4,250.4-212.3,503.7-399.9,740.3c5.9,22.1,11.6,44.2,17.2,66.6
	c12.6,50.8,23.9,100.9,34.2,151.9c2.8-3.4,5.6-6.9,8.5-10.3c0.4-0.4,0.7-0.9,1.1-1.3c2.9-3.5,5.7-7,8.6-10.6c0,0,0,0,0,0
	c2.9-3.5,5.7-7.1,8.6-10.6c0.3-0.4,0.6-0.8,1-1.2c2.9-3.6,5.7-7.1,8.6-10.7c0.2-0.3,0.5-0.6,0.7-0.9c2.8-3.5,5.6-7,8.3-10.5
	c0.2-0.3,0.4-0.5,0.6-0.8c2.9-3.6,5.8-7.3,8.6-11c0.4-0.5,0.8-1,1.1-1.4c5.8-7.4,11.6-14.9,17.4-22.4c0.4-0.6,0.9-1.2,1.3-1.8
	c5.8-7.5,11.6-15.1,17.4-22.8c0.5-0.6,0.9-1.2,1.4-1.8c2.9-3.8,5.7-7.6,8.6-11.5c0.3-0.4,0.6-0.8,0.9-1.2c2.7-3.6,5.4-7.2,8.1-10.8
	c0.4-0.5,0.8-1.1,1.2-1.6c2.8-3.9,5.7-7.7,8.5-11.6c0.4-0.6,0.9-1.2,1.3-1.8c2.7-3.7,5.4-7.4,8.1-11.1c0.2-0.3,0.5-0.7,0.7-1
	c2.8-3.9,5.7-7.9,8.5-11.8c0.5-0.8,1.1-1.5,1.6-2.3c5.7-8,11.4-16,17.1-24.1c0.6-0.8,1.1-1.6,1.7-2.4c2.8-4,5.6-8.1,8.4-12.1
	c0.3-0.4,0.5-0.8,0.8-1.2c2.6-3.8,5.2-7.5,7.8-11.3c0.5-0.8,1.1-1.6,1.6-2.3c2.8-4,5.5-8.1,8.3-12.2c0.5-0.7,1-1.4,1.4-2.1
	c2.5-3.7,5-7.4,7.5-11.2c0.4-0.6,0.9-1.3,1.3-1.9c2.7-4.1,5.5-8.2,8.2-12.4c0.6-0.9,1.2-1.8,1.7-2.6c2.6-4,5.2-7.9,7.8-11.9
	c0.2-0.3,0.4-0.6,0.6-0.9c2.7-4.2,5.5-8.4,8.2-12.7c0.6-0.9,1.2-1.9,1.8-2.8c2.7-4.2,5.4-8.5,8.2-12.8c0.2-0.3,0.4-0.6,0.5-0.8
	c2.6-4.1,5.1-8.1,7.7-12.2c0.6-0.9,1.2-1.9,1.7-2.8c2.7-4.3,5.3-8.5,7.9-12.8c0.4-0.7,0.9-1.4,1.3-2.1c2.4-3.9,4.7-7.7,7.1-11.6
	c0.5-0.8,1-1.6,1.5-2.5c2.6-4.3,5.2-8.6,7.8-13c0.5-0.9,1.1-1.8,1.6-2.7c2.4-4,4.8-8,7.1-12c0.3-0.6,0.7-1.1,1-1.7
	c2.6-4.4,5.2-8.8,7.7-13.2c0.6-1,1.2-2,1.7-3c2.6-4.5,5.2-9,7.8-13.5c2-3.6,4-7.1,6-10.7c0.5-0.9,1-1.7,1.5-2.6
	c1.9-3.4,3.8-6.8,5.6-10.2c0.4-0.7,0.8-1.5,1.2-2.2c1.6-2.8,3.1-5.7,4.6-8.5c0.5-0.9,1-1.8,1.5-2.8c1.7-3.2,3.4-6.4,5.1-9.6
	c0.6-1,1.1-2.1,1.7-3.1c1.4-2.6,2.8-5.2,4.1-7.8c0.4-0.8,0.9-1.6,1.3-2.5c1.6-3.1,3.2-6.2,4.8-9.2c0.6-1.2,1.2-2.3,1.8-3.5
	c1.5-2.9,3-5.8,4.4-8.7c0.5-1,1-2,1.5-3.1c1.2-2.4,2.4-4.8,3.6-7.1c0.6-1.2,1.2-2.3,1.7-3.5c1.4-2.9,2.9-5.8,4.3-8.6
	c0.5-1.1,1.1-2.2,1.6-3.3c1.1-2.2,2.1-4.4,3.2-6.6c0.5-1.1,1-2.1,1.5-3.2c1.4-2.8,2.7-5.6,4-8.4c0.5-1.2,1.1-2.3,1.6-3.5
	c1.1-2.3,2.2-4.7,3.3-7c0.5-1.2,1.1-2.3,1.6-3.5c1.1-2.4,2.2-4.8,3.3-7.2c0.5-1.1,1-2.2,1.5-3.3c1.3-2.8,2.5-5.5,3.7-8.3
	c0.4-0.9,0.8-1.8,1.2-2.7c1-2.2,2-4.4,2.9-6.6c0.4-0.9,0.8-1.9,1.2-2.8c1.2-2.8,2.4-5.5,3.6-8.2c0.4-0.9,0.8-1.8,1.2-2.7
	c1-2.4,2-4.7,3-7.1c0.3-0.6,0.5-1.3,0.8-1.9c1.2-2.8,2.3-5.6,3.5-8.4c0.3-0.8,0.7-1.6,1-2.4c1.2-2.8,2.3-5.6,3.4-8.4
	c0.1-0.3,0.3-0.7,0.4-1c1.1-2.6,2.1-5.2,3.1-7.8c0.3-0.6,0.5-1.3,0.8-1.9c1.1-2.8,2.2-5.6,3.3-8.4c0.2-0.5,0.3-0.9,0.5-1.4
	c1-2.6,2-5.3,3-7.9c0.1-0.3,0.2-0.7,0.4-1c1.1-2.9,2.1-5.7,3.2-8.5c0.2-0.4,0.3-0.8,0.5-1.2c2.1-5.8,4.2-11.5,6.2-17.2
	c0.1-0.3,0.2-0.5,0.3-0.8c7.4-20.9,13.8-40.7,19.3-59.4C1434.1,918,1404.1,848.3,1372.7,779.1z"/>
<path id="shade_orange_2" class="st5" d="M189.6,1330.5c2.6,4.4,5.1,8.8,7.7,13.2c0.3,0.5,0.6,1.1,0.9,1.6c2.4,4.1,4.8,8.1,7.2,12.2
	c0.5,0.9,1,1.7,1.5,2.6c2.6,4.4,5.2,8.7,7.9,13.1c0.5,0.8,0.9,1.5,1.4,2.2c2.4,4,4.9,8,7.3,12c0.4,0.6,0.7,1.2,1.1,1.8
	c2.7,4.4,5.4,8.7,8.1,13c0.5,0.8,1,1.7,1.6,2.5c2.7,4.3,5.3,8.5,8,12.7c0.1,0.1,0.2,0.3,0.3,0.4c2.8,4.4,5.5,8.7,8.3,13
	c0.5,0.8,1.1,1.7,1.6,2.5c2.8,4.3,5.6,8.7,8.4,13c0.1,0.1,0.1,0.2,0.2,0.3c2.8,4.2,5.5,8.4,8.3,12.6c0.5,0.7,1,1.5,1.5,2.2
	c2.8,4.2,5.6,8.5,8.4,12.7c0.3,0.5,0.6,1,1,1.4c2.6,3.9,5.3,7.9,7.9,11.8c0.4,0.6,0.8,1.1,1.2,1.7c2.8,4.2,5.6,8.3,8.5,12.5
	c0.4,0.6,0.9,1.3,1.3,1.9c2.7,4,5.5,8,8.2,11.9c0.2,0.2,0.3,0.5,0.5,0.7c2.9,4.1,5.7,8.3,8.6,12.4c0.5,0.7,1,1.4,1.5,2.1
	c5.8,8.2,11.5,16.4,17.3,24.5c0.5,0.7,1,1.4,1.5,2c2.9,4,5.8,8,8.6,12c0.2,0.3,0.4,0.5,0.6,0.8c2.7,3.8,5.5,7.6,8.2,11.3
	c0.4,0.6,0.9,1.2,1.3,1.8c2.9,3.9,5.7,7.8,8.6,11.6c0.4,0.5,0.8,1.1,1.2,1.6c2.7,3.6,5.3,7.2,8,10.8c0.3,0.4,0.6,0.8,0.9,1.3
	c2.8,3.8,5.7,7.6,8.5,11.3c0.5,0.7,1,1.4,1.5,2.1c2.8,3.7,5.6,7.4,8.4,11c0.1,0.1,0.1,0.2,0.2,0.3c2.8,3.7,5.7,7.4,8.5,11.1
	c0.6,0.8,1.2,1.5,1.7,2.3c2.8,3.6,5.6,7.2,8.4,10.8c0.2,0.3,0.4,0.5,0.6,0.8c2.6,3.4,5.2,6.7,7.8,10c0.6,0.8,1.2,1.6,1.8,2.3
	c2.7,3.4,5.4,6.9,8.1,10.3c0.5,0.7,1,1.3,1.6,2c2.3,2.9,4.7,5.9,7,8.8c0.6,0.8,1.2,1.5,1.8,2.3c2.6,3.3,5.2,6.5,7.8,9.7
	c0.7,0.9,1.4,1.8,2.2,2.7c2.2,2.7,4.4,5.4,6.5,8.1c0.6,0.7,1.2,1.4,1.7,2.2c2.5,3.1,5,6.1,7.5,9.2c0.9,1.1,1.8,2.1,2.6,3.2
	c2.1,2.6,4.3,5.2,6.4,7.8c0.4,0.5,0.8,1,1.3,1.5c3.1-15.3,6.3-30.6,9.6-45.8c-122.8-123.6-231.2-261-323-409.8
	c0.9,1.7,1.9,3.5,2.8,5.2c0.7,1.2,1.4,2.5,2,3.7c1.7,3,3.3,6,5,9.1c0.6,1,1.2,2.1,1.8,3.2c2,3.5,3.9,7,5.9,10.5
	c2.6,4.5,5.2,9,7.8,13.5C188.5,1328.5,189,1329.5,189.6,1330.5z"/>
<path id="blue_basket_1_" class="st6" d="M915,2287.2V2417c0,41.4-33.6,75-75,75c0,0,0,0,0,0H660c-41.4,0-75-33.6-75-75v-129.8
	c-21.1-6.6-32.8-29.1-26.1-50.2c5.2-16.7,20.7-28,38.1-28H903c22.1,0,40,17.9,40,40C942.9,2266.5,931.6,2281.9,915,2287.2z"/>
<path id="shade_basket_1_" class="st7" d="M840,2209h63c22.1,0,40,17.9,40,40c0,17.5-11.3,32.9-28,38.1V2417c0,41.4-33.6,75-75,75
	c0,0,0,0,0,0H695.5c14.4-12.8,27.6-26.9,39.5-42c53.6-68.3,76-153.6,73.7-241H840z"/>
<path id="white_circle_1_" class="st8" d="M750,499.8c138.1,0,250.1,112,250.1,250.2s-112,250.2-250.1,250.2S499.9,888.2,499.9,750
	S611.9,499.8,750,499.8z"/>
<path id="light_line_upper_left" class="st9" d="M87.2,698.5c-0.5,0-1.1,0-1.6-0.1c-9.6-0.9-16.7-9.4-15.8-19
	c6.8-75,26.1-147.8,57.3-216.3c31.2-68.5,73.4-130.9,125.5-185.2c6.7-7,17.8-7.2,24.7-0.5c7,6.7,7.2,17.8,0.5,24.7
	C179,405.2,117.5,540.4,104.6,682.6C103.8,691.7,96.1,698.5,87.2,698.5z"/>
<path id="light_line_point" class="st9" d="M750,1917.5c-3.5,0-7.1-1.1-10.1-3.2c-14.5-10.3-28.8-21.4-42.3-33
	c-15.1-12.9-29.6-26.8-43.3-41.3c-6.6-7-6.3-18.1,0.7-24.7c7-6.6,18.1-6.3,24.7,0.7c12.8,13.6,26.5,26.6,40.7,38.7
	c9,7.7,18.3,15.2,27.9,22.4c47.7-47.2,93.3-94.4,138.8-143.9c59-64.2,114.4-128.4,169.2-196.2c6.1-7.5,17.1-8.7,24.6-2.6
	c7.5,6.1,8.7,17.1,2.6,24.6c-55.3,68.4-111.2,133.1-170.7,197.8c-49.3,53.6-98.5,104.6-150.6,155.6
	C758.9,1915.8,754.4,1917.5,750,1917.5z"/>
<path id="light_line_upper_right" class="st9" d="M1306.9,405.5c-5.7,0-11.3-2.8-14.6-7.9c-40.5-61.4-90.3-115.5-148.2-160.9
	c-7.6-6-8.9-17-3-24.6s17-8.9,24.6-3c60.8,47.7,113.2,104.6,155.8,169.1c5.3,8.1,3.1,18.9-5,24.2
	C1313.5,404.6,1310.2,405.5,1306.9,405.5z"/>
<path id="light_line_lower_left" class="st9" d="M701.7,2443.7c-29.6,0-47.3-1.7-59.7-14c-15-15-14.9-38.1-14.6-84.3
	c0-7.3,0.1-15.6,0.1-24.4c0-9.7,7.8-17.5,17.5-17.5s17.5,7.8,17.5,17.5c0,9-0.1,17.3-0.1,24.6c-0.2,29.3-0.3,54.7,4.3,59.3
	c4.2,4.1,26.9,3.9,51,3.7c7.2-0.1,15.4-0.1,24.3-0.1c9.7,0,17.5,7.8,17.5,17.5s-7.8,17.5-17.5,17.5c-8.8,0-16.9,0.1-24,0.1
	C712.2,2443.7,706.8,2443.7,701.7,2443.7z"/>
<circle id="light_dot_upper_left" class="st9" cx="306.1" cy="246.5" r="17.5"/>
<circle id="light_dot_point" class="st9" cx="625.8" cy="1785.8" r="17.5"/>
<circle id="light_dot_upper_right" class="st9" cx="1339.4" cy="438.5" r="17.5"/>
<circle id="light_dot_lower_left" class="st9" cx="794.2" cy="2423.2" r="17.5"/>
</svg>
