<svg id="paper" xmlns="http://www.w3.org/2000/svg" width="1652" height="913" viewBox="0 0 1652 913">
  <defs>
    <style>
      .cls-1 {
        fill: #caa583;
      }

      .cls-1, .cls-2, .cls-3, .cls-4, .cls-5 {
        fill-rule: evenodd;
      }

      .cls-2 {
        fill: #e5d2c1;
      }

      .cls-3 {
        fill: #a47d73;
      }

      .cls-4 {
        fill: #cf393e;
      }

      .cls-5 {
        fill: #ff4b47;
      }
    </style>
  </defs>
  <path id="main_long" data-name="main long" class="cls-1" d="M149,420c225.818-26.627,422.521-70.449,638-143A3278.765,3278.765,0,0,0,1396,0c62.65,13.168,118.27,49.819,153,104,43.73,68.211,47.82,153.622,16,227C1138,518.667,672,718.333,245,906,191.667,750,202.333,576,149,420Z"/>
  <g id="islands">
    <path class="cls-2" d="M1156,322l-11,42s8.67,25.627,16,34,8,31,8,31l-8,45-12,27L914,604l21-115,43-79,36-7,25-23,29-67s25.21-5.559,36-5,34-30,34-30l34-27Z"/>
    <path class="cls-2" d="M1276,362l-37-18-20,25s0.34,11.479,7,18,7,27,7,27l1,31,55,9,214-67-13-60-97,30s-30.87,22.658-41,26-51,13-51,13l-17-5Z"/>
    <path class="cls-2" d="M1239,219l-14-21-14,31,7,26-15,12,41,1-1-30Z"/>
    <path class="cls-2" d="M1348,160l-27,6-1,23-7,14,24-3,9-10s9.42-9.289,9-9S1348,160,1348,160Z"/>
    <path class="cls-2" d="M1275,121s-1.66,13.087-2,14-21-5-21-5c9.12-19.337,22-24,22-24Z"/>
    <path class="cls-2" d="M296,417c67.4-9.726,133.727-22.327,200-38,65.654-15.526,129.965-33.759,194-55q2.5,23.5,5,47l-12,56H656l-30,25-7,54-36-7-41-21,25-21-55-21-42,19-38,16-35-25-50-5Z"/>
    <path class="cls-2" d="M579,701l21-70,44-9,25-44,59-18,30,23,18,51Z"/>
    <path class="cls-2" d="M949,350l-49,10,5,34s7.473,29.956,11,21,39-39,39-39l12-5,23-35Z"/>
    <path class="cls-2" d="M1397,11a213.54,213.54,0,0,1,137,116l-88-16-49-7-49,4-39-44Z"/>
    <path class="cls-2" d="M481,490l-30,13,23,17-9,23,40-7,16-21-23-11V481Z"/>
    <path class="cls-2" d="M553,515l-16,16,21,8,18-8Z"/>
    <path class="cls-2" d="M521,564l-19,17,28,16Z"/>
  </g>
  <path id="circle_roll" data-name="circle roll" class="cls-3" d="M131.975,422.974c96.612-19.767,197.24,73.244,224.759,207.745s-28.491,259.561-125.1,279.328S34.392,836.8,6.873,702.3,35.363,442.741,131.975,422.974Z"/>
  <path id="bottom_flap" data-name="bottom flap" class="cls-3" d="M202,911c152.767-47.438,211.83-174.213,211-168,21.246-14.624,63.674-36.451,88.389-44.232C515.537,694.313,575,696,575,696s45.14-35.061,83.16-47.451q58.584-19.091,116.958-38.6C780.779,608.052,800,619,800,619s2.879-18.362,8.269-20.177C817.423,595.741,842,598,842,598s19.469-17.183,32.342-21.579Q953.967,549.235,1034,521q14.55-5.133,29.06-10.279C1068.99,508.614,1091,513,1091,513s8.59-15.287,17.94-18.635q48.495-17.365,96.64-34.94C1215.51,455.8,1247,467,1247,467s7.89-25.664,17.65-29.272q76.1-28.111,151.81-56.949c2.63-1,12.54,5.221,12.54,5.221s0.23-10.089,2.67-11.022q26.49-10.119,52.99-20.346C1495.99,350.258,1522,350,1522,350s19.77-17.526,31.32-22.047Q1602.565,308.694,1652,289c-4.65,41.109-20.87,79.464-48,110a190.848,190.848,0,0,1-50,40,2590.3,2590.3,0,0,0-270.36,61.19C1186.68,527.647,1097,558.271,1016,592,815.2,675.612,475.365,848.791,261,906,223.3,916.06,198.433,912.108,202,911Z"/>
  <path id="swirl" class="cls-1" d="M212,874.188c-78.835,4.683-148.757-82.17-170-159.68C16.7,622.191,46.446,491.9,124,472c69.452-17.821,162.091,55.914,179,144.709,15.863,83.3-34.015,184.331-91,187.3-62.631,3.258-135.3-111.836-107-183,8.289-20.842,28.539-46.518,50-45,24.866,1.759,50.569,39.915,56,105-16.1-25.927-46.16-68.1-63-62-12.91,4.674-13.784,36.192-10,57,7.14,39.257,39.1,82.77,72,80.424,37.259-2.657,61.935-63.154,60-108.782-3.3-77.9-86.152-151.072-142-135.727C71.882,527.334,53.443,629.307,70,700.536c16.73,71.972,76.359,143.24,143,147.7,58.61,3.925,102.323-47.99,105-44.91C320.859,806.619,276.642,870.348,212,874.188Z"/>
  <path id="tail_r" data-name="tail r" class="cls-4" d="M849,265c60.426,130.95,136.18,213.539,229,247,61.94,22.328,139.66,26.118,169,81,6.74,12.6,8.94,23.776,8,34-3.45,37.358-49.54,74.081-132,90a177.831,177.831,0,0,0,8-20c1.53-4.629,2.85-9.259,4-14-4.02-1.074-7.95-2.058-12-3-10.61-2.467-21.21-4.455-32-6,54.36-16.186,104.26-35.807,103-55-1.52-23.037-109.21-40.766-154-62-95.541-45.291-167.561-129.373-220-242Z"/>
  <path id="loop_r" data-name="loop r" class="cls-5" d="M800,276.963A521.646,521.646,0,0,1,933,620a32.937,32.937,0,0,0,21,6,29.1,29.1,0,0,0,26.813-21.762,486.043,486.043,0,0,0-29.969-182.6C927.74,359.187,892.1,304.182,846,256,830.683,263.65,815.317,269.313,800,276.963Z"/>
  <path id="loop_l" data-name="loop l" class="cls-4" d="M770,292A521.4,521.4,0,0,1,903,642c25.531,2.271,42.8-4.267,47-15a16.09,16.09,0,0,0,1-7A487.344,487.344,0,0,0,816,269Z"/>
  <path id="bunny_r" data-name="bunny r" class="cls-4" d="M768.423,240.452c8.83-41.821,30.486-79.047,64.544-103.311,48.563-34.6,132.465-50.254,165.356-8.262,23.067,29.447,15.387,80.061-8.577,111.783-12.089,16-53.276,42.2-120.017,45.056a252.234,252.234,0,0,1-61.018-4.915q-9.246-16.766-18.493-33.531c43.563,10.928,93.6,10.775,128.942-1.342,30.542-10.471,52.511-36.3,56.507-50.775,2.691-9.744,6.319-33.13-7.89-48.091-22.666-23.868-75.439-5.258-102.381,10.911-32.217,19.337-54.03,51.339-64.6,88.5Z"/>
  <path id="bunny_l" data-name="bunny l" class="cls-5" d="M789.585,238.89c-38.5-38.078-90.124-60.864-143.58-55.565-68.64,6.8-145.061,60.427-141.089,118.191,1.6,23.2,16.343,48.08,39.743,61.3,32.6,18.423,79.86,5.393,158.243-31.988,23.958-11.425,47.168-23.218,70.7-35.914l-8.582-29.084c-4.242.313-72.576,31.944-116.508,49.235-30.592,12.041-56.8,20.021-77.083,7.776-6.428-3.881-15.164-11.6-17.691-22.909-6.247-27.948,29.627-53.881,41.135-61.09,47.445-29.723,104.33-13.283,128.485-3.384A168.278,168.278,0,0,1,770.248,264.6Z"/>
  <path id="knot" class="cls-5" d="M740,236.956c3.016,11.484,6.284,22.628,9.947,33.921,3.4,10.482,6.994,20.639,10.942,30.927a133.6,133.6,0,0,0,66.645-15.962A86.437,86.437,0,0,0,804.656,218,113.2,113.2,0,0,0,740,236.956Z"/>
  <path id="tail_l" data-name="tail l" class="cls-5" d="M809.8,287.981C749.916,473.2,712.459,649.9,775.307,689.973c40.953,26.114,110.9-19.175,191.625,1.614,28.545,7.351,55.188,20.185,80.068,37.962a58.506,58.506,0,0,0-31.03,7.993,156.362,156.362,0,0,1,10.01,15.984,157.963,157.963,0,0,1,11.46,26.479c-33.25-20.366-67.35-32.345-102.536-35.47-55.716-4.948-131.115,35.034-184.157,5.994-9.4-5.148-27.13-20.7-41.035-42.958C649.125,610.6,694.074,416.164,754.75,269Z"/>
</svg>
