<svg width="370" height="1041" viewBox="0 0 370 1041" fill="none" xmlns="http://www.w3.org/2000/svg">
<g filter="url(#filter0_d_1087_25)">
<path d="M20 26C20 20.4772 24.4772 16 30 16H340C345.523 16 350 20.4772 350 26V1007C350 1012.52 345.523 1017 340 1017H30C24.4771 1017 20 1012.52 20 1007V26Z" fill="#1D66C0"/>
<rect x="29" y="25" width="312" height="671" fill="white"/>
<g clip-path="url(#clip0_1087_25)">
<path d="M221.842 46.8813C220.489 50.5106 218.902 52.9269 216.246 52.9269C214.893 52.9269 213.92 52.1431 213.92 50.7935C213.92 49.0634 215.13 45.9317 216.528 43.4439C215.676 43.7984 214.538 44.1301 214.086 44.2277C213.943 44.5821 213.732 45.0797 213.468 45.6748C213.393 45.8439 213.306 46.0423 213.205 46.2634C213.198 46.2797 213.192 46.2992 213.185 46.3155C213.137 46.4586 213.042 46.6472 212.925 46.8846C212.844 47.0602 212.763 47.2325 212.681 47.4049C212.545 47.7041 212.395 48.0293 212.239 48.3805L212.002 48.8781C211.914 49.0895 211.81 49.2488 211.689 49.3561C210.343 51.7951 208.893 53.5025 207.14 53.5025C206.096 53.5025 205.504 52.7675 205.504 51.509V51.4374C204.554 52.361 203.725 52.8618 202.327 52.8618C201.094 52.8618 200.145 52.3155 200.145 51.2976C200.145 50.0065 200.473 48.8033 201.042 47.4374C200.847 47.4667 200.649 47.4797 200.454 47.4797C200.337 47.4797 200.145 47.4569 199.885 47.4309C199.007 49.5903 198.011 51.1317 196.896 52.0325C196.161 52.6244 195.403 52.9334 194.62 52.9334C193.293 52.9334 192.272 52.026 192.037 50.5269C190.915 52.0195 189.543 52.9334 187.956 52.9334C186.356 52.9334 185.465 52.2407 185.286 50.8423C184.145 52.4521 182.854 53.5025 181.576 53.5025C180.532 53.5025 179.94 52.7675 179.94 51.509C179.94 50.4423 180.675 48.9951 181.979 46.813L182.668 45.6033C182.74 45.4862 182.785 45.3659 182.785 45.2488C182.785 45.1545 182.737 45.1057 182.642 45.1057C182.428 45.1057 182.145 45.3203 181.764 45.7691C180.554 47.2618 179.273 49.161 177.898 51.509C177.79 51.6586 177.696 51.8179 177.615 51.9838C177.426 52.2699 177.283 52.5756 176.808 52.7675C176.571 52.8813 176.311 52.9366 176.05 52.9334C175.267 52.9334 174.863 52.5529 174.863 51.7724C174.863 51.7073 174.87 51.6325 174.876 51.548C174.551 51.8732 174.177 52.1496 173.771 52.3675C173.059 52.748 172.158 52.9366 171.068 52.9366C169.644 52.9366 168.366 52.3675 167.654 51.3236C167.299 50.8033 167.107 50.1854 167.107 49.4732C167.107 47.2683 168.34 44.6114 170.167 42.9984C171.068 42.1919 172.018 41.7886 173.036 41.7886C174.743 41.7886 175.667 42.6179 175.667 43.8504C175.667 46.2212 173.059 48.6895 169.833 50.0878C170.093 50.9171 170.828 51.3919 171.611 51.3919C173.27 51.3919 174.694 49.9935 175.904 47.2195C175.966 47.0699 176.037 46.9204 176.115 46.7773C176.489 45.626 176.893 44.5301 177.231 43.7821L177.563 43.0472C177.966 42.0748 178.18 41.6716 178.629 41.3886C178.844 41.2716 179.15 41.2 179.507 41.2C180.148 41.2 180.668 41.509 180.668 42.0065C180.668 42.1008 180.668 42.1724 180.646 42.2439C179.579 44.5919 179.033 46.0846 178.486 47.9838C180.548 44.7838 182.824 42.0098 184.32 42.0098C184.818 42.0098 185.15 42.3903 185.15 42.9594C185.15 43.7886 184.652 44.8325 183.68 46.6114C182.613 48.5789 182.044 49.7886 182.044 50.8098C182.044 51.0472 182.067 51.213 182.138 51.3073C182.184 51.4017 182.255 51.4504 182.376 51.4504C183.228 51.4504 184.011 50.5496 184.603 49.483C184.912 48.9366 185.267 48.2277 185.719 47.3236C185.823 47.0667 186.005 46.6504 186.197 46.2862C186.268 46.0976 186.346 45.9057 186.428 45.7106L186.854 44.6667L186.473 44.7382C186.402 44.761 186.33 44.761 186.213 44.761C185.764 44.761 185.455 44.5236 185.455 44.0748C185.455 43.3886 186.333 43.3626 187.494 43.1512C187.754 42.5334 188.278 41.587 189.013 40.3057C189.322 39.7594 189.963 39.4764 190.554 39.4764C191.195 39.4764 191.693 39.7854 191.693 40.2602C191.693 40.426 191.621 40.6147 191.504 40.7805C191.007 41.6098 190.652 42.2504 190.415 42.7025C190.867 42.6797 191.172 42.6537 191.364 42.6537C191.956 42.6537 192.288 42.9138 192.288 43.3171C192.288 43.7204 191.979 44.0033 191.576 44.0033C190.954 44.0325 190.34 44.0943 189.725 44.1919L189.133 45.6163L188.873 46.2797C188.255 47.8439 187.95 49.0764 187.95 49.9773C187.95 50.8325 188.259 51.2586 188.873 51.2586C189.371 51.2586 189.917 50.9269 190.509 50.2374C191.101 49.5512 191.787 48.3643 192.571 46.683C193.078 45.2878 193.891 43.974 194.919 43.0277C195.82 42.1984 196.815 41.7951 197.885 41.7951C198.737 41.7951 199.498 42.1041 199.901 42.6732C200.281 43.1935 200.47 43.9057 200.47 44.8065C200.467 45.2456 200.418 45.6813 200.327 46.1106C200.912 46.1756 201.488 45.961 201.92 45.5122C201.995 45.3594 202.073 45.2033 202.151 45.0439C202.532 44.3577 202.769 43.8569 202.863 43.5512C202.935 43.3854 202.98 43.1252 203.052 42.7675C203.241 41.8439 203.384 41.4862 204.236 41.4862C205.185 41.4862 205.589 42.0325 205.589 42.8846C205.589 43.5708 205.351 44.1886 204.665 45.5415C203.598 47.7951 202.958 49.1708 202.792 50.6147C202.769 50.7317 202.769 50.8748 202.769 51.0407C202.769 51.3269 202.815 51.4212 202.984 51.4212C203.127 51.4212 203.338 51.3269 203.624 51.161C204.454 50.709 205.38 49.7366 206.398 48.1984C207.156 46.3968 208.32 44.2374 209.244 42.7447C209.267 42.722 209.293 42.6504 209.361 42.5301C209.478 42.2699 209.764 42.0781 210.119 42.0781C210.499 42.0781 210.711 42.3155 210.711 42.696C210.714 42.8911 210.655 43.083 210.545 43.2423C209.192 45.5187 207.605 49.122 207.605 50.8065C207.605 51.0439 207.628 51.2098 207.699 51.3041C207.748 51.3984 207.816 51.4472 207.937 51.4472C208.766 51.4472 209.55 50.5464 210.141 49.5025C210.428 48.9821 210.805 48.2472 211.257 47.3204L211.328 47.1675C211.663 46.4065 212.015 45.535 212.395 44.5464L212.655 43.9285C211.92 43.3594 211.54 42.7415 211.54 42.0553C211.54 41.1773 211.992 40.4195 212.584 40.0163C212.893 39.8277 213.176 39.7301 213.485 39.7301C214.171 39.7301 214.694 40.2764 214.694 41.3886C214.694 41.7204 214.623 42.1464 214.506 42.6927C214.623 42.6699 214.886 42.5756 215.289 42.4325C216.688 41.9577 217.472 41.7203 218.135 41.7203C218.919 41.7203 219.367 42.2667 219.367 42.9073C219.367 43.122 219.273 43.4537 219.107 43.8797C218.941 44.3057 218.681 44.8748 218.324 45.5643C217.185 47.9122 216.499 49.548 216.499 50.8033C216.499 51.0407 216.522 51.2065 216.593 51.3008C216.642 51.3951 216.711 51.4439 216.831 51.4439C217.803 51.4439 218.727 50.2569 219.322 49.0732C219.631 48.4813 220.034 47.6033 220.577 46.4423C220.792 45.9675 221.029 45.5903 221.572 45.5903H221.595C221.904 45.5903 222.047 45.7334 222.047 46.0163C222.057 46.2179 221.985 46.5269 221.842 46.8813ZM171.003 43.0407C170.909 43.0407 170.815 43.0895 170.694 43.1838C170.447 43.3854 170.21 43.5968 169.982 43.8244C169.92 43.8797 169.888 43.9577 169.888 44.0391C169.888 44.1561 169.982 44.2504 170.099 44.2537C170.171 44.2569 170.236 44.2309 170.288 44.1821C170.574 43.896 170.785 43.7073 170.928 43.5903C171.072 43.4732 171.143 43.3301 171.143 43.2098C171.143 43.0895 171.098 43.0407 171.003 43.0407ZM171.833 42.4943L171.644 42.5431C171.478 42.6147 171.407 42.709 171.407 42.8521C171.407 42.9691 171.55 43.0895 171.738 43.0179C171.927 42.9464 172.07 42.8033 172.07 42.6862C172.07 42.5886 171.953 42.4943 171.833 42.4943ZM173.992 44.1073C173.992 43.7529 173.706 43.5382 173.306 43.5382C172.808 43.5382 172.167 43.8472 171.67 44.4878C170.886 45.5545 170.151 47.1447 169.868 48.4716C172.119 47.3073 173.992 45.6228 173.992 44.1073ZM169.533 51.7171C169.345 51.6228 169.13 51.4569 168.915 51.2423C168.821 51.148 168.727 51.0992 168.607 51.0992C168.486 51.0992 168.441 51.148 168.441 51.2651C168.441 51.3594 168.489 51.4537 168.561 51.5512C168.727 51.8114 168.987 52.0033 169.345 52.1431L169.533 52.1919C169.676 52.1919 169.748 52.1203 169.748 52.0033C169.748 51.8862 169.676 51.7886 169.533 51.7171ZM170.434 52.026H170.363C170.174 52.026 170.054 52.1203 170.054 52.2862C170.054 52.4033 170.148 52.4748 170.314 52.5008H170.408C170.597 52.5008 170.717 52.3838 170.717 52.2634C170.717 52.1691 170.623 52.0521 170.434 52.026ZM179.185 42.3512C179.306 42.2342 179.351 42.1366 179.351 42.0423C179.351 41.9382 179.27 41.8537 179.166 41.8537C179.163 41.8537 179.163 41.8537 179.159 41.8537C178.993 41.8537 178.756 41.9968 178.756 42.1854C178.756 42.374 179.02 42.5171 179.185 42.3512ZM178.733 42.9919C178.782 42.9399 178.805 42.8716 178.805 42.8033C178.805 42.6862 178.711 42.5659 178.59 42.5659C178.47 42.5659 178.376 42.6374 178.304 42.7545L177.878 43.6065C177.833 43.6943 177.807 43.7919 177.807 43.8927C177.807 44.0358 177.855 44.1073 177.972 44.1073C178.089 44.1073 178.21 44.013 178.281 43.8212C178.405 43.5317 178.558 43.2521 178.733 42.9919ZM184.236 43.0634C184.402 43.0407 184.522 42.8748 184.522 42.7545C184.522 42.6342 184.428 42.5886 184.236 42.5886C183.787 42.5886 183.218 42.9431 182.528 43.6325C182.457 43.7041 182.411 43.7984 182.411 43.8699C182.411 43.987 182.483 44.0586 182.626 44.0586C182.72 44.0586 182.792 44.0098 182.863 43.9155C183.263 43.4439 183.833 43.135 184.236 43.0634ZM182.291 52.4553C182.19 52.4228 182.086 52.413 181.982 52.4325C181.911 52.4553 181.839 52.4553 181.722 52.4553C181.224 52.4553 181.01 52.1691 181.081 51.5057V51.4569C181.081 51.2683 180.987 51.1252 180.893 51.1252C180.727 51.1252 180.607 51.3399 180.607 51.6943C180.607 52.5236 180.938 52.9496 181.602 52.9496C181.673 52.9496 181.79 52.9269 181.982 52.9008C182.242 52.8781 182.385 52.7122 182.385 52.5919C182.385 52.5496 182.363 52.5008 182.291 52.4553ZM188.597 42.5659C188.714 42.5659 188.834 42.4716 188.928 42.3057L189.807 40.787C189.852 40.7252 189.875 40.6504 189.878 40.5724C189.878 40.4065 189.806 40.335 189.641 40.335C189.52 40.335 189.426 40.4065 189.354 40.5496C189.283 40.6667 189.166 40.9041 188.951 41.2618C188.763 41.574 188.597 41.8992 188.454 42.2342C188.431 42.2569 188.431 42.3057 188.431 42.3773C188.431 42.4943 188.48 42.5659 188.597 42.5659ZM187.982 51.9805C187.104 51.9317 186.535 51.5545 186.298 50.8423C186.226 50.6277 186.132 50.5106 186.011 50.5106C185.917 50.5106 185.823 50.6277 185.823 50.7968C185.829 50.9041 185.852 51.0082 185.894 51.1057C186.203 51.961 186.915 52.4098 187.982 52.4586C188.242 52.4586 188.385 52.3415 188.385 52.2212C188.385 52.1008 188.242 51.9805 187.982 51.9805ZM193.055 50.6504C193.033 50.4846 192.889 50.3903 192.795 50.3903C192.652 50.3903 192.58 50.4846 192.58 50.6764C192.587 50.774 192.61 50.8716 192.652 50.9626C192.961 51.8862 193.673 52.4553 194.62 52.4813H194.668C194.883 52.4813 194.977 52.4098 194.977 52.2927C194.977 52.1269 194.86 52.0325 194.623 52.0065C193.839 51.9805 193.27 51.483 193.055 50.6504ZM196.564 42.4228C195.946 42.6602 195.426 43.0407 194.974 43.561C194.912 43.6163 194.88 43.6943 194.88 43.7756C194.88 43.8927 194.974 43.987 195.091 43.9903C195.091 43.9903 195.091 43.9903 195.094 43.9903C195.166 43.9903 195.237 43.9415 195.309 43.8732C195.712 43.4212 196.161 43.0667 196.685 42.8521C196.85 42.7805 196.922 42.6862 196.922 42.5659C196.922 42.4 196.779 42.3285 196.564 42.4228ZM197.039 43.9415C195.901 45.2683 194.502 47.9025 194.502 49.7756C194.502 50.2504 194.574 50.6277 194.691 50.9366C194.808 51.2456 194.977 51.3886 195.143 51.3886C196.115 51.3886 197.585 49.4667 198.558 46.9073C197.702 46.3122 197.111 45.0797 197.039 43.9415ZM197.631 42.1138C197.416 42.1138 197.276 42.2569 197.276 42.374C197.276 42.4911 197.397 42.6114 197.585 42.5886C197.774 42.5659 197.894 42.4228 197.894 42.3285C197.894 42.1854 197.797 42.1138 197.631 42.1138ZM198.867 45.7431C198.392 45.3399 198.06 44.6049 198.037 44.013C198.015 43.7984 197.894 43.6325 197.777 43.6325C197.66 43.6325 197.589 43.7496 197.589 43.987C197.611 44.7708 197.992 45.6716 198.584 46.1464C198.678 46.2407 198.772 46.2895 198.844 46.2895C198.961 46.2895 199.033 46.2179 199.033 46.0521C199.033 45.9317 198.984 45.8374 198.867 45.7431ZM203.488 44.0586C203.605 44.0586 203.725 43.9643 203.797 43.7984C203.985 43.3464 204.106 42.9691 204.128 42.6114V42.5399C204.128 42.3512 204.011 42.2082 203.891 42.2082C203.797 42.2082 203.676 42.3252 203.654 42.5171C203.589 42.9073 203.485 43.2878 203.345 43.6553C203.322 43.7041 203.322 43.7496 203.322 43.8212C203.322 43.987 203.371 44.0586 203.488 44.0586ZM207.283 52.5724C206.785 52.5951 206.476 52.2179 206.548 51.5512V51.4797C206.548 51.2911 206.454 51.1935 206.359 51.1935C206.193 51.1935 206.073 51.4082 206.073 51.6911C206.073 52.5204 206.499 53.0439 207.234 53.0439C207.423 53.0439 207.52 52.9269 207.52 52.8065C207.511 52.683 207.41 52.5821 207.283 52.5724ZM212.737 40.5984C212.665 40.5984 212.571 40.6472 212.499 40.7415C212.223 41.0374 212.07 41.4277 212.073 41.8309C212.073 42.0911 212.145 42.2114 212.288 42.2114C212.405 42.2114 212.548 42.0456 212.548 41.8309C212.545 41.548 212.636 41.2716 212.808 41.0472C212.87 40.9821 212.902 40.8976 212.902 40.8098C212.902 40.6927 212.831 40.5984 212.737 40.5984ZM213.426 40.1008C213.309 40.1008 212.974 40.1951 212.974 40.4553C212.974 40.5724 213.046 40.6212 213.189 40.6212C213.254 40.6179 213.319 40.6049 213.377 40.5724C213.543 40.4781 213.615 40.3838 213.615 40.2634C213.615 40.1464 213.543 40.1008 213.426 40.1008ZM214.753 51.8862C214.922 52.1073 215.153 52.2732 215.416 52.361L215.488 52.3838C215.605 52.3838 215.748 52.2667 215.748 52.0976C215.754 52.0195 215.702 51.9512 215.631 51.9317C215.371 51.8374 215.205 51.6943 215.111 51.5285C215.088 51.4569 215.016 51.4114 214.922 51.4114C214.828 51.4114 214.707 51.5057 214.707 51.6716C214.704 51.7464 214.72 51.8179 214.753 51.8862ZM216.841 45.0569C216.902 44.9659 216.935 44.8586 216.935 44.748C216.935 44.6049 216.863 44.5334 216.746 44.5334C216.629 44.5334 216.532 44.6277 216.437 44.7935C215.371 46.8813 214.47 49.2293 214.47 50.6277C214.47 50.7708 214.493 50.8878 214.541 50.9594C214.59 51.0537 214.636 51.1025 214.685 51.1025C214.85 51.1025 214.945 50.9138 214.945 50.6277C214.941 49.2748 215.797 46.8586 216.841 45.0569ZM158.532 52.8553C157.637 52.8553 156.941 52.5431 156.629 51.935C155.829 52.8846 154.98 53.3756 153.979 53.3756C152.626 53.3756 151.989 52.4033 151.989 50.9106C151.992 50.5269 152.041 50.1464 152.132 49.7724C151.016 51.0537 150.115 51.9317 149.38 52.3805C148.883 52.6895 148.359 52.8553 147.79 52.8553C146.902 52.8553 146.193 52.361 145.982 51.483C145.179 52.3675 144.32 52.7838 143.358 52.7838C142.385 52.7838 141.888 52.1659 141.722 50.8391C141.699 50.6732 141.699 50.4846 141.699 50.2212C141.699 48.8683 142.6 46.2862 143.953 43.2488L141.654 43.4862C141.631 43.5577 141.592 43.626 141.537 43.6748L141.111 44.2927C140.945 44.5301 140.779 44.7903 140.564 45.0764C138.112 48.683 136.928 50.3447 135.53 51.483C134.818 52.0748 134.132 52.361 133.442 52.361C132.613 52.361 131.995 52.2179 131.403 51.626C131.286 51.509 131.215 51.3659 131.215 51.2228C131.215 50.9366 131.501 50.7025 131.878 50.7025C131.995 50.7025 132.187 50.7512 132.398 50.8683C132.753 50.9854 132.99 51.0569 133.111 51.0569C134.034 51.0569 135.033 49.8244 135.979 48.1399C136.431 47.3106 137.046 46.1236 137.829 44.6309L138.161 43.9675C136.857 44.2049 135.836 44.4651 135.127 44.7252C133.514 45.4147 132.993 45.935 132.304 47.6651C132.187 47.9968 131.95 48.1626 131.618 48.1626C131.309 48.1626 131 47.9025 131 47.5447C131 47.4309 131.026 47.3171 131.072 47.213C131.807 45.1968 132.662 44.296 134.486 43.5122C135.41 43.109 136.906 42.7285 138.967 42.4228C141.527 37.5155 143.829 34.5041 146.509 34.5041C147.862 34.5041 148.88 35.0504 148.88 36.0943C148.88 36.5691 148.405 37.6586 147.719 38.8228C147.078 39.9382 146.486 41.0049 145.989 42.0488C146.08 42.1529 146.132 42.2895 146.132 42.4293C146.132 42.7155 145.894 42.9756 145.491 43.0927C144.115 46.1041 143.332 48.4748 143.12 50.2537C143.098 50.3317 143.098 50.413 143.12 50.4911V50.7773C143.143 51.0634 143.169 51.2521 143.215 51.3236C143.26 51.3951 143.332 51.4407 143.452 51.4407C144.424 51.4407 145.348 50.2537 145.943 49.0699C146.167 48.6407 146.441 48.0618 146.782 47.3301C147.055 46.6309 147.39 45.8667 147.793 45.0374C148.672 43.213 150.424 41.9057 152.06 41.9057C153.198 41.9057 154.171 42.5464 154.668 43.496L154.883 43.0699C155.855 41.0537 156.353 39.3951 156.353 38.0651C156.356 37.7854 156.333 37.509 156.281 37.2358C156.21 36.9984 156.187 36.8553 156.187 36.7838C156.187 36.0976 156.685 35.7171 157.276 35.7171C157.917 35.7171 158.58 36.0976 158.746 36.6407C158.821 36.9041 158.86 37.174 158.863 37.4472C158.863 39.0374 157.891 40.9561 156.207 43.8732C154.88 46.2212 154.499 47.0049 154.047 48.5204C153.833 49.3041 153.715 49.9415 153.715 50.4651C153.715 51.1057 153.904 51.4374 154.285 51.4374C155.234 51.4374 155.92 50.7252 156.61 49.4699C156.815 49.0764 157.081 48.5366 157.413 47.8537C157.494 47.6618 157.585 47.4667 157.676 47.2618L158.057 46.4325C158.98 44.4163 159.312 43.587 159.312 42.6147C159.312 41.7366 159.859 41.2618 160.522 41.2618C161.163 41.2618 161.732 41.6878 161.849 42.3773C161.872 42.4716 161.872 42.6147 161.872 42.8033C161.872 43.9643 161.302 45.3886 160.45 47.0732C159.621 48.7577 159.124 49.8472 159.124 50.5821C159.124 51.0342 159.338 51.2683 159.787 51.2683C161.185 51.2683 163.296 48.5886 164.72 45.6488C165.41 44.2017 165.764 43.0862 165.764 42.3285C165.764 42.2342 165.741 42.0683 165.715 41.8537C165.667 41.639 165.644 41.4992 165.644 41.3789C165.644 41.0699 165.764 40.8586 166.024 40.7382C166.122 40.696 166.226 40.6732 166.333 40.6667C166.62 40.6667 166.831 40.8813 166.974 41.3073C167.117 41.7594 167.189 42.3025 167.189 42.9659C167.189 46.5951 165.338 49.7724 162.685 51.5252C161.328 52.4065 159.953 52.8553 158.532 52.8553ZM144.541 35.7594C144.447 35.7594 144.304 35.8309 144.115 35.974C142.763 37.0407 141.553 38.9366 140.132 41.522C140.089 41.6033 140.063 41.6911 140.06 41.7821C140.06 41.8764 140.109 41.9252 140.226 41.9252C140.343 41.9252 140.512 41.8309 140.58 41.7106C142.311 38.6992 143.14 37.3008 144.372 36.3512C144.587 36.1854 144.681 36.0423 144.681 35.8992C144.681 35.8082 144.636 35.7594 144.541 35.7594ZM145.465 35.239C145.374 35.2488 145.286 35.2716 145.205 35.3106C145.088 35.3821 145.016 35.4537 145.016 35.548C145.016 35.7138 145.205 35.8082 145.397 35.7138C145.563 35.6423 145.657 35.5252 145.657 35.4049C145.654 35.2846 145.582 35.239 145.465 35.239ZM146.58 38.0846C146.984 37.4212 147.293 36.6374 147.293 36.2602C147.293 36.1431 147.27 36.0716 147.198 36.0716C146.746 36.0716 146.177 36.5919 145.442 37.613C144.707 38.6569 143.758 40.1269 142.597 42C142.951 41.9773 143.403 41.9512 143.95 41.883C144.115 41.883 144.33 41.8602 144.613 41.8342C145.276 40.4781 145.94 39.2456 146.58 38.0846ZM147.979 51.883C147.481 51.883 147.055 51.6228 146.841 51.2195C146.818 51.148 146.746 51.1025 146.652 51.1025C146.535 51.1025 146.437 51.2195 146.437 51.3399C146.437 51.4244 146.463 51.5057 146.509 51.5773C146.818 52.0521 147.338 52.361 147.979 52.361C148.193 52.361 148.333 52.2439 148.333 52.1464C148.333 52.026 148.167 51.883 147.979 51.883ZM156.776 40.0521C156.919 40.0521 157.013 39.935 157.062 39.7203C157.228 39.0569 157.299 38.5594 157.299 38.2277C157.299 37.9187 157.25 37.587 157.182 37.2325C157.159 37.0179 156.993 36.8781 156.873 36.8781C156.753 36.8781 156.685 36.9496 156.685 37.1155C156.685 37.2098 156.707 37.3529 156.756 37.5675C156.802 37.7854 156.828 38.0098 156.828 38.2309C156.828 38.6114 156.756 39.0602 156.613 39.5838C156.59 39.6325 156.59 39.7008 156.59 39.7724C156.587 39.9577 156.681 40.0521 156.776 40.0521ZM156.089 42.1138C156.207 42.1138 156.304 41.9968 156.398 41.7594C156.519 41.4895 156.623 41.213 156.707 40.9301C156.73 40.8813 156.73 40.8358 156.73 40.7643C156.73 40.6472 156.636 40.5269 156.541 40.5269C156.447 40.5269 156.304 40.6212 156.281 40.787L155.995 41.6163C155.963 41.7008 155.946 41.7886 155.946 41.8764C155.946 41.9968 156.018 42.1138 156.089 42.1138ZM148.857 52.1691C149.117 52.1691 149.211 52.026 149.211 51.909C149.211 51.7919 149.094 51.6943 148.974 51.6943C148.785 51.6943 148.642 51.8114 148.642 51.9805C148.642 52.0976 148.714 52.1691 148.857 52.1691ZM150.278 42.9691C150.161 42.9691 150.041 43.0179 149.924 43.135C149.709 43.3008 149.543 43.4439 149.403 43.6098C149.286 43.7269 149.237 43.8244 149.237 43.9187C149.237 44.0228 149.319 44.1073 149.423 44.1073C149.426 44.1073 149.426 44.1073 149.429 44.1073C149.546 44.1073 149.644 44.0586 149.738 43.9643C149.911 43.7854 150.093 43.6195 150.285 43.4667C150.398 43.4049 150.47 43.2878 150.473 43.1577C150.467 43.0407 150.398 42.9691 150.278 42.9691ZM151.416 42.3285C151.202 42.4 151.013 42.4716 150.896 42.5431C150.779 42.6147 150.73 42.6862 150.73 42.7577C150.73 42.9464 150.967 43.0667 151.156 42.9464L151.559 42.7805C151.725 42.7317 151.797 42.6374 151.797 42.5204C151.797 42.3512 151.676 42.2569 151.416 42.3285ZM153.007 43.5382C152.863 43.4309 152.688 43.3724 152.509 43.3724C151.156 43.3724 149.78 46.2667 149.023 48.6114C148.915 48.9073 148.857 49.2195 148.857 49.535C148.857 50.0098 149.046 50.2927 149.354 50.2927C149.615 50.2927 149.924 50.1041 150.327 49.7008C151.348 48.6569 152.083 47.7106 153.433 45.9057C153.621 45.6456 153.719 45.3366 153.719 44.9821C153.715 44.4163 153.455 43.8212 153.007 43.5382ZM154.119 52.4293C153.527 52.3805 153.169 52.0748 153.029 51.5285C152.958 51.3138 152.863 51.1968 152.743 51.1968C152.623 51.1968 152.506 51.3854 152.577 51.6716C152.766 52.4553 153.361 52.9041 154.119 52.9041C154.379 52.9041 154.522 52.8325 154.522 52.6895C154.522 52.5724 154.382 52.4521 154.119 52.4293ZM159.859 44.0586C160.018 44.0521 160.148 43.9317 160.167 43.7724C160.311 43.2521 160.382 42.8488 160.382 42.5626C160.382 42.348 160.288 42.1821 160.122 42.1821C160.028 42.1821 159.907 42.2992 159.907 42.5138C159.907 42.6082 159.907 43.2716 159.719 43.6748L159.67 43.8407C159.67 43.987 159.738 44.0586 159.859 44.0586ZM165.998 46.3838C166.115 46.3838 166.187 46.2895 166.236 46.1236C166.33 45.8147 166.402 45.5773 166.424 45.4114C166.447 45.3399 166.447 45.2683 166.447 45.174C166.447 44.9366 166.376 44.8195 166.233 44.8195C166.138 44.8195 165.995 44.9366 165.972 45.2C165.924 45.4342 165.862 45.6618 165.784 45.8862C165.761 45.935 165.761 45.9805 165.761 46.0521C165.764 46.2407 165.881 46.3838 165.998 46.3838ZM165.764 47.096C165.764 46.9529 165.715 46.8813 165.621 46.8813C165.501 46.8813 165.384 46.9984 165.241 47.2618C164.411 48.8521 163.179 50.1561 161.732 50.9366C161.517 51.0537 161.4 51.1968 161.4 51.3399C161.4 51.4569 161.472 51.5057 161.589 51.5057C161.66 51.5057 161.754 51.4569 161.92 51.3886C163.462 50.5334 164.789 49.161 165.644 47.522C165.715 47.3789 165.764 47.2358 165.764 47.096Z" fill="#FF4B47"/>
<path d="M225.849 42.7415L225.124 42.8423L226.6 53.3431L227.325 53.2423L225.849 42.7415ZM235.566 45.3463L236.141 45.7984L229.611 54.1528L229.036 53.7008L235.566 45.3463ZM230.353 43.948L231.062 44.1366L228.281 54.5106L227.572 54.3219L230.353 43.948Z" fill="#0E315C"/>
<path d="M236.145 45.7951L229.615 54.1496L229.039 53.6976L235.569 45.3431L236.145 45.7951ZM229.839 48.6959L228.863 52.3317C228.671 52.0878 228.483 51.8407 228.304 51.5902L228.932 49.2455C229.237 49.0634 229.54 48.8813 229.839 48.6959ZM226.31 46.0358L226.73 49.0179C226.532 48.6309 226.346 48.2407 226.171 47.8407C225.976 47.3919 225.797 46.9398 225.634 46.4813L225.156 43.0862C225.471 44.0976 225.858 45.0797 226.31 46.0358Z" fill="#0B2551"/>
<path d="M224.828 37.7366C224.828 37.7366 224.242 39.6358 225.172 43.1967C226.353 47.7041 228.73 51.4179 228.73 51.4179C228.73 51.4179 232.649 49.3886 235.923 46.078C238.512 43.4602 238.954 41.5219 238.954 41.5219C240.193 37.5642 237.849 33.3106 233.868 32.2439C229.891 31.1805 225.732 33.6878 224.828 37.7366Z" fill="#FF4B47"/>
<path d="M239.049 37.5024C239.384 38.7837 239.377 40.1691 238.954 41.522C238.954 41.522 238.512 43.4602 235.923 46.0781C232.649 49.3919 228.73 51.4179 228.73 51.4179C228.73 51.4179 226.35 47.7008 225.172 43.1968C225.143 43.0797 225.114 42.9659 225.084 42.852C225.803 45.2553 226.925 47.522 228.402 49.5512C233.686 46.5528 238.447 42.3024 239.049 37.5024Z" fill="#CF393E"/>
<path d="M235.923 46.078C234.642 47.3723 233.266 48.4715 232.063 49.3268C232.096 48.8195 232.115 48.3187 232.125 47.8081C232.138 47.0601 232.128 46.3252 232.096 45.5772L228.74 44.6764C228.336 45.3073 227.962 45.9382 227.598 46.5951C227.351 47.0439 227.117 47.4861 226.893 47.9414C226.278 46.5951 225.634 44.9561 225.175 43.1967C224.808 41.7886 224.675 40.6374 224.652 39.7658C225.53 38.6048 226.453 37.4796 227.423 36.3902C228.801 34.8455 230.265 33.3788 231.813 32.0032C233.208 31.9642 234.584 32.3349 235.774 33.0634C236.424 35.0276 236.961 37.0309 237.38 39.0601C237.676 40.4878 237.914 41.9252 238.093 43.3691C237.637 44.1138 236.948 45.0439 235.923 46.078Z" fill="#FFA44F"/>
<path d="M236.027 45.974C236.053 45.9447 236.083 45.9187 236.109 45.8894C236.112 45.8829 236.118 45.8797 236.122 45.8764C236.144 45.8537 236.167 45.8277 236.193 45.8016C236.2 45.7951 236.203 45.7886 236.209 45.7854C236.236 45.7594 236.262 45.7301 236.284 45.7041C236.291 45.6976 236.297 45.6911 236.304 45.6846C236.327 45.6618 236.349 45.6358 236.372 45.613C236.375 45.6098 236.382 45.6033 236.385 45.6C236.408 45.574 236.434 45.548 236.457 45.522C236.463 45.5155 236.47 45.5057 236.476 45.4992C236.499 45.4732 236.525 45.4472 236.548 45.4211C236.551 45.4179 236.554 45.4114 236.561 45.4081C236.58 45.3854 236.6 45.3626 236.622 45.3398C236.629 45.3333 236.636 45.3236 236.642 45.3171C236.665 45.2911 236.688 45.2651 236.707 45.2423C236.714 45.2358 236.72 45.2293 236.723 45.2228C236.743 45.2 236.759 45.1805 236.779 45.161C236.785 45.1545 236.792 45.148 236.795 45.1415C236.814 45.1155 236.837 45.0927 236.857 45.0667C236.863 45.0602 236.87 45.0504 236.876 45.0439C236.896 45.0211 236.912 44.9984 236.931 44.9756C236.935 44.9691 236.941 44.9659 236.944 44.9594C236.964 44.9366 236.983 44.9138 237 44.8911C237.006 44.8846 237.013 44.8748 237.019 44.8683C237.039 44.8455 237.058 44.8195 237.078 44.7968C237.081 44.7903 237.088 44.7837 237.094 44.7772C237.11 44.7577 237.127 44.7382 237.143 44.7187C237.149 44.7122 237.153 44.7057 237.159 44.6992C237.179 44.6764 237.195 44.6537 237.214 44.6277C237.221 44.6211 237.224 44.6146 237.231 44.6081C237.247 44.5886 237.263 44.5659 237.279 44.5464C237.283 44.5398 237.286 44.5366 237.289 44.5333C237.309 44.5106 237.325 44.4878 237.344 44.4618C237.348 44.4553 237.354 44.4488 237.361 44.4423C237.377 44.4195 237.396 44.3968 237.413 44.3707C237.416 44.3675 237.416 44.3642 237.419 44.361C237.436 44.3415 237.452 44.3187 237.468 44.2959C237.471 44.2894 237.478 44.2829 237.481 44.2797C237.497 44.2569 237.517 44.2342 237.533 44.2114C237.536 44.2049 237.54 44.2016 237.543 44.1984C237.559 44.1789 237.572 44.1561 237.588 44.1366C237.592 44.1333 237.595 44.1301 237.598 44.1236C237.614 44.1008 237.631 44.0781 237.647 44.052C237.65 44.0488 237.653 44.0423 237.657 44.039C237.692 43.9903 237.725 43.9415 237.757 43.8959C237.761 43.8927 237.761 43.8894 237.764 43.8862C237.796 43.8374 237.829 43.7886 237.862 43.7398C237.862 43.7398 237.862 43.7366 237.865 43.7366C237.881 43.7106 237.897 43.6878 237.914 43.6651C237.979 43.5675 238.037 43.4699 238.096 43.3789C238.005 42.6439 237.897 41.909 237.777 41.1772C236.528 43.3724 234.502 45.3919 232.135 47.148C232.135 47.3724 232.131 47.5935 232.128 47.8211C232.118 48.3317 232.099 48.8325 232.066 49.3398C232.102 49.3138 232.138 49.2911 232.17 49.2651C232.177 49.2618 232.18 49.2585 232.187 49.2553C232.223 49.2293 232.258 49.2033 232.294 49.1772C232.33 49.1512 232.366 49.1252 232.401 49.0992C232.405 49.0959 232.411 49.0927 232.414 49.0894C232.45 49.0634 232.486 49.0374 232.522 49.0114C232.525 49.0081 232.528 49.0081 232.531 49.0049C232.567 48.9789 232.603 48.9529 232.639 48.9268C232.642 48.9236 232.645 48.9236 232.645 48.9203C232.681 48.8943 232.717 48.865 232.753 48.839C232.759 48.8358 232.762 48.8325 232.769 48.8293C232.844 48.774 232.915 48.7187 232.99 48.6634C232.996 48.6602 233.003 48.6537 233.006 48.6504C233.078 48.5951 233.153 48.5366 233.227 48.4813C233.234 48.4748 233.24 48.4716 233.247 48.465C233.283 48.4358 233.318 48.4098 233.354 48.3805C233.357 48.3772 233.364 48.374 233.367 48.3707C233.4 48.3447 233.436 48.3187 233.468 48.2927C233.475 48.2894 233.481 48.2829 233.488 48.2797C233.523 48.2504 233.559 48.2211 233.595 48.1919C233.601 48.1854 233.608 48.1821 233.614 48.1756C233.647 48.1496 233.679 48.1236 233.715 48.0943C233.722 48.0911 233.725 48.0878 233.728 48.0846C233.764 48.0553 233.8 48.026 233.836 47.9968C233.842 47.9903 233.852 47.9837 233.862 47.9772C233.897 47.948 233.933 47.9187 233.969 47.8894C233.969 47.8894 233.969 47.8862 233.972 47.8862C234.008 47.8569 234.044 47.8277 234.079 47.7951C234.089 47.7886 234.099 47.7821 234.105 47.7724C234.141 47.7431 234.177 47.7138 234.213 47.6813C234.219 47.6781 234.226 47.6716 234.229 47.6683C234.262 47.6423 234.291 47.6163 234.323 47.587C234.333 47.5805 234.34 47.5707 234.349 47.5642C234.385 47.535 234.418 47.5024 234.453 47.4732C234.46 47.4667 234.47 47.4602 234.479 47.4504C234.509 47.4244 234.541 47.3984 234.57 47.3724C234.577 47.3659 234.587 47.3594 234.593 47.3529C234.629 47.3236 234.662 47.2911 234.697 47.2618C234.707 47.252 234.717 47.2455 234.727 47.2358C234.759 47.2065 234.788 47.1805 234.821 47.1512C234.827 47.148 234.831 47.1415 234.837 47.1382C234.873 47.1057 234.905 47.0764 234.941 47.0439C234.951 47.0342 234.961 47.0244 234.97 47.0179C235.006 46.9854 235.039 46.9529 235.075 46.9203C235.081 46.9171 235.084 46.9106 235.091 46.9073C235.123 46.8781 235.153 46.8488 235.185 46.8195C235.195 46.8098 235.205 46.8 235.214 46.7935C235.25 46.761 235.283 46.7285 235.318 46.6959C235.325 46.6894 235.335 46.6829 235.341 46.6732C235.37 46.6439 235.4 46.6179 235.432 46.5886C235.442 46.5821 235.449 46.5724 235.458 46.5659C235.494 46.5333 235.527 46.5008 235.562 46.465C235.572 46.4585 235.579 46.4488 235.588 46.439C235.621 46.4098 235.65 46.3772 235.683 46.348C235.689 46.3415 235.692 46.3382 235.699 46.3317C235.735 46.2959 235.77 46.2634 235.803 46.2277C235.813 46.2179 235.819 46.2114 235.829 46.2016C235.865 46.1659 235.901 46.1301 235.936 46.0943C235.966 46.0651 235.992 46.0358 236.021 46.0065C236.014 45.987 236.021 45.9805 236.027 45.974Z" fill="#CF7C45"/>
<path d="M225.221 43.3756C225.234 43.4244 225.247 43.4699 225.26 43.5187C225.26 43.5252 225.263 43.5317 225.267 43.5382C225.28 43.5805 225.289 43.626 225.302 43.6683C225.306 43.6781 225.309 43.6878 225.312 43.6976C225.325 43.7431 225.338 43.7919 225.354 43.8407C225.358 43.8504 225.361 43.8569 225.361 43.8667C225.374 43.909 225.387 43.9512 225.397 43.9935C225.4 44 225.4 44.0098 225.403 44.0163C225.416 44.0618 225.432 44.1106 225.445 44.1561C225.449 44.1659 225.452 44.1756 225.455 44.1886C225.468 44.2342 225.481 44.2797 225.497 44.322C225.497 44.3252 225.497 44.3285 225.501 44.3317C225.514 44.3805 225.53 44.426 225.546 44.4716C225.549 44.4813 225.553 44.4911 225.556 44.5041C225.572 44.5496 225.585 44.5984 225.601 44.6439C225.601 44.6472 225.605 44.6504 225.605 44.6537C225.618 44.6992 225.634 44.7415 225.647 44.787C225.65 44.7968 225.654 44.8065 225.657 44.8163C225.673 44.8618 225.686 44.9073 225.702 44.9529C225.706 44.9594 225.709 44.9659 225.709 44.9756C225.722 45.0179 225.735 45.0569 225.751 45.0992C225.754 45.109 225.758 45.1155 225.761 45.1252C225.777 45.1707 225.793 45.213 225.806 45.2586C225.81 45.2683 225.813 45.2781 225.816 45.2878C225.829 45.3301 225.845 45.3691 225.858 45.4081C225.862 45.4146 225.862 45.4179 225.865 45.4244C225.881 45.4699 225.897 45.5122 225.914 45.5577C225.917 45.5675 225.92 45.5805 225.923 45.5903C225.94 45.6358 225.956 45.6781 225.972 45.7236V45.7268C225.988 45.7691 226.005 45.8146 226.021 45.8569C226.024 45.8667 226.031 45.8797 226.034 45.8894C226.05 45.9317 226.067 45.974 226.083 46.0163C226.086 46.0228 226.089 46.0293 226.093 46.039C226.106 46.0748 226.122 46.1138 226.135 46.1496C226.138 46.1594 226.145 46.1724 226.148 46.1821C226.164 46.2244 226.18 46.2634 226.197 46.3057C226.2 46.3155 226.206 46.3285 226.21 46.3382C226.223 46.3707 226.236 46.4065 226.249 46.439C226.252 46.4488 226.255 46.4586 226.262 46.4683C226.278 46.5073 226.294 46.5464 226.31 46.5854C226.314 46.5984 226.32 46.6114 226.327 46.6244C226.34 46.6569 226.353 46.6927 226.366 46.7252C226.369 46.735 226.372 46.7447 226.379 46.7545C226.395 46.7903 226.408 46.8293 226.424 46.8651C226.431 46.8813 226.437 46.8943 226.44 46.9073C226.454 46.9399 226.47 46.9756 226.483 47.0081C226.489 47.0244 226.496 47.0374 226.502 47.0504C226.512 47.0764 226.525 47.1057 226.535 47.1317C226.541 47.148 226.548 47.1642 226.554 47.1805C226.567 47.213 226.584 47.2488 226.597 47.2813C226.603 47.2976 226.61 47.3138 226.619 47.3301C226.629 47.3529 226.639 47.3724 226.645 47.3951C226.652 47.4114 226.662 47.4309 226.668 47.4472C226.681 47.4764 226.694 47.509 226.707 47.5382C226.717 47.5577 226.723 47.5773 226.733 47.5968C226.74 47.613 226.746 47.6293 226.753 47.6423C226.769 47.6781 226.785 47.7138 226.801 47.7496C226.808 47.7626 226.811 47.7724 226.818 47.7854C226.827 47.8081 226.837 47.8309 226.85 47.8537C226.853 47.8602 226.857 47.8699 226.863 47.8797C226.873 47.9025 226.883 47.922 226.893 47.9447C226.961 47.8081 227.029 47.6716 227.097 47.5382C226.252 46.0618 225.575 44.4911 225.088 42.8586C225.094 42.8781 225.097 42.8976 225.101 42.9171C225.104 42.9301 225.107 42.9399 225.11 42.9529C225.12 42.9854 225.127 43.0212 225.136 43.0537C225.14 43.0634 225.143 43.0764 225.146 43.0862C225.156 43.1252 225.166 43.1642 225.175 43.2C225.188 43.2488 225.201 43.2976 225.214 43.3464C225.214 43.3561 225.218 43.3659 225.221 43.3756Z" fill="#CF7C45"/>
<path d="M229.644 54.2341L229.315 55.4569C229.211 55.8471 228.808 56.078 228.418 55.974L226.72 55.5187C226.33 55.4146 226.099 55.0114 226.203 54.6211L226.532 53.3984C226.35 53.2813 226.294 53.0406 226.411 52.8585C226.502 52.7154 226.678 52.6471 226.844 52.6894L229.728 53.4634C229.937 53.5187 230.06 53.7333 230.005 53.9415C229.963 54.1073 229.816 54.2244 229.644 54.2341Z" fill="#1D66C0"/>
<path d="M229.136 53.3073L229.732 53.4667C229.94 53.5219 230.063 53.7366 230.008 53.9447C229.962 54.1106 229.819 54.2276 229.647 54.2341L229.319 55.4569C229.214 55.8472 228.811 56.078 228.421 55.974L227.058 55.6098C227.227 55.5252 227.387 55.4244 227.536 55.3138C228.216 54.8065 228.642 54.0585 228.84 53.226L229.136 53.3073Z" fill="#184DA9"/>
<path d="M231.972 41.7626C233.321 41.7626 234.415 40.6692 234.415 39.3203C234.415 37.9715 233.321 36.8781 231.972 36.8781C230.623 36.8781 229.53 37.9715 229.53 39.3203C229.53 40.6692 230.623 41.7626 231.972 41.7626Z" fill="white"/>
<path d="M225.852 37.1577C225.849 37.1577 225.842 37.1545 225.836 37.1512C225.748 37.1187 225.702 37.0211 225.735 36.9333C225.989 36.2439 226.356 35.6065 226.821 35.0374C227.286 34.4683 227.845 33.987 228.473 33.6065C228.554 33.5577 228.658 33.5837 228.707 33.665C228.756 33.7463 228.73 33.8504 228.649 33.8992C227.455 34.6211 226.535 35.7431 226.054 37.0504C226.024 37.1349 225.936 37.1805 225.852 37.1577Z" fill="#BAF3FF"/>
<path d="M229.023 50.3285C228.99 50.3187 228.958 50.2992 228.935 50.2732C228.824 50.1398 228.717 50 228.619 49.8537C228.509 49.6943 228.408 49.5252 228.317 49.3561C228.271 49.2748 228.304 49.1707 228.385 49.1252C228.466 49.0797 228.571 49.1122 228.616 49.1935C228.704 49.3528 228.798 49.5122 228.902 49.6618C228.967 49.7561 229.039 49.8504 229.11 49.9447C229.679 49.6195 230.229 49.2911 230.782 48.9366C231.501 48.478 232.187 48.0163 232.873 47.5154C232.951 47.4602 233.055 47.4764 233.11 47.5545C233.166 47.6325 233.149 47.7366 233.071 47.7919C232.379 48.2959 231.686 48.7642 230.961 49.226C230.359 49.6065 229.767 49.9642 229.146 50.3154C229.11 50.335 229.065 50.3415 229.023 50.3285Z" fill="#BAF3FF"/>
<path d="M238.096 37.4764C238.041 37.4634 237.995 37.4211 237.979 37.3658C237.751 36.6829 237.419 36.0488 236.987 35.4731C236.932 35.3983 236.945 35.291 237.019 35.2325C237.094 35.1772 237.202 35.1902 237.26 35.265C237.712 35.8699 238.063 36.5366 238.301 37.252C238.33 37.3431 238.281 37.4374 238.193 37.4666C238.164 37.4862 238.128 37.4862 238.096 37.4764Z" fill="#BAF3FF"/>
<path d="M227.237 55.1707C226.958 55.0959 226.795 55.0341 226.71 54.8878C226.606 54.7089 226.665 54.491 226.785 54.0553C226.805 53.987 226.824 53.9089 226.847 53.8244C226.873 53.7333 226.964 53.678 227.055 53.704C227.146 53.7301 227.201 53.8211 227.175 53.9122C227.153 53.9967 227.13 54.0748 227.114 54.1431C227.039 54.4195 226.974 54.6569 227.003 54.7122C227.032 54.761 227.247 54.8162 227.475 54.8748C227.543 54.891 227.621 54.9138 227.705 54.9366C227.797 54.9626 227.852 55.0536 227.826 55.1447C227.8 55.2358 227.709 55.291 227.618 55.265C227.533 55.2423 227.458 55.2227 227.39 55.2065C227.338 55.1967 227.286 55.1837 227.237 55.1707Z" fill="#BAF3FF"/>
<path d="M229.058 33.6195C229.154 33.6195 229.231 33.5423 229.231 33.4471C229.231 33.3519 229.154 33.2748 229.058 33.2748C228.963 33.2748 228.886 33.3519 228.886 33.4471C228.886 33.5423 228.963 33.6195 229.058 33.6195Z" fill="#BAF3FF"/>
<path d="M228.184 48.9463C228.279 48.9463 228.356 48.8692 228.356 48.774C228.356 48.6788 228.279 48.6016 228.184 48.6016C228.088 48.6016 228.011 48.6788 228.011 48.774C228.011 48.8692 228.088 48.9463 228.184 48.9463Z" fill="#BAF3FF"/>
<path d="M238.32 38.0423C238.415 38.0423 238.493 37.9651 238.493 37.8699C238.493 37.7747 238.415 37.6976 238.32 37.6976C238.225 37.6976 238.148 37.7747 238.148 37.8699C238.148 37.9651 238.225 38.0423 238.32 38.0423Z" fill="#BAF3FF"/>
<path d="M228.161 55.3821C228.256 55.3821 228.333 55.3049 228.333 55.2097C228.333 55.1146 228.256 55.0374 228.161 55.0374C228.066 55.0374 227.989 55.1146 227.989 55.2097C227.989 55.3049 228.066 55.3821 228.161 55.3821Z" fill="#BAF3FF"/>
</g>
<rect x="29" y="716" width="312" height="291" fill="white"/>
<line x1="60" y1="796.5" x2="310" y2="796.5" stroke="#1D66C0"/>
<line x1="60" y1="896.5" x2="310" y2="896.5" stroke="#1D66C0"/>
<g opacity="0.4">
<path fill-rule="evenodd" clip-rule="evenodd" d="M272.123 832.07C273.189 829.513 276.811 829.513 277.876 832.07L283.488 845.538C283.941 846.625 285.003 847.333 286.18 847.333H300.938C303.652 847.333 305.01 850.614 303.092 852.533L291.156 864.469C290.407 865.218 290.123 866.314 290.414 867.332L295.147 883.899C295.946 886.697 292.827 888.974 290.406 887.36L276.618 878.167C275.638 877.514 274.362 877.514 273.382 878.167L259.616 887.345C257.187 888.964 254.058 886.679 254.86 883.873L259.586 867.332C259.877 866.314 259.593 865.218 258.844 864.469L246.967 852.592C245.026 850.651 246.401 847.333 249.145 847.333H263.819C264.997 847.333 266.059 846.625 266.511 845.538L272.123 832.07Z" fill="#1D66C0"/>
</g>
<g opacity="0.4">
<path fill-rule="evenodd" clip-rule="evenodd" d="M288.479 933.249C289.84 934.078 290.282 935.869 289.465 937.251L278.853 955.194L286.61 968.31C287.645 968 288.741 967.833 289.875 967.833C296.226 967.833 301.375 973.057 301.375 979.5C301.375 985.943 296.226 991.167 289.875 991.167C283.524 991.167 278.375 985.943 278.375 979.5C278.375 976.311 279.637 973.42 281.681 971.314L275.5 960.863L269.319 971.314C271.363 973.42 272.625 976.311 272.625 979.5C272.625 985.943 267.476 991.167 261.125 991.167C254.774 991.167 249.625 985.943 249.625 979.5C249.625 973.057 254.774 967.833 261.125 967.833C262.259 967.833 263.355 968 264.39 968.31L272.147 955.194L261.535 937.251C260.718 935.869 261.159 934.078 262.521 933.249C263.883 932.42 265.649 932.868 266.465 934.249L275.5 949.525L284.534 934.249C285.351 932.868 287.117 932.42 288.479 933.249Z" fill="#1D66C0"/>
</g>
<path fill-rule="evenodd" clip-rule="evenodd" d="M335 708H35V705H335V708Z" fill="#0E315C"/>
</g>
<defs>
<filter id="filter0_d_1087_25" x="0" y="0" width="370" height="1041" filterUnits="userSpaceOnUse" color-interpolation-filters="sRGB">
<feFlood flood-opacity="0" result="BackgroundImageFix"/>
<feColorMatrix in="SourceAlpha" type="matrix" values="0 0 0 0 0 0 0 0 0 0 0 0 0 0 0 0 0 0 127 0" result="hardAlpha"/>
<feOffset dy="4"/>
<feGaussianBlur stdDeviation="10"/>
<feColorMatrix type="matrix" values="0 0 0 0 0 0 0 0 0 0 0 0 0 0 0 0 0 0 0.1 0"/>
<feBlend mode="normal" in2="BackgroundImageFix" result="effect1_dropShadow_1087_25"/>
<feBlend mode="normal" in="SourceGraphic" in2="effect1_dropShadow_1087_25" result="shape"/>
</filter>
<clipPath id="clip0_1087_25">
<rect width="108.293" height="24" fill="white" transform="translate(131 32)"/>
</clipPath>
</defs>
</svg>
