<?xml version="1.0" encoding="utf-8"?>
<!-- Generator: Adobe Illustrator 25.2.1, SVG Export Plug-In . SVG Version: 6.00 Build 0)  -->
<svg version="1.1" xmlns="http://www.w3.org/2000/svg" xmlns:xlink="http://www.w3.org/1999/xlink" x="0px" y="0px"
	 viewBox="0 0 330 248" style="enable-background:new 0 0 330 248;" xml:space="preserve">
<style type="text/css">
	.st0{fill:#1D66C0;}
	.st1{fill:#FFFFFF;}
	.st2{fill:#BAF3FF;}
	.st3{fill:#FF4B47;}
	.st4{fill-rule:evenodd;clip-rule:evenodd;fill:#0E315C;}
	.st5{fill-rule:evenodd;clip-rule:evenodd;fill:#0B2551;}
	.st6{fill-rule:evenodd;clip-rule:evenodd;fill:#FF4B47;}
	.st7{fill-rule:evenodd;clip-rule:evenodd;fill:#CF393E;}
	.st8{fill-rule:evenodd;clip-rule:evenodd;fill:#FFA44F;}
	.st9{fill-rule:evenodd;clip-rule:evenodd;fill:#CF7C45;}
	.st10{fill-rule:evenodd;clip-rule:evenodd;fill:#1D66C0;}
	.st11{fill-rule:evenodd;clip-rule:evenodd;fill:#184DA9;}
	.st12{fill-rule:evenodd;clip-rule:evenodd;fill:#FFFFFF;}
</style>
<g id="Layer_1">
	<path class="st0" d="M0,0h330v238.9c0,2.3-0.9,4.5-2.5,6.1s-3.8,2.5-6.1,2.5H8.6c-2.3,0-4.5-0.9-6.1-2.5S0,241.2,0,238.9V0z"/>
	<path class="st1" d="M321.4,8.6H8.6v230.3h312.8V8.6z"/>
	<path class="st0" d="M20.2,212.1l4,1.6v1.1l-4.8-2.2V212L20.2,212.1z M24.2,210.7l-4,1.7l-0.8,0.1v-0.7l4.8-2.2V210.7z"/>
	<path class="st0" d="M29.2,212.1l4,1.6v1.1l-4.8-2.2V212L29.2,212.1z M33.3,210.7l-4,1.7l-0.8,0.1v-0.7l4.8-2.2V210.7z"/>
	<path class="st0" d="M38.3,212.1l4,1.6v1.1l-4.8-2.2V212L38.3,212.1z M42.4,210.7l-4,1.7l-0.8,0.1v-0.7l4.8-2.2V210.7z"/>
	<path class="st0" d="M47.4,212.1l4,1.6v1.1l-4.8-2.2V212L47.4,212.1z M51.5,210.7l-4,1.7l-0.8,0.1v-0.7l4.8-2.2V210.7z"/>
	<path class="st0" d="M56.5,212.1l4,1.6v1.1l-4.8-2.2V212L56.5,212.1z M60.5,210.7l-4,1.7l-0.8,0.1v-0.7l4.8-2.2V210.7z"/>
	<path class="st0" d="M65.6,212.1l4,1.6v1.1l-4.8-2.2V212L65.6,212.1z M69.6,210.7l-4,1.7l-0.8,0.1v-0.7l4.8-2.2V210.7z"/>
	<path class="st0" d="M74.7,212.1l4,1.6v1.1l-4.8-2.2V212L74.7,212.1z M78.7,210.7l-4,1.7l-0.8,0.1v-0.7l4.8-2.2V210.7z"/>
	<path class="st0" d="M83.7,212.1l4,1.6v1.1l-4.8-2.2V212L83.7,212.1z M87.8,210.7l-4,1.7l-0.8,0.1v-0.7l4.8-2.2V210.7z"/>
	<path class="st0" d="M92.8,212.1l4,1.6v1.1l-4.8-2.2V212L92.8,212.1z M96.9,210.7l-4,1.7l-0.8,0.1v-0.7l4.8-2.2V210.7z"/>
	<path class="st0" d="M101.9,212.1l4,1.6v1.1l-4.8-2.2V212L101.9,212.1z M106,210.7l-4,1.7l-0.8,0.1v-0.7l4.8-2.2V210.7z"/>
	<path class="st0" d="M111,212.1l4,1.6v1.1l-4.8-2.2V212L111,212.1z M115,210.7l-4,1.7l-0.8,0.1v-0.7l4.8-2.2V210.7z"/>
	<path class="st0" d="M120.1,212.1l4,1.6v1.1l-4.8-2.2V212L120.1,212.1z M124.1,210.7l-4,1.7l-0.8,0.1v-0.7l4.8-2.2V210.7z"/>
	<path class="st0" d="M129.1,212.1l4,1.6v1.1l-4.8-2.2V212L129.1,212.1z M133.2,210.7l-4,1.7l-0.8,0.1v-0.7l4.8-2.2V210.7z"/>
	<path class="st0" d="M138.2,212.1l4,1.6v1.1l-4.8-2.2V212L138.2,212.1z M142.3,210.7l-4,1.7l-0.8,0.1v-0.7l4.8-2.2V210.7z"/>
	<path class="st0" d="M147.3,212.1l4,1.6v1.1l-4.8-2.2V212L147.3,212.1z M151.4,210.7l-4,1.7l-0.8,0.1v-0.7l4.8-2.2V210.7z"/>
	<path class="st0" d="M156.4,212.1l4,1.6v1.1l-4.8-2.2V212L156.4,212.1z M160.4,210.7l-4,1.7l-0.8,0.1v-0.7l4.8-2.2V210.7z"/>
	<path class="st0" d="M165.5,212.1l4,1.6v1.1l-4.8-2.2V212L165.5,212.1z M169.5,210.7l-4,1.7l-0.8,0.1v-0.7l4.8-2.2V210.7z"/>
	<path class="st0" d="M174.6,212.1l4,1.6v1.1l-4.8-2.2V212L174.6,212.1z M178.6,210.7l-4,1.7l-0.8,0.1v-0.7l4.8-2.2V210.7z"/>
	<path class="st0" d="M183.6,212.1l4,1.6v1.1l-4.8-2.2V212L183.6,212.1z M187.7,210.7l-4,1.7l-0.8,0.1v-0.7l4.8-2.2V210.7z"/>
	<path class="st0" d="M192.7,212.1l4,1.6v1.1l-4.8-2.2V212L192.7,212.1z M196.8,210.7l-4,1.7l-0.8,0.1v-0.7l4.8-2.2V210.7z"/>
	<path class="st0" d="M201.8,212.1l4,1.6v1.1l-4.8-2.2V212L201.8,212.1z M205.9,210.7l-4,1.7l-0.8,0.1v-0.7l4.8-2.2V210.7z"/>
	<path class="st0" d="M210.9,212.1l4,1.6v1.1l-4.8-2.2V212L210.9,212.1z M214.9,210.7l-4,1.7l-0.8,0.1v-0.7l4.8-2.2V210.7z"/>
	<path class="st0" d="M220,212.1l4,1.6v1.1l-4.8-2.2V212L220,212.1z M224,210.7l-4,1.7l-0.8,0.1v-0.7l4.8-2.2V210.7z"/>
	<path class="st0" d="M229.1,212.1l4,1.6v1.1l-4.8-2.2V212L229.1,212.1z M233.1,210.7l-4,1.7l-0.8,0.1v-0.7l4.8-2.2V210.7z"/>
	<path class="st0" d="M238.1,212.1l4,1.6v1.1l-4.8-2.2V212L238.1,212.1z M242.2,210.7l-4,1.7l-0.8,0.1v-0.7l4.8-2.2V210.7z"/>
	<path class="st0" d="M247.2,212.1l4,1.6v1.1l-4.8-2.2V212L247.2,212.1z M251.3,210.7l-4,1.7l-0.8,0.1v-0.7l4.8-2.2V210.7z"/>
	<path class="st0" d="M256.3,212.1l4,1.6v1.1l-4.8-2.2V212L256.3,212.1z M260.3,210.7l-4,1.7l-0.8,0.1v-0.7l4.8-2.2V210.7z"/>
	<path class="st0" d="M265.4,212.1l4,1.6v1.1l-4.8-2.2V212L265.4,212.1z M269.4,210.7l-4,1.7l-0.8,0.1v-0.7l4.8-2.2V210.7z"/>
	<path class="st0" d="M274.5,212.1l4,1.6v1.1l-4.8-2.2V212L274.5,212.1z M278.5,210.7l-4,1.7l-0.8,0.1v-0.7l4.8-2.2V210.7z"/>
	<path class="st0" d="M283.5,212.1l4,1.6v1.1l-4.8-2.2V212L283.5,212.1z M287.6,210.7l-4,1.7l-0.8,0.1v-0.7l4.8-2.2V210.7z"/>
	<path class="st0" d="M292.6,212.1l4,1.6v1.1l-4.8-2.2V212L292.6,212.1z M296.7,210.7l-4,1.7l-0.8,0.1v-0.7l4.8-2.2V210.7z"/>
	<path class="st0" d="M301.7,212.1l4,1.6v1.1l-4.8-2.2V212L301.7,212.1z M305.8,210.7l-4,1.7l-0.8,0.1v-0.7l4.8-2.2V210.7z"/>
	<path class="st0" d="M20.2,226.1l4,1.6v1.1l-4.8-2.2V226L20.2,226.1z M24.2,224.7l-4,1.7l-0.8,0.1v-0.7l4.8-2.2V224.7z"/>
	<path class="st0" d="M29.2,226.1l4,1.6v1.1l-4.8-2.2V226L29.2,226.1z M33.3,224.7l-4,1.7l-0.8,0.1v-0.7l4.8-2.2V224.7z"/>
	<path class="st0" d="M38.3,226.1l4,1.6v1.1l-4.8-2.2V226L38.3,226.1z M42.4,224.7l-4,1.7l-0.8,0.1v-0.7l4.8-2.2V224.7z"/>
	<path class="st0" d="M47.4,226.1l4,1.6v1.1l-4.8-2.2V226L47.4,226.1z M51.5,224.7l-4,1.7l-0.8,0.1v-0.7l4.8-2.2V224.7z"/>
	<path class="st0" d="M56.5,226.1l4,1.6v1.1l-4.8-2.2V226L56.5,226.1z M60.5,224.7l-4,1.7l-0.8,0.1v-0.7l4.8-2.2V224.7z"/>
	<path class="st0" d="M65.6,226.1l4,1.6v1.1l-4.8-2.2V226L65.6,226.1z M69.6,224.7l-4,1.7l-0.8,0.1v-0.7l4.8-2.2V224.7z"/>
	<path class="st0" d="M74.7,226.1l4,1.6v1.1l-4.8-2.2V226L74.7,226.1z M78.7,224.7l-4,1.7l-0.8,0.1v-0.7l4.8-2.2V224.7z"/>
	<path class="st0" d="M83.7,226.1l4,1.6v1.1l-4.8-2.2V226L83.7,226.1z M87.8,224.7l-4,1.7l-0.8,0.1v-0.7l4.8-2.2V224.7z"/>
	<path class="st0" d="M92.8,226.1l4,1.6v1.1l-4.8-2.2V226L92.8,226.1z M96.9,224.7l-4,1.7l-0.8,0.1v-0.7l4.8-2.2V224.7z"/>
	<path class="st0" d="M101.9,226.1l4,1.6v1.1l-4.8-2.2V226L101.9,226.1z M106,224.7l-4,1.7l-0.8,0.1v-0.7l4.8-2.2V224.7z"/>
	<path class="st0" d="M111,226.1l4,1.6v1.1l-4.8-2.2V226L111,226.1z M115,224.7l-4,1.7l-0.8,0.1v-0.7l4.8-2.2V224.7z"/>
	<path class="st0" d="M120.1,226.1l4,1.6v1.1l-4.8-2.2V226L120.1,226.1z M124.1,224.7l-4,1.7l-0.8,0.1v-0.7l4.8-2.2V224.7z"/>
	<path class="st0" d="M129.1,226.1l4,1.6v1.1l-4.8-2.2V226L129.1,226.1z M133.2,224.7l-4,1.7l-0.8,0.1v-0.7l4.8-2.2V224.7z"/>
	<path class="st0" d="M138.2,226.1l4,1.6v1.1l-4.8-2.2V226L138.2,226.1z M142.3,224.7l-4,1.7l-0.8,0.1v-0.7l4.8-2.2V224.7z"/>
	<path class="st0" d="M147.3,226.1l4,1.6v1.1l-4.8-2.2V226L147.3,226.1z M151.4,224.7l-4,1.7l-0.8,0.1v-0.7l4.8-2.2V224.7z"/>
	<path class="st0" d="M156.4,226.1l4,1.6v1.1l-4.8-2.2V226L156.4,226.1z M160.4,224.7l-4,1.7l-0.8,0.1v-0.7l4.8-2.2V224.7z"/>
	<path class="st0" d="M165.5,226.1l4,1.6v1.1l-4.8-2.2V226L165.5,226.1z M169.5,224.7l-4,1.7l-0.8,0.1v-0.7l4.8-2.2V224.7z"/>
	<path class="st0" d="M174.6,226.1l4,1.6v1.1l-4.8-2.2V226L174.6,226.1z M178.6,224.7l-4,1.7l-0.8,0.1v-0.7l4.8-2.2V224.7z"/>
	<path class="st0" d="M183.6,226.1l4,1.6v1.1l-4.8-2.2V226L183.6,226.1z M187.7,224.7l-4,1.7l-0.8,0.1v-0.7l4.8-2.2V224.7z"/>
	<path class="st0" d="M192.7,226.1l4,1.6v1.1l-4.8-2.2V226L192.7,226.1z M196.8,224.7l-4,1.7l-0.8,0.1v-0.7l4.8-2.2V224.7z"/>
	<path class="st0" d="M201.8,226.1l4,1.6v1.1l-4.8-2.2V226L201.8,226.1z M205.9,224.7l-4,1.7l-0.8,0.1v-0.7l4.8-2.2V224.7z"/>
	<path class="st0" d="M210.9,226.1l4,1.6v1.1l-4.8-2.2V226L210.9,226.1z M214.9,224.7l-4,1.7l-0.8,0.1v-0.7l4.8-2.2V224.7z"/>
	<path class="st0" d="M220,226.1l4,1.6v1.1l-4.8-2.2V226L220,226.1z M224,224.7l-4,1.7l-0.8,0.1v-0.7l4.8-2.2V224.7z"/>
	<path class="st0" d="M229.1,226.1l4,1.6v1.1l-4.8-2.2V226L229.1,226.1z M233.1,224.7l-4,1.7l-0.8,0.1v-0.7l4.8-2.2V224.7z"/>
	<path class="st0" d="M238.1,226.1l4,1.6v1.1l-4.8-2.2V226L238.1,226.1z M242.2,224.7l-4,1.7l-0.8,0.1v-0.7l4.8-2.2V224.7z"/>
	<path class="st0" d="M247.2,226.1l4,1.6v1.1l-4.8-2.2V226L247.2,226.1z M251.3,224.7l-4,1.7l-0.8,0.1v-0.7l4.8-2.2V224.7z"/>
	<path class="st0" d="M256.3,226.1l4,1.6v1.1l-4.8-2.2V226L256.3,226.1z M260.3,224.7l-4,1.7l-0.8,0.1v-0.7l4.8-2.2V224.7z"/>
	<path class="st0" d="M265.4,226.1l4,1.6v1.1l-4.8-2.2V226L265.4,226.1z M269.4,224.7l-4,1.7l-0.8,0.1v-0.7l4.8-2.2V224.7z"/>
	<path class="st0" d="M274.5,226.1l4,1.6v1.1l-4.8-2.2V226L274.5,226.1z M278.5,224.7l-4,1.7l-0.8,0.1v-0.7l4.8-2.2V224.7z"/>
	<path class="st0" d="M283.5,226.1l4,1.6v1.1l-4.8-2.2V226L283.5,226.1z M287.6,224.7l-4,1.7l-0.8,0.1v-0.7l4.8-2.2V224.7z"/>
	<path class="st0" d="M292.6,226.1l4,1.6v1.1l-4.8-2.2V226L292.6,226.1z M296.7,224.7l-4,1.7l-0.8,0.1v-0.7l4.8-2.2V224.7z"/>
	<path class="st0" d="M301.7,226.1l4,1.6v1.1l-4.8-2.2V226L301.7,226.1z M305.8,224.7l-4,1.7l-0.8,0.1v-0.7l4.8-2.2V224.7z"/>
</g>
<g id="Logo_Inline">
	<g id="Adventour_1_">
		<g id="Blue">
			<path class="st2" d="M125.1,19.3c0.1,0,0.2-0.1,0.3-0.1c0.1,0,0.2,0,0.2,0.2s-0.1,0.2-0.3,0.3c-0.2,0.1-0.4,0-0.4-0.2
				C124.9,19.5,124.9,19.4,125.1,19.3z M120,25.5c1.4-2.6,2.6-4.5,4-5.5c0.2-0.1,0.3-0.2,0.4-0.2s0.1,0,0.1,0.1
				c0,0.1-0.1,0.3-0.3,0.5c-1.2,0.9-2.1,2.3-3.8,5.4c-0.1,0.1-0.2,0.2-0.4,0.2c-0.1,0-0.2,0-0.2-0.1C119.9,25.7,119.9,25.6,120,25.5
				z M136.4,23.8c0-0.1,0-0.1,0-0.2c0.1-0.5,0.2-1,0.2-1.4c0-0.2,0-0.4-0.1-0.7c0-0.2-0.1-0.4-0.1-0.5c0-0.2,0.1-0.2,0.2-0.2
				c0.1,0,0.3,0.1,0.3,0.4c0.1,0.4,0.1,0.7,0.1,1c0,0.3-0.1,0.8-0.2,1.5c0,0.2-0.1,0.3-0.3,0.3C136.5,24.1,136.4,24,136.4,23.8
				 M136.1,24.8c0-0.2,0.2-0.3,0.3-0.3s0.2,0.1,0.2,0.2c0,0.1,0,0.1,0,0.2c-0.1,0.3-0.2,0.6-0.3,0.8c-0.1,0.2-0.2,0.4-0.3,0.4
				c-0.1,0-0.1-0.1-0.1-0.2c0-0.1,0-0.2,0-0.3L136.1,24.8z M130.8,26.5c0.1-0.1,0.3-0.1,0.5-0.2c0.3-0.1,0.4,0,0.4,0.2
				c0,0.1-0.1,0.2-0.2,0.3l-0.4,0.2c-0.2,0.1-0.4,0-0.4-0.2C130.6,26.7,130.6,26.6,130.8,26.5z M129.3,27.6c0.1-0.2,0.3-0.3,0.5-0.5
				c0.1-0.1,0.2-0.2,0.4-0.2s0.2,0.1,0.2,0.2c0,0.1-0.1,0.2-0.2,0.3c-0.2,0.2-0.4,0.3-0.5,0.5c-0.1,0.1-0.2,0.1-0.3,0.1
				c-0.1,0-0.2-0.1-0.2-0.2c0,0,0,0,0,0C129.1,27.8,129.1,27.7,129.3,27.6z M127.8,36.4c-0.6,0-1.2-0.3-1.5-0.8
				c0-0.1-0.1-0.2-0.1-0.2c0-0.1,0.1-0.2,0.2-0.2c0.1,0,0.2,0,0.2,0.1c0.2,0.4,0.6,0.7,1.1,0.7c0.2,0,0.4,0.1,0.4,0.3
				C128.2,36.2,128,36.4,127.8,36.4L127.8,36.4z M134,36.9c-0.8,0-1.4-0.5-1.5-1.2c-0.1-0.3,0-0.5,0.2-0.5c0.1,0,0.2,0.1,0.3,0.3
				c0.1,0.5,0.5,0.9,1.1,0.9c0.3,0,0.4,0.1,0.4,0.3C134.4,36.8,134.2,36.9,134,36.9L134,36.9L134,36.9z M128.7,36.2
				c-0.1,0-0.2-0.1-0.2-0.2c0-0.2,0.1-0.3,0.3-0.3c0.1,0,0.2,0.1,0.2,0.2C129.1,36,129,36.2,128.7,36.2z M140,27.8
				c0,0.2-0.1,0.3-0.3,0.3c-0.1,0-0.2-0.1-0.2-0.2l0-0.2c0.2-0.4,0.2-1.1,0.2-1.2c0-0.2,0.1-0.3,0.2-0.3c0.2,0,0.3,0.2,0.3,0.4
				C140.2,26.8,140.2,27.3,140,27.8L140,27.8z M146.1,30.1c0,0.2-0.1,0.3-0.2,0.3s-0.2-0.1-0.2-0.3c0-0.1,0-0.1,0-0.2
				c0.1-0.2,0.1-0.5,0.2-0.7c0-0.3,0.2-0.4,0.3-0.4c0.1,0,0.2,0.1,0.2,0.4c0,0.1,0,0.2,0,0.2C146.3,29.6,146.2,29.8,146.1,30.1
				L146.1,30.1z M141.8,35.4c-0.2,0.1-0.3,0.1-0.3,0.1c-0.1,0-0.2,0-0.2-0.2c0-0.1,0.1-0.3,0.3-0.4c1.4-0.8,2.7-2.1,3.5-3.7
				c0.1-0.3,0.3-0.4,0.4-0.4c0.1,0,0.1,0.1,0.1,0.2c0,0.1,0,0.3-0.1,0.4C144.6,33.2,143.3,34.5,141.8,35.4z M151.7,26.5
				c0.1,0,0.2,0.1,0.2,0.2c0,0.1-0.1,0.3-0.3,0.3c-0.2,0.1-0.3,0-0.3-0.2c0-0.1,0.1-0.2,0.2-0.3L151.7,26.5z M149.8,27.8
				c0.2-0.2,0.5-0.4,0.7-0.6c0.1-0.1,0.2-0.1,0.3-0.1s0.1,0,0.1,0.2c0,0.1-0.1,0.3-0.2,0.4c-0.1,0.1-0.4,0.3-0.6,0.6
				c-0.1,0-0.1,0.1-0.2,0.1c-0.1,0-0.2-0.1-0.2-0.2l0,0C149.7,28,149.8,27.9,149.8,27.8L149.8,27.8z M149.2,36.1
				c-0.4-0.1-0.6-0.3-0.8-0.6c-0.1-0.1-0.1-0.2-0.1-0.3c0-0.1,0-0.2,0.2-0.2c0.1,0,0.2,0,0.3,0.1c0.2,0.2,0.4,0.4,0.6,0.5
				c0.1,0.1,0.2,0.2,0.2,0.3c0,0.1-0.1,0.2-0.2,0.2L149.2,36.1z M150.2,36.5c-0.2,0-0.3-0.1-0.3-0.2c0-0.2,0.1-0.3,0.3-0.3h0.1
				c0.2,0,0.3,0.1,0.3,0.2C150.6,36.4,150.5,36.5,150.2,36.5L150.2,36.5L150.2,36.5z M159,26.4c-0.2,0.2-0.4,0-0.4-0.2
				s0.2-0.3,0.4-0.3c0.1,0,0.2,0.1,0.2,0.2c0,0,0,0,0,0C159.2,26.1,159.2,26.2,159,26.4L159,26.4z M158.1,27.8
				c-0.1,0.2-0.2,0.3-0.3,0.3c-0.1,0-0.2-0.1-0.2-0.2c0-0.1,0-0.2,0.1-0.3l0.4-0.9c0.1-0.1,0.2-0.2,0.3-0.2c0.1,0,0.2,0.1,0.2,0.2
				c0,0.1,0,0.1-0.1,0.2C158.4,27.3,158.3,27.5,158.1,27.8L158.1,27.8z M162.7,27.9c-0.1,0.1-0.1,0.1-0.2,0.1
				c-0.1,0-0.2-0.1-0.2-0.2c0-0.1,0-0.2,0.1-0.2c0.7-0.7,1.3-1,1.7-1c0.2,0,0.3,0,0.3,0.2s-0.1,0.3-0.3,0.3
				C163.7,27.1,163.1,27.4,162.7,27.9L162.7,27.9z M161.8,36.9c-0.2,0-0.3,0-0.4,0c-0.7,0-1-0.4-1-1.3c0-0.4,0.1-0.6,0.3-0.6
				c0.1,0,0.2,0.1,0.2,0.3v0c-0.1,0.7,0.1,0.9,0.6,0.9c0.1,0,0.2,0,0.3,0c0.1,0,0.2,0,0.3,0c0.1,0,0.1,0.1,0.1,0.1
				C162.2,36.7,162.1,36.9,161.8,36.9L161.8,36.9z M168.3,26.2c0.1-0.3,0.3-0.7,0.5-1c0.2-0.4,0.3-0.6,0.4-0.7
				c0.1-0.1,0.2-0.2,0.3-0.2c0.2,0,0.2,0.1,0.2,0.2c0,0.1,0,0.1-0.1,0.2l-0.9,1.5c-0.1,0.2-0.2,0.3-0.3,0.3c-0.1,0-0.2-0.1-0.2-0.2
				C168.3,26.3,168.3,26.3,168.3,26.2L168.3,26.2z M167.8,36.5c-1.1,0-1.8-0.5-2.1-1.4c0-0.1-0.1-0.2-0.1-0.3c0-0.2,0.1-0.3,0.2-0.3
				c0.1,0,0.2,0.1,0.3,0.3c0.2,0.7,0.8,1.1,1.7,1.1c0.3,0,0.4,0.1,0.4,0.2S168.1,36.5,167.8,36.5L167.8,36.5z M177.4,26.6
				c-0.2,0-0.3-0.1-0.3-0.2s0.1-0.3,0.4-0.3c0.2,0,0.3,0.1,0.3,0.2C177.7,26.4,177.6,26.6,177.4,26.6L177.4,26.6z M175.2,27.9
				c-0.1,0.1-0.1,0.1-0.2,0.1c-0.1,0-0.2-0.1-0.2-0.2c0,0,0,0,0,0c0-0.1,0-0.2,0.1-0.2c0.5-0.5,1-0.9,1.6-1.1c0.2-0.1,0.4,0,0.4,0.1
				c0,0.1-0.1,0.2-0.2,0.3C176,27.1,175.6,27.4,175.2,27.9L175.2,27.9z M178.4,30.1c-0.6-0.5-1-1.4-1-2.2c0-0.2,0.1-0.4,0.2-0.4
				c0.1,0,0.2,0.2,0.3,0.4c0,0.6,0.4,1.3,0.8,1.7c0.1,0.1,0.2,0.2,0.2,0.3c0,0.2-0.1,0.2-0.2,0.2C178.6,30.3,178.5,30.2,178.4,30.1
				L178.4,30.1z M174.5,36.5c-0.9,0-1.7-0.6-2-1.5c0-0.1-0.1-0.2-0.1-0.3c0-0.2,0.1-0.3,0.2-0.3c0.1,0,0.2,0.1,0.3,0.3
				c0.2,0.8,0.8,1.3,1.6,1.4c0.2,0,0.4,0.1,0.4,0.3C174.8,36.4,174.7,36.5,174.5,36.5L174.5,36.5L174.5,36.5z M183.2,27.7
				c0.1-0.4,0.2-0.7,0.3-1.1c0-0.2,0.1-0.3,0.2-0.3c0.1,0,0.2,0.1,0.2,0.3v0.1c0,0.4-0.1,0.7-0.3,1.2c-0.1,0.2-0.2,0.3-0.3,0.3
				c-0.1,0-0.2-0.1-0.2-0.2C183.2,27.7,183.2,27.7,183.2,27.7L183.2,27.7z M187.1,37c-0.7,0-1.2-0.5-1.2-1.4c0-0.3,0.1-0.5,0.3-0.5
				c0.1,0,0.2,0.1,0.2,0.3v0.1c-0.1,0.7,0.2,1,0.7,1c0.1,0,0.2,0.1,0.2,0.2C187.4,36.9,187.3,37,187.1,37z M193.2,24.6
				c-0.1,0-0.1,0-0.2,0c-0.1,0-0.2,0-0.2-0.2c0-0.3,0.3-0.4,0.5-0.4s0.2,0,0.2,0.2S193.4,24.5,193.2,24.6L193.2,24.6z M192.6,24.6
				c0.1,0,0.2,0.1,0.2,0.2c0,0.1,0,0.2-0.1,0.2c-0.2,0.2-0.3,0.5-0.3,0.8c0,0.2-0.1,0.4-0.3,0.4c-0.1,0-0.2-0.1-0.2-0.4l0,0
				c0-0.4,0.1-0.8,0.4-1.1C192.4,24.6,192.5,24.6,192.6,24.6 M194.3,34.6c0-1.4,0.9-3.7,2-5.8c0.1-0.2,0.2-0.3,0.3-0.3
				s0.2,0.1,0.2,0.2c0,0.1,0,0.2-0.1,0.3c-1,1.8-1.9,4.2-1.9,5.6c0,0.3-0.1,0.5-0.3,0.5c0,0-0.1,0-0.1-0.1
				C194.3,34.9,194.3,34.8,194.3,34.6L194.3,34.6z M195.3,36.4c-0.3-0.1-0.5-0.3-0.7-0.5c0-0.1,0-0.1,0-0.2c0-0.2,0.1-0.3,0.2-0.3
				s0.2,0,0.2,0.1c0.1,0.2,0.3,0.3,0.5,0.4c0.1,0,0.1,0.1,0.1,0.2C195.6,36.3,195.5,36.4,195.3,36.4L195.3,36.4z"/>
			<path class="st2" d="M187.1,37.1c-0.8,0-1.2-0.5-1.2-1.4c0-0.3,0.1-0.5,0.3-0.5c0.1,0,0.2,0.1,0.2,0.3v0.1c0,0.3,0,0.6,0.2,0.8
				c0.1,0.1,0.3,0.2,0.5,0.2h0h0c0.2,0,0.3,0.1,0.3,0.3v0v0C187.4,37,187.3,37.1,187.1,37.1z M186.2,35.2c-0.1,0-0.2,0.2-0.2,0.4
				c0,0.8,0.4,1.3,1.1,1.3c0.2,0,0.2-0.1,0.2-0.2c0-0.1-0.1-0.2-0.2-0.2c-0.2,0-0.4-0.1-0.6-0.2c-0.2-0.2-0.3-0.5-0.2-0.9v-0.1
				C186.4,35.3,186.3,35.2,186.2,35.2z M161.5,37c-0.7,0-1-0.4-1-1.3c0-0.4,0.1-0.6,0.3-0.6c0.1,0,0.2,0.2,0.2,0.4v0.1
				c0,0.4,0,0.6,0.1,0.7c0.1,0.1,0.2,0.2,0.5,0.2c0.1,0,0.2,0,0.2,0h0c0.1,0,0.2,0,0.3,0l0,0l0,0c0.1,0.1,0.1,0.1,0.1,0.2
				c0,0.1-0.2,0.3-0.4,0.4c-0.1,0-0.1,0-0.2,0C161.6,37,161.5,37,161.5,37z M160.7,35.2c-0.1,0-0.2,0.2-0.2,0.5
				c0,0.8,0.3,1.2,0.9,1.2c0,0,0.1,0,0.2,0c0.1,0,0.1,0,0.2,0l0,0c0.2,0,0.4-0.2,0.4-0.3c0,0,0-0.1-0.1-0.1c-0.1,0-0.2,0-0.3,0
				c-0.1,0-0.1,0-0.3,0c-0.2,0-0.4-0.1-0.5-0.2c-0.1-0.2-0.2-0.4-0.2-0.8v0C160.9,35.3,160.8,35.2,160.7,35.2z M134,37
				c-0.8,0-1.4-0.5-1.6-1.3c0-0.2,0-0.3,0.1-0.4c0-0.1,0.1-0.1,0.2-0.1c0.1,0,0.3,0.1,0.3,0.4c0.1,0.5,0.5,0.8,1,0.9
				c0.3,0,0.4,0.2,0.4,0.3C134.4,36.8,134.3,37,134,37z M132.6,35.2C132.6,35.2,132.5,35.3,132.6,35.2c-0.1,0.1-0.2,0.2-0.1,0.4
				c0.2,0.7,0.7,1.2,1.5,1.2c0.2,0,0.4,0,0.4-0.2c0-0.1-0.1-0.2-0.4-0.2c-0.6,0-1-0.4-1.1-0.9C132.8,35.4,132.7,35.2,132.6,35.2z
				 M150.3,36.5h-0.1c-0.3,0-0.3-0.2-0.3-0.3c0-0.2,0.1-0.3,0.4-0.3h0.1c0.2,0,0.3,0.2,0.3,0.3C150.6,36.4,150.5,36.5,150.3,36.5z
				 M150.2,36.5L150.2,36.5c0.3,0,0.4-0.1,0.4-0.2c0-0.1-0.1-0.2-0.2-0.2h-0.1c-0.1,0-0.3,0-0.3,0.2C150,36.4,150,36.4,150.2,36.5z
				 M174.5,36.5L174.5,36.5c-1,0-1.7-0.6-2.1-1.6c0-0.1-0.1-0.2-0.1-0.3c0-0.3,0.1-0.3,0.3-0.3c0.1,0,0.3,0.1,0.3,0.3
				c0.2,0.8,0.8,1.3,1.5,1.3c0.3,0,0.4,0.1,0.4,0.3C174.9,36.4,174.8,36.5,174.5,36.5L174.5,36.5L174.5,36.5z M172.6,34.4
				c-0.1,0-0.2,0-0.2,0.2c0,0.1,0,0.2,0.1,0.3v0c0.3,0.9,1,1.4,1.9,1.5l0,0h0.1c0.3,0,0.3-0.1,0.3-0.1c0-0.1,0-0.2-0.3-0.2
				c-0.8,0-1.4-0.5-1.6-1.4v0C172.8,34.5,172.7,34.4,172.6,34.4z M167.8,36.5L167.8,36.5c-1.1,0-1.8-0.5-2.1-1.4
				c0-0.1-0.1-0.2-0.1-0.3c0-0.2,0.1-0.3,0.2-0.3c0.1,0,0.3,0.1,0.3,0.4c0.2,0.7,0.8,1.1,1.6,1.1c0.3,0,0.4,0.1,0.4,0.3
				S168.1,36.5,167.8,36.5z M165.9,34.6c-0.1,0-0.1,0.1-0.1,0.2c0,0.1,0,0.2,0.1,0.3c0.3,0.8,1,1.3,2,1.3c0.2,0,0.4-0.1,0.4-0.2
				c0-0.1-0.1-0.2-0.4-0.2c-0.9,0-1.5-0.4-1.7-1.2C166,34.7,166,34.6,165.9,34.6z M195.3,36.4L195.3,36.4L195.3,36.4
				c-0.4-0.1-0.6-0.3-0.8-0.5l0,0c0-0.1-0.1-0.2-0.1-0.2c0-0.2,0.1-0.3,0.3-0.3c0.1,0,0.2,0.1,0.2,0.1c0.1,0.2,0.3,0.3,0.5,0.4
				c0.1,0,0.2,0.1,0.2,0.2C195.6,36.3,195.5,36.4,195.3,36.4z M195.3,36.3L195.3,36.3c0.1,0,0.3-0.1,0.3-0.2v0c0-0.1,0-0.1-0.1-0.1
				h0c-0.3-0.1-0.4-0.2-0.5-0.4l0,0c0-0.1-0.1-0.1-0.1-0.1c-0.1,0-0.2,0.1-0.2,0.2c0,0.1,0,0.1,0,0.2
				C194.8,36.1,195,36.2,195.3,36.3z M127.8,36.4c-0.6,0-1.2-0.3-1.5-0.8c0-0.1-0.1-0.2-0.1-0.3c0-0.1,0.1-0.3,0.3-0.3
				c0.1,0,0.2,0.1,0.2,0.1c0.2,0.4,0.6,0.6,1.1,0.6c0.2,0,0.4,0.2,0.4,0.3C128.2,36.3,128.1,36.4,127.8,36.4z M126.5,35.1
				c-0.1,0-0.2,0.1-0.2,0.2c0,0.1,0,0.1,0.1,0.2c0.3,0.5,0.8,0.8,1.4,0.8c0.2,0,0.3-0.1,0.3-0.2c0-0.1-0.1-0.2-0.3-0.2
				c-0.5,0-1-0.3-1.2-0.7l0,0C126.6,35.2,126.6,35.1,126.5,35.1z M149.4,36.2L149.4,36.2l-0.2-0.1c-0.4-0.2-0.6-0.4-0.8-0.6
				c-0.1-0.1-0.1-0.2-0.1-0.3c0-0.1,0.1-0.2,0.2-0.2c0.1,0,0.2,0,0.3,0.2c0.2,0.2,0.4,0.4,0.6,0.5c0.2,0.1,0.2,0.2,0.2,0.3
				C149.7,36.2,149.6,36.2,149.4,36.2z M149.2,36.1l0.2,0c0.1,0,0.2,0,0.2-0.1c0-0.1-0.1-0.2-0.2-0.2c-0.2-0.1-0.4-0.3-0.6-0.5
				c-0.1-0.1-0.2-0.1-0.3-0.1c-0.1,0-0.1,0-0.1,0.1c0,0.1,0,0.2,0.1,0.3l0,0C148.6,35.8,148.9,36,149.2,36.1z M128.7,36.2
				c-0.2,0-0.3-0.1-0.3-0.2c0-0.2,0.2-0.3,0.4-0.3c0.1,0,0.3,0.1,0.3,0.3C129.1,36.1,129,36.2,128.7,36.2z M128.8,35.7
				c-0.2,0-0.3,0.1-0.3,0.2c0,0.1,0.1,0.1,0.2,0.1c0.2,0,0.3-0.1,0.3-0.2C129,35.8,128.9,35.7,128.8,35.7z M141.4,35.5
				c-0.2,0-0.2-0.1-0.2-0.2c0-0.2,0.1-0.3,0.4-0.4c1.4-0.8,2.7-2.1,3.5-3.7c0.2-0.3,0.3-0.4,0.4-0.4c0.1,0,0.2,0,0.2,0.3
				c0,0.1,0,0.3-0.1,0.4c-0.9,1.6-2.2,3-3.7,3.9l0,0l-0.1,0C141.6,35.5,141.5,35.5,141.4,35.5z M145.5,30.9c-0.1,0-0.2,0.1-0.3,0.4
				c-0.8,1.6-2.1,2.9-3.5,3.7c-0.2,0.1-0.3,0.2-0.3,0.4c0,0.1,0,0.1,0.1,0.1c0.1,0,0.1,0,0.3-0.1l0.1,0c1.5-0.9,2.9-2.2,3.7-3.8
				c0.1-0.1,0.1-0.3,0.1-0.4C145.6,30.9,145.5,30.9,145.5,30.9z M194.5,35.2c-0.1,0-0.1-0.1-0.2-0.2c-0.1-0.1-0.1-0.2-0.1-0.4
				c0-1.2,0.7-3.4,2-5.9c0.1-0.1,0.2-0.3,0.4-0.3c0.1,0,0.2,0.1,0.2,0.3c0,0.1,0,0.2-0.1,0.3c-1.1,1.9-1.9,4.2-1.9,5.5
				C194.8,35,194.7,35.2,194.5,35.2z M196.6,28.6c-0.1,0-0.2,0.1-0.3,0.2c-1.2,2.4-2,4.6-2,5.8c0,0.1,0,0.2,0.1,0.3l0,0
				c0.1,0.1,0.1,0.1,0.1,0.1c0.2,0,0.2-0.2,0.2-0.4c0-1.3,0.8-3.7,1.9-5.6c0.1-0.1,0.1-0.2,0.1-0.3
				C196.7,28.6,196.7,28.6,196.6,28.6z M145.9,30.4c-0.2,0-0.3-0.2-0.3-0.4c0-0.1,0-0.1,0-0.2c0.1-0.2,0.1-0.4,0.2-0.7
				c0-0.3,0.2-0.4,0.3-0.4c0.1,0,0.3,0.1,0.3,0.4c0,0.1,0,0.2,0,0.2c0,0.2-0.1,0.4-0.2,0.7C146.1,30.2,146.1,30.4,145.9,30.4z
				 M146.1,28.9c-0.1,0-0.2,0.1-0.2,0.3v0c-0.1,0.2-0.1,0.5-0.2,0.7l0,0c0,0,0,0.1,0,0.1c0,0.2,0.1,0.3,0.2,0.3c0.1,0,0.1,0,0.2-0.2
				l0,0c0.1-0.3,0.2-0.5,0.2-0.7l0,0c0-0.1,0-0.1,0-0.2C146.3,28.9,146.1,28.9,146.1,28.9z M178.7,30.3c-0.1,0-0.2-0.1-0.3-0.2
				c-0.6-0.5-1-1.4-1-2.2c0-0.4,0.1-0.4,0.2-0.4c0.1,0,0.3,0.2,0.3,0.4v0c0,0.6,0.4,1.3,0.8,1.7c0.1,0.1,0.2,0.2,0.2,0.3
				C178.9,30.3,178.8,30.3,178.7,30.3z M177.6,27.7c-0.1,0-0.1,0.2-0.1,0.3c0,0.8,0.4,1.7,1,2.1l0,0c0.1,0.1,0.2,0.1,0.2,0.1
				c0.1,0,0.1,0,0.1-0.2c0-0.1,0-0.2-0.1-0.3c-0.5-0.4-0.8-1.1-0.8-1.8C177.8,27.8,177.7,27.7,177.6,27.7z M150,28.3
				c-0.1,0-0.3-0.1-0.3-0.3c0-0.1,0-0.2,0.1-0.3c0.2-0.2,0.5-0.4,0.7-0.6c0.1-0.1,0.2-0.2,0.3-0.2c0.1,0,0.2,0,0.2,0.2
				c0,0.1-0.1,0.3-0.2,0.4c-0.2,0.2-0.4,0.4-0.6,0.6C150.1,28.3,150,28.3,150,28.3z M150.9,27.1c-0.1,0-0.2,0-0.3,0.1
				c-0.3,0.2-0.5,0.4-0.7,0.6l0,0c0,0-0.1,0.1-0.1,0.2c0,0.1,0.1,0.2,0.2,0.2c0.1,0,0.1,0,0.2-0.1c0.2-0.2,0.5-0.4,0.6-0.6
				c0.1-0.1,0.2-0.2,0.2-0.3C151,27.1,150.9,27.1,150.9,27.1z M157.8,28.2c-0.2,0-0.2-0.2-0.2-0.3c0-0.1,0-0.2,0.1-0.3l0.4-0.9
				c0.1-0.1,0.2-0.2,0.3-0.2c0.1,0,0.3,0.1,0.3,0.3c0,0.1,0,0.2-0.1,0.2c-0.2,0.3-0.3,0.5-0.4,0.8C158.1,28,158,28.2,157.8,28.2z
				 M158.2,26.8l-0.4,0.8c0,0.1-0.1,0.2-0.1,0.3c0,0.2,0.1,0.2,0.1,0.2c0.1,0,0.2-0.1,0.3-0.3v0c0.1-0.3,0.3-0.6,0.5-0.8l0,0
				c0,0,0.1-0.1,0.1-0.2c0-0.1-0.1-0.2-0.2-0.2C158.3,26.6,158.3,26.7,158.2,26.8z M129.3,28.2c-0.1,0-0.2-0.1-0.2-0.2v0
				c0-0.1,0.1-0.2,0.2-0.3c0.2-0.2,0.3-0.3,0.5-0.5c0.1-0.1,0.3-0.2,0.4-0.2c0.1,0,0.2,0.1,0.2,0.2c0,0.1-0.1,0.3-0.2,0.3
				c-0.2,0.1-0.4,0.3-0.5,0.5C129.5,28.1,129.4,28.2,129.3,28.2z M130.1,27c-0.1,0-0.2,0.1-0.3,0.2l0,0c-0.2,0.1-0.4,0.3-0.5,0.5
				l0,0c-0.1,0.1-0.2,0.2-0.2,0.3v0c0,0.1,0.1,0.1,0.1,0.1c0.1,0,0.2,0,0.3-0.1c0.2-0.2,0.4-0.3,0.5-0.5l0,0
				c0.1-0.1,0.2-0.2,0.2-0.3C130.3,27.1,130.2,27,130.1,27z M139.7,28.1c-0.1,0-0.2-0.1-0.2-0.3v0l0.1-0.2c0.2-0.4,0.2-1,0.2-1.1
				c0-0.2,0.1-0.4,0.3-0.4c0.2,0,0.3,0.2,0.3,0.4c0,0.3-0.1,0.7-0.2,1.2C140,28,139.9,28.1,139.7,28.1z M139.6,27.9
				c0,0.1,0,0.2,0.1,0.2c0.1,0,0.2-0.1,0.3-0.2v0c0.1-0.5,0.2-0.9,0.2-1.2c0-0.2-0.1-0.3-0.2-0.3c-0.1,0-0.2,0.1-0.2,0.3
				c0,0.2,0,0.8-0.2,1.2L139.6,27.9z M183.3,28.1c-0.2,0-0.2-0.2-0.2-0.3c0-0.1,0-0.1,0-0.2c0.1-0.4,0.2-0.7,0.3-1.1
				c0-0.2,0.2-0.4,0.3-0.4c0.2,0,0.3,0.2,0.3,0.4v0.1c0,0.3-0.1,0.7-0.3,1.2C183.6,28,183.5,28.1,183.3,28.1z M183.7,26.3
				c-0.1,0-0.2,0.1-0.2,0.3c-0.1,0.4-0.2,0.8-0.3,1.2l0,0c0,0,0,0.1,0,0.1c0,0.2,0.1,0.2,0.1,0.2c0.1,0,0.2-0.1,0.3-0.2
				c0.2-0.5,0.3-0.9,0.3-1.2v-0.1C183.9,26.4,183.8,26.3,183.7,26.3z M162.5,28.1c-0.2,0-0.3-0.1-0.3-0.2c0-0.1,0.1-0.2,0.1-0.3
				c0.7-0.7,1.3-1.1,1.7-1.1c0.2,0,0.3,0.1,0.3,0.2c0,0.1-0.1,0.3-0.3,0.4c-0.4,0.1-0.9,0.4-1.3,0.8
				C162.7,28.1,162.6,28.1,162.5,28.1z M164.1,26.6c-0.4,0-1,0.3-1.7,1c-0.1,0.1-0.1,0.1-0.1,0.2c0,0.1,0.1,0.1,0.2,0.1
				c0.1,0,0.1,0,0.2-0.1l0,0c0.4-0.5,1-0.8,1.4-0.9c0.1,0,0.2-0.2,0.2-0.3C164.3,26.7,164.3,26.6,164.1,26.6z M174.9,28
				c-0.1,0-0.3-0.1-0.3-0.3v0c0-0.1,0-0.2,0.1-0.2c0.5-0.5,1-0.9,1.6-1.2c0.1-0.1,0.2-0.1,0.3,0c0.1,0,0.1,0.1,0.1,0.2
				c0,0.1-0.1,0.3-0.3,0.3c-0.5,0.2-0.9,0.5-1.4,1l0,0C175.1,28,175,28,174.9,28z M176.6,26.4c0,0-0.1,0-0.2,0
				c-0.6,0.2-1.1,0.6-1.6,1.1l0,0c0,0-0.1,0.1-0.1,0.2v0c0,0.1,0.1,0.2,0.2,0.2c0.1,0,0.1,0,0.2-0.1c0.4-0.5,0.9-0.8,1.4-1
				c0.1-0.1,0.2-0.1,0.2-0.2C176.7,26.5,176.7,26.5,176.6,26.4C176.7,26.4,176.6,26.4,176.6,26.4z M151.5,27.1c-0.1,0-0.1,0-0.2,0
				c-0.1,0-0.1-0.1-0.1-0.2c0-0.2,0.1-0.3,0.3-0.4l0,0l0.2,0c0.1,0,0.3,0.1,0.3,0.2c0,0.1-0.2,0.3-0.4,0.4
				C151.6,27.1,151.5,27.1,151.5,27.1z M151.5,26.6c-0.1,0.1-0.2,0.1-0.2,0.3c0,0,0,0.1,0.1,0.1c0.1,0,0.1,0,0.2,0
				c0.2-0.1,0.3-0.2,0.3-0.3c0-0.1-0.1-0.1-0.2-0.1L151.5,26.6z M130.9,27c-0.1,0-0.1,0-0.2,0c-0.1-0.1-0.1-0.1-0.1-0.2
				s0.1-0.2,0.2-0.3c0.1-0.1,0.3-0.2,0.5-0.2c0.2,0,0.3,0,0.4,0c0.1,0,0.1,0.1,0.1,0.2c0,0.1,0,0.2-0.3,0.3L131,27
				C131,27,130.9,27,130.9,27z M131.4,26.4c0,0-0.1,0-0.1,0c-0.2,0.1-0.4,0.1-0.5,0.2l0,0c-0.1,0.1-0.1,0.1-0.1,0.2
				c0,0.1,0,0.1,0.1,0.2c0.1,0,0.2,0,0.3,0l0,0l0.4-0.2c0.1,0,0.2-0.1,0.2-0.2c0-0.1,0-0.1-0.1-0.1
				C131.5,26.4,131.5,26.4,131.4,26.4z M177.4,26.6c-0.1,0-0.2,0-0.2-0.1c-0.1,0-0.1-0.1-0.1-0.2c0-0.1,0.2-0.3,0.4-0.3
				c0.2,0,0.3,0.1,0.3,0.3C177.8,26.5,177.6,26.6,177.4,26.6C177.4,26.6,177.4,26.6,177.4,26.6z M177.4,26.5L177.4,26.5L177.4,26.5
				c0.2,0,0.3-0.1,0.3-0.2c0,0,0-0.2-0.2-0.2c-0.2,0-0.3,0.1-0.3,0.2c0,0,0,0.1,0.1,0.1C177.3,26.5,177.4,26.5,177.4,26.5z
				 M168.5,26.6c-0.1,0-0.2,0-0.2-0.2c0-0.1,0-0.1,0-0.2c0.1-0.3,0.3-0.7,0.5-1c0.1-0.2,0.2-0.4,0.3-0.5c0-0.1,0.1-0.1,0.1-0.2
				c0.1-0.2,0.2-0.2,0.3-0.2c0.2,0,0.3,0.1,0.3,0.3c0,0.1,0,0.2-0.1,0.2l-0.9,1.5C168.7,26.5,168.6,26.6,168.5,26.6z M169.5,24.4
				c-0.1,0-0.2,0.1-0.2,0.2l0,0c0,0-0.1,0.1-0.1,0.2c-0.1,0.1-0.2,0.3-0.3,0.5c-0.2,0.3-0.4,0.6-0.5,1l0,0l0,0c0,0,0,0.1,0,0.1
				c0,0.1,0.1,0.1,0.1,0.1c0.1,0,0.2-0.1,0.3-0.2l0.9-1.5c0-0.1,0.1-0.1,0.1-0.2C169.7,24.4,169.6,24.4,169.5,24.4z M158.9,26.5
				c0,0-0.1,0-0.1,0c-0.1,0-0.2-0.2-0.2-0.3c0-0.2,0.3-0.4,0.5-0.4c0.1,0,0.2,0.1,0.2,0.2v0c0,0.1-0.1,0.2-0.2,0.3
				C159,26.4,158.9,26.5,158.9,26.5z M159,25.9c-0.1,0-0.4,0.1-0.4,0.3c0,0.1,0.1,0.1,0.1,0.2c0,0,0.1,0,0.2,0
				c0.1-0.1,0.2-0.2,0.2-0.3v0C159.2,26,159.1,25.9,159,25.9z M192.1,26.3c-0.3,0-0.3-0.3-0.3-0.4c0-0.4,0.2-0.8,0.4-1.1
				c0.1-0.1,0.2-0.2,0.3-0.2c0.1,0,0.2,0.1,0.2,0.3c0,0.1,0,0.2-0.1,0.3c-0.2,0.2-0.3,0.5-0.2,0.8C192.4,26.1,192.3,26.3,192.1,26.3
				z M192.6,24.6c0,0-0.1,0-0.2,0.1l0,0c-0.3,0.3-0.4,0.7-0.4,1.1c0,0.3,0.1,0.3,0.2,0.3c0.1,0,0.2-0.1,0.2-0.3
				c0-0.3,0.1-0.6,0.3-0.8l0,0c0.1-0.1,0.1-0.1,0.1-0.2C192.7,24.7,192.7,24.6,192.6,24.6z M135.9,26.2c-0.1,0-0.2-0.1-0.2-0.3
				c0-0.1,0-0.2,0.1-0.3l0.3-0.8c0-0.2,0.2-0.3,0.3-0.3c0.1,0,0.2,0.1,0.2,0.3c0,0.1,0,0.1,0,0.2c-0.1,0.3-0.2,0.6-0.3,0.8
				C136.2,26,136.1,26.2,135.9,26.2z M136.4,24.6c-0.1,0-0.2,0.1-0.2,0.2l0,0l-0.3,0.8c0,0.1,0,0.2,0,0.2c0,0.1,0.1,0.2,0.1,0.2
				c0.1,0,0.2-0.1,0.3-0.3c0.1-0.3,0.2-0.6,0.3-0.8l0,0c0,0,0-0.1,0-0.1C136.5,24.7,136.5,24.6,136.4,24.6z M120.1,26
				c-0.2,0-0.2-0.1-0.2-0.2c0-0.1,0-0.2,0.1-0.3l0,0c1.4-2.6,2.6-4.5,4-5.6c0.2-0.2,0.3-0.2,0.5-0.2c0.1,0,0.2,0.1,0.2,0.2
				c0,0.2-0.1,0.3-0.3,0.5c-1.2,0.9-2,2.3-3.8,5.3C120.4,25.9,120.2,26,120.1,26z M120,25.5c0,0.1-0.1,0.2-0.1,0.2
				c0,0.1,0,0.1,0.1,0.1c0.1,0,0.3-0.1,0.3-0.2c1.7-3,2.6-4.4,3.8-5.4c0.2-0.2,0.3-0.3,0.3-0.4c0-0.1,0-0.1-0.1-0.1
				c-0.1,0-0.2,0-0.4,0.2C122.6,21.1,121.4,23,120,25.5z M193,24.7c-0.2,0-0.3-0.1-0.3-0.2c0-0.3,0.4-0.4,0.5-0.4
				c0.2,0,0.2,0.1,0.2,0.2c0,0.1-0.1,0.2-0.3,0.3h0C193.2,24.6,193.1,24.7,193,24.7z M193.3,24.1c-0.1,0-0.4,0.1-0.4,0.3
				c0,0.1,0,0.1,0.2,0.1c0.1,0,0.1,0,0.2,0c0.1-0.1,0.2-0.2,0.2-0.3C193.4,24.2,193.4,24.1,193.3,24.1z M136.6,24.1
				c0,0-0.1,0-0.1-0.1c-0.1-0.1-0.1-0.2-0.1-0.3c0-0.1,0-0.1,0-0.2c0.1-0.5,0.2-1,0.2-1.3c0-0.2,0-0.4-0.1-0.7
				c-0.1-0.2-0.1-0.4-0.1-0.5c0-0.3,0.1-0.3,0.2-0.3c0.1,0,0.3,0.2,0.4,0.4c0.1,0.4,0.1,0.7,0.1,1c0,0.4-0.1,0.9-0.2,1.5
				C136.9,24,136.7,24.1,136.6,24.1C136.6,24.1,136.6,24.1,136.6,24.1z M136.7,20.9c-0.1,0-0.1,0-0.1,0.2c0,0.1,0,0.2,0.1,0.4
				c0,0.2,0.1,0.4,0.1,0.7c0,0.4-0.1,0.8-0.2,1.4l0,0c0,0,0,0.1,0,0.2c0,0.1,0,0.2,0.1,0.2c0,0,0,0,0.1,0h0c0.1,0,0.2-0.1,0.2-0.3
				c0.2-0.6,0.2-1.1,0.2-1.5c0-0.3,0-0.6-0.1-1v0C137,21,136.8,20.9,136.7,20.9z M125.1,19.8c-0.1,0-0.1,0-0.2,0
				c-0.1,0-0.1-0.1-0.1-0.2c0-0.1,0.1-0.2,0.2-0.3l0,0c0.1,0,0.2-0.1,0.3-0.1h0c0.2,0,0.2,0.1,0.2,0.2c0,0.1-0.1,0.3-0.3,0.4
				C125.2,19.8,125.2,19.8,125.1,19.8z M125.1,19.4c-0.1,0.1-0.2,0.1-0.2,0.2c0,0.1,0,0.1,0.1,0.1c0.1,0,0.2,0,0.2,0
				c0.1-0.1,0.2-0.2,0.2-0.3c0-0.1,0-0.1-0.1-0.1C125.2,19.3,125.2,19.3,125.1,19.4z"/>
		</g>
		<path id="Adventour" class="st3" d="M201.7,30.9c-1.4,3.6-2.9,6-5.6,6c-1.4,0-2.3-0.8-2.3-2.1c0-1.7,1.2-4.9,2.6-7.3
			c-0.9,0.4-2,0.7-2.4,0.8c-0.1,0.4-0.4,0.9-0.6,1.4c-0.1,0.2-0.2,0.4-0.3,0.6c0,0,0,0,0,0.1c0,0.1-0.1,0.3-0.3,0.6
			c-0.1,0.2-0.2,0.3-0.2,0.5c-0.1,0.3-0.3,0.6-0.4,1l-0.2,0.5c-0.1,0.2-0.2,0.4-0.3,0.5c-1.3,2.4-2.8,4.1-4.5,4.1
			c-1,0-1.6-0.7-1.6-2v-0.1c-0.9,0.9-1.8,1.4-3.2,1.4c-1.2,0-2.2-0.5-2.2-1.6c0-1.3,0.3-2.5,0.9-3.9c-0.2,0-0.4,0-0.6,0
			c-0.1,0-0.3,0-0.6,0c-0.9,2.2-1.9,3.7-3,4.6c-0.7,0.6-1.5,0.9-2.3,0.9c-1.3,0-2.3-0.9-2.6-2.4c-1.1,1.5-2.5,2.4-4.1,2.4
			c-1.6,0-2.5-0.7-2.7-2.1c-1.1,1.6-2.4,2.7-3.7,2.7c-1,0-1.6-0.7-1.6-2c0-1.1,0.7-2.5,2-4.7l0.7-1.2c0.1-0.1,0.1-0.2,0.1-0.4
			c0-0.1,0-0.1-0.1-0.1c-0.2,0-0.5,0.2-0.9,0.7c-1.2,1.5-2.5,3.4-3.9,5.7c-0.1,0.1-0.2,0.3-0.3,0.5c-0.2,0.3-0.3,0.6-0.8,0.8
			c-0.2,0.1-0.5,0.2-0.8,0.2c-0.8,0-1.2-0.4-1.2-1.2c0-0.1,0-0.1,0-0.2c-0.3,0.3-0.7,0.6-1.1,0.8c-0.7,0.4-1.6,0.6-2.7,0.6
			c-1.4,0-2.7-0.6-3.4-1.6c-0.4-0.5-0.5-1.1-0.5-1.9c0-2.2,1.2-4.9,3.1-6.5c0.9-0.8,1.9-1.2,2.9-1.2c1.7,0,2.6,0.8,2.6,2.1
			c0,2.4-2.6,4.8-5.8,6.2c0.3,0.8,1,1.3,1.8,1.3c1.7,0,3.1-1.4,4.3-4.2c0.1-0.1,0.1-0.3,0.2-0.4c0.4-1.2,0.8-2.2,1.1-3l0.3-0.7
			c0.4-1,0.6-1.4,1.1-1.7c0.2-0.1,0.5-0.2,0.9-0.2c0.6,0,1.2,0.3,1.2,0.8c0,0.1,0,0.2,0,0.2c-1.1,2.3-1.6,3.8-2.2,5.7
			c2.1-3.2,4.3-6,5.8-6c0.5,0,0.8,0.4,0.8,0.9c0,0.8-0.5,1.9-1.5,3.7c-1.1,2-1.6,3.2-1.6,4.2c0,0.2,0,0.4,0.1,0.5
			c0,0.1,0.1,0.1,0.2,0.1c0.9,0,1.6-0.9,2.2-2c0.3-0.5,0.7-1.3,1.1-2.2c0.1-0.3,0.3-0.7,0.5-1c0.1-0.2,0.1-0.4,0.2-0.6l0.4-1
			l-0.4,0.1c-0.1,0-0.1,0-0.3,0c-0.4,0-0.8-0.2-0.8-0.7c0-0.7,0.9-0.7,2-0.9c0.3-0.6,0.8-1.6,1.5-2.8c0.3-0.5,0.9-0.8,1.5-0.8
			c0.6,0,1.1,0.3,1.1,0.8c0,0.2-0.1,0.4-0.2,0.5c-0.5,0.8-0.9,1.5-1.1,1.9c0.5,0,0.8,0,0.9,0c0.6,0,0.9,0.3,0.9,0.7
			c0,0.4-0.3,0.7-0.7,0.7c-0.6,0-1.2,0.1-1.9,0.2l-0.6,1.4l-0.3,0.7c-0.6,1.6-0.9,2.8-0.9,3.7c0,0.9,0.3,1.3,0.9,1.3
			c0.5,0,1-0.3,1.6-1c0.6-0.7,1.3-1.9,2.1-3.6c0.5-1.4,1.3-2.7,2.3-3.7c0.9-0.8,1.9-1.2,3-1.2c0.9,0,1.6,0.3,2,0.9
			c0.4,0.5,0.6,1.2,0.6,2.1c0,0.4-0.1,0.9-0.1,1.3c0.6,0.1,1.2-0.1,1.6-0.6c0.1-0.2,0.2-0.3,0.2-0.5c0.4-0.7,0.6-1.2,0.7-1.5
			c0.1-0.2,0.1-0.4,0.2-0.8c0.2-0.9,0.3-1.3,1.2-1.3c0.9,0,1.4,0.5,1.4,1.4c0,0.7-0.2,1.3-0.9,2.7c-1.1,2.3-1.7,3.6-1.9,5.1
			c0,0.1,0,0.3,0,0.4c0,0.3,0,0.4,0.2,0.4c0.1,0,0.4-0.1,0.6-0.3c0.8-0.5,1.8-1.4,2.8-3c0.8-1.8,1.9-4,2.8-5.5c0,0,0-0.1,0.1-0.2
			c0.1-0.3,0.4-0.5,0.8-0.5c0.4,0,0.6,0.2,0.6,0.6c0,0.2-0.1,0.4-0.2,0.5c-1.4,2.3-2.9,5.9-2.9,7.6c0,0.2,0,0.4,0.1,0.5
			c0,0.1,0.1,0.1,0.2,0.1c0.8,0,1.6-0.9,2.2-1.9c0.3-0.5,0.7-1.3,1.1-2.2l0.1-0.2c0.3-0.8,0.7-1.6,1.1-2.6l0.3-0.6
			c-0.7-0.6-1.1-1.2-1.1-1.9c0-0.9,0.5-1.6,1-2c0.3-0.2,0.6-0.3,0.9-0.3c0.7,0,1.2,0.5,1.2,1.7c0,0.3-0.1,0.8-0.2,1.3
			c0.1,0,0.4-0.1,0.8-0.3c1.4-0.5,2.2-0.7,2.8-0.7c0.8,0,1.2,0.5,1.2,1.2c0,0.2-0.1,0.5-0.3,1c-0.2,0.4-0.4,1-0.8,1.7
			c-1.1,2.3-1.8,4-1.8,5.2c0,0.2,0,0.4,0.1,0.5c0,0.1,0.1,0.1,0.2,0.1c1,0,1.9-1.2,2.5-2.4c0.3-0.6,0.7-1.5,1.3-2.6
			c0.2-0.5,0.5-0.9,1-0.9h0c0.3,0,0.5,0.1,0.5,0.4C201.9,30.2,201.8,30.5,201.7,30.9z M150.9,27c-0.1,0-0.2,0-0.3,0.1
			c-0.2,0.2-0.5,0.4-0.7,0.6c-0.1,0.1-0.1,0.1-0.1,0.2c0,0.1,0.1,0.2,0.2,0.2l0,0c0.1,0,0.1,0,0.2-0.1c0.3-0.3,0.5-0.5,0.6-0.6
			c0.1-0.1,0.2-0.3,0.2-0.4S151,27,150.9,27z M151.7,26.5l-0.2,0c-0.2,0.1-0.2,0.2-0.2,0.3c0,0.1,0.1,0.2,0.3,0.2s0.3-0.2,0.3-0.3
			C151.9,26.6,151.8,26.5,151.7,26.5L151.7,26.5z M153.8,28.1c0-0.4-0.3-0.6-0.7-0.6c-0.5,0-1.1,0.3-1.6,0.9c-0.8,1.1-1.5,2.7-1.8,4
			C152,31.3,153.8,29.6,153.8,28.1z M149.4,35.7c-0.2-0.1-0.4-0.3-0.6-0.5c-0.1-0.1-0.2-0.1-0.3-0.1c-0.1,0-0.2,0-0.2,0.2
			c0,0.1,0,0.2,0.1,0.3c0.2,0.3,0.4,0.5,0.8,0.6l0.2,0c0.1,0,0.2-0.1,0.2-0.2S149.5,35.8,149.4,35.7z M150.3,36L150.3,36
			c-0.3,0-0.4,0.1-0.4,0.3c0,0.1,0.1,0.2,0.3,0.2h0.1c0.2,0,0.3-0.1,0.3-0.2C150.6,36.2,150.5,36.1,150.3,36z M159,26.4
			c0.1-0.1,0.2-0.2,0.2-0.3c0-0.1-0.1-0.2-0.2-0.2c0,0,0,0,0,0c-0.2,0-0.4,0.1-0.4,0.3S158.9,26.5,159,26.4L159,26.4z M158.6,27
			c0-0.1,0.1-0.1,0.1-0.2c0-0.1-0.1-0.2-0.2-0.2c-0.1,0-0.2,0.1-0.3,0.2l-0.4,0.9c0,0.1-0.1,0.2-0.1,0.3c0,0.1,0,0.2,0.2,0.2
			c0.1,0,0.2-0.1,0.3-0.3C158.3,27.5,158.4,27.3,158.6,27L158.6,27z M164.1,27.1c0.2,0,0.3-0.2,0.3-0.3s-0.1-0.2-0.3-0.2
			c-0.4,0-1,0.4-1.7,1c-0.1,0.1-0.1,0.2-0.1,0.2c0,0.1,0.1,0.2,0.2,0.2c0.1,0,0.2,0,0.2-0.1C163.1,27.4,163.7,27.1,164.1,27.1
			L164.1,27.1z M162.1,36.5c-0.1,0-0.2,0-0.3,0c-0.1,0-0.1,0-0.3,0c-0.5,0-0.7-0.3-0.6-0.9v0c0-0.2-0.1-0.3-0.2-0.3
			c-0.2,0-0.3,0.2-0.3,0.6c0,0.8,0.3,1.3,1,1.3c0.1,0,0.2,0,0.4,0c0.3,0,0.4-0.2,0.4-0.3C162.2,36.5,162.2,36.5,162.1,36.5
			L162.1,36.5z M168.4,26.6c0.1,0,0.2-0.1,0.3-0.3l0.9-1.5c0-0.1,0.1-0.1,0.1-0.2c0-0.2-0.1-0.2-0.2-0.2c-0.1,0-0.2,0.1-0.3,0.2
			c-0.1,0.1-0.2,0.4-0.4,0.7c-0.2,0.3-0.4,0.6-0.5,1c0,0,0,0.1,0,0.1C168.3,26.5,168.3,26.6,168.4,26.6z M167.8,36
			c-0.9,0-1.4-0.4-1.7-1.1c-0.1-0.2-0.2-0.3-0.3-0.3c-0.1,0-0.2,0.1-0.2,0.3c0,0.1,0,0.2,0.1,0.3c0.3,0.9,1,1.3,2.1,1.4l0,0
			c0.3,0,0.4-0.1,0.4-0.2S168.1,36,167.8,36z M172.9,34.6c0-0.2-0.2-0.3-0.3-0.3c-0.1,0-0.2,0.1-0.2,0.3c0,0.1,0,0.2,0.1,0.3
			c0.3,0.9,1,1.5,2,1.5h0c0.2,0,0.3-0.1,0.3-0.2c0-0.2-0.1-0.3-0.4-0.3C173.7,36,173.1,35.5,172.9,34.6L172.9,34.6z M176.4,26.4
			c-0.6,0.2-1.1,0.6-1.6,1.1c-0.1,0.1-0.1,0.1-0.1,0.2c0,0.1,0.1,0.2,0.2,0.2c0,0,0,0,0,0c0.1,0,0.1,0,0.2-0.1
			c0.4-0.5,0.9-0.8,1.4-1c0.2-0.1,0.2-0.2,0.2-0.3C176.8,26.4,176.6,26.3,176.4,26.4L176.4,26.4z M176.9,27.9
			c-1.1,1.3-2.5,4-2.5,5.8c0,0.5,0.1,0.9,0.2,1.2s0.3,0.5,0.5,0.5c1,0,2.4-1.9,3.4-4.5C177.6,30.3,177,29.1,176.9,27.9L176.9,27.9z
			 M177.5,26.1c-0.2,0-0.4,0.1-0.4,0.3s0.1,0.2,0.3,0.2c0.2,0,0.3-0.2,0.3-0.3C177.7,26.2,177.6,26.1,177.5,26.1L177.5,26.1z
			 M178.7,29.7c-0.5-0.4-0.8-1.1-0.8-1.7c0-0.2-0.1-0.4-0.3-0.4s-0.2,0.1-0.2,0.4c0,0.8,0.4,1.7,1,2.2c0.1,0.1,0.2,0.1,0.3,0.1
			c0.1,0,0.2-0.1,0.2-0.2C178.9,29.9,178.8,29.8,178.7,29.7z M183.3,28.1c0.1,0,0.2-0.1,0.3-0.3c0.2-0.5,0.3-0.8,0.3-1.2v-0.1
			c0-0.2-0.1-0.3-0.2-0.3c-0.1,0-0.2,0.1-0.2,0.3c-0.1,0.4-0.2,0.8-0.3,1.1c0,0,0,0.1,0,0.2C183.2,28,183.2,28.1,183.3,28.1
			L183.3,28.1z M187.1,36.6c-0.5,0-0.8-0.4-0.7-1v-0.1c0-0.2-0.1-0.3-0.2-0.3c-0.2,0-0.3,0.2-0.3,0.5c0,0.8,0.4,1.4,1.2,1.4
			c0.2,0,0.3-0.1,0.3-0.2C187.4,36.7,187.3,36.6,187.1,36.6z M192.6,24.6c-0.1,0-0.2,0-0.2,0.1c-0.3,0.3-0.4,0.7-0.4,1.1l0,0
			c0,0.3,0.1,0.4,0.2,0.4c0.1,0,0.3-0.2,0.3-0.4c0-0.3,0.1-0.6,0.3-0.8c0.1-0.1,0.1-0.1,0.1-0.2C192.8,24.7,192.7,24.6,192.6,24.6
			L192.6,24.6z M193.3,24.1c-0.1,0-0.5,0.1-0.5,0.4c0,0.1,0.1,0.2,0.2,0.2c0.1,0,0.1,0,0.2,0c0.2-0.1,0.2-0.2,0.2-0.3
			C193.5,24.1,193.4,24.1,193.3,24.1L193.3,24.1z M194.6,35.9c0.2,0.2,0.4,0.4,0.7,0.5l0.1,0c0.1,0,0.3-0.1,0.3-0.3
			c0-0.1,0-0.1-0.1-0.2c-0.3-0.1-0.4-0.2-0.5-0.4c0-0.1-0.1-0.1-0.2-0.1c-0.1,0-0.2,0.1-0.2,0.3C194.6,35.7,194.6,35.8,194.6,35.9
			L194.6,35.9z M196.7,29.1c0.1-0.1,0.1-0.2,0.1-0.3c0-0.1-0.1-0.2-0.2-0.2s-0.2,0.1-0.3,0.3c-1.1,2.1-2,4.4-2,5.8
			c0,0.1,0,0.3,0.1,0.3c0,0.1,0.1,0.1,0.1,0.1c0.2,0,0.3-0.2,0.3-0.5C194.8,33.3,195.6,30.9,196.7,29.1L196.7,29.1z M138.4,36.9
			c-0.9,0-1.6-0.3-1.9-0.9c-0.8,0.9-1.6,1.4-2.7,1.4c-1.4,0-2-1-2-2.5c0-0.4,0.1-0.8,0.1-1.1c-1.1,1.3-2,2.2-2.8,2.6
			c-0.5,0.3-1,0.5-1.6,0.5c-0.9,0-1.6-0.5-1.8-1.4c-0.8,0.9-1.7,1.3-2.6,1.3c-1,0-1.5-0.6-1.6-1.9c0-0.2,0-0.4,0-0.6
			c0-1.4,0.9-3.9,2.3-7l-2.3,0.2c0,0.1-0.1,0.1-0.1,0.2l-0.4,0.6c-0.2,0.2-0.3,0.5-0.5,0.8c-2.5,3.6-3.6,5.3-5,6.4
			c-0.7,0.6-1.4,0.9-2.1,0.9c-0.8,0-1.4-0.1-2-0.7c-0.1-0.1-0.2-0.3-0.2-0.4c0-0.3,0.3-0.5,0.7-0.5c0.1,0,0.3,0,0.5,0.2
			c0.4,0.1,0.6,0.2,0.7,0.2c0.9,0,1.9-1.2,2.9-2.9c0.5-0.8,1.1-2,1.9-3.5L118,28c-1.3,0.2-2.3,0.5-3,0.8c-1.6,0.7-2.1,1.2-2.8,2.9
			c-0.1,0.3-0.4,0.5-0.7,0.5c-0.3,0-0.6-0.3-0.6-0.6c0-0.1,0-0.2,0.1-0.3c0.7-2,1.6-2.9,3.4-3.7c0.9-0.4,2.4-0.8,4.5-1.1
			c2.6-4.9,4.9-7.9,7.5-7.9c1.4,0,2.4,0.5,2.4,1.6c0,0.5-0.5,1.6-1.2,2.7c-0.6,1.1-1.2,2.2-1.7,3.2c0.1,0.1,0.1,0.2,0.1,0.4
			c0,0.3-0.2,0.5-0.6,0.7c-1.4,3-2.2,5.4-2.4,7.2c0,0.1,0,0.2,0,0.2v0.3c0,0.3,0,0.5,0.1,0.5c0,0.1,0.1,0.1,0.2,0.1
			c1,0,1.9-1.2,2.5-2.4c0.2-0.4,0.5-1,0.8-1.7c0.3-0.7,0.6-1.5,1-2.3c0.9-1.8,2.6-3.1,4.3-3.1c1.1,0,2.1,0.6,2.6,1.6l0.2-0.4
			c1-2,1.5-3.7,1.5-5c0-0.3,0-0.6-0.1-0.8c-0.1-0.2-0.1-0.4-0.1-0.5c0-0.7,0.5-1.1,1.1-1.1c0.6,0,1.3,0.4,1.5,0.9
			c0.1,0.3,0.1,0.5,0.1,0.8c0,1.6-1,3.5-2.7,6.4c-1.3,2.3-1.7,3.1-2.2,4.6c-0.2,0.8-0.3,1.4-0.3,1.9c0,0.6,0.2,1,0.6,1
			c0.9,0,1.6-0.7,2.3-2c0.2-0.4,0.5-0.9,0.8-1.6c0.1-0.2,0.2-0.4,0.3-0.6l0.4-0.8c0.9-2,1.3-2.8,1.3-3.8c0-0.9,0.5-1.4,1.2-1.4
			c0.6,0,1.2,0.4,1.3,1.1c0,0.1,0,0.2,0,0.4c0,1.2-0.6,2.6-1.4,4.3c-0.8,1.7-1.3,2.8-1.3,3.5c0,0.5,0.2,0.7,0.7,0.7
			c1.4,0,3.5-2.7,4.9-5.6c0.7-1.4,1-2.6,1-3.3c0-0.1,0-0.3,0-0.5c0-0.2-0.1-0.4-0.1-0.5c0-0.3,0.1-0.5,0.4-0.6
			c0.1,0,0.2-0.1,0.3-0.1c0.3,0,0.5,0.2,0.6,0.6c0.1,0.5,0.2,1,0.2,1.7c0,3.6-1.9,6.8-4.5,8.6C141.2,36.4,139.8,36.9,138.4,36.9z
			 M124.4,19.8c-0.1,0-0.2,0.1-0.4,0.2c-1.4,1.1-2.6,3-4,5.5c0,0.1-0.1,0.2-0.1,0.3c0,0.1,0,0.1,0.2,0.1c0.1,0,0.3-0.1,0.4-0.2
			c1.7-3,2.6-4.4,3.8-5.4c0.2-0.2,0.3-0.3,0.3-0.5C124.5,19.8,124.5,19.8,124.4,19.8z M125.3,19.2c-0.1,0-0.2,0-0.3,0.1
			c-0.1,0.1-0.2,0.1-0.2,0.2c0,0.2,0.2,0.3,0.4,0.2c0.2-0.1,0.3-0.2,0.3-0.3C125.5,19.3,125.4,19.2,125.3,19.2L125.3,19.2z
			 M126.4,22.1c0.4-0.7,0.7-1.4,0.7-1.8c0-0.1,0-0.2-0.1-0.2c-0.5,0-1,0.5-1.8,1.5c-0.7,1-1.7,2.5-2.8,4.4c0.4,0,0.8,0,1.4-0.1
			c0.2,0,0.4,0,0.7,0C125.1,24.5,125.8,23.2,126.4,22.1L126.4,22.1z M127.8,35.9c-0.5,0-0.9-0.3-1.1-0.7c0-0.1-0.1-0.1-0.2-0.1
			c-0.1,0-0.2,0.1-0.2,0.2c0,0.1,0,0.2,0.1,0.2c0.3,0.5,0.8,0.8,1.5,0.8c0.2,0,0.4-0.1,0.4-0.2C128.2,36,128,35.9,127.8,35.9
			L127.8,35.9z M136.6,24.1c0.1,0,0.2-0.1,0.3-0.3c0.2-0.7,0.2-1.2,0.2-1.5c0-0.3,0-0.6-0.1-1c0-0.2-0.2-0.4-0.3-0.4
			s-0.2,0.1-0.2,0.2c0,0.1,0,0.2,0.1,0.5c0,0.2,0.1,0.4,0.1,0.7c0,0.4-0.1,0.8-0.2,1.4c0,0,0,0.1,0,0.2
			C136.4,24,136.5,24.1,136.6,24.1z M135.9,26.1c0.1,0,0.2-0.1,0.3-0.4c0.1-0.3,0.2-0.5,0.3-0.8c0,0,0-0.1,0-0.2
			c0-0.1-0.1-0.2-0.2-0.2s-0.2,0.1-0.3,0.3l-0.3,0.8c0,0.1,0,0.2,0,0.3C135.8,26,135.9,26.1,135.9,26.1L135.9,26.1z M128.7,36.2
			c0.3,0,0.4-0.1,0.4-0.3c0-0.1-0.1-0.2-0.2-0.2c-0.2,0-0.3,0.1-0.3,0.3C128.5,36.1,128.6,36.2,128.7,36.2z M130.1,27
			c-0.1,0-0.2,0-0.4,0.2c-0.2,0.2-0.4,0.3-0.5,0.5c-0.1,0.1-0.2,0.2-0.2,0.3c0,0.1,0.1,0.2,0.2,0.2c0,0,0,0,0,0c0.1,0,0.2,0,0.3-0.1
			c0.2-0.2,0.4-0.3,0.5-0.5c0.1-0.1,0.2-0.2,0.2-0.3C130.3,27,130.3,27,130.1,27L130.1,27z M131.3,26.3c-0.2,0.1-0.4,0.1-0.5,0.2
			c-0.1,0.1-0.2,0.1-0.2,0.2c0,0.2,0.2,0.3,0.4,0.2l0.4-0.2c0.2,0,0.2-0.1,0.2-0.3C131.7,26.4,131.5,26.3,131.3,26.3L131.3,26.3z
			 M132.9,27.5c-0.1-0.1-0.3-0.2-0.5-0.2c-1.4,0-2.7,2.9-3.5,5.2c-0.1,0.3-0.2,0.6-0.2,0.9c0,0.5,0.2,0.8,0.5,0.8
			c0.3,0,0.6-0.2,1-0.6c1-1,1.8-2,3.1-3.8c0.2-0.3,0.3-0.6,0.3-0.9C133.6,28.4,133.3,27.8,132.9,27.5L132.9,27.5z M134,36.4
			c-0.6,0-0.9-0.4-1.1-0.9c-0.1-0.2-0.2-0.3-0.3-0.3c-0.1,0-0.2,0.2-0.2,0.5c0.2,0.8,0.8,1.2,1.5,1.2l0,0c0.3,0,0.4-0.1,0.4-0.2
			C134.4,36.6,134.2,36.5,134,36.4L134,36.4z M139.7,28.1c0.2,0,0.3-0.1,0.3-0.3c0.1-0.5,0.2-0.9,0.2-1.2c0-0.2-0.1-0.4-0.3-0.4
			c-0.1,0-0.2,0.1-0.2,0.3c0,0.1,0,0.8-0.2,1.2l0,0.2C139.5,28,139.6,28.1,139.7,28.1L139.7,28.1z M145.9,30.4
			c0.1,0,0.2-0.1,0.2-0.3c0.1-0.3,0.2-0.5,0.2-0.7c0-0.1,0-0.1,0-0.2c0-0.2-0.1-0.4-0.2-0.4c-0.1,0-0.2,0.1-0.3,0.4
			c0,0.2-0.1,0.5-0.2,0.7c0,0,0,0.1,0,0.2C145.6,30.2,145.7,30.4,145.9,30.4z M145.6,31.1c0-0.1,0-0.2-0.1-0.2
			c-0.1,0-0.2,0.1-0.4,0.4c-0.8,1.6-2.1,2.9-3.5,3.7c-0.2,0.1-0.3,0.3-0.3,0.4c0,0.1,0.1,0.2,0.2,0.2c0.1,0,0.2,0,0.3-0.1
			c1.5-0.9,2.9-2.2,3.7-3.9C145.6,31.4,145.6,31.2,145.6,31.1z"/>
	</g>
	<g id="Balloon">
		<path id="strings_1_" class="st4" d="M205.7,26.7l-0.7,0.1l1.5,10.5l0.7-0.1L205.7,26.7z M215.4,29.3l0.6,0.5l-6.5,8.4l-0.6-0.5
			L215.4,29.3z M210.2,27.9l0.7,0.2l-2.8,10.4l-0.7-0.2L210.2,27.9z"/>
		<path id="strings_shade_1_" class="st5" d="M216,29.8l-6.5,8.4l-0.6-0.5l6.5-8.4L216,29.8z M209.7,32.7l-1,3.6
			c-0.2-0.2-0.4-0.5-0.6-0.7l0.6-2.3C209.1,33.1,209.4,32.9,209.7,32.7L209.7,32.7z M206.2,30l0.4,3c-0.2-0.4-0.4-0.8-0.6-1.2
			c-0.2-0.4-0.4-0.9-0.5-1.4l-0.5-3.4C205.3,28.1,205.7,29.1,206.2,30z"/>
		<path id="red_pin_1_" class="st6" d="M204.7,21.7c0,0-0.6,1.9,0.3,5.5c1.2,4.5,3.6,8.2,3.6,8.2l0,0c0,0,3.9-2,7.2-5.3
			c2.6-2.6,3-4.6,3-4.6c1.2-4-1.1-8.2-5.1-9.3C209.7,15.2,205.6,17.7,204.7,21.7z"/>
		<path id="shade_red" class="st7" d="M218.9,21.5c0.3,1.3,0.3,2.7-0.1,4c0,0-0.4,1.9-3,4.6c-3.3,3.3-7.2,5.3-7.2,5.3l0,0
			c0,0-2.4-3.7-3.6-8.2c0-0.1-0.1-0.2-0.1-0.3c0.7,2.4,1.8,4.7,3.3,6.7C213.5,30.6,218.3,26.3,218.9,21.5z"/>
		<path id="orange_A_1_" class="st8" d="M215.8,30.1c-1.3,1.3-2.7,2.4-3.9,3.3c0-0.5,0.1-1,0.1-1.5c0-0.7,0-1.5,0-2.2l-3.4-0.9
			c-0.4,0.6-0.8,1.3-1.1,1.9c-0.2,0.4-0.5,0.9-0.7,1.3c-0.6-1.3-1.3-3-1.7-4.7c-0.4-1.4-0.5-2.6-0.5-3.4c0.9-1.2,1.8-2.3,2.8-3.4
			c1.4-1.5,2.8-3,4.4-4.4c1.4,0,2.8,0.3,4,1.1c0.7,2,1.2,4,1.6,6c0.3,1.4,0.5,2.9,0.7,4.3C217.5,28.1,216.8,29,215.8,30.1z"/>
		<path id="shade_orange_1" class="st9" d="M217.6,25.2c-1.2,2.2-3.3,4.2-5.6,6c0,0.2,0,0.4,0,0.7c0,0.5,0,1-0.1,1.5
			c0,0,0.1,0,0.1-0.1c0,0,0,0,0,0c0,0,0.1-0.1,0.1-0.1l0,0c0,0,0.1-0.1,0.1-0.1c0,0,0,0,0,0c0,0,0.1-0.1,0.1-0.1c0,0,0,0,0,0
			c0,0,0.1-0.1,0.1-0.1c0,0,0,0,0,0c0,0,0.1-0.1,0.1-0.1c0,0,0,0,0,0c0.1-0.1,0.1-0.1,0.2-0.2c0,0,0,0,0,0c0.1-0.1,0.1-0.1,0.2-0.2
			c0,0,0,0,0,0c0,0,0.1-0.1,0.1-0.1c0,0,0,0,0,0c0,0,0.1-0.1,0.1-0.1c0,0,0,0,0,0c0,0,0.1-0.1,0.1-0.1c0,0,0,0,0,0
			c0,0,0.1-0.1,0.1-0.1c0,0,0,0,0,0c0,0,0.1-0.1,0.1-0.1c0,0,0,0,0,0c0.1-0.1,0.1-0.1,0.2-0.2c0,0,0,0,0,0c0,0,0.1-0.1,0.1-0.1
			c0,0,0,0,0,0c0,0,0.1-0.1,0.1-0.1c0,0,0,0,0,0c0,0,0.1-0.1,0.1-0.1c0,0,0,0,0,0c0,0,0.1-0.1,0.1-0.1c0,0,0,0,0,0
			c0,0,0.1-0.1,0.1-0.1c0,0,0,0,0,0c0,0,0.1-0.1,0.1-0.1c0,0,0,0,0,0c0,0,0.1-0.1,0.1-0.1c0,0,0,0,0,0c0,0,0.1-0.1,0.1-0.1
			c0,0,0,0,0,0c0,0,0.1-0.1,0.1-0.1c0,0,0,0,0,0c0,0,0.1-0.1,0.1-0.1c0,0,0,0,0,0c0,0,0.1-0.1,0.1-0.1c0,0,0,0,0,0
			c0,0,0.1-0.1,0.1-0.1c0,0,0,0,0,0c0,0,0.1-0.1,0.1-0.1c0,0,0,0,0,0c0,0,0.1-0.1,0.1-0.1c0,0,0,0,0,0c0,0,0.1-0.1,0.1-0.1
			c0,0,0.1-0.1,0.1-0.1c0,0,0,0,0,0c0,0,0.1-0.1,0.1-0.1c0,0,0,0,0,0c0,0,0,0,0.1-0.1c0,0,0,0,0,0c0,0,0-0.1,0.1-0.1c0,0,0,0,0,0
			c0,0,0,0,0.1-0.1c0,0,0,0,0,0c0,0,0,0,0.1-0.1c0,0,0,0,0,0c0,0,0,0,0.1-0.1c0,0,0,0,0,0c0,0,0,0,0.1-0.1c0,0,0,0,0,0
			c0,0,0,0,0.1-0.1c0,0,0,0,0,0c0,0,0,0,0-0.1c0,0,0,0,0,0c0,0,0,0,0.1-0.1c0,0,0,0,0,0c0,0,0,0,0-0.1c0,0,0,0,0,0c0,0,0,0,0-0.1
			c0,0,0,0,0,0c0,0,0,0,0.1-0.1c0,0,0,0,0,0c0,0,0,0,0-0.1c0,0,0,0,0,0c0,0,0,0,0.1-0.1c0,0,0,0,0,0c0,0,0,0,0-0.1c0,0,0,0,0,0
			c0,0,0,0,0.1-0.1c0,0,0,0,0,0c0,0,0,0,0.1-0.1c0,0,0,0,0,0c0,0,0,0,0-0.1c0,0,0,0,0,0c0,0,0,0,0.1-0.1c0,0,0,0,0,0c0,0,0,0,0-0.1
			c0,0,0,0,0,0c0,0,0,0,0.1-0.1c0,0,0,0,0,0c0,0,0.1-0.1,0.1-0.1c0,0,0,0,0,0c0.1-0.2,0.2-0.3,0.3-0.5
			C217.9,26.6,217.7,25.9,217.6,25.2z"/>
		<path id="shade_orange_2" class="st9" d="M205.1,27.4c0,0,0,0.1,0,0.1c0,0,0,0,0,0c0,0,0,0.1,0,0.1c0,0,0,0,0,0c0,0,0,0.1,0,0.1
			c0,0,0,0,0,0c0,0,0,0.1,0,0.1c0,0,0,0,0,0c0,0,0,0.1,0,0.1c0,0,0,0,0,0c0,0,0,0.1,0,0.1v0c0,0,0,0.1,0,0.1c0,0,0,0,0,0
			c0,0,0,0.1,0,0.1v0c0,0,0,0.1,0,0.1c0,0,0,0,0,0c0,0,0,0.1,0,0.1c0,0,0,0,0,0c0,0,0,0.1,0,0.1c0,0,0,0,0,0c0,0,0,0.1,0,0.1
			c0,0,0,0,0,0c0,0,0,0.1,0,0.1c0,0,0,0,0,0c0,0,0,0.1,0,0.1c0,0,0,0,0,0c0,0.1,0.1,0.2,0.1,0.3c0,0,0,0,0,0c0,0,0,0.1,0.1,0.1
			c0,0,0,0,0,0c0,0,0,0.1,0,0.1c0,0,0,0,0,0c0,0,0,0.1,0.1,0.1c0,0,0,0,0,0c0,0,0,0.1,0,0.1c0,0,0,0,0,0c0,0,0,0.1,0.1,0.1
			c0,0,0,0,0,0c0,0,0,0.1,0.1,0.1v0c0,0,0,0.1,0.1,0.1c0,0,0,0,0,0c0,0,0,0.1,0.1,0.1c0,0,0,0,0,0c0,0,0,0.1,0,0.1c0,0,0,0,0,0
			c0,0,0,0.1,0,0.1c0,0,0,0,0,0c0,0,0,0.1,0,0.1c0,0,0,0,0,0c0,0,0,0.1,0,0.1c0,0,0,0,0,0c0,0,0,0.1,0,0.1c0,0,0,0,0,0
			c0,0,0,0.1,0,0.1c0,0,0,0,0,0c0,0,0,0.1,0,0.1c0,0,0,0,0,0c0.1-0.1,0.1-0.3,0.2-0.4c-0.8-1.5-1.5-3-2-4.7c0,0,0,0,0,0.1
			c0,0,0,0,0,0c0,0,0,0.1,0,0.1c0,0,0,0,0,0c0,0,0,0.1,0,0.1C205,27.2,205.1,27.3,205.1,27.4C205.1,27.4,205.1,27.4,205.1,27.4z"/>
		<path id="blue_basket_1_" class="st10" d="M209.5,38.2l-0.3,1.2c-0.1,0.4-0.5,0.6-0.9,0.5l0,0l-1.7-0.5c-0.4-0.1-0.6-0.5-0.5-0.9
			l0.3-1.2c-0.2-0.1-0.2-0.4-0.1-0.5c0.1-0.1,0.3-0.2,0.4-0.2l2.9,0.8c0.2,0.1,0.3,0.3,0.3,0.5C209.8,38.1,209.7,38.2,209.5,38.2z"
			/>
		<path id="shade_basket_1_" class="st11" d="M209,37.3l0.6,0.2c0.2,0.1,0.3,0.3,0.3,0.5c0,0.2-0.2,0.3-0.4,0.3l-0.3,1.2
			c-0.1,0.4-0.5,0.6-0.9,0.5l0,0l-1.4-0.4c0.2-0.1,0.3-0.2,0.5-0.3c0.7-0.5,1.1-1.3,1.3-2.1L209,37.3z"/>
		<path id="white_circle_1_" class="st12" d="M212.5,21c1.3,0.3,2.1,1.7,1.7,3c-0.3,1.3-1.7,2.1-3,1.7c-1.3-0.3-2.1-1.7-1.7-3
			C209.8,21.4,211.2,20.6,212.5,21z"/>
		<path id="light_line_upper_left" class="st2" d="M205.7,21.2C205.7,21.2,205.7,21.2,205.7,21.2c-0.1,0-0.1-0.1-0.1-0.2
			c0.3-0.7,0.6-1.3,1.1-1.9c0.5-0.6,1-1,1.7-1.4c0.1,0,0.2,0,0.2,0.1c0,0.1,0,0.2-0.1,0.2c-1.2,0.7-2.1,1.8-2.6,3.2
			C205.9,21.1,205.8,21.2,205.7,21.2z"/>
		<path id="light_line_point" class="st2" d="M208.9,34.3C208.8,34.3,208.8,34.3,208.9,34.3c-0.2-0.2-0.3-0.3-0.4-0.5
			c-0.1-0.2-0.2-0.3-0.3-0.5c0-0.1,0-0.2,0.1-0.2c0.1,0,0.2,0,0.2,0.1c0.1,0.2,0.2,0.3,0.3,0.5c0.1,0.1,0.1,0.2,0.2,0.3
			c0.6-0.3,1.1-0.7,1.7-1c0.7-0.5,1.4-0.9,2.1-1.4c0.1-0.1,0.2,0,0.2,0c0.1,0.1,0,0.2,0,0.2c-0.7,0.5-1.4,1-2.1,1.4
			c-0.6,0.4-1.2,0.7-1.8,1.1C209,34.3,208.9,34.3,208.9,34.3z"/>
		<path id="light_line_upper_right" class="st2" d="M217.9,21.5c-0.1,0-0.1-0.1-0.1-0.1c-0.2-0.7-0.6-1.3-1-1.9
			c-0.1-0.1,0-0.2,0-0.2c0.1-0.1,0.2,0,0.2,0c0.5,0.6,0.8,1.3,1,2C218.2,21.3,218.1,21.4,217.9,21.5C218,21.5,218,21.5,217.9,21.5z"
			/>
		<path id="light_line_lower_left" class="st2" d="M207.1,39.2c-0.3-0.1-0.4-0.1-0.5-0.3c-0.1-0.2,0-0.4,0.1-0.8
			c0-0.1,0-0.1,0.1-0.2c0-0.1,0.1-0.1,0.2-0.1c0.1,0,0.1,0.1,0.1,0.2c0,0.1,0,0.2-0.1,0.2c-0.1,0.3-0.1,0.5-0.1,0.6
			c0,0,0.2,0.1,0.5,0.2c0.1,0,0.1,0,0.2,0.1c0.1,0,0.1,0.1,0.1,0.2c0,0.1-0.1,0.1-0.2,0.1c-0.1,0-0.2,0-0.2-0.1
			C207.2,39.2,207.1,39.2,207.1,39.2z"/>
		<circle id="light_dot_upper_left" class="st2" cx="208.9" cy="17.4" r="0.2"/>
		<circle id="light_dot_point" class="st2" cx="208" cy="32.8" r="0.2"/>
		<ellipse id="light_dot_upper_right" class="st2" cx="218.2" cy="21.9" rx="0.2" ry="0.2"/>
		<ellipse id="light_dot_lower_left" class="st2" cx="208" cy="39.2" rx="0.2" ry="0.2"/>
	</g>
</g>
</svg>
