<svg width="330" height="248" viewBox="0 0 330 248" fill="none" xmlns="http://www.w3.org/2000/svg">
<path d="M0 0H330V238.906C330 241.185 329.095 243.371 327.483 244.983C325.871 246.595 323.685 247.5 321.406 247.5H8.59375C6.31455 247.5 4.12869 246.595 2.51705 244.983C0.905411 243.371 0 241.185 0 238.906V0Z" fill="#1D66C0"/>
<path d="M321.406 8.59375H8.59375V238.906H321.406V8.59375Z" fill="white"/>
<path d="M20.166 212.062L24.2148 213.703V214.852L19.4219 212.631V211.957L20.166 212.062ZM24.2148 210.715L20.1719 212.379L19.4219 212.461V211.781L24.2148 209.566V210.715Z" fill="#1D66C0"/>
<path d="M29.248 212.062L33.2969 213.703V214.852L28.5039 212.631V211.957L29.248 212.062ZM33.2969 210.715L29.2539 212.379L28.5039 212.461V211.781L33.2969 209.566V210.715Z" fill="#1D66C0"/>
<path d="M38.3301 212.062L42.3789 213.703V214.852L37.5859 212.631V211.957L38.3301 212.062ZM42.3789 210.715L38.3359 212.379L37.5859 212.461V211.781L42.3789 209.566V210.715Z" fill="#1D66C0"/>
<path d="M47.4121 212.062L51.4609 213.703V214.852L46.668 212.631V211.957L47.4121 212.062ZM51.4609 210.715L47.418 212.379L46.668 212.461V211.781L51.4609 209.566V210.715Z" fill="#1D66C0"/>
<path d="M56.4941 212.062L60.543 213.703V214.852L55.75 212.631V211.957L56.4941 212.062ZM60.543 210.715L56.5 212.379L55.75 212.461V211.781L60.543 209.566V210.715Z" fill="#1D66C0"/>
<path d="M65.5762 212.062L69.625 213.703V214.852L64.832 212.631V211.957L65.5762 212.062ZM69.625 210.715L65.582 212.379L64.832 212.461V211.781L69.625 209.566V210.715Z" fill="#1D66C0"/>
<path d="M74.6582 212.062L78.707 213.703V214.852L73.9141 212.631V211.957L74.6582 212.062ZM78.707 210.715L74.6641 212.379L73.9141 212.461V211.781L78.707 209.566V210.715Z" fill="#1D66C0"/>
<path d="M83.7402 212.062L87.7891 213.703V214.852L82.9961 212.631V211.957L83.7402 212.062ZM87.7891 210.715L83.7461 212.379L82.9961 212.461V211.781L87.7891 209.566V210.715Z" fill="#1D66C0"/>
<path d="M92.8223 212.062L96.8711 213.703V214.852L92.0781 212.631V211.957L92.8223 212.062ZM96.8711 210.715L92.8281 212.379L92.0781 212.461V211.781L96.8711 209.566V210.715Z" fill="#1D66C0"/>
<path d="M101.904 212.062L105.953 213.703V214.852L101.16 212.631V211.957L101.904 212.062ZM105.953 210.715L101.91 212.379L101.16 212.461V211.781L105.953 209.566V210.715Z" fill="#1D66C0"/>
<path d="M110.986 212.062L115.035 213.703V214.852L110.242 212.631V211.957L110.986 212.062ZM115.035 210.715L110.992 212.379L110.242 212.461V211.781L115.035 209.566V210.715Z" fill="#1D66C0"/>
<path d="M120.068 212.062L124.117 213.703V214.852L119.324 212.631V211.957L120.068 212.062ZM124.117 210.715L120.074 212.379L119.324 212.461V211.781L124.117 209.566V210.715Z" fill="#1D66C0"/>
<path d="M129.15 212.062L133.199 213.703V214.852L128.406 212.631V211.957L129.15 212.062ZM133.199 210.715L129.156 212.379L128.406 212.461V211.781L133.199 209.566V210.715Z" fill="#1D66C0"/>
<path d="M138.232 212.062L142.281 213.703V214.852L137.488 212.631V211.957L138.232 212.062ZM142.281 210.715L138.238 212.379L137.488 212.461V211.781L142.281 209.566V210.715Z" fill="#1D66C0"/>
<path d="M147.314 212.062L151.363 213.703V214.852L146.57 212.631V211.957L147.314 212.062ZM151.363 210.715L147.32 212.379L146.57 212.461V211.781L151.363 209.566V210.715Z" fill="#1D66C0"/>
<path d="M156.396 212.062L160.445 213.703V214.852L155.652 212.631V211.957L156.396 212.062ZM160.445 210.715L156.402 212.379L155.652 212.461V211.781L160.445 209.566V210.715Z" fill="#1D66C0"/>
<path d="M165.479 212.062L169.527 213.703V214.852L164.734 212.631V211.957L165.479 212.062ZM169.527 210.715L165.484 212.379L164.734 212.461V211.781L169.527 209.566V210.715Z" fill="#1D66C0"/>
<path d="M174.561 212.062L178.609 213.703V214.852L173.816 212.631V211.957L174.561 212.062ZM178.609 210.715L174.566 212.379L173.816 212.461V211.781L178.609 209.566V210.715Z" fill="#1D66C0"/>
<path d="M183.643 212.062L187.691 213.703V214.852L182.898 212.631V211.957L183.643 212.062ZM187.691 210.715L183.648 212.379L182.898 212.461V211.781L187.691 209.566V210.715Z" fill="#1D66C0"/>
<path d="M192.725 212.062L196.773 213.703V214.852L191.98 212.631V211.957L192.725 212.062ZM196.773 210.715L192.73 212.379L191.98 212.461V211.781L196.773 209.566V210.715Z" fill="#1D66C0"/>
<path d="M201.807 212.062L205.855 213.703V214.852L201.062 212.631V211.957L201.807 212.062ZM205.855 210.715L201.812 212.379L201.062 212.461V211.781L205.855 209.566V210.715Z" fill="#1D66C0"/>
<path d="M210.889 212.062L214.938 213.703V214.852L210.145 212.631V211.957L210.889 212.062ZM214.938 210.715L210.895 212.379L210.145 212.461V211.781L214.938 209.566V210.715Z" fill="#1D66C0"/>
<path d="M219.971 212.062L224.02 213.703V214.852L219.227 212.631V211.957L219.971 212.062ZM224.02 210.715L219.977 212.379L219.227 212.461V211.781L224.02 209.566V210.715Z" fill="#1D66C0"/>
<path d="M229.053 212.062L233.102 213.703V214.852L228.309 212.631V211.957L229.053 212.062ZM233.102 210.715L229.059 212.379L228.309 212.461V211.781L233.102 209.566V210.715Z" fill="#1D66C0"/>
<path d="M238.135 212.062L242.184 213.703V214.852L237.391 212.631V211.957L238.135 212.062ZM242.184 210.715L238.141 212.379L237.391 212.461V211.781L242.184 209.566V210.715Z" fill="#1D66C0"/>
<path d="M247.217 212.062L251.266 213.703V214.852L246.473 212.631V211.957L247.217 212.062ZM251.266 210.715L247.223 212.379L246.473 212.461V211.781L251.266 209.566V210.715Z" fill="#1D66C0"/>
<path d="M256.299 212.062L260.348 213.703V214.852L255.555 212.631V211.957L256.299 212.062ZM260.348 210.715L256.305 212.379L255.555 212.461V211.781L260.348 209.566V210.715Z" fill="#1D66C0"/>
<path d="M265.381 212.062L269.43 213.703V214.852L264.637 212.631V211.957L265.381 212.062ZM269.43 210.715L265.387 212.379L264.637 212.461V211.781L269.43 209.566V210.715Z" fill="#1D66C0"/>
<path d="M274.463 212.062L278.512 213.703V214.852L273.719 212.631V211.957L274.463 212.062ZM278.512 210.715L274.469 212.379L273.719 212.461V211.781L278.512 209.566V210.715Z" fill="#1D66C0"/>
<path d="M283.545 212.062L287.594 213.703V214.852L282.801 212.631V211.957L283.545 212.062ZM287.594 210.715L283.551 212.379L282.801 212.461V211.781L287.594 209.566V210.715Z" fill="#1D66C0"/>
<path d="M292.627 212.062L296.676 213.703V214.852L291.883 212.631V211.957L292.627 212.062ZM296.676 210.715L292.633 212.379L291.883 212.461V211.781L296.676 209.566V210.715Z" fill="#1D66C0"/>
<path d="M301.709 212.062L305.758 213.703V214.852L300.965 212.631V211.957L301.709 212.062ZM305.758 210.715L301.715 212.379L300.965 212.461V211.781L305.758 209.566V210.715Z" fill="#1D66C0"/>
<path d="M20.166 226.062L24.2148 227.703V228.852L19.4219 226.631V225.957L20.166 226.062ZM24.2148 224.715L20.1719 226.379L19.4219 226.461V225.781L24.2148 223.566V224.715Z" fill="#1D66C0"/>
<path d="M29.248 226.062L33.2969 227.703V228.852L28.5039 226.631V225.957L29.248 226.062ZM33.2969 224.715L29.2539 226.379L28.5039 226.461V225.781L33.2969 223.566V224.715Z" fill="#1D66C0"/>
<path d="M38.3301 226.062L42.3789 227.703V228.852L37.5859 226.631V225.957L38.3301 226.062ZM42.3789 224.715L38.3359 226.379L37.5859 226.461V225.781L42.3789 223.566V224.715Z" fill="#1D66C0"/>
<path d="M47.4121 226.062L51.4609 227.703V228.852L46.668 226.631V225.957L47.4121 226.062ZM51.4609 224.715L47.418 226.379L46.668 226.461V225.781L51.4609 223.566V224.715Z" fill="#1D66C0"/>
<path d="M56.4941 226.062L60.543 227.703V228.852L55.75 226.631V225.957L56.4941 226.062ZM60.543 224.715L56.5 226.379L55.75 226.461V225.781L60.543 223.566V224.715Z" fill="#1D66C0"/>
<path d="M65.5762 226.062L69.625 227.703V228.852L64.832 226.631V225.957L65.5762 226.062ZM69.625 224.715L65.582 226.379L64.832 226.461V225.781L69.625 223.566V224.715Z" fill="#1D66C0"/>
<path d="M74.6582 226.062L78.707 227.703V228.852L73.9141 226.631V225.957L74.6582 226.062ZM78.707 224.715L74.6641 226.379L73.9141 226.461V225.781L78.707 223.566V224.715Z" fill="#1D66C0"/>
<path d="M83.7402 226.062L87.7891 227.703V228.852L82.9961 226.631V225.957L83.7402 226.062ZM87.7891 224.715L83.7461 226.379L82.9961 226.461V225.781L87.7891 223.566V224.715Z" fill="#1D66C0"/>
<path d="M92.8223 226.062L96.8711 227.703V228.852L92.0781 226.631V225.957L92.8223 226.062ZM96.8711 224.715L92.8281 226.379L92.0781 226.461V225.781L96.8711 223.566V224.715Z" fill="#1D66C0"/>
<path d="M101.904 226.062L105.953 227.703V228.852L101.16 226.631V225.957L101.904 226.062ZM105.953 224.715L101.91 226.379L101.16 226.461V225.781L105.953 223.566V224.715Z" fill="#1D66C0"/>
<path d="M110.986 226.062L115.035 227.703V228.852L110.242 226.631V225.957L110.986 226.062ZM115.035 224.715L110.992 226.379L110.242 226.461V225.781L115.035 223.566V224.715Z" fill="#1D66C0"/>
<path d="M120.068 226.062L124.117 227.703V228.852L119.324 226.631V225.957L120.068 226.062ZM124.117 224.715L120.074 226.379L119.324 226.461V225.781L124.117 223.566V224.715Z" fill="#1D66C0"/>
<path d="M129.15 226.062L133.199 227.703V228.852L128.406 226.631V225.957L129.15 226.062ZM133.199 224.715L129.156 226.379L128.406 226.461V225.781L133.199 223.566V224.715Z" fill="#1D66C0"/>
<path d="M138.232 226.062L142.281 227.703V228.852L137.488 226.631V225.957L138.232 226.062ZM142.281 224.715L138.238 226.379L137.488 226.461V225.781L142.281 223.566V224.715Z" fill="#1D66C0"/>
<path d="M147.314 226.062L151.363 227.703V228.852L146.57 226.631V225.957L147.314 226.062ZM151.363 224.715L147.32 226.379L146.57 226.461V225.781L151.363 223.566V224.715Z" fill="#1D66C0"/>
<path d="M156.396 226.062L160.445 227.703V228.852L155.652 226.631V225.957L156.396 226.062ZM160.445 224.715L156.402 226.379L155.652 226.461V225.781L160.445 223.566V224.715Z" fill="#1D66C0"/>
<path d="M165.479 226.062L169.527 227.703V228.852L164.734 226.631V225.957L165.479 226.062ZM169.527 224.715L165.484 226.379L164.734 226.461V225.781L169.527 223.566V224.715Z" fill="#1D66C0"/>
<path d="M174.561 226.062L178.609 227.703V228.852L173.816 226.631V225.957L174.561 226.062ZM178.609 224.715L174.566 226.379L173.816 226.461V225.781L178.609 223.566V224.715Z" fill="#1D66C0"/>
<path d="M183.643 226.062L187.691 227.703V228.852L182.898 226.631V225.957L183.643 226.062ZM187.691 224.715L183.648 226.379L182.898 226.461V225.781L187.691 223.566V224.715Z" fill="#1D66C0"/>
<path d="M192.725 226.062L196.773 227.703V228.852L191.98 226.631V225.957L192.725 226.062ZM196.773 224.715L192.73 226.379L191.98 226.461V225.781L196.773 223.566V224.715Z" fill="#1D66C0"/>
<path d="M201.807 226.062L205.855 227.703V228.852L201.062 226.631V225.957L201.807 226.062ZM205.855 224.715L201.812 226.379L201.062 226.461V225.781L205.855 223.566V224.715Z" fill="#1D66C0"/>
<path d="M210.889 226.062L214.938 227.703V228.852L210.145 226.631V225.957L210.889 226.062ZM214.938 224.715L210.895 226.379L210.145 226.461V225.781L214.938 223.566V224.715Z" fill="#1D66C0"/>
<path d="M219.971 226.062L224.02 227.703V228.852L219.227 226.631V225.957L219.971 226.062ZM224.02 224.715L219.977 226.379L219.227 226.461V225.781L224.02 223.566V224.715Z" fill="#1D66C0"/>
<path d="M229.053 226.062L233.102 227.703V228.852L228.309 226.631V225.957L229.053 226.062ZM233.102 224.715L229.059 226.379L228.309 226.461V225.781L233.102 223.566V224.715Z" fill="#1D66C0"/>
<path d="M238.135 226.062L242.184 227.703V228.852L237.391 226.631V225.957L238.135 226.062ZM242.184 224.715L238.141 226.379L237.391 226.461V225.781L242.184 223.566V224.715Z" fill="#1D66C0"/>
<path d="M247.217 226.062L251.266 227.703V228.852L246.473 226.631V225.957L247.217 226.062ZM251.266 224.715L247.223 226.379L246.473 226.461V225.781L251.266 223.566V224.715Z" fill="#1D66C0"/>
<path d="M256.299 226.062L260.348 227.703V228.852L255.555 226.631V225.957L256.299 226.062ZM260.348 224.715L256.305 226.379L255.555 226.461V225.781L260.348 223.566V224.715Z" fill="#1D66C0"/>
<path d="M265.381 226.062L269.43 227.703V228.852L264.637 226.631V225.957L265.381 226.062ZM269.43 224.715L265.387 226.379L264.637 226.461V225.781L269.43 223.566V224.715Z" fill="#1D66C0"/>
<path d="M274.463 226.062L278.512 227.703V228.852L273.719 226.631V225.957L274.463 226.062ZM278.512 224.715L274.469 226.379L273.719 226.461V225.781L278.512 223.566V224.715Z" fill="#1D66C0"/>
<path d="M283.545 226.062L287.594 227.703V228.852L282.801 226.631V225.957L283.545 226.062ZM287.594 224.715L283.551 226.379L282.801 226.461V225.781L287.594 223.566V224.715Z" fill="#1D66C0"/>
<path d="M292.627 226.062L296.676 227.703V228.852L291.883 226.631V225.957L292.627 226.062ZM296.676 224.715L292.633 226.379L291.883 226.461V225.781L296.676 223.566V224.715Z" fill="#1D66C0"/>
<path d="M301.709 226.062L305.758 227.703V228.852L300.965 226.631V225.957L301.709 226.062ZM305.758 224.715L301.715 226.379L300.965 226.461V225.781L305.758 223.566V224.715Z" fill="#1D66C0"/>
<path d="M201.842 30.8813C200.489 34.5106 198.902 36.9268 196.246 36.9268C194.893 36.9268 193.92 36.1431 193.92 34.7935C193.92 33.0634 195.13 29.9317 196.528 27.4439C195.676 27.7984 194.538 28.1301 194.086 28.2276C193.943 28.5821 193.732 29.0797 193.468 29.6748C193.393 29.8439 193.306 30.0423 193.205 30.2634C193.198 30.2797 193.192 30.2992 193.185 30.3154C193.137 30.4585 193.042 30.6472 192.925 30.8846C192.844 31.0602 192.763 31.2325 192.681 31.4049C192.545 31.7041 192.395 32.0293 192.239 32.3805L192.002 32.8781C191.914 33.0894 191.81 33.2488 191.689 33.3561C190.343 35.7951 188.893 37.5024 187.14 37.5024C186.096 37.5024 185.504 36.7675 185.504 35.5089V35.4374C184.554 36.361 183.725 36.8618 182.327 36.8618C181.094 36.8618 180.145 36.3154 180.145 35.2976C180.145 34.0065 180.473 32.8033 181.042 31.4374C180.847 31.4667 180.649 31.4797 180.454 31.4797C180.337 31.4797 180.145 31.4569 179.885 31.4309C179.007 33.5902 178.011 35.1317 176.896 36.0325C176.161 36.6244 175.403 36.9333 174.62 36.9333C173.293 36.9333 172.272 36.026 172.037 34.5268C170.915 36.0195 169.543 36.9333 167.956 36.9333C166.356 36.9333 165.465 36.2407 165.286 34.8423C164.145 36.452 162.854 37.5024 161.576 37.5024C160.532 37.5024 159.94 36.7675 159.94 35.5089C159.94 34.4423 160.675 32.9951 161.979 30.813L162.668 29.6033C162.74 29.4862 162.785 29.3659 162.785 29.2488C162.785 29.1545 162.737 29.1057 162.642 29.1057C162.428 29.1057 162.145 29.3203 161.764 29.7691C160.554 31.2618 159.273 33.161 157.898 35.5089C157.79 35.6585 157.696 35.8179 157.615 35.9837C157.426 36.2699 157.283 36.5756 156.808 36.7675C156.571 36.8813 156.311 36.9366 156.05 36.9333C155.267 36.9333 154.863 36.5528 154.863 35.7724C154.863 35.7073 154.87 35.6325 154.876 35.548C154.551 35.8732 154.177 36.1496 153.771 36.3675C153.059 36.748 152.158 36.9366 151.068 36.9366C149.644 36.9366 148.366 36.3675 147.654 35.3236C147.299 34.8033 147.107 34.1854 147.107 33.4732C147.107 31.2683 148.34 28.6114 150.167 26.9984C151.068 26.1919 152.018 25.7886 153.036 25.7886C154.743 25.7886 155.667 26.6179 155.667 27.8504C155.667 30.2211 153.059 32.6894 149.833 34.0878C150.093 34.9171 150.828 35.3919 151.611 35.3919C153.27 35.3919 154.694 33.9935 155.904 31.2195C155.966 31.0699 156.037 30.9203 156.115 30.7772C156.489 29.626 156.893 28.5301 157.231 27.7821L157.563 27.0472C157.966 26.0748 158.18 25.6715 158.629 25.3886C158.844 25.2715 159.15 25.2 159.507 25.2C160.148 25.2 160.668 25.5089 160.668 26.0065C160.668 26.1008 160.668 26.1724 160.646 26.2439C159.579 28.5919 159.033 30.0846 158.486 31.9837C160.548 28.7837 162.824 26.0098 164.32 26.0098C164.818 26.0098 165.15 26.3902 165.15 26.9594C165.15 27.7886 164.652 28.8325 163.68 30.6114C162.613 32.5789 162.044 33.7886 162.044 34.8098C162.044 35.0472 162.067 35.213 162.138 35.3073C162.184 35.4016 162.255 35.4504 162.376 35.4504C163.228 35.4504 164.011 34.5496 164.603 33.4829C164.912 32.9366 165.267 32.2276 165.719 31.3236C165.823 31.0667 166.005 30.6504 166.197 30.2862C166.268 30.0976 166.346 29.9057 166.428 29.7106L166.854 28.6667L166.473 28.7382C166.402 28.761 166.33 28.761 166.213 28.761C165.764 28.761 165.455 28.5236 165.455 28.0748C165.455 27.3886 166.333 27.3626 167.494 27.1512C167.754 26.5333 168.278 25.587 169.013 24.3057C169.322 23.7593 169.963 23.4764 170.554 23.4764C171.195 23.4764 171.693 23.7854 171.693 24.2602C171.693 24.426 171.621 24.6146 171.504 24.7805C171.006 25.6098 170.652 26.2504 170.415 26.7024C170.867 26.6797 171.172 26.6537 171.364 26.6537C171.956 26.6537 172.288 26.9138 172.288 27.3171C172.288 27.7203 171.979 28.0033 171.576 28.0033C170.954 28.0325 170.34 28.0943 169.725 28.1919L169.133 29.6163L168.873 30.2797C168.255 31.8439 167.95 33.0764 167.95 33.9772C167.95 34.8325 168.259 35.2585 168.873 35.2585C169.371 35.2585 169.917 34.9268 170.509 34.2374C171.101 33.5512 171.787 32.3642 172.571 30.6829C173.078 29.2878 173.891 27.974 174.919 27.0276C175.82 26.1984 176.815 25.7951 177.885 25.7951C178.737 25.7951 179.498 26.1041 179.901 26.6732C180.281 27.1935 180.47 27.9057 180.47 28.8065C180.467 29.2455 180.418 29.6813 180.327 30.1106C180.912 30.1756 181.488 29.961 181.92 29.5122C181.995 29.3594 182.073 29.2033 182.151 29.0439C182.532 28.3577 182.769 27.8569 182.863 27.5512C182.935 27.3854 182.98 27.1252 183.052 26.7675C183.241 25.8439 183.384 25.4862 184.236 25.4862C185.185 25.4862 185.589 26.0325 185.589 26.8846C185.589 27.5707 185.351 28.1886 184.665 29.5415C183.598 31.7951 182.958 33.1707 182.792 34.6146C182.769 34.7317 182.769 34.8748 182.769 35.0406C182.769 35.3268 182.815 35.4211 182.984 35.4211C183.127 35.4211 183.338 35.3268 183.624 35.161C184.454 34.7089 185.38 33.7366 186.398 32.1984C187.156 30.3967 188.32 28.2374 189.244 26.7447C189.267 26.722 189.293 26.6504 189.361 26.5301C189.478 26.2699 189.764 26.078 190.119 26.078C190.499 26.078 190.711 26.3154 190.711 26.6959C190.714 26.8911 190.655 27.0829 190.545 27.2423C189.192 29.5187 187.605 33.122 187.605 34.8065C187.605 35.0439 187.628 35.2098 187.699 35.3041C187.748 35.3984 187.816 35.4472 187.937 35.4472C188.766 35.4472 189.55 34.5463 190.141 33.5024C190.428 32.9821 190.805 32.2472 191.257 31.3203L191.328 31.1675C191.663 30.4065 192.015 29.535 192.395 28.5463L192.655 27.9285C191.92 27.3593 191.54 26.7415 191.54 26.0553C191.54 25.1772 191.992 24.4195 192.584 24.0163C192.893 23.8276 193.176 23.7301 193.485 23.7301C194.171 23.7301 194.694 24.2764 194.694 25.3886C194.694 25.7203 194.623 26.1463 194.506 26.6927C194.623 26.6699 194.886 26.5756 195.289 26.4325C196.688 25.9577 197.472 25.7203 198.135 25.7203C198.919 25.7203 199.367 26.2667 199.367 26.9073C199.367 27.122 199.273 27.4537 199.107 27.8797C198.941 28.3057 198.681 28.8748 198.324 29.5642C197.185 31.9122 196.499 33.548 196.499 34.8033C196.499 35.0407 196.522 35.2065 196.593 35.3008C196.642 35.3951 196.711 35.4439 196.831 35.4439C197.803 35.4439 198.727 34.2569 199.322 33.0732C199.631 32.4813 200.034 31.6033 200.577 30.4423C200.792 29.9675 201.029 29.5902 201.572 29.5902H201.595C201.904 29.5902 202.047 29.7333 202.047 30.0163C202.057 30.2179 201.985 30.5268 201.842 30.8813ZM151.003 27.0407C150.909 27.0407 150.815 27.0894 150.694 27.1837C150.447 27.3854 150.21 27.5967 149.982 27.8244C149.92 27.8797 149.888 27.9577 149.888 28.039C149.888 28.1561 149.982 28.2504 150.099 28.2537C150.171 28.2569 150.236 28.2309 150.288 28.1821C150.574 27.8959 150.785 27.7073 150.928 27.5902C151.072 27.4732 151.143 27.3301 151.143 27.2098C151.143 27.0894 151.098 27.0407 151.003 27.0407ZM151.833 26.4943L151.644 26.5431C151.478 26.6146 151.406 26.7089 151.406 26.852C151.406 26.9691 151.55 27.0894 151.738 27.0179C151.927 26.9463 152.07 26.8033 152.07 26.6862C152.07 26.5886 151.953 26.4943 151.833 26.4943ZM153.992 28.1073C153.992 27.7528 153.706 27.5382 153.306 27.5382C152.808 27.5382 152.167 27.8472 151.67 28.4878C150.886 29.5545 150.151 31.1447 149.868 32.4715C152.119 31.3073 153.992 29.6228 153.992 28.1073ZM149.533 35.7171C149.345 35.6228 149.13 35.4569 148.915 35.2423C148.821 35.148 148.727 35.0992 148.607 35.0992C148.486 35.0992 148.441 35.148 148.441 35.265C148.441 35.3594 148.489 35.4537 148.561 35.5512C148.727 35.8114 148.987 36.0033 149.345 36.1431L149.533 36.1919C149.676 36.1919 149.748 36.1203 149.748 36.0033C149.748 35.8862 149.676 35.7886 149.533 35.7171ZM150.434 36.026H150.363C150.174 36.026 150.054 36.1203 150.054 36.2862C150.054 36.4033 150.148 36.4748 150.314 36.5008H150.408C150.597 36.5008 150.717 36.3837 150.717 36.2634C150.717 36.1691 150.623 36.052 150.434 36.026ZM159.185 26.3512C159.306 26.2341 159.351 26.1366 159.351 26.0423C159.351 25.9382 159.27 25.8537 159.166 25.8537C159.163 25.8537 159.163 25.8537 159.159 25.8537C158.993 25.8537 158.756 25.9967 158.756 26.1854C158.756 26.374 159.02 26.5171 159.185 26.3512ZM158.733 26.9919C158.782 26.9398 158.805 26.8715 158.805 26.8033C158.805 26.6862 158.711 26.5659 158.59 26.5659C158.47 26.5659 158.376 26.6374 158.304 26.7545L157.878 27.6065C157.833 27.6943 157.807 27.7919 157.807 27.8927C157.807 28.0358 157.855 28.1073 157.972 28.1073C158.089 28.1073 158.21 28.013 158.281 27.8211C158.405 27.5317 158.558 27.252 158.733 26.9919ZM164.236 27.0634C164.402 27.0407 164.522 26.8748 164.522 26.7545C164.522 26.6341 164.428 26.5886 164.236 26.5886C163.787 26.5886 163.218 26.9431 162.528 27.6325C162.457 27.7041 162.411 27.7984 162.411 27.8699C162.411 27.987 162.483 28.0585 162.626 28.0585C162.72 28.0585 162.792 28.0098 162.863 27.9154C163.263 27.4439 163.833 27.135 164.236 27.0634ZM162.291 36.4553C162.19 36.4228 162.086 36.413 161.982 36.4325C161.911 36.4553 161.839 36.4553 161.722 36.4553C161.224 36.4553 161.01 36.1691 161.081 35.5057V35.4569C161.081 35.2683 160.987 35.1252 160.893 35.1252C160.727 35.1252 160.607 35.3398 160.607 35.6943C160.607 36.5236 160.938 36.9496 161.602 36.9496C161.673 36.9496 161.79 36.9268 161.982 36.9008C162.242 36.8781 162.385 36.7122 162.385 36.5919C162.385 36.5496 162.363 36.5008 162.291 36.4553ZM168.597 26.5659C168.714 26.5659 168.834 26.4715 168.928 26.3057L169.807 24.787C169.852 24.7252 169.875 24.6504 169.878 24.5724C169.878 24.4065 169.807 24.335 169.641 24.335C169.52 24.335 169.426 24.4065 169.354 24.5496C169.283 24.6667 169.166 24.9041 168.951 25.2618C168.763 25.574 168.597 25.8992 168.454 26.2341C168.431 26.2569 168.431 26.3057 168.431 26.3772C168.431 26.4943 168.48 26.5659 168.597 26.5659ZM167.982 35.9805C167.104 35.9317 166.535 35.5545 166.298 34.8423C166.226 34.6276 166.132 34.5106 166.011 34.5106C165.917 34.5106 165.823 34.6276 165.823 34.7967C165.829 34.9041 165.852 35.0081 165.894 35.1057C166.203 35.961 166.915 36.4098 167.982 36.4585C168.242 36.4585 168.385 36.3415 168.385 36.2211C168.385 36.1008 168.242 35.9805 167.982 35.9805ZM173.055 34.6504C173.033 34.4846 172.889 34.3902 172.795 34.3902C172.652 34.3902 172.58 34.4846 172.58 34.6764C172.587 34.774 172.61 34.8715 172.652 34.9626C172.961 35.8862 173.673 36.4553 174.62 36.4813H174.668C174.883 36.4813 174.977 36.4098 174.977 36.2927C174.977 36.1268 174.86 36.0325 174.623 36.0065C173.839 35.9805 173.27 35.4829 173.055 34.6504ZM176.564 26.4228C175.946 26.6602 175.426 27.0407 174.974 27.561C174.912 27.6163 174.88 27.6943 174.88 27.7756C174.88 27.8927 174.974 27.987 175.091 27.9902C175.091 27.9902 175.091 27.9902 175.094 27.9902C175.166 27.9902 175.237 27.9415 175.309 27.8732C175.712 27.4211 176.161 27.0667 176.685 26.852C176.85 26.7805 176.922 26.6862 176.922 26.5659C176.922 26.4 176.779 26.3285 176.564 26.4228ZM177.039 27.9415C175.901 29.2683 174.502 31.9024 174.502 33.7756C174.502 34.2504 174.574 34.6276 174.691 34.9366C174.808 35.2455 174.977 35.3886 175.143 35.3886C176.115 35.3886 177.585 33.4667 178.558 30.9073C177.702 30.3122 177.111 29.0797 177.039 27.9415ZM177.631 26.1138C177.416 26.1138 177.276 26.2569 177.276 26.374C177.276 26.4911 177.397 26.6114 177.585 26.5886C177.774 26.5659 177.894 26.4228 177.894 26.3285C177.894 26.1854 177.797 26.1138 177.631 26.1138ZM178.867 29.7431C178.392 29.3398 178.06 28.6049 178.037 28.013C178.015 27.7984 177.894 27.6325 177.777 27.6325C177.66 27.6325 177.589 27.7496 177.589 27.987C177.611 28.7707 177.992 29.6715 178.584 30.1463C178.678 30.2407 178.772 30.2894 178.844 30.2894C178.961 30.2894 179.033 30.2179 179.033 30.052C179.033 29.9317 178.984 29.8374 178.867 29.7431ZM183.488 28.0585C183.605 28.0585 183.725 27.9642 183.797 27.7984C183.985 27.3463 184.106 26.9691 184.128 26.6114V26.5398C184.128 26.3512 184.011 26.2081 183.891 26.2081C183.797 26.2081 183.676 26.3252 183.654 26.5171C183.589 26.9073 183.485 27.2878 183.345 27.6553C183.322 27.7041 183.322 27.7496 183.322 27.8211C183.322 27.987 183.371 28.0585 183.488 28.0585ZM187.283 36.5724C186.785 36.5951 186.476 36.2179 186.548 35.5512V35.4797C186.548 35.2911 186.454 35.1935 186.359 35.1935C186.193 35.1935 186.073 35.4081 186.073 35.6911C186.073 36.5203 186.499 37.0439 187.234 37.0439C187.423 37.0439 187.52 36.9268 187.52 36.8065C187.511 36.6829 187.41 36.5821 187.283 36.5724ZM192.737 24.5984C192.665 24.5984 192.571 24.6472 192.499 24.7415C192.223 25.0374 192.07 25.4276 192.073 25.8309C192.073 26.0911 192.145 26.2114 192.288 26.2114C192.405 26.2114 192.548 26.0455 192.548 25.8309C192.545 25.548 192.636 25.2715 192.808 25.0472C192.87 24.9821 192.902 24.8976 192.902 24.8098C192.902 24.6927 192.831 24.5984 192.737 24.5984ZM193.426 24.1008C193.309 24.1008 192.974 24.1951 192.974 24.4553C192.974 24.5724 193.046 24.6211 193.189 24.6211C193.254 24.6179 193.319 24.6049 193.377 24.5724C193.543 24.4781 193.615 24.3837 193.615 24.2634C193.615 24.1463 193.543 24.1008 193.426 24.1008ZM194.753 35.8862C194.922 36.1073 195.153 36.2732 195.416 36.361L195.488 36.3837C195.605 36.3837 195.748 36.2667 195.748 36.0976C195.754 36.0195 195.702 35.9512 195.631 35.9317C195.371 35.8374 195.205 35.6943 195.111 35.5285C195.088 35.4569 195.016 35.4114 194.922 35.4114C194.828 35.4114 194.707 35.5057 194.707 35.6715C194.704 35.7463 194.72 35.8179 194.753 35.8862ZM196.841 29.0569C196.902 28.9659 196.935 28.8585 196.935 28.748C196.935 28.6049 196.863 28.5333 196.746 28.5333C196.629 28.5333 196.532 28.6276 196.437 28.7935C195.371 30.8813 194.47 33.2293 194.47 34.6276C194.47 34.7707 194.493 34.8878 194.541 34.9594C194.59 35.0537 194.636 35.1024 194.685 35.1024C194.85 35.1024 194.945 34.9138 194.945 34.6276C194.941 33.2748 195.797 30.8585 196.841 29.0569ZM138.532 36.8553C137.637 36.8553 136.941 36.5431 136.629 35.935C135.829 36.8846 134.98 37.3756 133.979 37.3756C132.626 37.3756 131.989 36.4033 131.989 34.9106C131.992 34.5268 132.041 34.1463 132.132 33.7724C131.016 35.0537 130.115 35.9317 129.38 36.3805C128.883 36.6894 128.359 36.8553 127.79 36.8553C126.902 36.8553 126.193 36.361 125.982 35.4829C125.179 36.3675 124.32 36.7837 123.358 36.7837C122.385 36.7837 121.888 36.1659 121.722 34.839C121.699 34.6732 121.699 34.4846 121.699 34.2211C121.699 32.8683 122.6 30.2862 123.953 27.2488L121.654 27.4862C121.631 27.5577 121.592 27.626 121.537 27.6748L121.111 28.2927C120.945 28.5301 120.779 28.7902 120.564 29.0764C118.112 32.6829 116.928 34.3447 115.53 35.4829C114.818 36.0748 114.132 36.361 113.442 36.361C112.613 36.361 111.995 36.2179 111.403 35.626C111.286 35.5089 111.215 35.3659 111.215 35.2228C111.215 34.9366 111.501 34.7024 111.878 34.7024C111.995 34.7024 112.187 34.7512 112.398 34.8683C112.753 34.9854 112.99 35.0569 113.111 35.0569C114.034 35.0569 115.033 33.8244 115.979 32.1398C116.431 31.3106 117.046 30.1236 117.829 28.6309L118.161 27.9675C116.857 28.2049 115.836 28.465 115.127 28.7252C113.514 29.4146 112.993 29.935 112.304 31.665C112.187 31.9968 111.95 32.1626 111.618 32.1626C111.309 32.1626 111 31.9024 111 31.5447C111 31.4309 111.026 31.3171 111.072 31.213C111.807 29.1967 112.662 28.2959 114.486 27.5122C115.41 27.1089 116.906 26.7285 118.967 26.4228C121.527 21.5154 123.829 18.5041 126.509 18.5041C127.862 18.5041 128.88 19.0504 128.88 20.0943C128.88 20.5691 128.405 21.6585 127.719 22.8228C127.078 23.9382 126.486 25.0049 125.989 26.0488C126.08 26.1528 126.132 26.2894 126.132 26.4293C126.132 26.7154 125.894 26.9756 125.491 27.0927C124.115 30.1041 123.332 32.4748 123.12 34.2537C123.098 34.3317 123.098 34.413 123.12 34.4911V34.7772C123.143 35.0634 123.169 35.252 123.215 35.3236C123.26 35.3951 123.332 35.4407 123.452 35.4407C124.424 35.4407 125.348 34.2537 125.943 33.0699C126.167 32.6407 126.441 32.0618 126.782 31.3301C127.055 30.6309 127.39 29.8667 127.793 29.0374C128.672 27.213 130.424 25.9057 132.06 25.9057C133.198 25.9057 134.171 26.5463 134.668 27.4959L134.883 27.0699C135.855 25.0537 136.353 23.3951 136.353 22.065C136.356 21.7854 136.333 21.5089 136.281 21.2358C136.21 20.9984 136.187 20.8553 136.187 20.7837C136.187 20.0976 136.685 19.7171 137.276 19.7171C137.917 19.7171 138.58 20.0976 138.746 20.6407C138.821 20.9041 138.86 21.174 138.863 21.4472C138.863 23.0374 137.891 24.9561 136.206 27.8732C134.88 30.2211 134.499 31.0049 134.047 32.5203C133.833 33.3041 133.715 33.9415 133.715 34.465C133.715 35.1057 133.904 35.4374 134.285 35.4374C135.234 35.4374 135.92 34.7252 136.61 33.4699C136.815 33.0764 137.081 32.5366 137.413 31.8537C137.494 31.6618 137.585 31.4667 137.676 31.2618L138.057 30.4325C138.98 28.4163 139.312 27.587 139.312 26.6146C139.312 25.7366 139.859 25.2618 140.522 25.2618C141.163 25.2618 141.732 25.6878 141.849 26.3772C141.872 26.4715 141.872 26.6146 141.872 26.8033C141.872 27.9642 141.302 29.3886 140.45 31.0732C139.621 32.7577 139.124 33.8472 139.124 34.5821C139.124 35.0341 139.338 35.2683 139.787 35.2683C141.185 35.2683 143.296 32.5886 144.72 29.6488C145.41 28.2016 145.764 27.0862 145.764 26.3285C145.764 26.2341 145.741 26.0683 145.715 25.8537C145.667 25.639 145.644 25.4992 145.644 25.3789C145.644 25.0699 145.764 24.8585 146.024 24.7382C146.122 24.6959 146.226 24.6732 146.333 24.6667C146.62 24.6667 146.831 24.8813 146.974 25.3073C147.117 25.7594 147.189 26.3024 147.189 26.9659C147.189 30.5951 145.338 33.7724 142.685 35.5252C141.328 36.4065 139.953 36.8553 138.532 36.8553ZM124.541 19.7593C124.447 19.7593 124.304 19.8309 124.115 19.974C122.763 21.0407 121.553 22.9366 120.132 25.522C120.089 25.6033 120.063 25.6911 120.06 25.7821C120.06 25.8764 120.109 25.9252 120.226 25.9252C120.343 25.9252 120.512 25.8309 120.58 25.7106C122.311 22.6992 123.14 21.3008 124.372 20.3512C124.587 20.1854 124.681 20.0423 124.681 19.8992C124.681 19.8081 124.636 19.7593 124.541 19.7593ZM125.465 19.239C125.374 19.2488 125.286 19.2715 125.205 19.3106C125.088 19.3821 125.016 19.4537 125.016 19.548C125.016 19.7138 125.205 19.8081 125.397 19.7138C125.563 19.6423 125.657 19.5252 125.657 19.4049C125.654 19.2846 125.582 19.239 125.465 19.239ZM126.58 22.0846C126.984 21.4211 127.293 20.6374 127.293 20.2602C127.293 20.1431 127.27 20.0715 127.198 20.0715C126.746 20.0715 126.177 20.5919 125.442 21.613C124.707 22.6569 123.758 24.1268 122.597 26C122.951 25.9772 123.403 25.9512 123.95 25.8829C124.115 25.8829 124.33 25.8602 124.613 25.8341C125.276 24.478 125.94 23.2455 126.58 22.0846ZM127.979 35.8829C127.481 35.8829 127.055 35.6228 126.841 35.2195C126.818 35.148 126.746 35.1024 126.652 35.1024C126.535 35.1024 126.437 35.2195 126.437 35.3398C126.437 35.4244 126.463 35.5057 126.509 35.5772C126.818 36.052 127.338 36.361 127.979 36.361C128.193 36.361 128.333 36.2439 128.333 36.1463C128.333 36.026 128.167 35.8829 127.979 35.8829ZM136.776 24.052C136.919 24.052 137.013 23.935 137.062 23.7203C137.228 23.0569 137.299 22.5593 137.299 22.2276C137.299 21.9187 137.25 21.587 137.182 21.2325C137.159 21.0179 136.993 20.878 136.873 20.878C136.753 20.878 136.685 20.9496 136.685 21.1154C136.685 21.2098 136.707 21.3528 136.756 21.5675C136.802 21.7854 136.828 22.0098 136.828 22.2309C136.828 22.6114 136.756 23.0602 136.613 23.5837C136.59 23.6325 136.59 23.7008 136.59 23.7724C136.587 23.9577 136.681 24.052 136.776 24.052ZM136.089 26.1138C136.207 26.1138 136.304 25.9967 136.398 25.7593C136.519 25.4894 136.623 25.213 136.707 24.9301C136.73 24.8813 136.73 24.8358 136.73 24.7642C136.73 24.6472 136.636 24.5268 136.541 24.5268C136.447 24.5268 136.304 24.6211 136.281 24.787L135.995 25.6163C135.963 25.7008 135.946 25.7886 135.946 25.8764C135.946 25.9967 136.018 26.1138 136.089 26.1138ZM128.857 36.1691C129.117 36.1691 129.211 36.026 129.211 35.9089C129.211 35.7919 129.094 35.6943 128.974 35.6943C128.785 35.6943 128.642 35.8114 128.642 35.9805C128.642 36.0976 128.714 36.1691 128.857 36.1691ZM130.278 26.9691C130.161 26.9691 130.041 27.0179 129.924 27.135C129.709 27.3008 129.543 27.4439 129.403 27.6098C129.286 27.7268 129.237 27.8244 129.237 27.9187C129.237 28.0228 129.319 28.1073 129.423 28.1073C129.426 28.1073 129.426 28.1073 129.429 28.1073C129.546 28.1073 129.644 28.0585 129.738 27.9642C129.911 27.7854 130.093 27.6195 130.285 27.4667C130.398 27.4049 130.47 27.2878 130.473 27.1577C130.467 27.0407 130.398 26.9691 130.278 26.9691ZM131.416 26.3285C131.202 26.4 131.013 26.4715 130.896 26.5431C130.779 26.6146 130.73 26.6862 130.73 26.7577C130.73 26.9463 130.967 27.0667 131.156 26.9463L131.559 26.7805C131.725 26.7317 131.797 26.6374 131.797 26.5203C131.797 26.3512 131.676 26.2569 131.416 26.3285ZM133.007 27.5382C132.863 27.4309 132.688 27.3724 132.509 27.3724C131.156 27.3724 129.78 30.2667 129.023 32.6114C128.915 32.9073 128.857 33.2195 128.857 33.535C128.857 34.0098 129.046 34.2927 129.354 34.2927C129.615 34.2927 129.924 34.1041 130.327 33.7008C131.348 32.6569 132.083 31.7106 133.433 29.9057C133.621 29.6455 133.719 29.3366 133.719 28.9821C133.715 28.4163 133.455 27.8211 133.007 27.5382ZM134.119 36.4293C133.527 36.3805 133.169 36.0748 133.029 35.5285C132.958 35.3138 132.863 35.1967 132.743 35.1967C132.623 35.1967 132.506 35.3854 132.577 35.6715C132.766 36.4553 133.361 36.9041 134.119 36.9041C134.379 36.9041 134.522 36.8325 134.522 36.6894C134.522 36.5724 134.382 36.452 134.119 36.4293ZM139.859 28.0585C140.018 28.052 140.148 27.9317 140.167 27.7724C140.311 27.252 140.382 26.8488 140.382 26.5626C140.382 26.348 140.288 26.1821 140.122 26.1821C140.028 26.1821 139.907 26.2992 139.907 26.5138C139.907 26.6081 139.907 27.2715 139.719 27.6748L139.67 27.8407C139.67 27.987 139.738 28.0585 139.859 28.0585ZM145.998 30.3837C146.115 30.3837 146.187 30.2894 146.236 30.1236C146.33 29.8146 146.402 29.5772 146.424 29.4114C146.447 29.3398 146.447 29.2683 146.447 29.174C146.447 28.9366 146.376 28.8195 146.233 28.8195C146.138 28.8195 145.995 28.9366 145.972 29.2C145.924 29.4341 145.862 29.6618 145.784 29.8862C145.761 29.935 145.761 29.9805 145.761 30.052C145.764 30.2407 145.881 30.3837 145.998 30.3837ZM145.764 31.0959C145.764 30.9528 145.715 30.8813 145.621 30.8813C145.501 30.8813 145.384 30.9984 145.241 31.2618C144.411 32.852 143.179 34.1561 141.732 34.9366C141.517 35.0537 141.4 35.1968 141.4 35.3398C141.4 35.4569 141.472 35.5057 141.589 35.5057C141.66 35.5057 141.754 35.4569 141.92 35.3886C143.462 34.5333 144.789 33.161 145.644 31.522C145.715 31.3789 145.764 31.2358 145.764 31.0959Z" fill="#FF4B47"/>
<path d="M205.849 26.7415L205.124 26.8423L206.6 37.3431L207.325 37.2423L205.849 26.7415ZM215.566 29.3463L216.141 29.7984L209.611 38.1528L209.036 37.7008L215.566 29.3463ZM210.353 27.948L211.062 28.1366L208.281 38.5106L207.572 38.322L210.353 27.948Z" fill="#0E315C"/>
<path d="M216.145 29.7951L209.615 38.1496L209.039 37.6976L215.569 29.3431L216.145 29.7951ZM209.839 32.6959L208.863 36.3317C208.672 36.0878 208.483 35.8407 208.304 35.5902L208.932 33.2455C209.237 33.0634 209.54 32.8813 209.839 32.6959ZM206.311 30.0358L206.73 33.0179C206.532 32.6309 206.346 32.2407 206.171 31.8407C205.976 31.3919 205.797 30.9398 205.634 30.4813L205.156 27.0862C205.472 28.0976 205.859 29.0797 206.311 30.0358Z" fill="#0B2551"/>
<path d="M204.828 21.7366C204.828 21.7366 204.242 23.6358 205.172 27.1967C206.353 31.7041 208.73 35.4179 208.73 35.4179C208.73 35.4179 212.649 33.3886 215.924 30.078C218.512 27.4602 218.954 25.5219 218.954 25.5219C220.194 21.5642 217.849 17.3106 213.868 16.2439C209.891 15.1805 205.732 17.6878 204.828 21.7366Z" fill="#FF4B47"/>
<path d="M219.049 21.5024C219.384 22.7837 219.377 24.1691 218.954 25.5219C218.954 25.5219 218.512 27.4602 215.924 30.078C212.649 33.3919 208.73 35.4179 208.73 35.4179C208.73 35.4179 206.35 31.7008 205.172 27.1967C205.143 27.0797 205.114 26.9659 205.085 26.852C205.803 29.2553 206.925 31.522 208.402 33.5512C213.686 30.5528 218.447 26.3024 219.049 21.5024Z" fill="#CF393E"/>
<path d="M215.924 30.078C214.642 31.3724 213.267 32.4715 212.063 33.3268C212.096 32.8195 212.115 32.3187 212.125 31.8081C212.138 31.0602 212.128 30.3252 212.096 29.5772L208.74 28.6764C208.337 29.3073 207.963 29.9382 207.598 30.5951C207.351 31.0439 207.117 31.4862 206.893 31.9415C206.278 30.5951 205.634 28.9561 205.176 27.1967C204.808 25.7886 204.675 24.6374 204.652 23.7659C205.53 22.6049 206.454 21.4797 207.423 20.3902C208.802 18.8455 210.265 17.3789 211.813 16.0033C213.208 15.9642 214.584 16.335 215.774 17.0634C216.424 19.0276 216.961 21.0309 217.38 23.0602C217.676 24.4878 217.914 25.9252 218.093 27.3691C217.637 28.1138 216.948 29.0439 215.924 30.078Z" fill="#FFA44F"/>
<path d="M216.028 29.974C216.054 29.9447 216.083 29.9187 216.109 29.8894C216.112 29.8829 216.119 29.8797 216.122 29.8764C216.145 29.8537 216.167 29.8276 216.193 29.8016C216.2 29.7951 216.203 29.7886 216.21 29.7854C216.236 29.7593 216.262 29.7301 216.285 29.7041C216.291 29.6976 216.298 29.6911 216.304 29.6846C216.327 29.6618 216.35 29.6358 216.372 29.613C216.376 29.6098 216.382 29.6033 216.385 29.6C216.408 29.574 216.434 29.548 216.457 29.5219C216.463 29.5154 216.47 29.5057 216.476 29.4992C216.499 29.4732 216.525 29.4472 216.548 29.4211C216.551 29.4179 216.554 29.4114 216.561 29.4081C216.58 29.3854 216.6 29.3626 216.623 29.3398C216.629 29.3333 216.636 29.3236 216.642 29.3171C216.665 29.2911 216.688 29.265 216.707 29.2423C216.714 29.2358 216.72 29.2293 216.724 29.2228C216.743 29.2 216.759 29.1805 216.779 29.161C216.785 29.1545 216.792 29.148 216.795 29.1415C216.815 29.1154 216.837 29.0927 216.857 29.0667C216.863 29.0602 216.87 29.0504 216.876 29.0439C216.896 29.0211 216.912 28.9984 216.932 28.9756C216.935 28.9691 216.941 28.9659 216.945 28.9594C216.964 28.9366 216.984 28.9138 217 28.8911C217.007 28.8846 217.013 28.8748 217.02 28.8683C217.039 28.8455 217.059 28.8195 217.078 28.7967C217.081 28.7902 217.088 28.7837 217.094 28.7772C217.111 28.7577 217.127 28.7382 217.143 28.7187C217.15 28.7122 217.153 28.7057 217.159 28.6992C217.179 28.6764 217.195 28.6537 217.215 28.6276C217.221 28.6211 217.224 28.6146 217.231 28.6081C217.247 28.5886 217.263 28.5659 217.28 28.5463C217.283 28.5398 217.286 28.5366 217.289 28.5333C217.309 28.5106 217.325 28.4878 217.345 28.4618C217.348 28.4553 217.354 28.4488 217.361 28.4423C217.377 28.4195 217.397 28.3967 217.413 28.3707C217.416 28.3675 217.416 28.3642 217.42 28.361C217.436 28.3415 217.452 28.3187 217.468 28.2959C217.472 28.2894 217.478 28.2829 217.481 28.2797C217.498 28.2569 217.517 28.2341 217.533 28.2114C217.537 28.2049 217.54 28.2016 217.543 28.1984C217.559 28.1789 217.572 28.1561 217.589 28.1366C217.592 28.1333 217.595 28.1301 217.598 28.1236C217.615 28.1008 217.631 28.078 217.647 28.052C217.65 28.0488 217.654 28.0423 217.657 28.039C217.693 27.9902 217.725 27.9415 217.758 27.8959C217.761 27.8927 217.761 27.8894 217.764 27.8862C217.797 27.8374 217.829 27.7886 217.862 27.7398C217.862 27.7398 217.862 27.7366 217.865 27.7366C217.881 27.7106 217.898 27.6878 217.914 27.665C217.979 27.5675 218.037 27.4699 218.096 27.3789C218.005 26.6439 217.898 25.9089 217.777 25.1772C216.528 27.3724 214.502 29.3919 212.135 31.148C212.135 31.3724 212.132 31.5935 212.128 31.8211C212.119 32.3317 212.099 32.8325 212.067 33.3398C212.102 33.3138 212.138 33.2911 212.171 33.265C212.177 33.2618 212.18 33.2585 212.187 33.2553C212.223 33.2293 212.259 33.2033 212.294 33.1772C212.33 33.1512 212.366 33.1252 212.402 33.0992C212.405 33.0959 212.411 33.0927 212.415 33.0894C212.45 33.0634 212.486 33.0374 212.522 33.0114C212.525 33.0081 212.528 33.0081 212.532 33.0049C212.567 32.9789 212.603 32.9528 212.639 32.9268C212.642 32.9236 212.646 32.9236 212.646 32.9203C212.681 32.8943 212.717 32.865 212.753 32.839C212.759 32.8358 212.763 32.8325 212.769 32.8293C212.844 32.774 212.915 32.7187 212.99 32.6634C212.997 32.6602 213.003 32.6537 213.007 32.6504C213.078 32.5951 213.153 32.5366 213.228 32.4813C213.234 32.4748 213.241 32.4715 213.247 32.465C213.283 32.4358 213.319 32.4098 213.354 32.3805C213.358 32.3772 213.364 32.374 213.367 32.3707C213.4 32.3447 213.436 32.3187 213.468 32.2927C213.475 32.2894 213.481 32.2829 213.488 32.2797C213.524 32.2504 213.559 32.2211 213.595 32.1919C213.602 32.1854 213.608 32.1821 213.615 32.1756C213.647 32.1496 213.68 32.1236 213.715 32.0943C213.722 32.0911 213.725 32.0878 213.728 32.0846C213.764 32.0553 213.8 32.026 213.836 31.9967C213.842 31.9902 213.852 31.9837 213.862 31.9772C213.898 31.948 213.933 31.9187 213.969 31.8894C213.969 31.8894 213.969 31.8862 213.972 31.8862C214.008 31.8569 214.044 31.8276 214.08 31.7951C214.089 31.7886 214.099 31.7821 214.106 31.7724C214.141 31.7431 214.177 31.7138 214.213 31.6813C214.22 31.678 214.226 31.6715 214.229 31.6683C214.262 31.6423 214.291 31.6163 214.324 31.587C214.333 31.5805 214.34 31.5707 214.35 31.5642C214.385 31.535 214.418 31.5024 214.454 31.4732C214.46 31.4667 214.47 31.4602 214.48 31.4504C214.509 31.4244 214.541 31.3984 214.571 31.3724C214.577 31.3659 214.587 31.3594 214.594 31.3528C214.629 31.3236 214.662 31.2911 214.698 31.2618C214.707 31.252 214.717 31.2455 214.727 31.2358C214.759 31.2065 214.789 31.1805 214.821 31.1512C214.828 31.148 214.831 31.1415 214.837 31.1382C214.873 31.1057 214.906 31.0764 214.941 31.0439C214.951 31.0341 214.961 31.0244 214.971 31.0179C215.007 30.9854 215.039 30.9528 215.075 30.9203C215.081 30.9171 215.085 30.9106 215.091 30.9073C215.124 30.878 215.153 30.8488 215.185 30.8195C215.195 30.8098 215.205 30.8 215.215 30.7935C215.25 30.761 215.283 30.7285 215.319 30.6959C215.325 30.6894 215.335 30.6829 215.341 30.6732C215.371 30.6439 215.4 30.6179 215.433 30.5886C215.442 30.5821 215.449 30.5724 215.459 30.5659C215.494 30.5333 215.527 30.5008 215.563 30.465C215.572 30.4585 215.579 30.4488 215.589 30.439C215.621 30.4098 215.65 30.3772 215.683 30.348C215.689 30.3415 215.693 30.3382 215.699 30.3317C215.735 30.2959 215.771 30.2634 215.803 30.2276C215.813 30.2179 215.82 30.2114 215.829 30.2016C215.865 30.1659 215.901 30.1301 215.937 30.0943C215.966 30.065 215.992 30.0358 216.021 30.0065C216.015 29.987 216.021 29.9805 216.028 29.974Z" fill="#CF7C45"/>
<path d="M205.221 27.3756C205.234 27.4244 205.247 27.4699 205.26 27.5187C205.26 27.5252 205.263 27.5317 205.267 27.5382C205.28 27.5805 205.289 27.626 205.302 27.6683C205.306 27.678 205.309 27.6878 205.312 27.6976C205.325 27.7431 205.338 27.7919 205.354 27.8407C205.358 27.8504 205.361 27.8569 205.361 27.8667C205.374 27.9089 205.387 27.9512 205.397 27.9935C205.4 28 205.4 28.0098 205.403 28.0163C205.416 28.0618 205.433 28.1106 205.446 28.1561C205.449 28.1659 205.452 28.1756 205.455 28.1886C205.468 28.2341 205.481 28.2797 205.498 28.322C205.498 28.3252 205.498 28.3285 205.501 28.3317C205.514 28.3805 205.53 28.426 205.546 28.4715C205.55 28.4813 205.553 28.4911 205.556 28.5041C205.572 28.5496 205.585 28.5984 205.602 28.6439C205.602 28.6472 205.605 28.6504 205.605 28.6537C205.618 28.6992 205.634 28.7415 205.647 28.787C205.65 28.7967 205.654 28.8065 205.657 28.8163C205.673 28.8618 205.686 28.9073 205.702 28.9528C205.706 28.9594 205.709 28.9659 205.709 28.9756C205.722 29.0179 205.735 29.0569 205.751 29.0992C205.754 29.1089 205.758 29.1154 205.761 29.1252C205.777 29.1707 205.794 29.213 205.807 29.2585C205.81 29.2683 205.813 29.278 205.816 29.2878C205.829 29.3301 205.846 29.3691 205.859 29.4081C205.862 29.4146 205.862 29.4179 205.865 29.4244C205.881 29.4699 205.898 29.5122 205.914 29.5577C205.917 29.5675 205.92 29.5805 205.924 29.5902C205.94 29.6358 205.956 29.678 205.972 29.7236V29.7268C205.989 29.7691 206.005 29.8146 206.021 29.8569C206.024 29.8667 206.031 29.8797 206.034 29.8894C206.05 29.9317 206.067 29.974 206.083 30.0163C206.086 30.0228 206.089 30.0293 206.093 30.039C206.106 30.0748 206.122 30.1138 206.135 30.1496C206.138 30.1593 206.145 30.1724 206.148 30.1821C206.164 30.2244 206.18 30.2634 206.197 30.3057C206.2 30.3154 206.206 30.3285 206.21 30.3382C206.223 30.3707 206.236 30.4065 206.249 30.439C206.252 30.4488 206.255 30.4585 206.262 30.4683C206.278 30.5073 206.294 30.5463 206.311 30.5854C206.314 30.5984 206.32 30.6114 206.327 30.6244C206.34 30.6569 206.353 30.6927 206.366 30.7252C206.369 30.735 206.372 30.7447 206.379 30.7545C206.395 30.7902 206.408 30.8293 206.424 30.865C206.431 30.8813 206.437 30.8943 206.441 30.9073C206.454 30.9398 206.47 30.9756 206.483 31.0081C206.489 31.0244 206.496 31.0374 206.502 31.0504C206.512 31.0764 206.525 31.1057 206.535 31.1317C206.541 31.148 206.548 31.1642 206.554 31.1805C206.567 31.213 206.584 31.2488 206.597 31.2813C206.603 31.2976 206.61 31.3138 206.62 31.3301C206.629 31.3528 206.639 31.3724 206.646 31.3951C206.652 31.4114 206.662 31.4309 206.668 31.4472C206.681 31.4764 206.694 31.5089 206.707 31.5382C206.717 31.5577 206.724 31.5772 206.733 31.5967C206.74 31.613 206.746 31.6293 206.753 31.6423C206.769 31.678 206.785 31.7138 206.802 31.7496C206.808 31.7626 206.811 31.7724 206.818 31.7854C206.828 31.8081 206.837 31.8309 206.85 31.8537C206.854 31.8602 206.857 31.8699 206.863 31.8797C206.873 31.9024 206.883 31.922 206.893 31.9447C206.961 31.8081 207.029 31.6715 207.098 31.5382C206.252 30.0618 205.576 28.4911 205.088 26.8585C205.094 26.878 205.098 26.8976 205.101 26.9171C205.104 26.9301 205.107 26.9398 205.111 26.9528C205.12 26.9854 205.127 27.0211 205.137 27.0537C205.14 27.0634 205.143 27.0764 205.146 27.0862C205.156 27.1252 205.166 27.1642 205.176 27.2C205.189 27.2488 205.202 27.2976 205.215 27.3463C205.215 27.3561 205.218 27.3659 205.221 27.3756Z" fill="#CF7C45"/>
<path d="M209.644 38.2341L209.315 39.4569C209.211 39.8472 208.808 40.078 208.418 39.974L206.72 39.5187C206.33 39.4146 206.099 39.0114 206.203 38.6211L206.532 37.3984C206.35 37.2813 206.294 37.0406 206.411 36.8585C206.502 36.7154 206.678 36.6472 206.844 36.6894L209.728 37.4634C209.937 37.5187 210.06 37.7333 210.005 37.9415C209.963 38.1073 209.816 38.2244 209.644 38.2341Z" fill="#1D66C0"/>
<path d="M209.137 37.3073L209.732 37.4667C209.94 37.522 210.063 37.7366 210.008 37.9447C209.963 38.1106 209.82 38.2276 209.647 38.2341L209.319 39.4569C209.215 39.8472 208.811 40.078 208.421 39.974L207.059 39.6098C207.228 39.5252 207.387 39.4244 207.537 39.3138C208.216 38.8065 208.642 38.0585 208.841 37.226L209.137 37.3073Z" fill="#184DA9"/>
<path d="M211.972 25.7626C213.321 25.7626 214.415 24.6692 214.415 23.3203C214.415 21.9715 213.321 20.878 211.972 20.878C210.624 20.878 209.53 21.9715 209.53 23.3203C209.53 24.6692 210.624 25.7626 211.972 25.7626Z" fill="white"/>
<path d="M205.852 21.1577C205.849 21.1577 205.842 21.1545 205.836 21.1512C205.748 21.1187 205.702 21.0211 205.735 20.9333C205.989 20.2439 206.356 19.6065 206.821 19.0374C207.286 18.4683 207.846 17.987 208.473 17.6065C208.554 17.5577 208.659 17.5837 208.707 17.665C208.756 17.7463 208.73 17.8504 208.649 17.8992C207.455 18.6211 206.535 19.7431 206.054 21.0504C206.024 21.135 205.937 21.1805 205.852 21.1577Z" fill="#BAF3FF"/>
<path d="M209.023 34.3285C208.99 34.3187 208.958 34.2992 208.935 34.2732C208.824 34.1398 208.717 34 208.62 33.8537C208.509 33.6943 208.408 33.5252 208.317 33.3561C208.272 33.2748 208.304 33.1707 208.385 33.1252C208.467 33.0797 208.571 33.1122 208.616 33.1935C208.704 33.3528 208.798 33.5122 208.902 33.6618C208.967 33.7561 209.039 33.8504 209.111 33.9447C209.68 33.6195 210.229 33.2911 210.782 32.9366C211.501 32.478 212.187 32.0163 212.873 31.5154C212.951 31.4602 213.055 31.4764 213.111 31.5545C213.166 31.6325 213.15 31.7366 213.072 31.7919C212.379 32.2959 211.686 32.7642 210.961 33.226C210.359 33.6065 209.767 33.9642 209.146 34.3154C209.111 34.335 209.065 34.3415 209.023 34.3285Z" fill="#BAF3FF"/>
<path d="M218.096 21.4764C218.041 21.4634 217.995 21.4211 217.979 21.3659C217.751 20.6829 217.42 20.0488 216.987 19.4732C216.932 19.3984 216.945 19.2911 217.02 19.2325C217.094 19.1772 217.202 19.1902 217.26 19.265C217.712 19.8699 218.063 20.5366 218.301 21.252C218.33 21.3431 218.281 21.4374 218.193 21.4667C218.164 21.4862 218.128 21.4862 218.096 21.4764Z" fill="#BAF3FF"/>
<path d="M207.237 39.1707C206.958 39.0959 206.795 39.0341 206.711 38.8878C206.607 38.7089 206.665 38.4911 206.785 38.0553C206.805 37.987 206.824 37.9089 206.847 37.8244C206.873 37.7333 206.964 37.678 207.055 37.7041C207.146 37.7301 207.202 37.8211 207.176 37.9122C207.153 37.9967 207.13 38.0748 207.114 38.1431C207.039 38.4195 206.974 38.6569 207.003 38.7122C207.033 38.761 207.247 38.8163 207.475 38.8748C207.543 38.8911 207.621 38.9138 207.706 38.9366C207.797 38.9626 207.852 39.0537 207.826 39.1447C207.8 39.2358 207.709 39.2911 207.618 39.265C207.533 39.2423 207.459 39.2228 207.39 39.2065C207.338 39.1967 207.286 39.1837 207.237 39.1707Z" fill="#BAF3FF"/>
<path d="M209.059 17.6195C209.154 17.6195 209.231 17.5423 209.231 17.4472C209.231 17.352 209.154 17.2748 209.059 17.2748C208.963 17.2748 208.886 17.352 208.886 17.4472C208.886 17.5423 208.963 17.6195 209.059 17.6195Z" fill="#BAF3FF"/>
<path d="M208.184 32.9463C208.279 32.9463 208.356 32.8692 208.356 32.774C208.356 32.6788 208.279 32.6016 208.184 32.6016C208.089 32.6016 208.011 32.6788 208.011 32.774C208.011 32.8692 208.089 32.9463 208.184 32.9463Z" fill="#BAF3FF"/>
<path d="M218.32 22.0423C218.416 22.0423 218.493 21.9651 218.493 21.8699C218.493 21.7747 218.416 21.6976 218.32 21.6976C218.225 21.6976 218.148 21.7747 218.148 21.8699C218.148 21.9651 218.225 22.0423 218.32 22.0423Z" fill="#BAF3FF"/>
<path d="M208.161 39.3821C208.256 39.3821 208.333 39.3049 208.333 39.2098C208.333 39.1146 208.256 39.0374 208.161 39.0374C208.066 39.0374 207.989 39.1146 207.989 39.2098C207.989 39.3049 208.066 39.3821 208.161 39.3821Z" fill="#BAF3FF"/>
</svg>
