<svg width="40" height="40" viewBox="0 0 40 40" fill="none" xmlns="http://www.w3.org/2000/svg">
<path fill-rule="evenodd" clip-rule="evenodd" d="M21.587 34.841C25.1216 32.4892 33.3333 26.1812 33.3333 18.3333C33.3333 10.9695 27.3638 5 20 5C12.6362 5 6.66663 10.9695 6.66663 18.3333C6.66663 26.1812 14.8783 32.4892 18.413 34.841C19.3823 35.4858 20.6176 35.4858 21.587 34.841ZM20 12.9167C17.0085 12.9167 14.5833 15.3418 14.5833 18.3333C14.5833 21.3248 17.0085 23.75 20 23.75C22.9915 23.75 25.4166 21.3248 25.4166 18.3333C25.4166 15.3418 22.9915 12.9167 20 12.9167Z" fill="#FF4B47"/>
<path d="M25 18.3333C25 21.0948 22.7615 23.3333 20 23.3333C17.2385 23.3333 15 21.0948 15 18.3333C15 15.5719 17.2385 13.3333 20 13.3333C22.7615 13.3333 25 15.5719 25 18.3333Z" fill="white" stroke="white" stroke-width="2"/>
</svg>
