<svg width="40" height="40" viewBox="0 0 40 40" fill="none" xmlns="http://www.w3.org/2000/svg">
<path fill-rule="evenodd" clip-rule="evenodd" d="M21.5871 34.841C25.1217 32.4892 33.3334 26.1812 33.3334 18.3333C33.3334 10.9695 27.3639 5 20.0001 5C12.6363 5 6.66675 10.9695 6.66675 18.3333C6.66675 26.1812 14.8784 32.4892 18.4131 34.841C19.3824 35.4858 20.6177 35.4858 21.5871 34.841ZM20.0001 12.9167C17.0086 12.9167 14.5834 15.3418 14.5834 18.3333C14.5834 21.3248 17.0086 23.75 20.0001 23.75C22.9916 23.75 25.4167 21.3248 25.4167 18.3333C25.4167 15.3418 22.9916 12.9167 20.0001 12.9167Z" fill="white"/>
</svg>
