<svg width="40" height="40" viewBox="0 0 40 40" fill="none" xmlns="http://www.w3.org/2000/svg">
<path fill-rule="evenodd" clip-rule="evenodd" d="M26.5277 26.673C28.811 24.0628 30.3334 21.2081 30.3334 18.3333C30.3334 12.6264 25.7071 8 20.0001 8C14.2931 8 9.66675 12.6264 9.66675 18.3333C9.66675 21.2081 11.1892 24.0628 13.4724 26.673C15.6881 29.2059 18.3361 31.1802 20.0001 32.2934C21.6641 31.1802 24.312 29.2059 26.5277 26.673ZM11.5834 18.3333C11.5834 13.6849 15.3517 9.91667 20.0001 9.91667C24.6484 9.91667 28.4167 13.6849 28.4167 18.3333C28.4167 22.9817 24.6484 26.75 20.0001 26.75C15.3517 26.75 11.5834 22.9817 11.5834 18.3333ZM33.3334 18.3333C33.3334 26.1812 25.1217 32.4892 21.5871 34.841C20.6177 35.4858 19.3824 35.4858 18.4131 34.841C14.8784 32.4892 6.66675 26.1812 6.66675 18.3333C6.66675 10.9695 12.6363 5 20.0001 5C27.3639 5 33.3334 10.9695 33.3334 18.3333ZM14.5834 18.3333C14.5834 15.3418 17.0086 12.9167 20.0001 12.9167C22.9916 12.9167 25.4167 15.3418 25.4167 18.3333C25.4167 21.3248 22.9916 23.75 20.0001 23.75C17.0086 23.75 14.5834 21.3248 14.5834 18.3333Z" fill="white"/>
</svg>
