<svg xmlns="http://www.w3.org/2000/svg" width="1080" height="1080" viewBox="0 0 1080 1080">
  <defs>
    <style>
      .cls-1 {
        fill: #baf3ff;
      }

      .cls-1, .cls-2, .cls-3, .cls-4 {
        fill-rule: evenodd;
      }

      .cls-2 {
        fill: #0e315c;
      }

      .cls-3 {
        fill: #ff4b47;
      }

      .cls-4 {
        fill: #cf393e;
      }
    </style>
  </defs>
  <path id="BG" class="cls-1" d="M0,1080V0H1080V1080H0Z"/>
  <path id="legs" class="cls-2" d="M570.663,790.154a689.135,689.135,0,0,1,80.6,72.488c2.562,2.715,50.869,53.912,51.01,54.11,2.935,4.134,9.481,13.529,12.242,12.319,2.987-1.309.209-14.434-4.08-30.7-3.7-14.016-8.1-28.169-12.243-37.775-10.752-24.937-26.585-48.027-45.909-68.4Zm253.011-7.146a360.482,360.482,0,0,1,35.708,12.251,368.315,368.315,0,0,1,73.455,39.817c16.8,11.752,47.568,40.62,51.01,37.775,3.949-3.264-12.634-30.735-26.525-50.026a409.469,409.469,0,0,0-49.991-57.173Zm157.112-70.446c16.286,3.6,30.584,9.643,42.844,18.377,2.85,2.023,23.55,16.762,25.51,18.377,3.09,2.548,9.22,7.626,11.22,6.126,1.7-1.273-.18-6.832-3.06-13.272-8.81-19.708-27.24-42.09-47.95-63.3Q995.07,695.718,980.786,712.562ZM189.631,528.641a297.8,297.8,0,0,0-60.5,1.289c-21.511,2.677-44.993,7.965-44.717,11.6,0.254,3.345,30.666,4.541,49.978,9.02a237.57,237.57,0,0,1,39.457,12.885Z"/>
  <path id="shell1" class="cls-3" d="M164.092,560.366c-18.268-129.447,136.5-247.95,229.846-295.242,118.158-59.865,327.478-100.262,488.293,31.67,113.292,92.944,200.879,274.1,133.819,397.4-72.081,132.541-291.676,129.262-457.645,102.16C468.283,781.638,186.818,721.4,164.092,560.366Z"/>
  <path id="shell2" class="cls-4" d="M828.764,259.988c-85.456.687-169.413,21.463-244.821,62.346-93.929,50.923-187.895,137.5-229.845,256.421a433.925,433.925,0,0,0-24.517,139.959c-9.154-.223-18.344-0.78-27.51-1.655-70.082-36.4-128.163-87.145-137.979-156.693-18.268-129.447,136.5-247.95,229.846-295.242C499.373,211.706,677.39,173.8,828.764,259.988Z"/>
  <path id="head" class="cls-2" d="M232.535,533.8C155.7,560.3,85.642,642.816,98.714,723.821c5.163,32,26.146,71.586,84.787,111.355,73.542,49.873,167.656,51.115,251.3,29.626,83.377-21.421,125.058-59.162,133.821-84.793,5.994-17.53,5.516-56.731-19.409-104.2-23.019-43.84-65.058-87.918-139.95-120.548C329.126,520.343,259.825,524.391,232.535,533.8Z"/>
  <path id="spots" class="cls-2" d="M243.462,375.314c12.507,30.949,11.2,96.81-32.379,127.842-13.376,9.526-31.609,16.428-47.418,18.154C169.744,468.146,202.119,418,243.462,375.314ZM700.4,591.014c28.489-3.955,80.388.027,93.981,33.713,10.283,25.48-6.414,53.357-18.387,66.4-33.654,36.671-103.224,38.8-134.843,4.087-7.8-8.564-22.373-29.488-16.344-54.145C634.154,602.833,686.658,592.921,700.4,591.014ZM563.512,250.822a29.383,29.383,0,0,1,6.13,18.388c-0.077,15.392-13.967,30.925-44.948,51.08-38.09,24.78-68.441,34.746-95,35.756-27.154,1.033-41.633-4.092-45.969-12.259-4.792-9.028-.686-22.755,13.28-41.885C439.157,244.157,538.839,220.207,563.512,250.822ZM733.087,484.768c-15.678-3.156-57.365-15.51-68.443-51.08-13.833-44.42,31.044-100.747,82.745-114.419,31.968-8.454,63.074.443,84.787,13.254,20.141,11.883,47.442,33.478,49.034,60.3C884.216,443.461,801.141,498.465,733.087,484.768ZM983.363,647.2c-35.038-24.669-31.876-84.455-8.172-120.549,8.272-12.6,25.589-32.227,43.529-37.321,20.91,57.037,27.64,116.148,12.31,168.447C1014.71,660.214,996.765,656.637,983.363,647.2Z"/>
  <path id="antennae" class="cls-2" d="M382.028,834.713c22.518,18.555,35.9,38.233,40.1,59.3,3.689,18.494.116,36.4,14.322,49.843,4.6,4.355,10.46,8.205,15.276,6.874,3.825-1.057,6.811-5.375,8.593-14.609,5.367-27.806-23.707-70.411-57.286-108.278ZM128.6,706.206c-23.121-5.262-42.613-4.537-58.779,2.466-14.511,6.286-25.286,17.037-41.991,14.447-5.438-.843-11.137-2.732-12.535-6.434-1.075-2.847.79-6.792,6.361-12.263,17.317-17,59.671-20.844,101.579-16.335C124.679,693.105,127.148,701.188,128.6,706.206Z"/>
</svg>
