<svg xmlns="http://www.w3.org/2000/svg" width="1080" height="1080" viewBox="0 0 1080 1080">
  <defs>
    <style>
      .cls-1 {
        fill: #cf393e;
      }

      .cls-1, .cls-2, .cls-3, .cls-4, .cls-5 {
        fill-rule: evenodd;
      }

      .cls-2 {
        fill: #cf7c45;
      }

      .cls-3 {
        fill: #ffa44f;
      }

      .cls-4 {
        fill: #fff;
      }

      .cls-5 {
        fill: #0e315c;
      }
    </style>
  </defs>
  <path id="BG" class="cls-1" d="M0,1080V0H1080V1080H0Z"/>
  <path id="ear_back" data-name="ear back" class="cls-2" d="M237.747,233.667c-2.851-25.318.895-47.9,11.766-66.615,38.634-66.521,165.534-82.283,221.611-23.511,18.531,19.421,28.333,46.024,30.4,76.411Z"/>
  <path id="main_head" data-name="main head" class="cls-3" d="M0,576.679q19.5-20.641,36.728-42.832c83.665-107.948,86.219-239.319,177.485-307.9,33.619-25.264,167.563-45.882,333.4-20.592C728.91,233,845.434,299.94,875.123,346.556,919.035,415.5,926.5,510.074,924.152,542.672c-0.307,4.255-.756,21.7,4.9,36.281,9.328,24.034,29.142,37.413,36.281,42.165,24.687,16.434,52.124,31.547,58.834,41.185,53.34,76.593-117.579,360.937-308.881,370.657-73.343,3.73-147.914-58.466-218.67-29.42-30.481,12.52-54.88,38.41-73.814,76.46H0V576.679Z"/>
  <path id="white_mouth" data-name="white mouth" class="cls-4" d="M750.589,749.54c88.743-17.639,180.333-9.607,268.051,20.8C976.014,880.95,850.765,1025.03,715.289,1031.89c-73.343,3.71-147.914-58.257-218.67-29.31-30.817,12.6-55.421,38.82-74.442,77.42H359.084C433.99,915.786,573.256,784.787,750.589,749.54Z"/>
  <path id="nose" class="cls-5" d="M1009.71,791.6a241.35,241.35,0,0,1-28.684-31.243c-23.414-30.544-31.237-50.911-25.5-60.795,4.363-7.513,19.482-10.489,45.109-10.787q16.38-.191,32.86.854C1036.44,716.533,1027.57,752.748,1009.71,791.6Z"/>
  <path id="ear_front" data-name="ear front" class="cls-3" d="M0,486.032V198.826c28.133-20.763,60.208-34.728,89.679-40.541C147.91,146.8,191.5,167.857,265.2,199.469c46.072,19.761,92.1,38.1,140.223,55.893l-283.388,272.6C75.19,526.493,33.24,510.68,0,486.032Z"/>
  <path id="ear_hole" data-name="ear hole" class="cls-5" d="M147.533,484.818a124.5,124.5,0,0,0-7.282,25.625C80.984,505.346,29.108,473.46,0,427.656v-175c25.539-44.7,66.758-76.794,104.388-80.647,45.3-4.638,78.414,37.831,145.125,87.271a835.868,835.868,0,0,0,90.932,58.586c-48.306,34.061-94.965,69.192-141.922,105.171C185.407,433.092,160.947,451.68,147.533,484.818Z"/>
  <path id="eye" class="cls-5" d="M777.065,633.866c-7.023-6.053-21.1.757-28.437,2.941-43.489,12.954-105.363-2.29-136.3-41.184-23.794-29.913-38.09-84.883-8.825-118.65,29.4-33.921,84.526-25.666,115.708-10.786,20.143,9.612,38.94,25.414,50.009,46.087,17.591,32.85,3.818,52.736,20.593,87.271,6.669,13.731,19.286,21.084,20.592,35.3,3.742,40.75-69.8,69.072-92.175,124.534-5.354,13.272-27.735,74.908-.98,105.9,4.327,5.013,12.4,12.051,11.767,21.573-0.539,8.062-7.011,14.645-12.748,17.651-19.8,10.374-55-7.809-70.6-34.321A73.273,73.273,0,0,1,635.862,829c3.951-69.894,121.1-156.3,131.4-163.757,2.9-2.1,12.958-9.242,13.728-19.611C781.18,643.042,781,637.253,777.065,633.866Z"/>
  <path id="spots" class="cls-5" d="M215.193,1002.83c10.242-2.57,19.207,26.44,42.132,29.95,14.581,2.24,28.042-9.71,39.256-3.5,10.231,5.68,13.418,22.55,9.806,34.29-1.851,6.02-5.779,11.6-11.071,16.43h-84.1C191.573,1053.59,202.77,1005.95,215.193,1002.83ZM837.17,421.215c-6.7-8.111-3.446-20.746,1.672-22.854,7.942-3.272,26.876,16.123,23.534,23.513C860.033,427.052,844.859,430.52,837.17,421.215Zm18.341-68.9c3.548,8.119-.225,21.5-9.8,25.472-10.868,4.5-22.07-6.539-24.844-9.561-4.231-4.609-10.973-14.689-7.515-20.809C818.76,337.834,849.2,337.875,855.511,352.315Zm-88.252,5.879c-0.89,5.217-8.194,9.3-23.43,12.566-15.778,3.382-25.261,1.113-28.54-2.77-7.472-8.844-1.566-28.358,9.805-34.289C741.955,324.907,769.2,346.839,767.259,358.194Zm-73.543-60.742c-6.605-3.5-9.751-12.7-8.825-20.573a23.053,23.053,0,0,1,11.6-17.269c17.279,0.094,29.494,8.264,30.561,16.289C728.658,287.955,706.475,304.211,693.716,297.452ZM599.58,309.209c1.474-4.939,6.392-8.158,11.264-9.805,18.123-.2,29.612,8.363,29.921,15.683,0.326,7.74-11.705,17.5-23.534,15.675C606.519,329.108,596.927,318.1,599.58,309.209Zm-4.9,393.837c-4.132-2.879-4.459-17.231,4.9-21.553,7.333-3.385,16.73,1.162,17.651,5.878C618.672,694.755,600.177,706.878,594.677,703.046Zm-571.868,181c19.74-15.962,51.364-7.4,57.064,6.12,8.688,20.6-36.967,66.59-55.893,58.781C9.95,943.161-.764,903.109,22.809,884.048Zm-9.1,171.692c0.17-11.61,10.146-21.79,21.573-27.44,30.987-11.41,57.236-3.27,62.757,9.8,5.064,11.99-5.721,31.87-22.5,41.9H30.964C21.024,1074.54,13.562,1065.88,13.71,1055.74Zm146.065-89.668c-16.71-11.815-10.1-58.78,6.389-64.148,4.9-1.594,10.836.426,17.585,5.409,16.846,3.576,38.631,10.979,40.269,23C226.618,949.408,178.367,979.218,159.775,966.072Zm24.04-170.935c-3.219-2.9,6.982-14.92,4.9-29.39-1.269-8.825-9.016-17.006-6.479-21.459,5.166-9.07,43.4-3.964,47.663,10.682C235.034,772.608,189.872,800.588,183.815,795.137Zm-63.738-190.06c34.948-14.268,80.721,26.967,76.485,45.066-1.275,5.447-10.98,7.963-23.534,14.695-17.085,9.163-26.294,17.777-41.3,18.425-11.342.489-31.761-2.518-40.087-17.445C80.485,645.817,97.689,614.216,120.077,605.077ZM44.363,562.445C39.79,551.62,54.455,535.782,63.2,537.478c9.211,1.785,16.189,23.844,7.845,31.35C64.409,574.8,48.173,571.465,44.363,562.445ZM88.7,760.848c11.22,2.63,16.047,13.729,23.534,27.431,9.622,17.609,20.283,27.692,17.651,33.31-8.415,17.963-83.97,11.566-91.14-14.063-4.2-15,15.717-32.076,20.538-35.9C72.154,761.409,82.659,759.433,88.7,760.848Zm101-252.761c-3.12-6.489,3.047-17,15.689-30.371A81.052,81.052,0,0,1,229.9,460.082c16.189,12.649,21.526,31.308,15.689,43.106C235.7,523.174,195.505,520.165,189.7,508.087Zm67.66,367.385c-12.485-3.513-18.634-26.764-10.113-35.818,9.051-9.616,34.36-2.908,37.569,9.367C287.944,860.989,270.29,879.111,257.358,875.472Zm45.019,92.433c-10.683-.3-20.272-10.968-18.543-15.037,1.7-3.993,14.27-.888,15.689-4.9,1.33-3.757-8.9-8.755-7.845-11.757,1.6-4.545,29.265-5.148,33.34,6.858C328.283,952.691,315.5,968.274,302.377,967.905Zm2.049-159.052c-2.625-2.246,1.469-11.187,4.9-25.472s4.462-22.919,10.833-25.929c10.36-4.894,28.453,5.119,30.351,16.132C353.675,791.932,312.326,815.615,304.426,808.853ZM359.338,927.4c-3.107-1.386-3.4-15.371-3.922-17.634-0.663-2.893-7.494-16.77-4.9-20.574,4.952-7.268,29.721-4.491,34.32,6.858C390.2,909.281,366.716,930.688,359.338,927.4ZM383.853,624.67c-4.608-7.215,1.554-25.622,14.709-27.431,13.192-1.814,24.093,14.35,21.572,22.533C416.908,630.246,389.765,633.929,383.853,624.67Zm15.689,212.594c-3.242-2.825.277-17.865,11.767-22.533,6.967-2.83,16.488-1.717,17.65,1.96C431.144,823.6,404.433,841.527,399.542,837.264Zm11.767-99.929c-5.09-8.638,2.075-23.738,10.786-25.472,11.021-2.194,24.789,16.95,20.593,25.472C438.766,745.3,417.369,747.619,411.309,737.335Zm31.266-193.877c-13.11-6.288-12.71-33.507-2.829-39.29,10.209-5.975,34.738,8.481,33.34,22.533C471.944,538.169,453.6,548.745,442.575,543.458ZM467.2,883.31c-5.3-2.087-9.1-15.64-1.961-21.553,6.373-5.278,17.7-1.363,19.611,3.918C487.45,872.869,473.755,885.889,467.2,883.31Zm17.65-82.294c-3.9-4.341-1.543-15.744,7.845-27.432,14.213,3.3,22.894,10.781,22.553,16.655C514.707,799.623,490.98,807.837,484.852,801.016Zm32.36-72.5c-7.61-5.809-6.331-21.486,0-25.472,3.379-2.128,7.059.254,11.767-.98,3.77-.988,6.8-4.7,9.8-3.918,5.109,1.324,8.309,12.47,4.9,20.573C539.382,728.964,524.668,734.21,517.212,728.518Zm18.631-500.624c5.187-2.044,10.782,8.007,19.574,7.069,5.543-.591,8.412-5.808,13.765-5.11,5.777,0.754,10.858,7.674,10.787,13.716-0.117,9.949-14.217,15.989-22.554,17.635-8.876,1.752-16.628.853-21.572-3.919C526.752,248.512,529.677,230.323,535.843,227.894Zm-28.437,47.025c7.452-3.77,27.133,13.451,24.514,20.574-1.9,5.16-17.117,9.444-24.851.54C500.927,288.964,502.716,277.292,507.406,274.919ZM521.134,661.9c-2.472,4.474-8.369,5.985-17.65,6.858-22.777,2.141-36.688-.35-39.224-4.9-5.242-9.4,3.009-27.89,17.651-33.309,11.75-4.349,22.358,1.049,27.456,4.9C517.8,641.813,525.3,654.35,521.134,661.9Zm-40.2-327.218c10,1.144,22.655,5.757,31.379,16.655,12.228,15.275,15.168,40.47,2.941,52.9-5.261,5.35-23.566,8.851-50.99,1.96-30.2-7.588-45.428-17.356-47.067-26.452C413.71,360.425,448.621,330.985,480.93,334.681ZM423.076,224.964c7.893-1.824,22.82,3.406,24.514,12.736,1.142,6.287-3.775,14.493-9.8,15.675-6.85,1.343-12.365-7.723-17.651-5.878-3.745,1.307-5.429,7.391-5.954,15.492a12.279,12.279,0,0,1-4.832,3.122c-9.148,3.094-22.749-5.766-23.534-14.695C385.018,242.355,398.053,230.745,423.076,224.964ZM368.164,473.8c10.292,0.478,16.142-8.173,22.553-5.878,12.716,4.552,17.894,46.941-1.961,65.64-24.809,23.364-83.175,4.515-88.252-20.574-4.118-20.343,25.706-50.193,47.067-47.025C355.552,467.143,358.6,473.354,368.164,473.8ZM330.9,654.061c3.949,16.981-27.337,44.054-45.107,36.249-14.611-6.417-21.261-36.934-7.845-49.964C292.934,625.793,327.292,638.542,330.9,654.061ZM320.115,370.93c15.475,3.289,27.233,18.7,24.515,23.512-2.247,3.975-13.619-1.562-21.573,3.919-9.91,6.829-5.689,22.514-13.728,26.452-9.845,4.822-33.176-10.232-33.34-26.452C275.818,381.441,300.91,366.848,320.115,370.93ZM0,670.776V659.955c11.532-4.97,52.911,5.616,55.359,22.517C57.912,700.1,17.453,720.152,0,722.654V705.908c3.342-6.013,6.291-13.329,5.349-21.476C4.748,679.23,2.133,674.612,0,670.776Z"/>
</svg>
