<svg xmlns="http://www.w3.org/2000/svg" width="1080" height="1080" viewBox="0 0 1080 1080">
  <defs>
    <style>
      .cls-1 {
        fill: #cf393e;
      }

      .cls-1, .cls-2, .cls-3, .cls-4 {
        fill-rule: evenodd;
      }

      .cls-2 {
        fill: #0e315c;
      }

      .cls-3 {
        fill: #baf3ff;
      }

      .cls-4 {
        fill: #cf7c45;
      }
    </style>
  </defs>
  <path id="BG" class="cls-1" d="M0,1080V0H1080V1080H0Z"/>
  <path id="main_body" data-name="main body" class="cls-2" d="M1080,1080H0V712.273C42.97,538.8,133.2,405.708,255.149,333.7c81.534-48.144,177.574-66.438,284.351-66.438S742.317,285.555,823.851,333.7C946.754,406.27,1037.44,540.881,1080,716.342V1080Z"/>
  <path id="light_body" data-name="light body" class="cls-3" d="M281.12,460.108c148.485-57.789,257.215,55.42,257.215,55.42s0.4-.222,1.165-0.637c0.764,0.415,1.165.637,1.165,0.637S649.4,402.319,797.88,460.108c186.5,72.585,252.11,337.351,207.77,619.892H73.352C29.006,797.459,94.617,532.693,281.12,460.108Z"/>
  <path id="hat" class="cls-2" d="M860.3,287.911a14.614,14.614,0,0,1-5.833,7.324c-47.576-3.524-94.711-6.758-142.32-9.765-56.208-3.551-116.141-9.423-172.651-9.736-56.51.313-116.443,6.185-172.651,9.736-47.609,3.007-94.744,6.241-142.321,9.765a14.618,14.618,0,0,1-5.832-7.324,16.1,16.1,0,0,1,2.333-14.648c17.187-3.5,34.063-6.713,51.328-9.765,14.842-2.623,29.437-5.035,44.33-7.324C308.8,171.917,303.511,68.346,303.855,37.68c18.836-4.858,112.2-24.382,229.818-25.617V12c1.955,0,3.885.02,5.827,0.03,1.942-.01,3.872-0.03,5.827-0.03v0.062C662.946,13.3,756.309,32.822,775.145,37.68c0.344,30.667-4.947,134.237-12.832,218.494,14.892,2.289,29.488,4.7,44.329,7.324,17.266,3.052,34.142,6.263,51.329,9.765A16.1,16.1,0,0,1,860.3,287.911Z"/>
  <path id="hat_stripe" data-name="hat stripe" class="cls-3" d="M762.35,255.773Q651.224,245.118,539.5,245.115q-111.7,0-222.85,10.658c-1.229-13.149-2.394-26.763-3.484-40.5,75.238-7.536,150.7-12.124,226.334-12.124s151.1,4.588,226.334,12.124C764.744,229.01,763.579,242.624,762.35,255.773Z"/>
  <path id="eyes" class="cls-2" d="M229.511,708.981A284.668,284.668,0,0,1,442.774,718.3C439.49,662.807,394,618.664,339.056,616.934,285.084,615.234,237.475,654.955,229.511,708.981Zm619.978,0A284.668,284.668,0,0,0,636.226,718.3C639.51,662.807,685,618.664,739.944,616.934,793.916,615.234,841.525,654.955,849.489,708.981Z"/>
  <path id="beak" class="cls-4" d="M594.273,878.022c-16.01,13.091-32.4,25.475-49.306,37.3a13.41,13.41,0,0,1-10.934,0c-8.513-5.95-16.7-11.909-24.989-18.174q-12.318-9.317-24.317-19.125a823.653,823.653,0,0,1-61.764-55.947,308.233,308.233,0,0,1,60.6-31.471c54.216-20.907,57.66-20.907,111.876,0a308.233,308.233,0,0,1,60.6,31.471A823.653,823.653,0,0,1,594.273,878.022Z"/>
</svg>
