<svg xmlns="http://www.w3.org/2000/svg" width="1080" height="1080" viewBox="0 0 1080 1080">
  <defs>
    <style>
      .cls-1 {
        fill: #1d66c0;
      }

      .cls-1, .cls-2, .cls-3, .cls-4 {
        fill-rule: evenodd;
      }

      .cls-2 {
        fill: #0e315c;
      }

      .cls-3 {
        fill: #fff;
      }

      .cls-4 {
        fill: #ffa44f;
      }
    </style>
  </defs>
  <path id="BG" class="cls-1" d="M0,1080V0H1080V1080H0Z"/>
  <path id="ears_black" data-name="ears black" class="cls-2" d="M1080,683.473q-28.245,20.166-58.2,37.916a813.383,813.383,0,0,1-103.118,51.566L780.814,343.618A767.092,767.092,0,0,1,1080,508.956V683.473ZM572.331,122.784C569.786,173.165,564.946,223.058,557.76,273L134.068,386.216C167.478,274.7,230.363,174.636,316.771,97a626.81,626.81,0,0,1,144-97h113.14Q575.426,61.4,572.331,122.784Z"/>
  <path id="ears_white" data-name="ears white" class="cls-3" d="M1080,638.948q-23.16,12.677-46.99,24.15a996.241,996.241,0,0,1-103.119,42.6q-43.669-144.158-87.337-288.315A895.509,895.509,0,0,1,1080,552.244v86.7ZM537.584,178.834a1192.885,1192.885,0,0,1-28.022,124.429L223.738,343.618C257.711,236.6,319.123,142.172,404.2,71.219A559.559,559.559,0,0,1,513.387,0H554.2A1193.8,1193.8,0,0,1,537.584,178.834Z"/>
  <path id="body" class="cls-4" d="M130.706,1018.45A271.187,271.187,0,0,0,102.684,829Q394.673,919.243,686.66,1009.48A170.029,170.029,0,0,0,645.671,1080H109.218A270.278,270.278,0,0,0,130.706,1018.45Z"/>
  <path id="head" class="cls-4" d="M375.191,980.244L28.313,528.116c78.1-151.048,219.717-275.8,388.48-299.037,80.2-11.042,149.442,1.318,230.033,31.753s140.718,66.931,193.6,128.234c111.284,129,135.1,316.226,93.879,481.2Z"/>
  <path id="white_mouth" data-name="white mouth" class="cls-3" d="M944.823,918.572c-0.728,2.991,10.35,6.576,10.861,12.489,0.611,7.082-12.82,13.54-15.121,14.66-24.63,11.987-104.786,74.609-180.476,97.2-132.134,39.43-276.079,17.88-342.57,15.62a229.683,229.683,0,0,1-32.133-3.75c-11.767-2.42-21.922-5.88-34.348-10.58s-22.335-8.8-32.763-14.77a228.178,228.178,0,0,1-26.589-18.42C240.29,968.763,118.031,889.781,44.938,772.844,25.455,741.674,10.977,703.361,0,668.753V516.563c50.254,7.877,170.811,127.442,218.683,176.909,31.522,32.572,59.194,64.128,82.76,95.294a932.5,932.5,0,0,1,90.774,146.383,932.438,932.438,0,0,1,164.865-49.841c38.282-7.809,79.9-13.2,125.085-16.8,76.959-6.14,280.817-18.011,290.661,23.5,1.118,4.717.486,13.367-4.635,18.62C960.983,918.019,945.659,915.141,944.823,918.572Z"/>
  <path id="nose" class="cls-2" d="M387.466,947.734c-16.38-22.749-19.166-41.773-11.961-47.654,6.347-5.18,20.82-2.921,29.779.462S426.6,911.8,427.936,919.881C429.456,929.056,414.792,941.49,387.466,947.734Z"/>
  <path id="eyes" class="cls-2" d="M357.648,506.3c30.114,11.372,39.015,61.675,19.88,112.354s-59.06,82.542-89.175,71.169-39.015-61.676-19.88-112.354S327.533,494.931,357.648,506.3ZM701.59,636.194c-30.115-11.373-70.04,20.491-89.175,71.169s-10.234,100.981,19.88,112.354,70.04-20.49,89.175-71.169S731.705,647.567,701.59,636.194Z"/>
</svg>
