<svg xmlns="http://www.w3.org/2000/svg" width="1080" height="1080" viewBox="0 0 1080 1080">
  <defs>
    <style>
      .cls-1 {
        fill: #1d66c0;
      }

      .cls-1, .cls-2, .cls-3, .cls-5 {
        fill-rule: evenodd;
      }

      .cls-2 {
        fill: #baf3ff;
      }

      .cls-3, .cls-4 {
        fill: #0e315c;
      }

      .cls-5 {
        fill: #ffa44f;
      }
    </style>
  </defs>
  <path id="BG" class="cls-1" d="M181,1080H0V0H1080V1080H181Z"/>
  <path id="main_body" data-name="main body" class="cls-2" d="M98.059,1015.81C3.371,910.639,19.521,741.57,28.585,611.566l2.5-74.023c45.456,15.637,51.994,88.865,103.172,88.865,0,0,3.953,203.2,55.745,237.592,61.634,24.908,74.214-138.661,79-189,7.746-81.477,15.031-162.239,26.388-243.684C301.307,388.867,325.754,315.836,343,277c37.1-83.534,66.233-107.383,143.086-160.829C610.888,29.381,920.4,39.7,1063,54c6.21,0.623,11.86,1.422,17,2.4V1080H181C146.634,1062.92,116.232,1036,98.059,1015.81Z"/>
  <path id="trunk" class="cls-3" d="M100.51,674.015l-11.274-.1c-31.619-8.761-40.941-65.4-47.72-103.693-1.464-8.267-5.081-22.444-10.514-32.7,0.033-.964.052-1.512,0.052-1.512C76.839,551.6,83.424,624.6,134.973,624.6c0,0-.01,1.64.027,4.579C132.278,649.956,121.777,666.958,100.51,674.015Z"/>
  <path id="ear" class="cls-3" d="M1080,950.171v6.592S1049.12,944.05,1031,928c-21.32-18.881-56.109-53.364-73-76-22.037,13.164-60.127,35.761-123.7,13.041C670.6,789.524,707.917,514.652,756.636,376.4c0,0-31.467,220.752-4.636,324.6,12.466,48.25,38.45,100.707,83.007,128.445C867.9,845.009,909.336,838.67,935,827c0,0-32.346-35.034-26-72,5.939-38.21,37.286-55.575,58-53,41.01,7.025,52.21,59.815,43,91-5.91,14.438-12.108,28.293-21.6,39.082,0,0,39.4,52.165,65.6,70.918,16.81,12.036,26,13.082,26,13.082v34.089ZM962,806c-16.155-15.577-33.729-58.227-3.939-65.26,6.812-.805,12.288.933,16.939,6.26C987.284,759.355,976.461,785.922,962,806Z"/>
  <circle id="eye" class="cls-4" cx="512.5" cy="495.5" r="84.5"/>
  <path id="eye_shine" data-name="eye shine" class="cls-5" d="M543,527a116.657,116.657,0,0,0-30,53,125.031,125.031,0,0,0-85-84,95.745,95.745,0,0,0,85-85,93.56,93.56,0,0,0,84,85A116.666,116.666,0,0,0,543,527Z"/>
</svg>
