<svg width="38" height="38" viewBox="0 0 38 38" fill="none" xmlns="http://www.w3.org/2000/svg">
<path fill-rule="evenodd" clip-rule="evenodd" d="M21.4962 0.000182821C22.5712 -0.00120417 23.524 -0.00243916 24.4312 0.308892C25.3387 0.620223 26.0899 1.20616 26.9377 1.86726L27.11 2.00151L34.3318 7.6185L34.5778 7.80945C35.7727 8.73535 36.8346 9.55829 37.4198 10.7545C38.0048 11.9507 38.0023 13.2942 37.9996 14.8058L37.9993 15.1173V28.6251C37.9995 30.3094 37.9995 31.7606 37.8433 32.9229C37.6757 34.1683 37.2982 35.3622 36.3298 36.3305C35.3615 37.2989 34.1676 37.6764 32.9222 37.844C31.76 38.0002 30.3088 38.0002 28.6245 38H9.3748C7.69048 38.0002 6.23926 38.0002 5.07711 37.844C3.83166 37.6764 2.63782 37.2989 1.66946 36.3305C0.701129 35.3622 0.32353 34.1683 0.156087 32.9229C-0.000166388 31.7606 -9.03486e-05 30.3094 4.64951e-06 28.6253V28.6251V7.53954C-1.43501e-05 6.70611 -3.34998e-05 5.98699 0.0405877 5.3918C0.0833369 4.76513 0.177385 4.1383 0.433899 3.51904C1.0124 2.12241 2.12202 1.01278 3.51866 0.434253C4.1379 0.177755 4.76471 0.0837059 5.39138 0.0409373C5.98656 0.000334675 6.70568 0.00035385 7.5391 0.00037285H21.2777L21.4962 0.000182821ZM18.9996 20.9002C16.9009 20.9002 15.1997 22.6014 15.1997 24.7001C15.1997 26.7988 16.9009 28.5001 18.9996 28.5001C21.0983 28.5001 22.7996 26.7988 22.7996 24.7001C22.7996 22.6014 21.0983 20.9002 18.9996 20.9002ZM11.3998 24.7001C11.3998 20.5029 14.8024 17.1002 18.9996 17.1002C23.1968 17.1002 26.5995 20.5029 26.5995 24.7001C26.5995 28.8974 23.1968 32.3 18.9996 32.3C14.8024 32.3 11.3998 28.8974 11.3998 24.7001ZM9.49982 5.7003C9.49982 4.65098 8.64917 3.80032 7.59986 3.80032C6.55055 3.80032 5.69989 4.65098 5.69989 5.7003V7.60028C5.69989 10.7483 8.25183 13.3002 11.3998 13.3002H17.0997C20.2477 13.3002 22.7996 10.7483 22.7996 7.60028V5.7003C22.7996 4.65098 21.9489 3.80032 20.8996 3.80032C19.8502 3.80032 18.9996 4.65098 18.9996 5.7003V7.60028C18.9996 8.6496 18.149 9.50026 17.0997 9.50026H11.3998C10.3505 9.50026 9.49982 8.6496 9.49982 7.60028V5.7003Z" fill="white"/>
</svg>
