<svg width="330" height="186" viewBox="0 0 330 186" fill="none" xmlns="http://www.w3.org/2000/svg">
<path d="M0 0H330V186H0V0Z" fill="white"/>
<path fill-rule="evenodd" clip-rule="evenodd" d="M0 0V22.5141C3.86599 22.5141 7 19.3738 7 15.5V7.01414H13.75C17.616 7.01414 20.75 3.8738 20.75 0H0ZM34.25 0C34.25 3.8738 37.384 7.01414 41.25 7.01414H68.75C72.616 7.01414 75.75 3.8738 75.75 0H34.25ZM89.25 0C89.25 3.8738 92.384 7.01414 96.25 7.01414H123.75C127.616 7.01414 130.75 3.8738 130.75 0H89.25ZM144.25 0C144.25 3.8738 147.384 7.01414 151.25 7.01414H178.75C182.616 7.01414 185.75 3.8738 185.75 0H144.25ZM199.25 0C199.25 3.8738 202.384 7.01414 206.25 7.01414H233.75C237.616 7.01414 240.75 3.8738 240.75 0H199.25ZM254.25 0C254.25 3.8738 257.384 7.01414 261.25 7.01414H288.75C292.616 7.01414 295.75 3.8738 295.75 0H254.25ZM309.25 0C309.25 3.8738 312.384 7.01414 316.25 7.01414H323V15.5C323 19.3738 326.134 22.5141 330 22.5141V0H309.25ZM330 39.4859C326.134 39.4859 323 42.6262 323 46.5V77.5C323 81.3738 326.134 84.5141 330 84.5141V39.4859ZM330 101.486C326.134 101.486 323 104.626 323 108.5V139.5C323 143.374 326.134 146.514 330 146.514V101.486ZM330 163.486C326.134 163.486 323 166.626 323 170.5V178.986H316.25C312.384 178.986 309.25 182.126 309.25 186H330V163.486ZM295.75 186C295.75 182.126 292.616 178.986 288.75 178.986H261.25C257.384 178.986 254.25 182.126 254.25 186H295.75ZM240.75 186C240.75 182.126 237.616 178.986 233.75 178.986H206.25C202.384 178.986 199.25 182.126 199.25 186H240.75ZM185.75 186C185.75 182.126 182.616 178.986 178.75 178.986H151.25C147.384 178.986 144.25 182.126 144.25 186H185.75ZM130.75 186C130.75 182.126 127.616 178.986 123.75 178.986H96.25C92.384 178.986 89.25 182.126 89.25 186H130.75ZM75.75 186C75.75 182.126 72.616 178.986 68.75 178.986H41.25C37.384 178.986 34.25 182.126 34.25 186H75.75ZM20.75 186C20.75 182.126 17.616 178.986 13.75 178.986H7V170.5C7 166.626 3.86599 163.486 0 163.486V186H20.75ZM0 146.514C3.86599 146.514 7 143.374 7 139.5V108.5C7 104.626 3.86599 101.486 0 101.486V146.514ZM0 84.5141C3.86599 84.5141 7 81.3738 7 77.5V46.5C7 42.6262 3.86599 39.4859 0 39.4859V84.5141Z" fill="#FF4B47"/>
</svg>
