<svg width="25" height="24" viewBox="0 0 25 24" fill="none" xmlns="http://www.w3.org/2000/svg">
<path fill-rule="evenodd" clip-rule="evenodd" d="M6.92261 8C6.92261 4.68629 9.6089 2 12.9226 2C16.2363 2 18.9226 4.68629 18.9226 8C18.9226 11.3137 16.2363 14 12.9226 14C9.6089 14 6.92261 11.3137 6.92261 8Z" fill="white"/>
<path fill-rule="evenodd" clip-rule="evenodd" d="M6.35354 16.9025C7.97847 16.2213 10.1459 16 12.9226 16C15.6936 16 17.8577 16.2204 19.4812 16.8981C21.2238 17.6255 22.2934 18.8613 22.8636 20.6587C23.0754 21.3267 22.5744 22 21.8818 22H3.95719C3.26742 22 2.76939 21.3297 2.9795 20.6654C3.54797 18.8681 4.61379 17.6318 6.35354 16.9025Z" fill="white"/>
</svg>
