<svg width="21" height="20" viewBox="0 0 21 20" fill="none" xmlns="http://www.w3.org/2000/svg">
<path fill-rule="evenodd" clip-rule="evenodd" d="M4.9226 6C4.9226 2.68629 7.60889 0 10.9226 0C14.2363 0 16.9226 2.68629 16.9226 6C16.9226 9.3137 14.2363 12 10.9226 12C7.60889 12 4.9226 9.3137 4.9226 6Z" fill="#1D66C0"/>
<path fill-rule="evenodd" clip-rule="evenodd" d="M4.35354 14.9025C5.97847 14.2213 8.1459 14 10.9226 14C13.6936 14 15.8577 14.2204 17.4812 14.8981C19.2238 15.6255 20.2934 16.8613 20.8636 18.6587C21.0754 19.3267 20.5744 20 19.8818 20H1.95719C1.26742 20 0.769394 19.3297 0.979504 18.6654C1.54797 16.8681 2.61379 15.6318 4.35354 14.9025Z" fill="#1D66C0"/>
</svg>
