<svg width="35" height="35" viewBox="0 0 35 35" fill="none" xmlns="http://www.w3.org/2000/svg">
<path fill-rule="evenodd" clip-rule="evenodd" d="M8.75 11.6667C8.75 6.83416 12.6675 2.91666 17.5 2.91666C22.3325 2.91666 26.25 6.83416 26.25 11.6667C26.25 16.4991 22.3325 20.4167 17.5 20.4167C12.6675 20.4167 8.75 16.4991 8.75 11.6667Z" fill="white"/>
<path fill-rule="evenodd" clip-rule="evenodd" d="M7.92005 24.6495C10.2897 23.6561 13.4506 23.3333 17.4999 23.3333C21.541 23.3333 24.6969 23.6548 27.0646 24.6431C29.6058 25.7039 31.1657 27.5061 31.9972 30.1273C32.3061 31.1015 31.5755 32.0833 30.5654 32.0833H4.42538C3.41946 32.0833 2.69317 31.1058 2.99958 30.1371C3.8286 27.516 5.38292 25.7131 7.92005 24.6495Z" fill="white"/>
</svg>
