<svg width="35" height="35" viewBox="0 0 35 35" fill="none" xmlns="http://www.w3.org/2000/svg">
<path fill-rule="evenodd" clip-rule="evenodd" d="M17.5 5.91669C14.3244 5.91669 11.75 8.49105 11.75 11.6667C11.75 14.8423 14.3244 17.4167 17.5 17.4167C20.6756 17.4167 23.25 14.8423 23.25 11.6667C23.25 8.49105 20.6756 5.91669 17.5 5.91669ZM17.5 2.91669C12.6675 2.91669 8.75 6.83419 8.75 11.6667C8.75 16.4992 12.6675 20.4167 17.5 20.4167C22.3325 20.4167 26.25 16.4992 26.25 11.6667C26.25 6.83419 22.3325 2.91669 17.5 2.91669Z" fill="white"/>
<path fill-rule="evenodd" clip-rule="evenodd" d="M9.07991 27.4162L9.07987 27.4162C8.1172 27.8197 7.3873 28.3519 6.83025 29.0833H28.1693C27.6102 28.3494 26.8768 27.8155 25.9089 27.4115L25.9089 27.4115C24.1252 26.6669 21.4805 26.3333 17.4999 26.3333C13.5108 26.3333 10.8636 26.6684 9.07991 27.4162ZM31.9972 30.1273C31.1657 27.506 29.6058 25.7038 27.0646 24.643C24.6969 23.6547 21.541 23.3333 17.4999 23.3333C13.4506 23.3333 10.2897 23.656 7.92005 24.6495C5.38292 25.713 3.8286 27.516 2.99958 30.137C2.69317 31.1058 3.41946 32.0833 4.42538 32.0833H30.5654C31.5755 32.0833 32.3061 31.1014 31.9972 30.1273Z" fill="white"/>
</svg>
