<svg xmlns="http://www.w3.org/2000/svg" width="1500" height="2492" viewBox="0 0 1500 2492">
  <defs>
    <style>
      .cls-1 {
        fill: #0e315c;
      }


      .cls-2 {
        fill: #cfc1e0;
        mix-blend-mode: multiply;
      }

      .cls-3 {
        fill: #ff4b47;
      }

      .cls-4 {
        fill: #ffa44f;
      }

      .cls-5 {
        fill: #1d66c0;
      }

      .cls-6 {
        fill: #fff;
      }

      .cls-7, .cls-8 {
        fill: none;
        stroke: #baf3ff;
        stroke-linecap: round;
        stroke-width: 35px;
      }

      .cls-7 {
        stroke-linejoin: round;
      }

      .cls-9 {
        fill: #baf3ff;
      }
    </style>
  </defs>
  <path id="strings" class="cls-1" d="M234.789,1251l-69.034,29.31,424.473,999.67,69.034-29.31Zm1030.421,0,69.03,29.31L909.772,2279.98l-69.034-29.31Zm-552.71,0h75V2351h-75V1251Z"/>
  <path id="strings_shade" data-name="strings shade" class="cls-2" d="M1334.24,1280.31L909.772,2279.98l-69.034-29.31L1265.21,1251ZM787.5,1734.21v385.53q-38.211-28.5-75-58.62V1812.48Q750.522,1773.855,787.5,1734.21ZM367.939,1564.58L488.5,1848.5Q443.7,1799.2,402,1747q-46.808-58.635-89.161-120.29L175.617,1303.54A2280.992,2280.992,0,0,0,367.939,1564.58Z"/>
  <path id="red_pin" data-name="red pin" class="cls-3" d="M1,783s-7.689,203.289,179,531c236.142,414.52,570,719,570,719h0.015s333.855-304.48,570.005-719c186.68-327.711,179-531,179-531C1516.68,358.494,1171.93,0,750,0S-16.664,358.5,1,783Z"/>
  <path id="orange_A" data-name="orange A" class="cls-4" d="M1320.02,1314c-92.27,161.97-199.46,307.13-295.82,423.9-10.33-51.03-21.6-101.1-34.2-151.9-18.466-74.48-38.855-146.83-62-220H572c-23.145,73.17-43.534,145.52-62,220-12.6,50.8-23.864,100.86-34.2,151.89C379.447,1621.12,272.265,1475.96,180,1314,106.15,1184.37,62.722,1074.21,37.2,988.4Q121.235,781.26,222,581A5526.1,5526.1,0,0,1,539.961,30.522a738.017,738.017,0,0,1,420.074-.006A5526.758,5526.758,0,0,1,1278,581q100.755,200.181,184.81,407.416C1437.29,1074.23,1393.86,1184.38,1320.02,1314Z"/>
  <path id="shade_balloon" data-name="shade balloon" class="cls-2" d="M1401.72,382.942c67.11,117.9,103.33,255.13,97.3,400.058,0,0,7.68,203.289-179,531-236.15,414.52-570,719-570,719H750s-333.858-304.48-570-719q-9.159-16.08-17.695-31.75A2277.884,2277.884,0,0,0,668,1857C1111.28,1420.14,1469.36,873.584,1401.72,382.942Z"/>
  <path id="blue_basket" data-name="blue basket" class="cls-5" d="M915,2287.17V2417a75,75,0,0,1-75,75H660a75,75,0,0,1-75-75V2287.17A40.007,40.007,0,0,1,597,2209H903A40.007,40.007,0,0,1,915,2287.17Z"/>
  <path id="shade_basket" data-name="shade basket" class="cls-2" d="M840,2209h63a40.007,40.007,0,0,1,12,78.17V2417a75,75,0,0,1-75,75H695.526A325.212,325.212,0,0,0,735,2450c53.587-68.31,75.982-153.61,73.729-241H840Z"/>
  <circle id="white_circle" data-name="white circle" class="cls-6" cx="750.002" cy="750.002" r="250.158"/>
  <path id="light_1" data-name="light 1" class="cls-7" d="M265,290A650.272,650.272,0,0,0,87,681"/>
  <path id="light_2" data-name="light 2" class="cls-7" d="M667,1828a558.541,558.541,0,0,0,42,40c13.191,11.32,26.812,21.95,41,32,51.721-50.75,100.975-101.65,150-155,59.112-64.33,115.01-129.1,170-197"/>
  <path id="light_3" data-name="light 3" class="cls-7" d="M1155,223a698.446,698.446,0,0,1,152,165"/>
  <path id="light_4" data-name="light 4" class="cls-8" d="M645,2321c0,115.44-8.765,105,97,105"/>
  <circle class="cls-9" cx="306" cy="246.5" r="17.5"/>
  <circle class="cls-9" cx="625.812" cy="1785.78" r="17.5"/>
  <circle class="cls-9" cx="1339.5" cy="438.5" r="17.5"/>
  <circle class="cls-9" cx="794.25" cy="2423.25" r="17.5"/>
</svg>
