<?xml version="1.0" encoding="utf-8"?>
<!-- Generator: Adobe Illustrator 25.2.1, SVG Export Plug-In . SVG Version: 6.00 Build 0)  -->
<svg version="1.1" id="Adventour_1_" xmlns="http://www.w3.org/2000/svg" xmlns:xlink="http://www.w3.org/1999/xlink" x="0px"
	 y="0px" viewBox="0 0 2801 585" style="enable-background:new 0 0 2801 585;" xml:space="preserve">
<style type="text/css">
	.st0{fill:#BAF3FF;}
	.st1{fill:#FF4B47;}
</style>
<g id="Blue">
	<path class="st0" d="M437.5,24.9c2.5-1.1,5.2-1.9,8-2.2c3.6,0,5.8,1.5,5.8,5.1s-2.9,7.3-8,9.5c-5.8,2.9-11.7,0-11.7-5.1
		C431.7,29.2,433.9,27.1,437.5,24.9z M281.5,215.9C325.2,136.4,362.4,78.1,404,45.3c5.8-4.4,10.2-6.6,13.1-6.6
		c2.9,0,4.4,1.5,4.4,4.4c0,4.4-2.9,8.8-9.5,13.9c-37.9,29.2-63.4,72.2-116.7,164.8c-2.2,3.6-7.3,6.6-10.9,6.6s-5.1-1.5-5.1-4.4
		C279.4,221.1,280.2,218.4,281.5,215.9z M787.5,161.9c0-2.2,0-4.4,0.7-5.8c4.4-16,6.6-29.9,6.6-41.6c0-6.9-0.7-13.7-2.2-20.4
		c-1.5-6.6-2.2-10.9-2.2-13.9c0-5.1,2.2-7.3,5.8-7.3s8.8,4.4,9.5,10.9c2.2,10.9,3.6,21.1,3.6,30.6c0,10.2-2.2,25.5-7.3,45.9
		c-1.5,6.6-4.4,10.2-8.8,10.2C790.4,170.7,787.5,167.8,787.5,161.9 M778,193.3c0.7-5.1,5.1-8,8-8s5.8,3.6,5.8,7.3
		c0,2.2,0,3.6-0.7,5.1c-2.6,8.7-5.8,17.2-9.5,25.5c-2.9,7.3-5.8,10.9-9.5,10.9c-2.2,0-4.4-3.6-4.4-7.3c0-2.7,0.5-5.5,1.5-8
		L778,193.3z M612.5,247.3c3.6-2.2,9.5-4.4,16-6.6c8-2.2,11.7,0.7,11.7,5.8c0,3.6-2.2,6.6-7.3,8l-12.4,5.1c-5.8,3.6-13.1,0-13.1-5.8
		C607.4,251.6,608.9,249.4,612.5,247.3z M566.6,280.1c4.4-5.1,9.5-9.5,16-14.6c3.6-3.6,7.3-5.1,10.9-5.1s5.8,2.2,5.8,5.8
		c-0.2,4-2.4,7.6-5.8,9.5c-5.9,4.7-11.5,9.8-16.8,15.3c-2.9,2.9-5.8,4.4-9.5,4.4c-3.2,0-5.8-2.5-5.8-5.7c0-0.1,0-0.1,0-0.2
		C561.5,286.6,562.9,283.7,566.6,280.1z M522.8,549.1c-19.7,0-35.7-9.5-45.2-24.1c-1.4-2.2-2.1-4.7-2.2-7.3c0-3.6,2.9-7.3,6.6-7.3
		c2.9,0,5.1,1.5,5.8,3.6c6.6,12.4,19.7,20.4,35,20.4c5.8,0,10.9,4.4,10.9,8C533.8,545.5,529.4,549.1,522.8,549.1L522.8,549.1z
		 M711.7,565.9c-23.3,0-41.6-13.9-47.4-37.9c-2.2-8.8,1.5-14.6,5.1-14.6s6.6,3.6,8.8,10.2c4.4,16.8,15.3,26.2,33.5,27.7
		c8,0.7,12.4,4.4,12.4,8C724.1,563.7,719.7,565.9,711.7,565.9L711.7,565.9L711.7,565.9z M549.8,543.3c-4.4,0-6.6-2.2-6.6-5.8
		c0-5.1,4.4-8.8,10.2-8.8c3.6,0,7.3,2.9,7.3,6.6S557.8,543.3,549.8,543.3z M897.6,285.2c-0.6,4.8-4.6,8.6-9.5,8.8
		c-3.6,0-5.8-2.2-5.8-6.6l1.5-5.1c5.8-12.4,5.8-32.8,5.8-35.7c0-6.6,3.6-10.2,6.6-10.2c5.1,0,8,5.1,8,11.7
		C904.2,256.7,902,269.1,897.6,285.2L897.6,285.2z M1084.3,357.4c-1.5,5.1-3.7,8-7.3,8s-7.3-4.4-7.3-10.2c0-2.2,0-3.6,0.7-5.1
		c2.4-6.9,4.3-14,5.8-21.1c0.7-8,5.1-11.7,8-11.7c4.4,0,6.6,3.6,6.6,10.9c0,2.9,0,5.1-0.7,7.3
		C1089.4,340.6,1087.2,347.9,1084.3,357.4L1084.3,357.4z M951.6,519.2c-5.1,2.2-8,3.6-10.2,3.6c-3.6,0-5.8-1.5-5.8-5.1
		c0-4.4,3.6-8.8,10.2-12.4c44.5-24.1,82.4-64.2,107.9-113c4.4-8,8-11.7,11.7-11.7c2.9,0,4.4,2.2,4.4,6.6c0,4.4-1.5,8.8-3.7,13.1
		C1039.8,450.7,999,493,951.6,519.2z M1256.4,245.8c3.7,0,7.3,2.9,7.3,5.8c0,3.6-4.4,8-10.2,10.2s-10.2-1.5-10.2-5.1
		c0-4.4,2.2-7.3,7.3-9.5L1256.4,245.8z M1199.5,286.6c6.9-7,14.2-13.5,21.9-19.7c3.7-2.9,6.6-4.4,9.5-4.4s4.4,1.5,4.4,5.1
		s-2.2,8-6.6,11.7s-10.9,9.5-19.7,18.2c-1.6,1.5-3.7,2.2-5.8,2.2c-3.6,0-6.5-2.9-6.6-6.5c0,0,0,0,0,0
		C1196.6,290.7,1197.6,288.3,1199.5,286.6L1199.5,286.6z M1179.8,542.6c-10.9-4.4-19-10.2-24.1-18.2c-2.2-2.9-3.7-5.8-3.7-8.8
		c0-3.6,1.5-5.1,5.1-5.1s6.6,1.5,9.5,4.4c6.6,6.6,13.1,11.7,19,14.6c4.4,2.2,6.6,5.1,6.6,8.8c0,3.6-2.2,5.8-6.6,5.8L1179.8,542.6z
		 M1209.7,553.5c-5.1-0.7-8-2.9-8-6.6c0-5.1,3.7-8,9.5-8h2.2c5.8,0.7,8.8,4.4,8.8,7.3c0,3.6-3.7,7.3-9.5,7.3H1209.7L1209.7,553.5z
		 M1482.4,241.4c-5.1,5.1-13.1,0.7-13.1-5.1s7.3-10.2,12.4-10.2c3.2,0,5.8,2.5,5.8,5.7c0,0.1,0,0.1,0,0.2
		C1487.5,234.9,1486.1,237.8,1482.4,241.4L1482.4,241.4z M1454.7,286.6c-2.2,5.8-5.8,8.8-9.5,8.8s-5.1-2.2-5.1-6.6
		c0-3,0.8-6,2.2-8.8l13.1-26.2c2.2-3.6,5.1-5.8,8.8-5.8s6.6,3.6,6.6,7.3c0.1,2.2-0.7,4.2-2.2,5.8
		C1463.1,269.1,1458.5,277.7,1454.7,286.6L1454.7,286.6z M1595.4,289.6c-2.2,2.9-4.4,4.4-7.3,4.4c-4.4,0-6.6-2.2-6.6-5.8
		c0-2.2,1.4-5.1,3.6-7.3c21.2-21.1,38.7-32.1,52.5-32.1c5.8,0,8.8,1.5,8.8,5.1c0,3.6-3.6,8.8-8.8,9.5
		C1625.3,265.5,1607.8,275,1595.4,289.6L1595.4,289.6z M1568.5,565.9c-5.8,0.7-9.5,1.5-11.7,1.5c-20.4,0-30.6-13.1-30.6-38.6
		c0-10.9,3.7-17.5,8.8-17.5c2.9,0,5.8,4.4,5.8,10.2v1.5c-2.2,20.4,4.4,29.2,19.7,29.2c3.7,0,5.8,0,8-0.7c3.2-0.6,6.4-0.3,9.5,0.7
		c2.2,1.5,2.9,2.9,2.9,4.4C1580.8,560.1,1576.5,565.2,1568.5,565.9L1568.5,565.9z M1767.5,237.8c4.4-10.3,9.5-20.3,15.3-29.9
		c6.6-10.9,10.2-18.2,12.4-21.9c2.2-4.4,5.1-6.6,8.8-6.6c5.1,0,7.3,2.2,7.3,7.3c-0.1,2.4-0.8,4.6-2.2,6.6l-27,46.7
		c-2.9,5.1-6.6,8-10.2,8s-5.1-2.2-5.1-5.8C1766.8,240,1766.8,238.5,1767.5,237.8L1767.5,237.8z M1752.9,552.1
		c-32.8-1.5-54.7-15.3-64.2-41.6c-1.3-3-2-6.2-2.2-9.5c0-5.1,2.9-8.8,5.8-8.8c3.6,0,6.6,3.6,8.8,10.2c7.3,21.9,24.8,33.5,51.8,35
		c8,0,12.4,3.6,12.4,7.3S1761,552.1,1752.9,552.1L1752.9,552.1z M2048.2,248.7c-5.8,0.7-9.5-2.9-9.5-6.6s4.4-8,10.9-8
		c5.1,0,8,2.2,8,6.6C2057.7,243.6,2054.1,248,2048.2,248.7L2048.2,248.7z M1978.2,288.1c-2.2,2.2-4.4,3.6-6.6,3.6
		c-3.6,0-6.6-2.9-6.6-6.5c0,0,0,0,0-0.1c0-2.5,1.1-4.9,2.9-6.6c13.9-16,29.9-27.7,48.9-35c6.6-2.9,10.9-0.7,10.9,4.4
		c0,3.6-2.2,6.6-7.3,8.8C2004.5,263.3,1990.6,274.2,1978.2,288.1L1978.2,288.1z M2078.9,358.1c-18.2-14.6-29.9-42.3-30.6-66.4
		c0-7.3,2.2-10.9,5.8-10.9s7.3,5.1,8,11.7c0.7,18.2,10.9,40.8,25.5,53.2c3.6,2.9,5.1,5.8,5.1,9.5c0,5.1-2.2,7.3-5.8,7.3
		C2084.7,362.5,2081.8,361,2078.9,358.1L2078.9,358.1z M1957.1,552.8c-29.2-0.7-51-18.2-60.5-46.7c-1.2-2.8-2-5.7-2.2-8.8
		c0-5.8,2.2-8.7,6.6-8.8c2.9,0,7.3,2.9,8,8c6.6,25.5,24.1,40.8,48.1,41.6c7.3,0.7,10.9,3.6,10.9,8.8c0,3.6-2.9,5.8-9.5,5.8H1957.1z
		 M2225.4,281.5c4.3-11.3,7.5-23,9.5-35c0.7-5.8,4.4-9.5,7.3-9.5c3.6,0,7.3,4.4,7.3,10.2v2.2c-0.7,10.9-4.4,22.6-10.2,36.5
		c-2.2,5.1-5.8,8-9.5,8s-5.1-2.2-5.1-7.3C2224.7,284.4,2224.7,283,2225.4,281.5L2225.4,281.5z M2345,570.3
		c-22.6,0-35.7-16-35.7-41.6c0-8.8,3.6-15.3,8.8-15.3c2.9,0,5.8,2.9,5.8,8.8v2.2c-2.2,20.4,7.3,32.1,22.6,31.4
		c3.9,0.3,7,3.4,7.3,7.3C2353.8,566.6,2350.8,570.3,2345,570.3z M2533.9,186.7c-1.8,0.9-3.8,1.4-5.8,1.5c-4.4,0-6.6-1.5-6.6-5.1
		c0-8,10.2-10.9,13.9-10.9s5.8,1.5,5.8,5.1S2539,183.8,2533.9,186.7L2533.9,186.7z M2514.2,187.5c2.9,0,5.1,2.9,5.1,6.6
		c0,2.7-1,5.3-2.9,7.3c-5.3,6.9-8.2,15.4-8,24.1c0,6.6-4.4,11.7-8,11.7c-4.4,0-6.6-3.6-6.6-11.7l0,0c-0.1-12.4,4.6-24.4,13.1-33.5
		C2509.1,188.9,2512,187.5,2514.2,187.5 M2567.4,495.9c0-43,27.7-115.2,60.5-179.4c2.9-5.1,5.8-8,9.5-8s5.8,2.2,5.8,6.6
		c0,3.4-1.1,6.7-2.9,9.5c-32.1,55.4-58.3,129.8-58.3,171.4c0,8.8-2.9,14.6-8,14.6c-1.4,0-2.9-1.5-4.4-4.4
		C2568.1,503.9,2567.4,500.3,2567.4,495.9L2567.4,495.9z M2596.6,549.1c-8.1-2.7-15.2-7.8-20.4-14.6c-1-2-1.5-4.3-1.5-6.6
		c0-5.1,3.6-8,6.6-8s5.1,1.5,5.8,3.6c2.9,5.1,8,9.5,16,12.4c2.3,0.6,3.8,2.7,3.6,5.1c0,5.1-4.4,8.8-8,8.8L2596.6,549.1z"/>
	<path class="st0" d="M2345,571.8c-23,0-37.2-16.5-37.2-43.1c0-9.7,4.3-16.8,10.2-16.8c3.5,0,7.3,3.2,7.3,10.2l0,2.3
		c-1.1,10.6,0.9,18.9,5.8,24.1c3.7,3.9,9,5.8,15.3,5.5l0.1,0l0.1,0c4.6,0.3,8.4,4.1,8.7,8.7l0,0.1
		C2355.3,567.4,2351.7,571.8,2345,571.8z M2318,514.9c-4.1,0-7.2,5.9-7.2,13.8c0,25.1,12.8,40.1,34.2,40.1c5,0,7.2-3,7.2-5.7
		c-0.2-3.1-2.7-5.6-5.8-5.8c-7.2,0.3-13.2-1.9-17.5-6.5c-5.5-5.9-7.8-15-6.6-26.4v-2.1C2322.4,517.2,2320.1,514.9,2318,514.9z
		 M1556.8,568.9c-21.3,0-32.1-13.5-32.1-40.1c0-11.5,4-19,10.2-19c4,0,7.3,5.3,7.3,11.7l0,1.6c-1.2,10.8,0.2,18.2,4.1,22.5
		c3,3.3,7.6,5,14.1,5c3.6,0,5.6,0,7.5-0.7l0.2-0.1c3.4-0.6,6.9-0.3,10.2,0.8l0.2,0.1l0.2,0.1c2.4,1.6,3.6,3.4,3.6,5.6
		c0,4.7-5.3,10.2-13.8,11v0c-2.2,0.3-4.1,0.5-5.7,0.8C1560.2,568.6,1558.2,568.9,1556.8,568.9z M1534.9,512.7c-4.3,0-7.2,6.4-7.2,16
		c0,24.6,9.8,37.1,29.1,37.1c1.2,0,3.1-0.3,5.7-0.6c1.6-0.2,3.6-0.5,5.8-0.8l0,0c7.2-0.7,11-5.1,11-8c0-0.7-0.2-1.7-2.1-3
		c-2.7-0.9-5.6-1.1-8.4-0.6c-2.4,0.8-4.7,0.8-8.4,0.8c-7.4,0-12.8-1.9-16.4-6c-4.5-5-6.1-13.1-4.8-24.8v-1.4
		C1539.2,516.1,1536.7,512.7,1534.9,512.7z M711.7,567.4L711.7,567.4c-24.7,0-42.9-14.6-48.9-39.1c-1.4-5.5-0.7-10.6,1.8-13.8
		c1.3-1.7,3-2.6,4.8-2.6c4.3,0,7.7,3.8,10.2,11.2c4.3,16.6,14.9,25.3,32.2,26.7c9.5,0.9,13.8,5.4,13.8,9.5
		C725.6,563,723.2,567.4,711.7,567.4L711.7,567.4z M669.4,514.9c-0.8,0-1.7,0.5-2.4,1.5c-1.5,1.9-2.6,5.9-1.2,11.3
		c5.6,23,22.8,36.8,45.9,36.8c5,0,10.9-0.9,10.9-5.1c0-2.7-3.8-5.9-11-6.5c-18.5-1.5-30.3-11.2-34.9-28.8
		C675.3,519.9,672.9,514.9,669.4,514.9z M1212.6,555l-3.1,0c-8.1-1.2-9.3-5.5-9.3-8c0-5.9,4.2-9.5,11-9.5l2.4,0
		c6.6,0.8,10.1,5,10.1,8.8C1223.6,550.5,1219.5,555,1212.6,555z M1209.8,552h2.8c5,0,8-2.9,8-5.8c0-1.9-2-5.1-7.3-5.8h-2.1
		c-5.1,0-8,2.4-8,6.5C1203.2,549.7,1205.4,551.4,1209.8,552z M1958.5,554.3h-1.5c-29.5-0.7-52-18.1-61.9-47.6
		c-1.3-2.9-2.1-6-2.3-9.2c0-8.6,4.4-10.3,8.1-10.3c3.4,0,8.6,3.2,9.5,9.2c6.4,24.9,23.5,39.7,46.7,40.4l0.1,0
		c10.2,1,12.3,6.1,12.3,10.2C1969.5,549.7,1968.1,554.3,1958.5,554.3z M1957.1,551.3h1.4c8,0,8-3.3,8-4.3c0-2.7-1-6.4-9.5-7.3
		c-24.7-0.8-42.7-16.3-49.5-42.7l0-0.2c-0.6-4.5-4.5-6.7-6.5-6.7c-2.4,0-5.1,0.8-5.1,7.2c0.2,2.8,0.9,5.5,2,8.1l0.1,0.1
		C1907.4,533.9,1929,550.6,1957.1,551.3z M1752.9,553.6L1752.9,553.6c-33.9-1.5-55.9-15.8-65.6-42.6c-1.3-3.1-2.1-6.5-2.3-9.9
		c0-5.7,3.3-10.3,7.3-10.3c4.3,0,7.7,3.8,10.2,11.2c7,21.1,24,32.5,50.4,34c9,0,13.8,4.4,13.8,8.8
		C1766.8,549.1,1762,553.6,1752.9,553.6z M1692.4,493.8c-2,0-4.3,3.1-4.3,7.2c0.2,3,0.9,6,2.1,8.9c9.2,25.5,30.4,39.2,62.8,40.6
		c7.1,0,10.9-3,10.9-5.8c0-2.8-3.8-5.8-10.9-5.8c-27.9-1.5-45.7-13.6-53.2-36C1698.3,498.8,1695.9,493.8,1692.4,493.8z
		 M2598.8,551.4h-0.2l-2.4-0.8c-8.5-2.8-15.8-8-21.1-15.1l-0.2-0.3c-1.1-2.2-1.6-4.7-1.6-7.2c0-5.9,4.2-9.5,8.1-9.5
		c3.5,0,6.2,1.7,7.2,4.5c3,5.1,8.1,9,15.1,11.6c3,0.8,4.9,3.5,4.7,6.6C2608.2,547,2603.2,551.4,2598.8,551.4z M2577.4,533.8
		c5,6.5,11.8,11.4,19.6,13.9l0,0l1.9,0.6c2.6-0.2,6.3-2.9,6.3-7.2l0-0.1c0.1-1.6-0.9-3.1-2.5-3.5l-0.1,0
		c-7.8-2.9-13.5-7.2-16.8-13.1l-0.1-0.3c-0.5-1.6-2.2-2.6-4.4-2.6c-2.1,0-5.1,2.3-5.1,6.5C2576.2,530,2576.6,532,2577.4,533.8z
		 M522.8,550.6c-19.3,0-36.2-9-46.5-24.7c-1.5-2.4-2.4-5.2-2.4-8.1c0-4.7,3.8-8.8,8.1-8.8c3.5,0,6.2,1.7,7.2,4.5
		c6.4,12,19.3,19.5,33.6,19.5c6.3,0,12.4,4.7,12.4,9.5C535.3,546.4,530.2,550.6,522.8,550.6z M482,512c-2.9,0-5.1,3.1-5.1,5.8
		c0,2.3,0.7,4.5,2,6.5c9.6,14.8,25.7,23.4,43.9,23.4c5.7,0,9.4-3,9.4-5.1c0-2.6-4.2-6.5-9.4-6.5c-15.5,0-29.4-8.1-36.3-21.2
		l-0.1-0.2C485.9,513,484.2,512,482,512z M1185.6,545.5l-0.4,0l-6-1.5c-11.5-4.6-19.6-10.8-24.7-18.8c-2.6-3.5-3.9-6.7-3.9-9.6
		c0-4.4,2.2-6.6,6.6-6.6c3.9,0,7.3,1.5,10.5,4.8c6.6,6.6,13,11.5,18.6,14.3c4.9,2.5,7.4,5.8,7.4,10.1
		C1193.7,542.8,1190.7,545.5,1185.6,545.5z M1180.3,541.1l5.5,1.4c3.3,0,4.9-1.5,4.9-4.3c0-3.1-1.9-5.5-5.7-7.4
		c-5.9-2.9-12.5-8.1-19.4-14.9c-2.7-2.7-5.3-3.9-8.4-3.9c-2.8,0-3.6,0.8-3.6,3.6c0,2.3,1.1,4.8,3.3,7.8l0.1,0.1
		C1161.8,531,1169.4,536.8,1180.3,541.1z M549.8,544.8c-5,0-8.1-2.7-8.1-7.3c0-5.8,5-10.2,11.7-10.2c4.7,0,8.8,3.8,8.8,8.1
		C562.2,540,558.4,544.8,549.8,544.8z M553.5,530.2c-5,0-8.7,3-8.7,7.2c0,2.9,1.7,4.3,5.1,4.3c7,0,9.4-3.5,9.4-6.5
		C559.2,532.4,556.2,530.2,553.5,530.2z M941.4,524.4c-6.4,0-7.3-4.1-7.3-6.6c0-4.9,3.9-9.8,11-13.7
		c43.7-23.6,81.8-63.5,107.3-112.4c4.7-8.6,8.7-12.5,13-12.5c2.2,0,5.9,1,5.9,8.1c0,4.2-1.2,8.7-3.8,13.8
		c-26.4,50.6-67.3,93-115.1,119.5l-0.1,0.1c-0.8,0.4-1.6,0.7-2.3,1C945.9,523.3,943.5,524.4,941.4,524.4z M1065.3,382.2
		c-3,0-6.4,3.6-10.4,10.9c-25.8,49.4-64.3,89.7-108.5,113.6c-6.1,3.4-9.4,7.3-9.4,11.1c0,1.9,0.5,3.6,4.3,3.6c1.5,0,3.8-1,7.3-2.5
		c0.7-0.3,1.5-0.6,2.3-1c47.3-26.2,87.7-68.2,113.8-118.2c2.3-4.7,3.5-8.7,3.5-12.4C1068.2,382.2,1066.2,382.2,1065.3,382.2z
		 M2574,512c-2.1,0-3.9-1.7-5.7-5.1c-2-3-2.4-7.6-2.4-11c0-38.4,22.7-105.7,60.7-180.1c2.4-4.1,5.7-8.8,10.8-8.8
		c4.6,0,7.3,3,7.3,8.1c-0.1,3.7-1.1,7.2-3.2,10.3c-33.1,57.2-58.1,130.5-58.1,170.5C2583.5,505.8,2579.8,512,2574,512z M2637.4,310
		c-2.8,0-5.3,2.2-8.2,7.3c-37.8,73.8-60.3,140.7-60.3,178.6c0,4.2,0.7,7.5,1.9,9.4l0.1,0.2c1.3,2.6,2.4,3.5,3,3.5
		c4.8,0,6.5-6.8,6.5-13.1c0-40.5,25.2-114.5,58.5-172.1c1.8-2.7,2.7-5.7,2.7-8.7C2641.7,311.7,2640.3,310,2637.4,310z M1077,366.9
		c-4.8,0-8.8-5.4-8.8-11.7c0-2.3,0-3.9,0.8-5.7c2.3-6.8,4.3-13.8,5.7-20.8c0.8-8.4,5.5-12.9,9.5-12.9c3.7,0,8.1,2.2,8.1,12.4
		c0,2.9,0,5.3-0.8,7.6c-0.8,5.2-2.9,12.4-5.9,22h0C1085.1,360.1,1083.1,366.9,1077,366.9z M1084.3,318.8c-2.3,0-5.9,3.3-6.5,10.3
		l0,0.2c-1.5,7.2-3.5,14.4-5.9,21.3l-0.1,0.2c-0.6,1.1-0.6,2.4-0.6,4.4c0,5,3.1,8.7,5.8,8.7c1.8,0,4.1-0.8,5.8-6.9l0.2,0l-0.2,0
		c2.9-9.5,5.1-16.7,5.8-21.6l0.1-0.3c0.7-2,0.7-4,0.7-6.8C1089.3,318.8,1085.5,318.8,1084.3,318.8z M2086.9,364
		c-2.7,0-6-1.7-9.1-4.8c-17.5-14.1-30.3-41.8-31.1-67.4c0-10.9,4.6-12.5,7.3-12.5c4.5,0,8.7,5.7,9.5,13l0,0.1
		c0.7,18.5,11.3,40.5,25,52.1c3.9,3.1,5.6,6.4,5.6,10.6C2094.2,362.8,2089.6,364,2086.9,364C2086.9,364,2086.9,364,2086.9,364z
		 M2080.4,357.5c2.3,2.2,4.7,3.5,6.5,3.5c0,0,0,0,0,0c2,0,4.3-0.7,4.3-5.8c0-3.3-1.4-5.8-4.5-8.3c-14.3-12.2-25.3-35-26.1-54.3
		c-0.7-6.1-4-10.3-6.5-10.3c-3.8,0-4.3,5.9-4.3,9.4c0.8,24.8,13.1,51.6,30.1,65.2L2080.4,357.5L2080.4,357.5z M1203.4,301.3
		c-0.1,0-0.2,0-0.3,0c0,0,0,0,0,0c-4.4,0-8-3.6-8-8c0-2.9,1.2-5.7,3.4-7.7c6.9-7,14.3-13.6,22-19.8c4.1-3.3,7.2-4.7,10.4-4.7
		c2.7,0,5.9,1.1,5.9,6.6c0,4.3-2.7,9.1-7.1,12.8c-4,3.3-10.6,9.1-19.6,18.1C1208.2,300.3,1205.8,301.3,1203.4,301.3z M1203.1,298.3
		c1.8,0.1,3.5-0.6,4.8-1.8c9.1-9.1,15.7-15,19.7-18.3c3.8-3.1,6-7.1,6-10.5c0-3.3-1.3-3.6-2.9-3.6c-2.4,0-5,1.2-8.5,4
		c-7.6,6.1-14.9,12.7-21.7,19.6l-0.1,0.1c-1.5,1.4-2.4,3.4-2.4,5.5C1198.1,296,1200.3,298.3,1203.1,298.3
		C1203.1,298.3,1203.1,298.3,1203.1,298.3z M567.2,296.9c-1.9,0-3.7-0.7-5-2.1c-1.4-1.4-2.2-3.2-2.2-5.1v-0.2
		c0-3.4,1.7-6.7,5.5-10.5c4.8-5.6,10.6-10.4,16.1-14.7c3.7-3.7,7.6-5.5,11.9-5.5c4.5,0,7.3,2.9,7.3,7.3c-0.2,4.5-2.7,8.5-6.5,10.7
		c-5.8,4.7-11.4,9.7-16.5,15.1c-3.3,3.3-6.7,4.8-10.6,4.8C567.3,296.9,567.2,296.9,567.2,296.9z M593.6,261.9
		c-3.5,0-6.7,1.5-9.9,4.7l-0.1,0.1c-6.3,4.9-11.4,9.2-15.8,14.4l-0.1,0.1c-3.2,3.2-4.7,5.8-4.7,8.4l0,0.1c0,1.1,0.5,2.2,1.3,3
		s1.9,1.3,3,1.2c3.1,0,5.7-1.2,8.4-3.9c5.3-5.5,10.9-10.7,16.9-15.4l0.2-0.1c3-1.7,4.9-4.8,5.1-8.2
		C597.9,263.4,596.4,261.9,593.6,261.9z M1445.2,296.9c-4.4,0-6.6-2.7-6.6-8.1c0-3.3,0.9-6.5,2.4-9.4l13.2-26.3
		c2.6-4.3,6-6.6,10-6.6c4.3,0,8.1,4.1,8.1,8.8c0.1,2.5-0.8,4.9-2.5,6.8c-5.4,7.9-9.9,16.4-13.7,25.2
		C1453.8,293.3,1449.7,296.9,1445.2,296.9z M1456.7,254.5l-13.1,26.2c-1.3,2.5-2,5.3-2,8.1c0,4.7,1.8,5,3.6,5c3.2,0,6.2-2.9,8.1-7.8
		l0-0.1c3.8-9,8.5-17.7,14-25.8l0.1-0.2c1.2-1.3,1.8-3,1.8-4.8c0-2.8-2.2-5.8-5.1-5.8C1461.3,249.5,1458.8,251.2,1456.7,254.5z
		 M2229.8,295.4c-5.9,0-6.6-5-6.6-8.8c0-2.3,0-4,0.9-5.7c4.3-11.2,7.4-22.8,9.4-34.6c0.8-6.7,5.1-10.7,8.8-10.7
		c4.8,0,8.8,5.4,8.8,11.7l0,2.3c-0.7,10.2-3.9,21.6-10.3,36.9C2238.3,292.1,2234.2,295.4,2229.8,295.4z M2242.2,238.6
		c-2,0-5.2,2.9-5.8,8.2c-2,12.1-5.2,24-9.6,35.3l-0.1,0.1c-0.6,1.1-0.6,2.4-0.6,4.4c0,5.4,1.6,5.8,3.6,5.8c3.1,0,6.2-2.7,8.1-7.1
		c6.3-15,9.4-26.1,10.1-35.9v-2.1C2248,242.3,2244.9,238.6,2242.2,238.6z M1588.1,295.4c-5,0-8.1-2.7-8.1-7.3c0-2.6,1.6-5.9,4.1-8.4
		c21.9-21.9,39.4-32.5,53.6-32.5c2.5,0,10.2,0,10.2,6.6c0,4.5-4.3,10.1-10,11c-11.4,2-28.6,10.8-41.3,25.7c-0.5,0.7-1,1.2-1.5,1.8
		l-1.2,1.4v-0.3C1592.2,294.8,1590.3,295.4,1588.1,295.4z M1637.7,250.2c-13.1,0-30.4,10.6-51.4,31.6c-1.9,1.9-3.2,4.4-3.2,6.2
		c0,2.9,1.7,4.3,5.1,4.3c2.3,0,4.1-1.1,6.1-3.8l2.7-3.6v0.6c12.9-13.7,29.3-21.8,40.5-23.8c4.5-0.6,7.5-5.2,7.5-8
		C1645,252.6,1645,250.2,1637.7,250.2z M888.2,295.4c-4.7,0-7.4-3-7.4-8.1v-0.2l1.6-5.5c5.3-11.2,5.7-29.7,5.7-35.1
		c0-7.2,4.2-11.7,8.1-11.7c5.7,0,9.5,5.3,9.5,13.2c0,8.8-2.2,21.4-6.6,37.5C898.4,291,893.8,295.2,888.2,295.4z M883.8,287.6
		c0.1,3.3,1.5,4.9,4.3,4.9c4.1-0.2,7.5-3.3,8-7.4l1,0.1l-1-0.3c4.3-15.8,6.5-28.2,6.5-36.8c0-5.1-2-10.2-6.5-10.2
		c-2.1,0-5.1,3.1-5.1,8.7c0,7.1-0.6,24.8-5.9,36.3L883.8,287.6z M1971.6,293.2c-2.1,0-4.1-0.8-5.7-2.3c-1.5-1.5-2.4-3.5-2.4-5.7
		l0-0.1c0-2.8,1.2-5.6,3.3-7.5c14.3-16.5,30.4-28.1,49.4-35.4c4-1.8,7.6-1.9,10-0.3c1.9,1.2,2.9,3.4,2.9,6.1c0,4.5-2.7,7.8-8.2,10.1
		c-14.9,6.1-28.6,16.2-41.8,31l-0.1,0.1C1976.5,291.9,1974.1,293.2,1971.6,293.2C1971.7,293.2,1971.7,293.2,1971.6,293.2z
		 M2022.2,243.8c-1.4,0-3,0.4-4.7,1.2c-18.6,7.2-34.4,18.5-48.3,34.6l-0.1,0.1c-1.5,1.4-2.4,3.4-2.4,5.5c0,1.4,0.5,2.7,1.5,3.6
		c1,0.9,2.3,1.5,3.6,1.5c1.5,0,3.3-1,5.5-3.2c13.5-15.1,27.5-25.4,42.8-31.7c5.7-2.4,6.4-5.4,6.4-7.4c0-1.1-0.3-2.7-1.6-3.5
		C2024.1,244,2023.2,243.8,2022.2,243.8z M1250,264c-1.9,0-3.6-0.5-5.1-1.5c-2-1.4-3.2-3.5-3.2-5.7c0-5,2.6-8.5,8.2-10.9l0.2-0.1
		l6.2-1.5c4.5,0,8.8,3.6,8.8,7.3c0,4.3-4.7,9.2-11.2,11.6C1252.6,263.7,1251.3,264,1250,264z M1251,248.7c-4.5,1.9-6.3,4.3-6.3,8.1
		c0,1.2,0.7,2.4,1.9,3.3c1.7,1.1,3.9,1.3,6.3,0.4c5.8-2.2,9.2-6.2,9.2-8.8c0-1.9-2.7-4.2-5.6-4.3L1251,248.7z M615.5,262.6
		c-1.7,0-3.5-0.4-5-1.3c-2.9-1.6-4.6-4.4-4.6-7.5c0-2.9,1.9-5.5,5.8-7.8l0,0c3.2-1.9,8.3-4,16.3-6.7c4.8-1.3,8.4-1,10.8,0.8
		c1.8,1.4,2.8,3.6,2.8,6.4c0,3.2-1.4,7.5-8.3,9.4l-12.2,5C619.5,262.1,617.5,262.6,615.5,262.6z M613.3,248.5
		c-2.9,1.7-4.4,3.5-4.4,5.3c0,2,1.1,3.8,3.1,4.9c2.4,1.3,5.3,1.2,7.8-0.3l0.2-0.1l12.6-5.2c4.1-1.2,6.2-3.4,6.2-6.6
		c0-1.9-0.5-3.2-1.6-4.1c-1.6-1.2-4.4-1.3-8.1-0.3C623.8,243.9,617.2,246.2,613.3,248.5L613.3,248.5z M2046.8,250.3
		c-2.6,0-5-0.8-6.8-2.4c-1.7-1.5-2.7-3.6-2.7-5.8c0-4.5,5.1-9.5,12.4-9.5c6,0,9.5,2.9,9.5,8.1c0,3.9-4.4,8.7-10.8,9.5l0,0
		C2047.9,250.3,2047.3,250.3,2046.8,250.3z M2049.7,235.6c-5.8,0-9.4,3.8-9.4,6.5c0,1.3,0.6,2.6,1.7,3.5c1.5,1.3,3.7,1.9,6.1,1.6
		l0,0c5.4-0.7,8.2-4.6,8.2-6.5C2056.2,239.4,2056.2,235.6,2049.7,235.6z M1771.9,249.5c-2.5,0-6.6-1-6.6-7.3c0-2.3,0-4,0.9-5.2
		c4.4-10.3,9.5-20.3,15.3-29.9c4.1-6.9,7.1-12.4,9.3-16.4c1.3-2.3,2.2-4.1,3.1-5.5c2.5-4.9,5.8-7.3,10.1-7.3c5.9,0,8.8,2.9,8.8,8.8
		c-0.1,2.7-0.9,5.2-2.4,7.4l-26.9,46.6C1780.2,246.4,1776.1,249.5,1771.9,249.5z M1769,238.1v0.3l-0.4,0.4c-0.3,0.3-0.3,2-0.3,3.3
		c0,3.8,1.7,4.3,3.6,4.3c3,0,6.3-2.6,8.9-7.3l27.1-46.8c1.2-1.7,1.9-3.7,1.9-5.7c0-4.2-1.5-5.8-5.8-5.8c-3.1,0-5.5,1.9-7.4,5.7
		l-0.1,0.1c-0.8,1.3-1.8,3.1-3,5.4c-2.2,4-5.2,9.5-9.4,16.5C1778.4,218.1,1773.3,228,1769,238.1z M1477.2,245.2
		c-1.2,0-2.4-0.2-3.6-0.7c-3.5-1.4-5.8-4.7-5.8-8.1c0-7,8.4-11.7,13.9-11.7c2,0,3.7,0.7,5.1,2c1.4,1.3,2.2,3.2,2.2,5.1v0.2
		c0,3.4-1.7,6.7-5.5,10.5l0,0C1481.7,244.3,1479.5,245.2,1477.2,245.2z M1481.8,227.6C1481.7,227.6,1481.7,227.6,1481.8,227.6
		c-4.4,0-11,3.7-11,8.7c0,2.2,1.6,4.4,3.9,5.4c1.1,0.5,4,1.3,6.6-1.3l0,0c3.2-3.2,4.7-5.8,4.7-8.4v-0.1c0-1.1-0.5-2.2-1.3-3
		C1483.9,228,1482.9,227.6,1481.8,227.6z M2500.3,238.6c-5.3,0-8.1-4.4-8.1-13.2c-0.1-12.8,4.7-25.1,13.5-34.5
		c2.3-3,5.6-4.9,8.4-4.9v0c3.7,0,6.6,3.5,6.6,8.1c0,3.1-1.2,6-3.3,8.3c-5.1,6.6-7.8,14.8-7.7,23.1
		C2509.8,232.9,2504.8,238.6,2500.3,238.6z M2514.2,189L2514.2,189c-1.6,0-4.1,1.2-6.1,3.8l-0.1,0.1c-8.3,8.8-12.8,20.4-12.7,32.5
		c0,10.2,3.7,10.2,5.1,10.2c2.6,0,6.5-4.3,6.5-10.2c-0.1-9,2.8-17.9,8.3-25l0.1-0.1c1.6-1.7,2.5-3.9,2.5-6.2
		C2517.8,191.2,2516.2,189,2514.2,189z M772.2,235.6c-3.4,0-5.9-4.6-5.9-8.8c0-2.9,0.5-5.8,1.6-8.6l8.7-25.3c0.9-6,6.1-9.2,9.5-9.2
		c3.8,0,7.3,4.3,7.3,8.8c0,2.3,0,3.9-0.8,5.6c-2.6,8.7-5.8,17.3-9.5,25.6C780.9,229.3,777.6,235.6,772.2,235.6z M786.1,186.8
		c-2,0-5.9,2.2-6.5,6.7l-0.1,0.3l-8.8,25.5c-0.9,2.4-1.4,5-1.4,7.5c0,3.2,1.9,5.8,2.9,5.8c2.8,0,5.4-3.2,8.1-10
		c3.7-8.3,6.9-16.8,9.4-25.4l0.1-0.2c0.6-1.1,0.6-2.4,0.6-4.4C790.4,189.6,788,186.8,786.1,186.8z M284.4,229.8
		c-5.5,0-6.6-3.2-6.6-5.9c0.1-3.1,1-6.1,2.4-8.7l0,0c43.3-78.6,80.7-137.8,122.9-171.1c6.2-4.6,10.8-6.9,14.1-6.9
		c1.9,0,3.3,0.5,4.3,1.5c1,1,1.5,2.5,1.5,4.3c0,4.9-3.2,9.7-10.1,15c-37.5,28.9-62.8,71.2-116.3,164.4
		C294.2,226.5,288.7,229.8,284.4,229.8z M282.8,216.6c-1.2,2.3-1.9,4.8-2,7.4c0,1.5,0.3,2.8,3.6,2.8c3.2,0,7.8-2.8,9.7-5.8
		c53.7-93.4,79.1-136,117-165.2c6.1-4.7,8.9-8.7,8.9-12.7c0-1-0.2-1.8-0.7-2.2c-0.4-0.4-1.2-0.7-2.2-0.7c-1.8,0-5.3,1.1-12.2,6.3
		C363.2,79.4,325.9,138.3,282.8,216.6z M2528.1,189.7c-5.4,0-8.1-2.2-8.1-6.6c0-9.4,11.4-12.4,15.4-12.4c6.4,0,7.3,4.1,7.3,6.6
		c0,4.3-2.5,7.6-8,10.8l-0.1,0C2532.5,189.1,2530.3,189.6,2528.1,189.7z M2535.3,173.7c-2.6,0-12.4,2.4-12.4,9.4
		c0,1.8,0.4,3.6,5.1,3.6c1.7,0,3.5-0.5,5.1-1.3c4.6-2.6,6.5-5.1,6.5-8.2C2539.7,175.4,2539.1,173.7,2535.3,173.7z M793.4,172.2
		c-3.5,0-7.3-3.2-7.3-10.3h3c0,4.8,2.2,7.3,4.3,7.3c3.5,0,6-3,7.3-9c4.8-19,7.3-34.8,7.3-45.6c0-8.4-1.1-18-3.6-30.3l0-0.1
		c-0.7-5.9-5.2-9.6-8-9.6c-2,0-4.3,0.7-4.3,5.8c0,2.7,0.7,6.8,2.2,13.5c1.5,6.8,2.2,13.8,2.2,20.7c0,11.7-2.2,25.9-6.6,42l-0.1,0.3
		c-0.6,1.1-0.6,3.2-0.6,5.2h-3c0-2.3,0-4.6,0.8-6.4c4.3-15.8,6.5-29.6,6.5-41c0-6.7-0.7-13.5-2.2-20.1c-1.6-7-2.2-11.2-2.2-14.2
		c0-7.7,4.6-8.8,7.3-8.8c4.5,0,10.1,5,11,12.2c2.5,12.5,3.7,22.3,3.7,30.9c0,11.1-2.5,27.1-7.3,46.3
		C801.5,170.2,796.9,172.2,793.4,172.2z M438.7,39.9c-1.8,0-3.5-0.4-4.9-1.3c-2.3-1.4-3.6-3.8-3.6-6.4c0-4.1,3.5-6.7,6.6-8.6
		l0.2-0.1c2.7-1.2,5.5-2,8.5-2.3l0.2,0c6.4,0,7.3,4.1,7.3,6.6c0,4.3-3.4,8.5-8.9,10.9C442.2,39.5,440.4,39.9,438.7,39.9z
		 M438.2,26.2c-3.5,2.1-5,3.9-5,6c0,1.6,0.8,3,2.2,3.9c2,1.2,4.7,1.2,7.3-0.1c4.5-1.9,7.2-5,7.2-8.1c0-1.9-0.5-3.6-4.3-3.6
		C443.1,24.5,440.6,25.1,438.2,26.2z"/>
</g>
<path id="Adventour" class="st1" d="M2794.2,380.7c-41.6,111.6-90.4,185.9-172.1,185.9c-41.6,0-71.5-24.1-71.5-65.6
	c0-53.2,37.2-149.5,80.2-226c-26.2,10.9-61.2,21.1-75.1,24.1c-4.4,10.9-10.9,26.2-19,44.5c-2.3,5.2-5,11.3-8.1,18.1
	c-0.2,0.5-0.4,1.1-0.6,1.6c-1.5,4.4-4.4,10.2-8,17.5c-2.5,5.4-5,10.7-7.5,16c-4.2,9.2-8.8,19.2-13.6,30l-7.3,15.3
	c-2.7,6.5-5.9,11.4-9.6,14.7c-41.4,75-86,127.5-139.9,127.5c-32.1,0-50.3-22.6-50.3-61.3v-2.2c-29.2,28.4-54.7,43.8-97.7,43.8
	c-37.9,0-67.1-16.8-67.1-48.1c0-39.7,10.1-76.7,27.6-118.7c-6,0.9-12.1,1.3-18.1,1.3c-3.6,0-9.5-0.7-17.5-1.5
	c-27,66.4-57.6,113.8-91.9,141.5c-22.6,18.2-45.9,27.7-70,27.7c-40.8,0-72.2-27.9-79.4-74c-34.5,45.9-76.7,74-125.5,74
	c-49.2,0-76.6-21.3-82.1-64.3c-35.1,49.5-74.8,81.8-114.1,81.8c-32.1,0-50.3-22.6-50.3-61.3c0-32.8,22.6-77.3,62.7-144.4l21.2-37.2
	c2.2-3.6,3.6-7.3,3.6-10.9c0-2.9-1.5-4.4-4.4-4.4c-6.6,0-15.3,6.6-27,20.4c-37.2,45.9-76.6,104.3-118.9,176.5
	c-3.3,4.6-6.2,9.5-8.7,14.6c-5.8,8.8-10.2,18.2-24.8,24.1c-7.3,3.5-15.3,5.2-23.3,5.1c-24.1,0-36.5-11.7-36.5-35.7
	c0-2,0.2-4.3,0.4-6.9c-10,10-21.5,18.5-34,25.2c-21.9,11.7-49.6,17.5-83.1,17.5c-43.8,0-83.1-17.5-105-49.6
	c-10.9-16-16.8-35-16.8-56.9c0-67.8,37.9-149.5,94.1-199.1c27.7-24.8,56.9-37.2,88.2-37.2c52.5,0,80.9,25.5,80.9,63.4
	c0,72.9-80.2,148.8-179.4,191.8c8,25.5,30.6,40.1,54.7,40.1c51,0,94.8-43,132-128.3c1.9-4.6,4.1-9.2,6.5-13.6
	c11.5-35.4,23.9-69.1,34.3-92.1l10.2-22.6c12.4-29.9,19-42.3,32.8-51c6.6-3.6,16-5.8,27-5.8c19.7,0,35.7,9.5,35.7,24.8
	c0,2.9,0,5.1-0.7,7.3c-32.8,72.2-49.6,118.1-66.4,176.5c63.4-98.4,133.4-183.7,179.4-183.7c15.3,0,25.5,11.7,25.5,29.2
	c0,25.5-15.3,57.6-45.2,112.3c-32.8,60.5-50.3,97.7-50.3,129.1c0,7.3,0.7,12.4,2.9,15.3c1.4,2.9,3.6,4.4,7.3,4.4
	c26.2,0,50.3-27.7,68.5-60.5c9.5-16.8,20.4-38.6,34.3-66.4c3.2-7.9,8.8-20.7,14.7-31.9c2.2-5.8,4.6-11.7,7.1-17.7l13.1-32.1
	l-11.7,2.2c-2.2,0.7-4.4,0.7-8,0.7c-13.8,0-23.3-7.3-23.3-21.1c0-21.1,27-21.9,62.7-28.4c8-19,24.1-48.1,46.7-87.5
	c9.5-16.8,29.2-25.5,47.4-25.5c19.7,0,35,9.5,35,24.1c0,5.1-2.2,10.9-5.8,16c-15.3,25.5-26.2,45.2-33.5,59.1
	c13.9-0.7,23.3-1.5,29.2-1.5c18.2,0,28.4,8,28.4,20.4s-9.5,21.1-21.9,21.1c-19.1,0.9-38,2.8-56.9,5.8l-18.2,43.8l-8,20.4
	c-19,48.1-28.4,86-28.4,113.8c0,26.3,9.5,39.4,28.4,39.4c15.3,0,32.1-10.2,50.3-31.4s39.3-57.6,63.4-109.3
	c15.6-42.9,40.6-83.3,72.2-112.4c27.7-25.5,58.3-37.9,91.2-37.9c26.2,0,49.6,9.5,62,27c11.7,16,17.5,37.9,17.5,65.6
	c-0.1,13.5-1.6,26.9-4.4,40.1c18,2,35.7-4.6,49-18.4c2.3-4.7,4.7-9.5,7.1-14.4c11.7-21.1,19-36.5,21.9-45.9
	c2.2-5.1,3.6-13.1,5.8-24.1c5.8-28.4,10.2-39.4,36.4-39.4c29.2,0,41.6,16.8,41.6,43c0,21.1-7.3,40.1-28.4,81.7
	c-32.8,69.3-52.5,111.6-57.6,156c-0.7,3.6-0.7,8-0.7,13.1c0,8.7,1.4,11.7,6.6,11.7c4.4,0,10.9-2.9,19.7-8
	c25.5-13.9,54-43.8,85.3-91.1c23.3-55.4,59.1-121.8,87.5-167.7c0.7-0.7,1.5-2.9,3.6-6.6c3.6-8,12.4-13.9,23.3-13.9
	c11.7,0,18.2,7.3,18.2,19c0.1,6-1.7,11.9-5.1,16.8c-41.6,70-90.4,180.8-90.4,232.6c0,7.3,0.7,12.4,2.9,15.3c1.5,2.9,3.6,4.4,7.3,4.4
	c25.5,0,49.6-27.7,67.8-59.8c8.8-16,20.4-38.6,34.3-67.1l2.2-4.7c10.3-23.4,21.1-50.2,32.8-80.6l8-19
	c-22.6-17.5-34.3-36.5-34.3-57.6c0-27,13.9-50.3,32.1-62.7c9.5-5.8,18.2-8.8,27.7-8.8c21.1,0,37.2,16.8,37.2,51
	c0,10.2-2.2,23.3-5.8,40.1c3.6-0.7,11.7-3.6,24.1-8c43-14.6,67.1-21.9,87.5-21.9c24.1,0,37.9,16.8,37.9,36.5c0,6.6-2.9,16.8-8,29.9
	s-13.1,30.6-24.1,51.8c-35,72.2-56.1,122.5-56.1,161.1c0,7.3,0.7,12.4,2.9,15.3c1.5,2.9,3.6,4.4,7.3,4.4c29.9,0,58.3-36.5,76.6-72.9
	c9.5-18.2,21.9-45.2,38.6-80.9c6.6-14.6,13.9-26.2,30.6-26.2h0.7c9.5,0,13.9,4.4,13.9,13.1C2800.7,360.3,2798.6,369.8,2794.2,380.7z
	 M1230.8,262.6c-2.9,0-5.8,1.5-9.5,4.4c-7.6,6.2-14.9,12.7-21.9,19.7c-1.9,1.7-2.9,4.1-2.9,6.6c0,3.6,2.9,6.5,6.5,6.6c0,0,0,0,0,0
	c2.2,0.1,4.2-0.7,5.8-2.2c8.8-8.8,15.3-14.6,19.7-18.2s6.6-8,6.6-11.7S1233.8,262.6,1230.8,262.6z M1256.4,245.8l-5.8,1.5
	c-5.1,2.2-7.3,5.1-7.3,9.5c0,3.6,4.4,7.3,10.2,5.1s10.2-6.6,10.2-10.2C1263.7,248.7,1260,245.8,1256.4,245.8L1256.4,245.8z
	 M1322.7,295.4c0-10.9-8.8-17.5-21.1-17.5c-15.3,0-35,9.5-50.3,29.2c-24.1,32.8-46.7,81.7-55.4,122.5
	C1265.1,393.8,1322.7,342.1,1322.7,295.4z M1185.6,529.5c-5.8-2.9-12.4-8-19-14.6c-2.9-2.9-5.8-4.4-9.5-4.4s-5.1,1.5-5.1,5.1
	c0,2.9,1.5,5.8,3.7,8.8c5.1,8,13.1,13.9,24.1,18.2l5.8,1.5c4.4,0,6.6-2.2,6.6-5.8S1190,531.6,1185.6,529.5z M1213.3,538.9h-2.2
	c-5.8,0-9.5,2.9-9.5,8c0,3.6,2.9,5.8,8,6.6h2.9c5.8,0,9.5-3.6,9.5-7.3C1222.1,543.3,1219.2,539.7,1213.3,538.9z M1482.4,241.4
	c3.7-3.6,5.1-6.6,5.1-9.5c0-3.2-2.5-5.8-5.7-5.8c-0.1,0-0.1,0-0.2,0c-5.1,0-12.4,4.4-12.4,10.2S1477.3,246.5,1482.4,241.4
	L1482.4,241.4z M1468.6,261.1c1.5-1.6,2.2-3.7,2.2-5.8c0-3.6-2.9-7.3-6.6-7.3s-6.6,2.2-8.8,5.8l-13.1,26.2c-1.4,2.7-2.2,5.7-2.2,8.8
	c0,4.4,1.5,6.6,5.1,6.6s7.3-2.9,9.5-8.8C1458.5,277.7,1463.1,269.1,1468.6,261.1L1468.6,261.1z M1637.7,263.3
	c5.1-0.7,8.8-5.8,8.8-9.5s-2.9-5.1-8.8-5.1c-13.8,0-31.3,10.9-52.5,32.1c-2.2,2.2-3.6,5.1-3.6,7.3c0,3.6,2.2,5.8,6.6,5.8
	c2.9,0,5.1-1.5,7.3-4.4C1607.8,275,1625.3,265.5,1637.7,263.3L1637.7,263.3z M1577.9,552.1c-3.1-1-6.3-1.3-9.5-0.7
	c-2.2,0.7-4.4,0.7-8,0.7c-15.3,0-21.9-8.8-19.7-29.2v-1.5c0-5.8-2.9-10.2-5.8-10.2c-5.1,0-8.8,6.6-8.8,17.5
	c0,25.5,10.2,38.6,30.6,38.6c2.2,0,5.8-0.7,11.7-1.5c8-0.7,12.4-5.8,12.4-9.5C1580.8,555,1580.1,553.5,1577.9,552.1L1577.9,552.1z
	 M1771.9,248c3.6,0,7.3-2.9,10.2-8l27-46.7c1.4-1.9,2.1-4.2,2.2-6.6c0-5.1-2.2-7.3-7.3-7.3c-3.7,0-6.6,2.2-8.8,6.6
	c-2.2,3.6-5.8,10.9-12.4,21.9c-5.8,9.6-10.9,19.6-15.3,29.9c-0.7,0.7-0.7,2.2-0.7,4.4C1766.8,245.8,1768.2,248,1771.9,248z
	 M1752.9,537.5c-27-1.5-44.5-13.1-51.8-35c-2.2-6.6-5.1-10.2-8.8-10.2c-2.9,0-5.8,3.6-5.8,8.8c0.2,3.3,0.9,6.5,2.2,9.5
	c9.5,26.3,31.4,40.1,64.2,41.6l0,0c8,0,12.4-3.6,12.4-7.3S1760.9,537.5,1752.9,537.5z M1909,496.6c-0.7-5.1-5.1-8-8-8
	c-4.4,0-6.6,2.9-6.6,8.8c0.2,3,0.9,6,2.2,8.8c9.5,28.4,31.4,45.9,60.5,46.7h1.5c6.6,0,9.5-2.2,9.5-5.8c0-5.1-3.6-8-10.9-8.8
	C1933,537.5,1915.5,522.2,1909,496.6L1909,496.6z M2016.9,243.6c-19,7.3-35,19-48.9,35c-1.9,1.7-2.9,4.1-2.9,6.6
	c0,3.6,2.9,6.5,6.5,6.6c0,0,0,0,0.1,0c2.2,0,4.4-1.5,6.6-3.6c12.4-13.9,26.2-24.8,42.3-31.4c5.1-2.2,7.3-5.1,7.3-8.8
	C2027.8,242.9,2023.4,240.7,2016.9,243.6L2016.9,243.6z M2031.5,290.3c-35,40.8-78,121.8-78,179.4c0,14.6,2.2,26.2,5.8,35.7
	s8.8,13.9,13.9,13.9c29.9,0,75.1-59.1,105-137.8C2051.9,363.2,2033.7,325.3,2031.5,290.3L2031.5,290.3z M2049.7,234.1
	c-6.6,0-10.9,4.4-10.9,8s3.7,7.3,9.5,6.6c5.8-0.7,9.5-5.1,9.5-8C2057.7,236.3,2054.8,234.1,2049.7,234.1L2049.7,234.1z
	 M2087.6,345.7c-14.6-12.4-24.8-35-25.5-53.2c-0.7-6.6-4.4-11.7-8-11.7s-5.8,3.6-5.8,10.9c0.7,24.1,12.4,51.8,30.6,66.4
	c2.9,2.9,5.8,4.4,8,4.4c3.6,0,5.8-2.2,5.8-7.3C2092.7,351.5,2091.3,348.6,2087.6,345.7z M2229.8,293.9c3.6,0,7.3-2.9,9.5-8
	c5.8-13.9,9.5-25.5,10.2-36.5v-2.2c0-5.8-3.6-10.2-7.3-10.2c-2.9,0-6.6,3.6-7.3,9.5c-2,12-5.2,23.7-9.5,35c-0.7,1.5-0.7,2.9-0.7,5.1
	C2224.7,291.7,2226.1,293.9,2229.8,293.9L2229.8,293.9z M2346.5,555.7c-15.3,0.7-24.8-10.9-22.6-31.4v-2.2c0-5.8-2.9-8.8-5.8-8.8
	c-5.1,0-8.8,6.6-8.8,15.3c0,25.5,13.1,41.6,35.7,41.6c5.8,0,8.8-3.6,8.8-7.3C2353.5,559.1,2350.4,556,2346.5,555.7z M2514.2,187.5
	c-2.2,0-5.1,1.5-7.3,4.4c-8.5,9.1-13.2,21.1-13.1,33.5l0,0c0,8,2.2,11.7,6.6,11.7c3.6,0,8-5.1,8-11.7c-0.1-8.7,2.7-17.2,8-24.1
	c1.9-2,2.9-4.6,2.9-7.3C2519.3,190.4,2517.1,187.5,2514.2,187.5L2514.2,187.5z M2535.3,172.2c-3.6,0-13.9,2.9-13.9,10.9
	c0,3.6,2.2,5.1,6.6,5.1c2-0.1,4-0.5,5.8-1.5c5.1-2.9,7.3-5.8,7.3-9.5S2539,172.2,2535.3,172.2L2535.3,172.2z M2576.1,534.6
	c5.2,6.8,12.3,11.9,20.4,14.6l2.2,0.7c3.6,0,8-3.6,8-8.8c0.2-2.4-1.4-4.5-3.6-5.1c-8-2.9-13.1-7.3-16-12.4c-0.7-2.2-2.9-3.6-5.8-3.6
	s-6.6,2.9-6.6,8C2574.7,530.3,2575.2,532.5,2576.1,534.6L2576.1,534.6z M2640.3,324.6c1.9-2.8,2.9-6.1,2.9-9.5
	c0-4.4-2.2-6.6-5.8-6.6s-6.6,2.9-9.5,8c-32.8,64.2-60.5,136.4-60.5,179.4c0,4.4,0.7,8,2.2,10.2c1.5,2.9,2.9,4.4,4.4,4.4
	c5.1,0,8-5.8,8-14.6C2582,454.3,2608.2,380,2640.3,324.6L2640.3,324.6z M847.3,564.5c-27.5,0-48.9-9.6-58.5-28.3
	c-24.6,29.2-50.7,44.3-81.5,44.3c-41.6,0-61.2-29.9-61.2-75.8c0.1-11.8,1.6-23.5,4.4-35c-34.3,39.4-62,66.4-84.6,80.2
	c-15.3,9.5-31.4,14.6-48.9,14.6c-27.3,0-49.1-15.2-55.6-42.2c-24.7,27.2-51.1,40-80.7,40c-29.9,0-45.2-19-50.3-59.8
	c-0.7-5.1-0.7-10.9-0.7-19c0-41.6,27.7-121,69.3-214.4l-70.7,7.3c-0.7,2.2-1.9,4.3-3.6,5.8l-13.1,19c-5.1,7.3-10.2,15.3-16.8,24.1
	C219.5,436.1,183,487.2,140,522.2c-21.9,18.2-43,27-64.2,27c-25.5,0-44.5-4.4-62.7-22.6c-3.6-3.6-5.8-8-5.8-12.4
	c0-8.8,8.8-16,20.4-16c3.6,0,9.5,1.5,16,5.1c10.9,3.6,18.2,5.8,21.9,5.8c28.4,0,59.1-37.9,88.2-89.7c13.9-25.5,32.8-62,56.9-107.9
	L221,291c-40.1,7.3-71.5,15.3-93.3,23.3C78,335.5,62,351.5,40.9,404.8c-3.6,10.2-10.9,15.3-21.1,15.3c-9.5,0-19-8-19-19
	c0-3.5,0.8-7,2.2-10.2c22.6-62,48.9-89.7,105-113.8c28.4-12.4,74.4-24.1,137.8-33.5C324.5,92.7,395.2,0.1,477.6,0.1
	c41.6,0,72.9,16.8,72.9,48.9c0,14.6-14.6,48.1-35.7,83.9c-19.7,34.3-37.9,67.1-53.2,99.2c2.8,3.2,4.4,7.4,4.4,11.7
	c0,8.8-7.3,16.8-19.7,20.4c-42.3,92.6-66.4,165.5-72.9,220.2c-0.7,2.4-0.7,4.9,0,7.3v8.8c0.7,8.8,1.5,14.6,2.9,16.8s3.6,3.6,7.3,3.6
	c29.9,0,58.3-36.5,76.6-72.9c6.9-13.2,15.3-31,25.8-53.5c8.4-21.5,18.7-45,31.1-70.5c27-56.1,80.9-96.3,131.2-96.3
	c35,0,64.9,19.7,80.2,48.9l6.6-13.1c29.9-62,45.2-113,45.2-153.9c0.1-8.6-0.6-17.1-2.2-25.5c-2.2-7.3-2.9-11.7-2.9-13.9
	c0-21.1,15.3-32.8,33.5-32.8c19.7,0,40.1,11.7,45.2,28.4c2.3,8.1,3.5,16.4,3.6,24.8c0,48.9-29.9,107.9-81.7,197.6
	c-40.8,72.2-52.5,96.3-66.4,142.9c-6.6,24.1-10.2,43.8-10.2,59.8c0,19.7,5.8,29.9,17.5,29.9c29.2,0,50.3-21.9,71.5-60.5
	c6.3-12.1,14.5-28.7,24.7-49.7c2.5-5.9,5.3-11.9,8.1-18.2l11.7-25.5c28.4-62,38.6-87.5,38.6-117.4c0-27,16.8-41.6,37.2-41.6
	c19.7,0,37.2,13.1,40.8,34.3c0.7,2.9,0.7,7.3,0.7,13.1c0,35.7-17.5,79.5-43.7,131.3c-25.5,51.8-40.8,85.3-40.8,107.9
	c0,13.9,6.6,21.1,20.4,21.1c43,0,107.9-82.4,151.7-172.8c21.2-44.5,32.1-78.8,32.1-102.1c0-2.9-0.7-8-1.5-14.6
	c-1.5-6.6-2.2-10.9-2.2-14.6c0-9.5,3.7-16,11.7-19.7c3-1.3,6.2-2,9.5-2.2c8.8,0,15.3,6.6,19.7,19.7c4.4,13.9,6.6,30.6,6.6,51
	c0,111.6-56.9,209.3-138.5,263.2C933.4,550.6,891.1,564.5,847.3,564.5z M417.1,38.7c-2.9,0-7.3,2.2-13.1,6.6
	c-41.6,32.8-78.8,91.1-122.5,170.6c-1.3,2.5-2.1,5.2-2.2,8c0,2.9,1.5,4.4,5.1,4.4s8.8-2.9,10.9-6.6C348.6,129.1,374.1,86.1,412,56.9
	c6.6-5.1,9.5-9.5,9.5-13.9C421.5,40.2,420,38.7,417.1,38.7z M445.5,22.7c-2.8,0.3-5.5,1-8,2.2c-3.6,2.2-5.8,4.4-5.8,7.3
	c0,5.1,5.8,8,11.7,5.1c5.1-2.2,8-5.8,8-9.5S449.2,22.7,445.5,22.7L445.5,22.7z M479.8,110.2c12.4-20.4,21.9-44.5,21.9-56.1
	c0-3.6-0.7-5.8-2.9-5.8c-13.9,0-31.4,16-54,47.4c-22.6,32.1-51.8,77.3-87.5,134.9c10.9-0.7,24.8-1.5,41.6-3.6
	c5.1,0,11.7-0.7,20.4-1.5C439.7,183.8,460.1,145.9,479.8,110.2L479.8,110.2z M522.8,534.6c-15.3,0-28.4-8-35-20.4
	c-0.7-2.2-2.9-3.6-5.8-3.6c-3.6,0-6.6,3.6-6.6,7.3c0,2.6,0.8,5.1,2.2,7.3c9.5,14.6,25.5,24.1,45.2,24.1c6.6,0,10.9-3.6,10.9-6.6
	C533.8,538.9,528.7,534.6,522.8,534.6L522.8,534.6z M793.4,170.7c4.4,0,7.3-3.6,8.8-10.2c5.1-20.4,7.3-35.7,7.3-45.9
	c0-9.5-1.5-19.7-3.6-30.6c-0.7-6.6-5.8-10.9-9.5-10.9s-5.8,2.2-5.8,7.3c0,2.9,0.7,7.3,2.2,13.9c1.4,6.7,2.2,13.6,2.2,20.4
	c0,11.7-2.2,25.5-6.6,41.6c-0.7,1.5-0.7,3.6-0.7,5.8C787.5,167.8,790.4,170.7,793.4,170.7z M772.2,234.1c3.6,0,6.6-3.6,9.5-10.9
	c3.7-8.3,6.9-16.8,9.5-25.5c0.7-1.5,0.7-2.9,0.7-5.1c0-3.6-2.9-7.3-5.8-7.3s-7.3,2.9-8,8l-8.8,25.5c-1,2.6-1.5,5.3-1.5,8
	C767.8,230.5,770,234.1,772.2,234.1L772.2,234.1z M549.8,543.3c8,0,10.9-4.4,10.9-8s-3.6-6.6-7.3-6.6c-5.8,0-10.2,3.6-10.2,8.8
	C543.2,541.1,545.4,543.3,549.8,543.3z M593.6,260.4c-3.6,0-7.3,1.5-10.9,5.1c-6.6,5.1-11.7,9.5-16,14.6c-3.6,3.6-5.1,6.6-5.1,9.5
	c0,3.2,2.5,5.8,5.7,5.8c0.1,0,0.1,0,0.2,0c3.6,0,6.6-1.5,9.5-4.4c5.3-5.5,10.9-10.6,16.8-15.3c3.5-1.9,5.7-5.5,5.8-9.5
	C599.4,262.6,597.2,260.4,593.6,260.4L593.6,260.4z M628.6,240.7c-6.6,2.2-12.4,4.4-16,6.6s-5.1,4.4-5.1,6.6c0,5.8,7.3,9.5,13.1,5.8
	l12.4-5.1c5.1-1.5,7.3-4.4,7.3-8C640.2,241.4,636.6,238.5,628.6,240.7L628.6,240.7z M677.4,277.9c-4.4-3.3-9.8-5.1-15.3-5.1
	c-41.6,0-83.9,89-107.2,161.1c-3.3,9.1-5.1,18.7-5.1,28.4c0,14.6,5.8,23.3,15.3,23.3c8,0,17.5-5.8,29.9-18.2
	c31.4-32.1,54-61.2,95.5-116.7c5.8-8,8.8-17.5,8.8-28.4C699.3,304.9,691.3,286.6,677.4,277.9L677.4,277.9z M711.7,551.3
	c-18.2-1.5-29.2-10.9-33.5-27.7c-2.2-6.6-5.1-10.2-8.8-10.2s-7.3,5.8-5.1,14.6c5.8,24.1,24.1,37.9,47.4,37.9l0,0
	c8,0,12.4-2.2,12.4-6.6C724.1,555.7,719.7,552.1,711.7,551.3L711.7,551.3z M888.1,293.9c4.9-0.2,8.9-3.9,9.5-8.8
	c4.4-16,6.6-28.4,6.6-37.2c0-6.6-2.9-11.7-8-11.7c-2.9,0-6.6,3.6-6.6,10.2c0,2.9,0,23.3-5.8,35.7l-1.5,5.1
	C882.3,291.7,884.5,293.9,888.1,293.9L888.1,293.9z M1077,365.4c3.6,0,5.8-2.9,7.3-8c2.9-9.5,5.1-16.8,5.8-21.9
	c0.7-2.2,0.7-4.4,0.7-7.3c0-7.3-2.2-10.9-6.6-10.9c-2.9,0-7.3,3.6-8,11.7c-1.5,7.2-3.4,14.2-5.8,21.1c-0.7,1.5-0.7,2.9-0.7,5.1
	C1069.7,361,1073.3,365.4,1077,365.4z M1069.7,387.3c0-4.4-1.5-6.6-4.4-6.6c-3.7,0-7.3,3.6-11.7,11.7c-25.5,48.9-63.4,89-107.9,113
	c-6.6,3.6-10.2,8-10.2,12.4c0,3.6,2.2,5.1,5.8,5.1c2.2,0,5.1-1.5,10.2-3.6c47.4-26.3,88.2-68.5,114.5-118.9
	C1068.2,396,1069.7,391.6,1069.7,387.3z"/>
</svg>
