<svg xmlns="http://www.w3.org/2000/svg" width="2801" height="585" viewBox="0 0 2801 585">
  <defs>
    <style>
      .cls-1 {
        fill: #baf3ff;
        stroke: #baf3ff;
        stroke-width: 3px;
      }

      .cls-2 {
        fill: #ff4b47;
      }
    </style>
  </defs>
  <path class="cls-1" d="M437.524,24.863a26.484,26.484,0,0,1,8.021-2.187c3.646,0,5.834,1.458,5.834,5.1s-2.917,7.292-8.021,9.479c-5.834,2.917-11.667,0-11.667-5.1C431.691,29.238,433.879,27.051,437.524,24.863ZM281.483,215.906c43.75-79.48,80.937-137.813,122.5-170.626q8.749-6.562,13.125-6.563t4.375,4.375c0,4.375-2.917,8.75-9.479,13.854-37.917,29.167-63.438,72.188-116.667,164.793-2.188,3.645-7.292,6.562-10.938,6.562s-5.1-1.458-5.1-4.375A19.006,19.006,0,0,1,281.483,215.906Zm506.038-53.959c0-2.187,0-4.375.729-5.833q6.563-24.063,6.562-41.563a97.215,97.215,0,0,0-2.187-20.416c-1.458-6.562-2.188-10.938-2.188-13.854,0-5.1,2.188-7.292,5.834-7.292s8.75,4.375,9.479,10.938c2.187,10.938,3.646,21.146,3.646,30.625,0,10.209-2.188,25.521-7.292,45.938-1.458,6.563-4.375,10.209-8.75,10.209-2.917,0-5.833-2.917-5.833-8.751M778.042,193.3c0.729-5.1,5.1-8.021,8.02-8.021s5.834,3.646,5.834,7.292c0,2.187,0,3.646-.729,5.1a207.459,207.459,0,0,1-9.48,25.521c-2.916,7.292-5.833,10.937-9.479,10.937-2.187,0-4.375-3.645-4.375-7.291a22.486,22.486,0,0,1,1.459-8.021ZM612.521,247.261c3.646-2.188,9.479-4.375,16.042-6.563,8.02-2.188,11.666.729,11.666,5.833,0,3.646-2.187,6.563-7.291,8.021l-12.4,5.1c-5.834,3.646-13.125,0-13.125-5.833C607.417,251.636,608.875,249.448,612.521,247.261Zm-45.938,32.812c4.375-5.1,9.48-9.479,16.042-14.583,3.646-3.646,7.292-5.1,10.938-5.1s5.832,2.188,5.832,5.834a11.377,11.377,0,0,1-5.833,9.479,174.686,174.686,0,0,0-16.77,15.312c-2.917,2.917-5.834,4.375-9.479,4.375a5.752,5.752,0,0,1-5.834-5.833C561.479,286.636,562.938,283.719,566.583,280.073Zm-43.75,269.065c-19.687,0-35.729-9.48-45.208-24.063a14.072,14.072,0,0,1-2.187-7.292c0-3.646,2.916-7.291,6.562-7.291,2.917,0,5.1,1.458,5.833,3.645,6.563,12.4,19.688,20.417,35,20.417,5.834,0,10.938,4.375,10.938,8.021,0,2.917-4.375,6.563-10.938,6.563h0Zm188.854,16.771c-23.333,0-41.562-13.855-47.395-37.917-2.188-8.75,1.458-14.584,5.1-14.584s6.562,3.646,8.75,10.209c4.375,16.771,15.312,26.25,33.541,27.708,8.02,0.729,12.395,4.375,12.395,8.021,0,4.375-4.375,6.563-12.395,6.563h0ZM549.813,543.3c-4.375,0-6.563-2.187-6.563-5.833,0-5.1,4.375-8.75,10.208-8.75,3.646,0,7.292,2.917,7.292,6.562S557.833,543.3,549.813,543.3Zm347.81-258.127a9.956,9.956,0,0,1-9.48,8.751c-3.645,0-5.833-2.188-5.833-6.563l1.458-5.1c5.834-12.4,5.834-32.813,5.834-35.73,0-6.562,3.645-10.208,6.562-10.208,5.1,0,8.021,5.1,8.021,11.667Q904.185,261.115,897.623,285.177Zm186.667,72.188c-1.46,5.105-3.65,8.021-7.29,8.021s-7.29-4.375-7.29-10.208c0-2.188,0-3.646.72-5.1a170.773,170.773,0,0,0,5.84-21.146c0.73-8.021,5.1-11.667,8.02-11.667q6.555,0,6.56,10.938c0,2.916,0,5.1-.73,7.291C1089.39,340.6,1087.21,347.886,1084.29,357.365ZM951.581,519.242c-5.1,2.187-8.021,3.645-10.209,3.645-3.645,0-5.833-1.458-5.833-5.1,0-4.375,3.646-8.75,10.208-12.4,44.48-24.062,82.393-64.167,107.913-113.021,4.38-8.021,8.02-11.667,11.67-11.667q4.38,0,4.38,6.563c0,4.375-1.46,8.75-3.65,13.125C1039.81,450.7,998.977,492.991,951.581,519.242ZM1256.37,245.8c3.65,0,7.29,2.917,7.29,5.834,0,3.645-4.37,8.02-10.21,10.208s-10.2-1.458-10.2-5.1c0-4.375,2.18-7.292,7.29-9.479Zm-56.87,40.834a266.408,266.408,0,0,1,21.87-19.688c3.65-2.917,6.56-4.375,9.48-4.375s4.37,1.458,4.37,5.1-2.18,8.021-6.56,11.667-10.94,9.479-19.69,18.229a8.251,8.251,0,0,1-5.83,2.188,6.537,6.537,0,0,1-6.56-6.563A8.9,8.9,0,0,1,1199.5,286.636Zm-19.69,255.939c-10.94-4.375-18.96-10.208-24.06-18.229-2.19-2.917-3.65-5.834-3.65-8.75,0-3.646,1.46-5.1,5.1-5.1s6.57,1.458,9.48,4.375c6.57,6.562,13.13,11.666,18.96,14.583q6.57,3.282,6.56,8.75c0,3.646-2.18,5.833-6.56,5.833Zm29.89,10.938c-5.1-.729-8.02-2.917-8.02-6.563,0-5.1,3.65-8.021,9.48-8.021h2.19c5.83,0.729,8.75,4.375,8.75,7.292,0,3.646-3.65,7.292-9.48,7.292h-2.92Zm272.71-312.086c-5.1,5.1-13.12.729-13.12-5.1s7.29-10.208,12.39-10.208a5.745,5.745,0,0,1,5.83,5.833C1487.51,234.865,1486.06,237.781,1482.41,241.427Zm-27.71,45.209c-2.19,5.833-5.83,8.75-9.48,8.75s-5.1-2.188-5.1-6.563a19.4,19.4,0,0,1,2.19-8.75l13.12-26.25c2.19-3.646,5.1-5.833,8.75-5.833s6.56,3.646,6.56,7.291a8.313,8.313,0,0,1-2.18,5.834A148.167,148.167,0,0,0,1454.7,286.636Zm140.73,2.917c-2.19,2.916-4.37,4.375-7.29,4.375-4.38,0-6.56-2.188-6.56-5.834,0-2.187,1.45-5.1,3.64-7.292,21.15-21.146,38.65-32.083,52.5-32.083,5.83,0,8.75,1.459,8.75,5.105s-3.64,8.75-8.75,9.479C1625.33,265.49,1607.83,274.969,1595.43,289.553Zm-26.98,276.356c-5.83.729-9.48,1.458-11.67,1.458-20.41,0-30.62-13.125-30.62-38.646,0-10.938,3.65-17.5,8.75-17.5,2.92,0,5.83,4.375,5.83,10.208v1.458c-2.18,20.417,4.38,29.167,19.69,29.167,3.65,0,5.83,0,8.02-.729a19.331,19.331,0,0,1,9.48.729c2.19,1.459,2.92,2.917,2.92,4.375C1580.85,560.075,1576.47,565.179,1568.45,565.909Zm199.06-328.128a235.138,235.138,0,0,1,15.31-29.9c6.57-10.937,10.21-18.229,12.4-21.875q3.285-6.562,8.75-6.562c5.1,0,7.29,2.187,7.29,7.291a11.753,11.753,0,0,1-2.19,6.563l-26.97,46.667c-2.92,5.1-6.57,8.021-10.21,8.021s-5.11-2.188-5.11-5.834C1766.78,239.969,1766.78,238.51,1767.51,237.781Zm-14.58,314.273c-32.81-1.458-54.69-15.312-64.17-41.562a28.523,28.523,0,0,1-2.19-9.48c0-5.1,2.92-8.75,5.84-8.75,3.64,0,6.56,3.646,8.75,10.209,7.29,21.875,24.79,33.542,51.77,35,8.02,0,12.39,3.646,12.39,7.292s-4.37,7.291-12.39,7.291h0Zm295.31-303.335c-5.83.729-9.48-2.917-9.48-6.563s4.38-8.021,10.94-8.021c5.1,0,8.02,2.188,8.02,6.563C2057.72,243.615,2054.07,247.99,2048.24,248.719Zm-70,39.375c-2.19,2.188-4.38,3.646-6.56,3.646a6.539,6.539,0,0,1-6.57-6.563,8.9,8.9,0,0,1,2.92-6.562c13.86-16.042,29.9-27.709,48.86-35,6.56-2.917,10.93-.729,10.93,4.375,0,3.646-2.18,6.562-7.29,8.75C2004.49,263.3,1990.64,274.24,1978.24,288.094Zm100.62,70c-18.22-14.584-29.89-42.292-30.62-66.355,0-7.292,2.19-10.938,5.83-10.938s7.29,5.1,8.02,11.667c0.73,18.23,10.94,40.834,25.52,53.23,3.65,2.916,5.11,5.833,5.11,9.479,0,5.1-2.19,7.292-5.83,7.292C2084.7,362.47,2081.78,361.011,2078.86,358.1ZM1957.09,552.784c-29.16-.73-51.04-18.23-60.52-46.667a25.132,25.132,0,0,1-2.18-8.751q0-8.749,6.56-8.75c2.91,0,7.29,2.917,8.02,8.021,6.56,25.521,24.06,40.834,48.12,41.563q10.95,1.093,10.94,8.75c0,3.646-2.92,5.834-9.48,5.834h-1.46Zm268.34-271.252a182.432,182.432,0,0,0,9.47-35c0.73-5.833,4.38-9.479,7.3-9.479,3.64,0,7.29,4.375,7.29,10.209v2.187c-0.73,10.938-4.38,22.6-10.21,36.459-2.19,5.1-5.83,8.021-9.48,8.021s-5.1-2.188-5.1-7.292C2224.7,284.448,2224.7,282.99,2225.43,281.532Zm119.58,288.752c-22.61,0-35.73-16.042-35.73-41.563,0-8.75,3.65-15.313,8.75-15.313,2.92,0,5.83,2.917,5.83,8.75v2.188c-2.18,20.417,7.29,32.083,22.61,31.354a7.845,7.845,0,0,1,7.29,7.292C2353.76,566.638,2350.84,570.284,2345.01,570.284Zm188.85-383.545a13.759,13.759,0,0,1-5.83,1.459c-4.38,0-6.57-1.459-6.57-5.105,0-8.02,10.21-10.937,13.86-10.937s5.83,1.458,5.83,5.1S2538.96,183.823,2533.86,186.739Zm-19.69.729c2.92,0,5.11,2.917,5.11,6.563a10.441,10.441,0,0,1-2.92,7.292,38.263,38.263,0,0,0-8.02,24.062c0,6.564-4.38,11.668-8.02,11.668-4.38,0-6.56-3.646-6.56-11.666v0a48.664,48.664,0,0,1,13.12-33.541c2.19-2.917,5.11-4.376,7.29-4.376m53.23,308.44c0-43.021,27.71-115.209,60.52-179.376,2.92-5.1,5.84-8.021,9.48-8.021s5.84,2.188,5.84,6.563a17.641,17.641,0,0,1-2.92,9.479c-32.08,55.417-58.33,129.792-58.33,171.355,0,8.75-2.92,14.584-8.03,14.584q-2.175,0-4.37-4.375C2568.13,503.929,2567.4,500.283,2567.4,495.908Zm29.17,53.23a42.224,42.224,0,0,1-20.42-14.584,14.545,14.545,0,0,1-1.46-6.562c0-5.105,3.65-8.021,6.57-8.021s5.1,1.458,5.83,3.646c2.92,5.1,8.02,9.479,16.04,12.4a4.858,4.858,0,0,1,3.65,5.1c0,5.1-4.38,8.75-8.02,8.75Z"/>
  <path id="Adventour" class="cls-2" d="M2794.17,380.7c-41.56,111.563-90.41,185.939-172.08,185.939-41.56,0-71.46-24.063-71.46-65.626,0-53.229,37.19-149.48,80.21-226.043-26.25,10.938-61.25,21.146-75.1,24.063-4.38,10.937-10.94,26.25-18.96,44.479q-3.465,7.861-8.15,18.079c-0.19.533-.39,1.071-0.6,1.609-1.46,4.375-4.38,10.208-8.02,17.5q-3.75,8.075-7.52,15.988-6.315,13.782-13.63,29.95l-7.29,15.312c-2.73,6.486-5.94,11.373-9.63,14.737-41.39,74.972-85.96,127.452-139.85,127.452-32.08,0-50.31-22.6-50.31-61.251V520.7c-29.17,28.438-54.69,43.75-97.71,43.75-37.92,0-67.08-16.771-67.08-48.125,0-39.747,10.13-76.733,27.61-118.724a121.348,121.348,0,0,1-18.13,1.327c-3.65,0-9.48-.729-17.5-1.458-26.98,66.355-57.61,113.751-91.88,141.459-22.6,18.23-45.93,27.709-70,27.709-40.83,0-72.17-27.914-79.37-73.973-34.52,45.883-76.65,73.973-125.52,73.973-49.21,0-76.57-21.28-82.08-64.345-35.12,49.493-74.85,81.845-114.06,81.845-32.09,0-50.32-22.6-50.32-61.251,0-32.812,22.61-77.292,62.71-144.376l21.15-37.187c2.18-3.646,3.64-7.292,3.64-10.938q0-4.376-4.37-4.375c-6.56,0-15.31,6.563-26.98,20.417-37.19,45.938-76.56,104.271-118.86,176.459a109.625,109.625,0,0,0-8.74,14.584c-5.84,8.75-10.21,18.229-24.8,24.063a51.846,51.846,0,0,1-23.33,5.1c-24.06,0-36.46-11.667-36.46-35.73,0-1.951.15-4.272,0.42-6.92a142.473,142.473,0,0,1-33.96,25.15q-32.805,17.5-83.12,17.5c-43.75,0-83.13-17.5-105-49.584-10.94-16.042-16.77-35-16.77-56.875,0-67.813,37.91-149.48,94.06-199.064,27.71-24.792,56.87-37.188,88.23-37.188,52.5,0,80.94,25.521,80.94,63.438,0,72.917-80.21,148.751-179.38,191.772,8.02,25.521,30.63,40.1,54.69,40.1,51.04,0,94.79-43.022,131.98-128.335a146.841,146.841,0,0,1,6.5-13.614c11.52-35.366,23.86-69.092,34.33-92.116l10.21-22.6c12.39-29.9,18.96-42.292,32.81-51.042,6.56-3.646,16.04-5.833,26.98-5.833,19.69,0,35.73,9.479,35.73,24.792,0,2.916,0,5.1-.73,7.291-32.81,72.188-49.59,118.126-66.36,176.46C1524.7,315.8,1594.7,230.49,1640.64,230.49c15.31,0,25.52,11.666,25.52,29.166,0,25.521-15.31,57.605-45.21,112.293-32.81,60.521-50.31,97.709-50.31,129.063,0,7.292.73,12.4,2.92,15.313,1.45,2.917,3.64,4.375,7.29,4.375,26.25,0,50.31-27.709,68.54-60.521,9.48-16.771,20.42-38.646,34.27-66.355,3.24-7.872,8.84-20.74,14.73-31.887q3.375-8.683,7.14-17.7l13.13-32.083-11.67,2.187c-2.19.73-4.37,0.73-8.02,0.73-13.85,0-23.33-7.292-23.33-21.146,0-21.146,26.98-21.876,62.71-28.438,8.02-18.959,24.06-48.125,46.66-87.5,9.48-16.771,29.17-25.521,47.4-25.521,19.69,0,35,9.479,35,24.063,0,5.1-2.19,10.937-5.84,16.042-15.31,25.521-26.25,45.208-33.54,59.063,13.86-.73,23.34-1.459,29.17-1.459,18.23,0,28.44,8.021,28.44,20.417s-9.48,21.146-21.88,21.146a500.522,500.522,0,0,0-56.87,5.833l-18.23,43.751-8.02,20.417q-28.44,72.188-28.44,113.75,0,39.377,28.44,39.376c15.31,0,32.08-10.209,50.31-31.355s39.34-57.554,63.39-109.266c15.61-42.939,40.59-83.258,72.23-112.4,27.71-25.521,58.34-37.917,91.15-37.917,26.25,0,49.58,9.479,61.98,26.979q17.49,24.063,17.5,65.626a197.977,197.977,0,0,1-4.38,40.1c18.03,2,35.71-4.592,49.04-18.366q3.465-7.1,7.11-14.446,17.49-31.719,21.87-45.938c2.19-5.1,3.65-13.125,5.84-24.063,5.83-28.438,10.2-39.375,36.45-39.375,29.17,0,41.57,16.771,41.57,43.021,0,21.146-7.3,40.1-28.44,81.667-32.81,69.272-52.5,111.563-57.61,156.043-0.72,3.646-.72,8.021-0.72,13.125,0,8.75,1.45,11.667,6.56,11.667,4.37,0,10.94-2.917,19.68-8.021,25.53-13.854,53.96-43.75,85.32-91.147,23.33-55.417,59.06-121.771,87.5-167.709,0.73-.729,1.46-2.917,3.64-6.563,3.65-8.021,12.4-13.854,23.34-13.854,11.66,0,18.23,7.292,18.23,18.959a28.352,28.352,0,0,1-5.11,16.771c-41.56,70-90.41,180.834-90.41,232.605,0,7.292.72,12.4,2.91,15.313,1.46,2.917,3.65,4.375,7.29,4.375,25.52,0,49.59-27.709,67.82-59.792,8.75-16.042,20.41-38.646,34.27-67.084l2.21-4.676c10.29-23.405,21.08-50.215,32.78-80.637l8.03-18.958c-22.61-17.5-34.28-36.459-34.28-57.6,0-26.979,13.86-50.313,32.09-62.709,9.48-5.833,18.23-8.75,27.71-8.75,21.14,0,37.18,16.771,37.18,51.042,0,10.209-2.18,23.334-5.83,40.1,3.65-.73,11.67-3.646,24.06-8.021,43.02-14.584,67.09-21.875,87.5-21.875,24.07,0,37.92,16.77,37.92,36.458,0,6.563-2.92,16.771-8.02,29.9s-13.13,30.625-24.06,51.771c-35,72.188-56.15,122.5-56.15,161.147,0,7.292.73,12.4,2.92,15.313,1.46,2.917,3.64,4.375,7.29,4.375,29.89,0,58.33-36.459,76.56-72.917,9.48-18.23,21.88-45.209,38.65-80.938,6.56-14.584,13.85-26.25,30.62-26.25h0.73c9.48,0,13.85,4.375,13.85,13.125C2800.73,360.282,2798.55,369.761,2794.17,380.7ZM1230.85,262.573c-2.92,0-5.83,1.458-9.48,4.375a266.408,266.408,0,0,0-21.87,19.688,8.9,8.9,0,0,0-2.92,6.562,6.537,6.537,0,0,0,6.56,6.563,8.251,8.251,0,0,0,5.83-2.188c8.75-8.75,15.32-14.583,19.69-18.229s6.56-8.021,6.56-11.667S1233.77,262.573,1230.85,262.573Zm25.52-16.771-5.83,1.459c-5.11,2.187-7.29,5.1-7.29,9.479,0,3.646,4.37,7.291,10.2,5.1s10.21-6.563,10.21-10.208C1263.66,248.719,1260.02,245.8,1256.37,245.8Zm66.35,49.584c0-10.938-8.75-17.5-21.14-17.5-15.31,0-35,9.479-50.31,29.167-24.07,32.812-46.67,81.667-55.42,122.5C1265.12,393.824,1322.72,342.053,1322.72,295.386ZM1185.64,529.45c-5.83-2.917-12.39-8.021-18.96-14.583-2.91-2.917-5.83-4.375-9.48-4.375s-5.1,1.458-5.1,5.1c0,2.916,1.46,5.833,3.65,8.75,5.1,8.021,13.12,13.854,24.06,18.229l5.83,1.458c4.38,0,6.56-2.187,6.56-5.833S1190.02,531.638,1185.64,529.45Zm27.71,9.479h-2.19c-5.83,0-9.48,2.917-9.48,8.021,0,3.646,2.92,5.834,8.02,6.563h2.92c5.83,0,9.48-3.646,9.48-7.292C1222.1,543.3,1219.18,539.658,1213.35,538.929Zm269.06-297.5c3.65-3.646,5.1-6.562,5.1-9.479a5.745,5.745,0,0,0-5.83-5.833c-5.1,0-12.39,4.375-12.39,10.208S1477.31,246.531,1482.41,241.427Zm-13.85,19.688a8.313,8.313,0,0,0,2.18-5.834c0-3.645-2.91-7.291-6.56-7.291s-6.56,2.187-8.75,5.833l-13.12,26.25a19.4,19.4,0,0,0-2.19,8.75c0,4.375,1.46,6.563,5.1,6.563s7.29-2.917,9.48-8.75A148.167,148.167,0,0,1,1468.56,261.115Zm169.16,2.188c5.11-.729,8.75-5.833,8.75-9.479s-2.92-5.1-8.75-5.105c-13.85,0-31.35,10.937-52.5,32.083-2.19,2.188-3.64,5.1-3.64,7.292,0,3.646,2.18,5.834,6.56,5.834,2.92,0,5.1-1.459,7.29-4.375C1607.83,274.969,1625.33,265.49,1637.72,263.3Zm-59.79,288.751a19.331,19.331,0,0,0-9.48-.729c-2.19.729-4.37,0.729-8.02,0.729-15.31,0-21.87-8.75-19.69-29.167v-1.458c0-5.833-2.91-10.208-5.83-10.208-5.1,0-8.75,6.562-8.75,17.5,0,25.521,10.21,38.646,30.62,38.646,2.19,0,5.84-.729,11.67-1.458,8.02-.73,12.4-5.834,12.4-9.48C1580.85,554.971,1580.12,553.513,1577.93,552.054ZM1771.89,247.99c3.64,0,7.29-2.917,10.21-8.021l26.97-46.667a11.753,11.753,0,0,0,2.19-6.563c0-5.1-2.19-7.291-7.29-7.291q-5.475,0-8.75,6.562c-2.19,3.646-5.83,10.938-12.4,21.875a235.138,235.138,0,0,0-15.31,29.9c-0.73.729-.73,2.188-0.73,4.375C1766.78,245.8,1768.24,247.99,1771.89,247.99Zm-18.96,289.481c-26.98-1.458-44.48-13.125-51.77-35-2.19-6.563-5.11-10.209-8.75-10.209-2.92,0-5.84,3.646-5.84,8.75a28.523,28.523,0,0,0,2.19,9.48c9.48,26.25,31.36,40.1,64.17,41.562h0c8.02,0,12.39-3.646,12.39-7.291S1760.95,537.471,1752.93,537.471Zm156.04-40.834c-0.73-5.1-5.11-8.021-8.02-8.021q-6.57,0-6.56,8.75a25.132,25.132,0,0,0,2.18,8.751c9.48,28.437,31.36,45.937,60.52,46.667h1.46c6.56,0,9.48-2.188,9.48-5.834q0-7.656-10.94-8.75C1933.03,537.471,1915.53,522.158,1908.97,496.637Zm107.92-253.022c-18.96,7.291-35,18.958-48.86,35a8.9,8.9,0,0,0-2.92,6.562,6.539,6.539,0,0,0,6.57,6.563c2.18,0,4.37-1.458,6.56-3.646,12.4-13.854,26.25-24.792,42.29-31.354,5.11-2.188,7.29-5.1,7.29-8.75C2027.82,242.886,2023.45,240.7,2016.89,243.615Zm14.58,46.667c-35,40.833-78.02,121.771-78.02,179.376,0,14.583,2.19,26.25,5.83,35.729s8.75,13.855,13.86,13.855c29.89,0,75.1-59.063,105-137.814C2051.89,363.2,2033.66,325.282,2031.47,290.282Zm18.23-56.147c-6.56,0-10.94,4.375-10.94,8.021s3.65,7.292,9.48,6.563,9.48-5.1,9.48-8.021C2057.72,236.323,2054.8,234.135,2049.7,234.135ZM2087.61,345.7c-14.58-12.4-24.79-35-25.52-53.23-0.73-6.562-4.37-11.667-8.02-11.667s-5.83,3.646-5.83,10.938c0.73,24.063,12.4,51.771,30.62,66.355,2.92,2.916,5.84,4.375,8.03,4.375,3.64,0,5.83-2.188,5.83-7.292C2092.72,351.532,2091.26,348.615,2087.61,345.7Zm142.19-51.771c3.65,0,7.29-2.917,9.48-8.021,5.83-13.855,9.48-25.521,10.21-36.459v-2.187c0-5.834-3.65-10.209-7.29-10.209-2.92,0-6.57,3.646-7.3,9.479a182.432,182.432,0,0,1-9.47,35c-0.73,1.458-.73,2.916-0.73,5.1C2224.7,291.74,2226.15,293.928,2229.8,293.928ZM2346.47,555.7c-15.32.729-24.79-10.937-22.61-31.354v-2.188c0-5.833-2.91-8.75-5.83-8.75-5.1,0-8.75,6.563-8.75,15.313,0,25.521,13.12,41.563,35.73,41.563,5.83,0,8.75-3.646,8.75-7.292A7.845,7.845,0,0,0,2346.47,555.7Zm167.7-368.232c-2.18,0-5.1,1.459-7.29,4.376a48.664,48.664,0,0,0-13.12,33.541v0c0,8.02,2.18,11.666,6.56,11.666,3.64,0,8.02-5.1,8.02-11.668a38.263,38.263,0,0,1,8.02-24.062,10.441,10.441,0,0,0,2.92-7.292C2519.28,190.385,2517.09,187.468,2514.17,187.468Zm21.15-15.312c-3.65,0-13.86,2.917-13.86,10.937,0,3.646,2.19,5.105,6.57,5.105a13.759,13.759,0,0,0,5.83-1.459c5.1-2.916,7.29-5.833,7.29-9.479S2538.96,172.156,2535.32,172.156Zm40.83,362.4a42.224,42.224,0,0,0,20.42,14.584l2.19,0.729c3.64,0,8.02-3.646,8.02-8.75a4.858,4.858,0,0,0-3.65-5.1c-8.02-2.917-13.12-7.292-16.04-12.4-0.73-2.188-2.92-3.646-5.83-3.646s-6.57,2.916-6.57,8.021A14.545,14.545,0,0,0,2576.15,534.554Zm64.17-210a17.641,17.641,0,0,0,2.92-9.479c0-4.375-2.19-6.563-5.84-6.563s-6.56,2.917-9.48,8.021c-32.81,64.167-60.52,136.355-60.52,179.376,0,4.375.73,8.021,2.19,10.209q2.19,4.374,4.37,4.375c5.11,0,8.03-5.834,8.03-14.584C2581.99,454.345,2608.24,379.97,2640.32,324.553ZM847.31,564.45c-27.52,0-48.883-9.612-58.535-28.26-24.581,29.212-50.665,44.3-81.463,44.3-41.562,0-61.249-29.9-61.249-75.834a153.169,153.169,0,0,1,4.374-35c-34.27,39.375-61.979,66.355-84.583,80.209C550.542,559.346,534.5,564.45,517,564.45c-27.344,0-49.115-15.194-55.612-42.2-24.651,27.173-51.111,40.014-80.739,40.014-29.895,0-45.208-18.959-50.312-59.792-0.729-5.105-.729-10.938-0.729-18.959,0-41.563,27.708-121.042,69.271-214.376l-70.73,7.291a12.9,12.9,0,0,1-3.645,5.834l-13.125,18.958c-5.105,7.292-10.209,15.313-16.771,24.063C219.5,436.116,183.045,487.158,140.025,522.158c-21.875,18.23-43.021,26.98-64.167,26.98-25.521,0-44.479-4.375-62.708-22.605-3.646-3.646-5.833-8.021-5.833-12.4,0-8.75,8.75-16.041,20.417-16.041,3.646,0,9.479,1.458,16.042,5.1,10.938,3.646,18.229,5.833,21.875,5.833,28.437,0,59.062-37.917,88.229-89.688,13.854-25.521,32.812-61.98,56.875-107.917l10.208-20.417c-40.1,7.292-71.458,15.312-93.333,23.333C78.045,335.49,62,351.532,40.858,404.762c-3.646,10.208-10.937,15.312-21.146,15.312-9.479,0-18.958-8.021-18.958-18.958a25.737,25.737,0,0,1,2.188-10.209c22.6-61.979,48.854-89.688,105-113.75,28.438-12.4,74.375-24.063,137.813-33.542C324.5,92.676,395.233.071,477.629,0.071c41.562,0,72.916,16.771,72.916,48.854,0,14.584-14.583,48.125-35.729,83.855-19.688,34.271-37.917,67.083-53.229,99.167a17.883,17.883,0,0,1,4.375,11.667c0,8.75-7.292,16.771-19.688,20.416-42.291,92.605-66.354,165.522-72.916,220.21a12.43,12.43,0,0,0,0,7.292v8.75c0.729,8.75,1.458,14.584,2.916,16.771s3.646,3.646,7.292,3.646c29.9,0,58.333-36.459,76.563-72.917,6.875-13.222,15.286-31.05,25.786-53.478Q498.457,362,517,323.824c26.979-56.147,80.938-96.251,131.25-96.251,35,0,64.9,19.688,80.208,48.854l6.563-13.125c29.9-61.979,45.208-113.021,45.208-153.855a133.226,133.226,0,0,0-2.187-25.521c-2.188-7.292-2.917-11.667-2.917-13.854,0-21.146,15.312-32.813,33.542-32.813,19.687,0,40.1,11.667,45.208,28.438a97.132,97.132,0,0,1,3.646,24.792c0,48.854-29.9,107.917-81.667,197.605-40.833,72.188-52.5,96.251-66.354,142.918-6.563,24.063-10.208,43.75-10.208,59.792,0,19.688,5.833,29.9,17.5,29.9,29.166,0,50.312-21.875,71.458-60.521q9.431-18.189,24.673-49.659,3.822-8.776,8.137-18.154l11.667-25.521c28.437-61.98,38.646-87.5,38.646-117.4,0-26.979,16.77-41.563,37.187-41.563,19.687,0,37.187,13.125,40.833,34.271,0.729,2.917.729,7.292,0.729,13.125,0,35.73-17.5,79.48-43.749,131.251-25.521,51.772-40.834,85.313-40.834,107.918,0,13.854,6.563,21.146,20.417,21.146,43.021,0,107.916-82.4,151.664-172.814,21.15-44.479,32.09-78.751,32.09-102.084,0-2.917-.73-8.021-1.46-14.583-1.46-6.563-2.19-10.938-2.19-14.584,0-9.479,3.65-16.042,11.67-19.687a28.5,28.5,0,0,1,9.48-2.188q13.125,0,19.68,19.688c4.38,13.854,6.57,30.625,6.57,51.042,0,111.563-56.88,209.272-138.546,263.231C933.352,550.6,891.06,564.45,847.31,564.45ZM417.108,38.717q-4.376,0-13.125,6.563c-41.563,32.813-78.75,91.146-122.5,170.626a19.006,19.006,0,0,0-2.188,8.021c0,2.917,1.459,4.375,5.1,4.375s8.75-2.917,10.938-6.562C348.566,129.135,374.087,86.114,412,56.947c6.562-5.1,9.479-9.479,9.479-13.854Q421.483,38.717,417.108,38.717Zm28.437-16.042a26.484,26.484,0,0,0-8.021,2.188c-3.645,2.188-5.833,4.375-5.833,7.292,0,5.1,5.833,8.021,11.667,5.1,5.1-2.187,8.021-5.833,8.021-9.479S449.191,22.676,445.545,22.676Zm34.271,87.5c12.4-20.416,21.875-44.479,21.875-56.146,0-3.646-.729-5.833-2.917-5.833-13.854,0-31.354,16.042-53.958,47.4-22.6,32.083-51.771,77.292-87.5,134.9,10.938-.73,24.792-1.459,41.563-3.646,5.1,0,11.666-.729,20.416-1.459C439.712,183.823,460.129,145.906,479.816,110.176Zm43.017,424.378c-15.312,0-28.437-8.021-35-20.417-0.729-2.187-2.916-3.645-5.833-3.645-3.646,0-6.562,3.645-6.562,7.291a14.072,14.072,0,0,0,2.187,7.292c9.479,14.583,25.521,24.063,45.208,24.063,6.563,0,10.938-3.646,10.938-6.563C533.771,538.929,528.667,534.554,522.833,534.554ZM793.354,170.7c4.375,0,7.292-3.646,8.75-10.209,5.1-20.417,7.292-35.729,7.292-45.938,0-9.479-1.459-19.687-3.646-30.625-0.729-6.563-5.833-10.938-9.479-10.938s-5.834,2.188-5.834,7.292c0,2.917.73,7.292,2.188,13.854a97.215,97.215,0,0,1,2.187,20.417q0,17.5-6.562,41.563c-0.729,1.458-.729,3.646-0.729,5.833C787.521,167.781,790.437,170.7,793.354,170.7Zm-21.146,63.437c3.646,0,6.563-3.645,9.479-10.937a207.459,207.459,0,0,0,9.48-25.521c0.729-1.458.729-2.917,0.729-5.1,0-3.646-2.917-7.292-5.834-7.292s-7.291,2.917-8.02,8.021l-8.75,25.521a22.486,22.486,0,0,0-1.459,8.021C767.833,230.49,770.021,234.135,772.208,234.135ZM549.813,543.3c8.02,0,10.937-4.375,10.937-8.021s-3.646-6.562-7.292-6.562c-5.833,0-10.208,3.646-10.208,8.75C543.25,541.117,545.438,543.3,549.813,543.3Zm43.75-282.918c-3.646,0-7.292,1.458-10.938,5.1-6.562,5.1-11.667,9.479-16.042,14.583-3.645,3.646-5.1,6.563-5.1,9.48a5.752,5.752,0,0,0,5.834,5.833c3.645,0,6.562-1.458,9.479-4.375a174.686,174.686,0,0,1,16.77-15.312,11.377,11.377,0,0,0,5.833-9.479C599.4,262.574,597.208,260.387,593.563,260.386Zm35-19.688c-6.563,2.188-12.4,4.375-16.042,6.563s-5.1,4.375-5.1,6.562c0,5.833,7.291,9.479,13.125,5.833l12.4-5.1c5.1-1.458,7.291-4.375,7.291-8.021C640.229,241.427,636.583,238.51,628.563,240.7Zm48.854,37.188a25.688,25.688,0,0,0-15.313-5.1c-41.562,0-83.854,88.959-107.187,161.147a83.913,83.913,0,0,0-5.1,28.437c0,14.584,5.833,23.334,15.312,23.334,8.021,0,17.5-5.834,29.9-18.23,31.354-32.083,53.958-61.25,95.521-116.667q8.75-12.032,8.75-28.438C699.292,304.865,691.271,286.636,677.417,277.886Zm34.27,273.439c-18.229-1.458-29.166-10.937-33.541-27.708-2.188-6.563-5.1-10.209-8.75-10.209s-7.292,5.834-5.1,14.584c5.833,24.062,24.062,37.917,47.395,37.917h0c8.02,0,12.395-2.188,12.395-6.563C724.082,555.7,719.707,552.054,711.687,551.325Zm176.456-257.4a9.956,9.956,0,0,0,9.48-8.751q6.563-24.062,6.562-37.187c0-6.563-2.917-11.667-8.021-11.667-2.917,0-6.562,3.646-6.562,10.208,0,2.917,0,23.334-5.834,35.73l-1.458,5.1C882.31,291.74,884.5,293.928,888.143,293.928ZM1077,365.386c3.64,0,5.83-2.916,7.29-8.021,2.92-9.479,5.1-16.77,5.83-21.875,0.73-2.187.73-4.375,0.73-7.291q0-10.938-6.56-10.938c-2.92,0-7.29,3.646-8.02,11.667a170.773,170.773,0,0,1-5.84,21.146c-0.72,1.458-.72,2.916-0.72,5.1C1069.71,361.011,1073.35,365.386,1077,365.386Zm-7.29,21.876q0-6.562-4.38-6.563c-3.65,0-7.29,3.646-11.67,11.667-25.52,48.854-63.433,88.959-107.913,113.021-6.562,3.646-10.208,8.021-10.208,12.4,0,3.646,2.188,5.1,5.833,5.1,2.188,0,5.105-1.458,10.209-3.645,47.4-26.251,88.229-68.543,114.479-118.855C1068.25,396.012,1069.71,391.637,1069.71,387.262Z"/>
</svg>
