<svg id="rope" xmlns="http://www.w3.org/2000/svg" width="1920" height="4749" viewBox="0 0 1920 4749">
  <defs>
    <style>
      .cls-1 {
        fill: #caa583;
      }

      .cls-2 {
        fill: #cfc1e0;
        mix-blend-mode: multiply;
      }

      .cls-10, .cls-2, .cls-4, .cls-5, .cls-6, .cls-7, .cls-8, .cls-9 {
        fill-rule: evenodd;
      }

      .cls-3, .cls-5 {
        fill: #0e315c;
      }

      .cls-4 {
        fill: #fff;
      }

      .cls-6 {
        fill: #ff4b47;
      }

      .cls-7 {
        fill: #ffa44f;
      }

      .cls-8 {
        fill: #1d66c0;
      }

      .cls-10, .cls-9 {
        fill: none;
        stroke: #baf3ff;
        stroke-linecap: round;
        stroke-width: 35px;
      }

      .cls-9 {
        stroke-linejoin: round;
      }

      .cls-11 {
        fill: #baf3ff;
      }
    </style>
  </defs>
  <rect id="main_rope" data-name="main rope" class="cls-1" x="920" y="2365" width="80" height="944"/>
  <path id="shade_rope" data-name="shade rope" class="cls-2" d="M920,3295.82v-24.64l2.322-1.34,22.61,39.16H927.611Zm80-41.44v30h0V3309H985v-50.6l-65-112.58v-24.64l2.322-1.34L985,3228.4v-120l-65-112.58v-24.64l2.322-1.34L985,3078.4v-120l-65-112.58v-24.64l2.322-1.34L985,2928.4v-120l-65-112.58v-24.64l2.322-1.34L985,2778.4v-120l-65-112.58V2365h80v289.38h0v30h0v120h0v30h0v120h0v30h0v120h0v30h0v120h0ZM985,2535H931.075L985,2628.4V2535Z"/>
  <rect id="blue_ticket" data-name="blue ticket" class="cls-3" y="3308.72" width="1920" height="1440"/>
  <path id="white_ticket" data-name="white ticket" class="cls-4" d="M151,3408.72H1771a47.955,47.955,0,0,0,50,50v1140a49.5,49.5,0,0,0-50,50H151a47.781,47.781,0,0,0-50-50v-1140A46.472,46.472,0,0,0,151,3408.72Z"/>
  <path id="strings" class="cls-5" d="M444.392,1251l-69.018,29.31,424.375,999.67,69.018-29.31Zm1030.188,0,69.02,29.31-424.38,999.67-69.02-29.31Zm-552.587,0h74.983V2351H921.993V1251Z"/>
  <path id="strings_shade" data-name="strings shade" class="cls-2" d="M1543.6,1280.31l-424.38,999.67-69.02-29.31L1474.58,1251Zm-546.624,453.9v385.53q-38.2-28.5-74.983-58.62V1812.48Q960.006,1773.855,996.976,1734.21ZM577.511,1564.58L698.04,1848.5q-44.787-49.3-86.476-101.5-46.8-58.635-89.141-120.29l-137.19-323.17A2281.1,2281.1,0,0,0,577.511,1564.58Z"/>
  <path id="red_pin" data-name="red pin" class="cls-6" d="M210.656,783s-7.687,203.289,178.959,531c236.088,414.52,569.869,719,569.869,719H959.5s333.78-304.48,569.87-719c186.64-327.711,178.96-531,178.96-531C1725.99,358.494,1381.32,0,959.484,0S193,358.5,210.656,783Z"/>
  <path id="orange_A" data-name="orange A" class="cls-7" d="M1529.37,1314c-92.25,161.97-199.41,307.13-295.75,423.9-10.33-51.03-21.6-101.1-34.19-151.9-18.46-74.48-38.85-146.83-61.99-220H781.525c-23.14,73.17-43.524,145.52-61.986,220-12.592,50.8-23.858,100.86-34.188,151.89C589.016,1621.12,481.859,1475.96,389.615,1314c-73.833-129.63-117.251-239.79-142.77-325.6Q330.863,781.26,431.605,581A5526.648,5526.648,0,0,1,749.493,30.522a737.683,737.683,0,0,1,419.977-.006A5525.138,5525.138,0,0,1,1487.36,581q100.74,200.181,184.77,407.416C1646.61,1074.23,1603.2,1184.38,1529.37,1314Z"/>
  <path id="shade_balloon" data-name="shade balloon" class="cls-2" d="M1611.06,382.942c67.08,117.9,103.3,255.13,97.27,400.058,0,0,7.68,203.289-178.96,531-236.09,414.52-569.87,719-569.87,719h-0.016S625.7,1728.52,389.615,1314q-9.156-16.08-17.691-31.75A2277.711,2277.711,0,0,0,877.5,1857C1320.68,1420.14,1678.68,873.584,1611.06,382.942Z"/>
  <path id="blue_basket" data-name="blue basket" class="cls-8" d="M1124.45,2287.17V2417a74.993,74.993,0,0,1-74.99,75H869.505a74.992,74.992,0,0,1-74.983-75V2287.17a40.008,40.008,0,0,1,12-78.17H1112.45A40.009,40.009,0,0,1,1124.45,2287.17Z"/>
  <path id="shade_basket" data-name="shade basket" class="cls-2" d="M1049.46,2209h62.99a40.009,40.009,0,0,1,12,78.17V2417a74.993,74.993,0,0,1-74.99,75H905.023a325.281,325.281,0,0,0,39.465-42c53.575-68.31,75.962-153.61,73.712-241h31.26Z"/>
  <path id="white_circle" data-name="white circle" class="cls-4" d="M959.484,499.831C1097.62,499.831,1209.6,611.836,1209.6,750s-111.98,250.17-250.116,250.17S709.373,888.164,709.373,750,821.352,499.831,959.484,499.831Z"/>
  <path id="light_1" data-name="light 1" class="cls-9" d="M474.6,290a650.337,650.337,0,0,0-177.96,391"/>
  <path id="light_2" data-name="light 2" class="cls-9" d="M876.5,1828a558.608,558.608,0,0,0,41.991,40c13.188,11.32,26.806,21.95,40.99,32,51.706-50.75,100.956-101.65,149.966-155,59.1-64.33,114.98-129.1,169.96-197"/>
  <path id="light_3" data-name="light 3" class="cls-9" d="M1364.39,223a698.565,698.565,0,0,1,151.97,165"/>
  <path id="light_4" data-name="light 4" class="cls-10" d="M854.508,2321c0,115.44-8.763,105,96.978,105"/>
  <circle class="cls-11" cx="515.594" cy="246.5" r="17.5"/>
  <circle class="cls-11" cx="835.312" cy="1785.78" r="17.5"/>
  <circle class="cls-11" cx="1548.86" cy="438.5" r="17.48"/>
  <circle class="cls-11" cx="1003.735" cy="2423.25" r="17.485"/>
</svg>
