<?xml version="1.0" encoding="utf-8"?>
<!-- Generator: Adobe Illustrator 25.2.1, SVG Export Plug-In . SVG Version: 6.00 Build 0)  -->
<svg version="1.1" id="Layer_1" xmlns="http://www.w3.org/2000/svg" xmlns:xlink="http://www.w3.org/1999/xlink" x="0px" y="0px"
	 viewBox="0 0 40 40" style="enable-background:new 0 0 40 40;" xml:space="preserve">
<style type="text/css">
	.st0{fill-rule:evenodd;clip-rule:evenodd;fill:#FF4B47;}
	.st1{fill:#FFFFFF;}
</style>
<path class="st0" d="M21.6,34.8c3.5-2.4,11.7-8.7,11.7-16.5C33.3,11,27.4,5,20,5S6.7,11,6.7,18.3c0,7.8,8.2,14.2,11.7,16.5
	C19.4,35.5,20.6,35.5,21.6,34.8z M20,12.9c-3,0-5.4,2.4-5.4,5.4s2.4,5.4,5.4,5.4s5.4-2.4,5.4-5.4S23,12.9,20,12.9z"/>
<g>
	<path class="st1" d="M25,18.3c0,2.8-2.2,5-5,5s-5-2.2-5-5c0-2.8,2.2-5,5-5S25,15.6,25,18.3z"/>
	<path class="st1" d="M20,24.3c-3.3,0-6-2.7-6-6c0-3.3,2.7-6,6-6s6,2.7,6,6C26,21.6,23.3,24.3,20,24.3z M20,14.3c-2.2,0-4,1.8-4,4
		s1.8,4,4,4c2.2,0,4-1.8,4-4S22.2,14.3,20,14.3z"/>
</g>
</svg>
