<svg xmlns="http://www.w3.org/2000/svg" width="1080" height="1080" viewBox="0 0 1080 1080">
  <defs>
    <style>
      .cls-1 {
        fill: #baf3ff;
      }

      .cls-1, .cls-3, .cls-4, .cls-5 {
        fill-rule: evenodd;
      }

      .cls-2, .cls-5 {
        fill: #0e315c;
      }

      .cls-3 {
        fill: #fea34f;
      }

      .cls-4 {
        fill: #1d66c0;
      }
    </style>
  </defs>
  <path id="BG" class="cls-1" d="M0,1080V0H1080V1080H0Z"/>
  <rect id="corner" class="cls-2" x="858" y="896" width="223" height="184"/>
  <path id="ears" class="cls-3" d="M219,897c-33.271,7.822-54.609,41.22-62,67-17.8,62.09,28.688,132.69,90,158,54.268,22.4,129.65,13.43,148-24C425.784,1035.21,303.664,877.1,219,897ZM963.022,350.183c7.826-33.313,41.238-54.678,67.038-62.079,62.12-17.826,132.75,28.725,158.08,90.114,22.42,54.337,13.43,129.814-24.01,148.188C1101.31,557.229,943.108,434.954,963.022,350.183Z"/>
  <path id="head" class="cls-4" d="M380,1106C185.986,978.986,141.651,761.815,160,627a429.614,429.614,0,0,1,19.291-81.309C201.813,480.252,239.821,422.488,291,369a286.873,286.873,0,0,0,18-65c8.362-54.807-5.122-107.668,0-109,4.279-1.112,17.417,29.538,26,62a334.62,334.62,0,0,1,8,40,301.27,301.27,0,0,1,46-72c24.2-28,51.541-49.392,57-45,4.134,3.326-8.091,23.155-8,44a83.964,83.964,0,0,0,5.21,28.43C537.369,200.733,645.357,180.786,751,199c171.752,29.612,282.86,149.025,338,247,71.15,126.406,83.67,276.854,38,414-43.95,107-118.8,197.26-218,255C773.308,1193.97,563.892,1226.39,380,1106Z"/>
  <path id="face" class="cls-3" d="M484,445c-83.933,27.646-157.55,81.874-196,161-71.915,147.993,10.585,316.691,105,403,137.721,125.9,361.934,133.42,516,19,127.28-94.529,192.57-262.135,155-419-40.67-169.823-203.455-333.736-374-308C604.944,313.835,534.079,371.476,484,445Z"/>
  <path id="left_eye" data-name="left eye" class="cls-5" d="M549.99,672.314c31.678,45.24,29.852,101.175-4.079,124.933s-87.116,6.344-118.794-38.9S397.266,657.175,431.2,633.417,518.312,627.073,549.99,672.314Z"/>
  <path id="right_eye" data-name="right eye" class="cls-5" d="M793.857,495.875c31.678,45.241,29.851,101.175-4.079,124.934s-87.116,6.343-118.794-38.9-29.852-101.176,4.079-124.934S762.179,450.635,793.857,495.875Z"/>
  <path id="mouth" class="cls-5" d="M827.124,873.812c17.408,24.861,19.426,53.482,4.507,63.928s-41.123-1.239-58.531-26.1-19.426-53.482-4.507-63.928S809.716,848.951,827.124,873.812Z"/>
  <path id="nose" class="cls-5" d="M743,778c-2.121-7.9-1.949-15.851,1-23,4.132-10.017,13.186-17.28,15-16,1.387,0.979-1.777,7.443-7,19Q747.5,767.968,743,778Zm-31.364,23.112c-6.933-4.309-14.57-6.4-22.249-5.552-10.759,1.181-20.314,7.937-19.617,10.066,0.533,1.628,7.621.382,20.166-1.425Q700.757,802.643,711.636,801.112Z"/>
</svg>
